G04*
G04 #@! TF.GenerationSoftware,Altium Limited,Altium Designer,22.3.1 (43)*
G04*
G04 Layer_Color=8388736*
%FSLAX25Y25*%
%MOIN*%
G70*
G04*
G04 #@! TF.SameCoordinates,D668225F-02C3-4EAC-AD72-9857121BA27B*
G04*
G04*
G04 #@! TF.FilePolarity,Negative*
G04*
G01*
G75*
%ADD50R,0.29500X0.16500*%
%ADD51C,0.04800*%
%ADD52R,0.03950X0.03556*%
%ADD53R,0.03753X0.03162*%
%ADD54R,0.06312X0.09068*%
%ADD55R,0.03162X0.03320*%
G04:AMPARAMS|DCode=56|XSize=22.96mil|YSize=21.78mil|CornerRadius=4.62mil|HoleSize=0mil|Usage=FLASHONLY|Rotation=180.000|XOffset=0mil|YOffset=0mil|HoleType=Round|Shape=RoundedRectangle|*
%AMROUNDEDRECTD56*
21,1,0.02296,0.01254,0,0,180.0*
21,1,0.01372,0.02178,0,0,180.0*
1,1,0.00924,-0.00686,0.00627*
1,1,0.00924,0.00686,0.00627*
1,1,0.00924,0.00686,-0.00627*
1,1,0.00924,-0.00686,-0.00627*
%
%ADD56ROUNDEDRECTD56*%
%ADD57R,0.03320X0.03162*%
%ADD58R,0.01824X0.03910*%
%ADD59R,0.03910X0.01824*%
%ADD60R,0.04343X0.08674*%
%ADD61R,0.08674X0.04343*%
%ADD62R,0.06036X0.06036*%
%ADD63R,0.07493X0.04737*%
%ADD64R,0.03556X0.05918*%
%ADD65R,0.03162X0.03753*%
%ADD66R,0.04737X0.02572*%
%ADD67R,0.01706X0.01981*%
%ADD68R,0.03556X0.03950*%
%ADD69R,0.04776X0.04776*%
%ADD70R,0.07769X0.16824*%
%ADD71R,0.16824X0.07769*%
%ADD72R,0.05721X0.02769*%
%ADD73R,0.03556X0.03162*%
%ADD74R,0.04934X0.04737*%
%ADD75R,0.09461X0.04934*%
%ADD76C,0.11811*%
%ADD77C,0.01650*%
%ADD78R,0.03556X0.07887*%
G04:AMPARAMS|DCode=79|XSize=22.96mil|YSize=21.78mil|CornerRadius=4.62mil|HoleSize=0mil|Usage=FLASHONLY|Rotation=90.000|XOffset=0mil|YOffset=0mil|HoleType=Round|Shape=RoundedRectangle|*
%AMROUNDEDRECTD79*
21,1,0.02296,0.01254,0,0,90.0*
21,1,0.01372,0.02178,0,0,90.0*
1,1,0.00924,0.00627,0.00686*
1,1,0.00924,0.00627,-0.00686*
1,1,0.00924,-0.00627,-0.00686*
1,1,0.00924,-0.00627,0.00686*
%
%ADD79ROUNDEDRECTD79*%
%ADD80R,0.01981X0.01706*%
%ADD81R,0.07965X0.04186*%
%ADD82R,0.06312X0.05918*%
%ADD83R,0.05761X0.11509*%
%ADD84R,0.01784X0.01587*%
%ADD85R,0.03950X0.02965*%
%ADD86R,0.05524X0.01981*%
%ADD87O,0.07690X0.10642*%
%ADD88C,0.06706*%
%ADD89R,0.06706X0.06706*%
%ADD90C,0.03162*%
%ADD91R,0.06706X0.06706*%
D50*
X283250Y266250D02*
D03*
D51*
X151500Y159000D02*
D03*
X139500D02*
D03*
X295000Y226000D02*
D03*
X116500Y159000D02*
D03*
X141500Y241000D02*
D03*
X135500D02*
D03*
X110500Y159000D02*
D03*
X131000D02*
D03*
X162000Y182500D02*
D03*
X110500Y241000D02*
D03*
X95500D02*
D03*
X162000Y223000D02*
D03*
X147500Y241000D02*
D03*
X104500Y159000D02*
D03*
X145500D02*
D03*
X162000Y217000D02*
D03*
D52*
X144335Y150500D02*
D03*
X148665D02*
D03*
X287500Y236000D02*
D03*
X291831D02*
D03*
X349835Y162500D02*
D03*
X354165D02*
D03*
X349835Y152500D02*
D03*
X354165D02*
D03*
D53*
X95236Y154000D02*
D03*
X99764D02*
D03*
X243236Y126000D02*
D03*
X247764D02*
D03*
X236764D02*
D03*
X232236D02*
D03*
X192764Y154500D02*
D03*
X188236D02*
D03*
X130236Y148000D02*
D03*
X134764D02*
D03*
X125736Y153000D02*
D03*
X130264D02*
D03*
X119764D02*
D03*
X115236D02*
D03*
X197764Y163000D02*
D03*
X193236D02*
D03*
X254764Y157000D02*
D03*
X250236D02*
D03*
D54*
X202177Y261000D02*
D03*
X219500D02*
D03*
D55*
X193732Y250000D02*
D03*
X190268D02*
D03*
X221232Y224000D02*
D03*
X217768D02*
D03*
X192232Y150000D02*
D03*
X188768D02*
D03*
X394500Y165500D02*
D03*
X397965D02*
D03*
X181268Y163000D02*
D03*
X184732D02*
D03*
X89732Y159000D02*
D03*
X86268D02*
D03*
X89732Y154000D02*
D03*
X86268D02*
D03*
X95268Y159000D02*
D03*
X98732D02*
D03*
D56*
X217531Y230976D02*
D03*
X219500D02*
D03*
X221528Y232020D02*
D03*
Y233988D02*
D03*
Y235957D02*
D03*
X219500Y237000D02*
D03*
X217531D02*
D03*
X215504Y235957D02*
D03*
Y233988D02*
D03*
Y232020D02*
D03*
D57*
X202000Y234732D02*
D03*
Y231268D02*
D03*
X206500Y234732D02*
D03*
Y231268D02*
D03*
X211000Y234732D02*
D03*
Y231268D02*
D03*
X197500Y234732D02*
D03*
Y231268D02*
D03*
Y242732D02*
D03*
Y239268D02*
D03*
X171500Y244232D02*
D03*
Y240768D02*
D03*
X379500Y155768D02*
D03*
Y159232D02*
D03*
X140000Y146000D02*
D03*
Y142535D02*
D03*
X374000Y159232D02*
D03*
Y155768D02*
D03*
X385000Y159232D02*
D03*
Y155768D02*
D03*
X226500Y176768D02*
D03*
Y180232D02*
D03*
X263500Y236500D02*
D03*
Y239965D02*
D03*
X268299Y236514D02*
D03*
Y239979D02*
D03*
X273076Y236492D02*
D03*
Y239957D02*
D03*
X277853Y236514D02*
D03*
Y239979D02*
D03*
X282586Y236536D02*
D03*
Y240001D02*
D03*
X295500Y145768D02*
D03*
Y149232D02*
D03*
Y161732D02*
D03*
Y158268D02*
D03*
X283000Y157768D02*
D03*
Y161232D02*
D03*
D58*
X179579Y229244D02*
D03*
X181547D02*
D03*
X183516D02*
D03*
X185484D02*
D03*
X187453D02*
D03*
X189421D02*
D03*
Y244756D02*
D03*
X187453D02*
D03*
X185484D02*
D03*
X183516D02*
D03*
X181547D02*
D03*
X179579D02*
D03*
D59*
X192256Y232079D02*
D03*
Y234047D02*
D03*
Y236016D02*
D03*
Y237984D02*
D03*
Y239953D02*
D03*
Y241921D02*
D03*
X176744D02*
D03*
Y239953D02*
D03*
Y237984D02*
D03*
Y236016D02*
D03*
Y234047D02*
D03*
Y232079D02*
D03*
D60*
X85291Y166535D02*
D03*
X90291D02*
D03*
X95291D02*
D03*
X100291D02*
D03*
X105291D02*
D03*
X110291D02*
D03*
X115291D02*
D03*
X120291D02*
D03*
X125291D02*
D03*
X130291D02*
D03*
X135291D02*
D03*
X140291D02*
D03*
X145291D02*
D03*
X150291D02*
D03*
Y233465D02*
D03*
X145291D02*
D03*
X140291D02*
D03*
X135291D02*
D03*
X130291D02*
D03*
X125291D02*
D03*
X120291D02*
D03*
X115291D02*
D03*
X110291D02*
D03*
X105291D02*
D03*
X100291D02*
D03*
X95291D02*
D03*
X90291D02*
D03*
X85291D02*
D03*
D61*
X154228Y177500D02*
D03*
Y182500D02*
D03*
Y187500D02*
D03*
Y192500D02*
D03*
Y197500D02*
D03*
Y202500D02*
D03*
Y207500D02*
D03*
Y212500D02*
D03*
Y217500D02*
D03*
Y222500D02*
D03*
D62*
X107595Y188839D02*
D03*
Y196063D02*
D03*
Y203287D02*
D03*
X114819Y188839D02*
D03*
Y196063D02*
D03*
Y203287D02*
D03*
X122043Y188839D02*
D03*
Y196063D02*
D03*
Y203287D02*
D03*
D63*
X252500Y216520D02*
D03*
Y224000D02*
D03*
X240689D02*
D03*
Y216520D02*
D03*
D64*
X254468Y211992D02*
D03*
Y228528D02*
D03*
X238720D02*
D03*
Y211992D02*
D03*
D65*
X186500Y138736D02*
D03*
Y143264D02*
D03*
X134500Y142500D02*
D03*
Y137972D02*
D03*
X176500Y158472D02*
D03*
Y163000D02*
D03*
X295500Y173264D02*
D03*
Y168736D02*
D03*
X290500D02*
D03*
Y173264D02*
D03*
Y157736D02*
D03*
Y162264D02*
D03*
X95500Y246736D02*
D03*
Y251264D02*
D03*
X110500Y246736D02*
D03*
Y251264D02*
D03*
D66*
X200740Y145059D02*
D03*
Y142500D02*
D03*
Y139941D02*
D03*
X193260D02*
D03*
Y142500D02*
D03*
Y145059D02*
D03*
D67*
X163516Y134555D02*
D03*
X165484D02*
D03*
X122016D02*
D03*
X123984D02*
D03*
X165484Y136445D02*
D03*
X163516D02*
D03*
X123984D02*
D03*
X122016D02*
D03*
X134984Y265945D02*
D03*
X133016D02*
D03*
Y264055D02*
D03*
X134984D02*
D03*
D68*
X120285Y245516D02*
D03*
Y241185D02*
D03*
X120505Y148495D02*
D03*
Y144165D02*
D03*
X125500Y148500D02*
D03*
Y144169D02*
D03*
X125218Y241160D02*
D03*
Y245491D02*
D03*
X90488Y240998D02*
D03*
Y245329D02*
D03*
X130151Y241185D02*
D03*
Y245516D02*
D03*
X307500Y242500D02*
D03*
Y238169D02*
D03*
X301030Y242565D02*
D03*
Y238234D02*
D03*
D69*
X198020Y209512D02*
D03*
Y173488D02*
D03*
X179988D02*
D03*
Y191480D02*
D03*
Y200496D02*
D03*
Y209512D02*
D03*
X189004D02*
D03*
D70*
X216012Y204984D02*
D03*
Y186992D02*
D03*
D71*
X211524Y173488D02*
D03*
D72*
X247657Y170980D02*
D03*
Y167240D02*
D03*
Y163500D02*
D03*
X257500D02*
D03*
Y167240D02*
D03*
Y170980D02*
D03*
D73*
X284835Y145500D02*
D03*
X289165D02*
D03*
D74*
X302996Y149000D02*
D03*
D75*
X309000Y154807D02*
D03*
Y143193D02*
D03*
D76*
X305000Y269000D02*
D03*
Y131000D02*
D03*
X95000D02*
D03*
D77*
X283000Y150925D02*
D03*
Y152500D02*
D03*
X284575Y150925D02*
D03*
Y152500D02*
D03*
D78*
X312323Y218701D02*
D03*
X307992D02*
D03*
X303661D02*
D03*
X299331D02*
D03*
X295000D02*
D03*
X290669D02*
D03*
X286339D02*
D03*
X282008D02*
D03*
X277677D02*
D03*
Y181299D02*
D03*
X282008D02*
D03*
X286339D02*
D03*
X290669D02*
D03*
X295000D02*
D03*
X299331D02*
D03*
X303661D02*
D03*
X307992D02*
D03*
X312323D02*
D03*
D79*
X395532Y160512D02*
D03*
X397500D02*
D03*
X399468D02*
D03*
X400512Y158484D02*
D03*
Y156516D02*
D03*
X399468Y154488D02*
D03*
X397500D02*
D03*
X395532D02*
D03*
X394488Y156516D02*
D03*
Y158484D02*
D03*
D80*
X365500Y158468D02*
D03*
Y156500D02*
D03*
X367390D02*
D03*
Y158468D02*
D03*
D81*
X252500Y177905D02*
D03*
Y191095D02*
D03*
D82*
X228000Y193350D02*
D03*
Y199650D02*
D03*
D83*
X96736Y145000D02*
D03*
X86264D02*
D03*
D84*
X283000Y168445D02*
D03*
X283984Y170000D02*
D03*
Y171555D02*
D03*
X282016D02*
D03*
Y170000D02*
D03*
D85*
X307500Y232354D02*
D03*
Y226646D02*
D03*
X301000Y232354D02*
D03*
Y226646D02*
D03*
D86*
X307500Y229500D02*
D03*
X301000D02*
D03*
D87*
X238158Y138500D02*
D03*
X257842D02*
D03*
X248000D02*
D03*
D88*
X159000Y273000D02*
D03*
X149000D02*
D03*
X139000D02*
D03*
X129000D02*
D03*
X119000D02*
D03*
X222000D02*
D03*
X212000D02*
D03*
X202000D02*
D03*
X192000D02*
D03*
X182000D02*
D03*
X118000Y127000D02*
D03*
X128000D02*
D03*
X138000D02*
D03*
X174500D02*
D03*
X164500D02*
D03*
X341500Y172500D02*
D03*
Y162500D02*
D03*
Y152500D02*
D03*
X274000Y127000D02*
D03*
D89*
X109000Y273000D02*
D03*
X172000D02*
D03*
X108000Y127000D02*
D03*
X154500D02*
D03*
D90*
X107595Y192451D02*
D03*
Y199675D02*
D03*
X111207Y188839D02*
D03*
Y196063D02*
D03*
Y203287D02*
D03*
X114819Y192451D02*
D03*
Y199675D02*
D03*
X118431Y188839D02*
D03*
Y196063D02*
D03*
Y203287D02*
D03*
X122043Y192451D02*
D03*
Y199675D02*
D03*
D91*
X341500Y142500D02*
D03*
X274000Y137000D02*
D03*
M02*
