G04*
G04 #@! TF.GenerationSoftware,Altium Limited,Altium Designer,22.3.1 (43)*
G04*
G04 Layer_Physical_Order=2*
G04 Layer_Color=36540*
%FSLAX25Y25*%
%MOIN*%
G70*
G04*
G04 #@! TF.SameCoordinates,D668225F-02C3-4EAC-AD72-9857121BA27B*
G04*
G04*
G04 #@! TF.FilePolarity,Positive*
G04*
G01*
G75*
%ADD14C,0.01000*%
%ADD93C,0.00600*%
%ADD94C,0.01200*%
%ADD95C,0.00800*%
%ADD97O,0.06890X0.09843*%
%ADD98C,0.05906*%
%ADD99R,0.05906X0.05906*%
%ADD100C,0.02362*%
%ADD101R,0.05906X0.05906*%
G36*
X296438Y275062D02*
X296247Y274600D01*
X268400D01*
Y257900D01*
X298100D01*
Y263747D01*
X298562Y263938D01*
X300500Y262000D01*
X309328D01*
X309519Y261538D01*
X309490Y261509D01*
X309219Y260854D01*
Y260146D01*
X309490Y259491D01*
X309991Y258990D01*
X310646Y258719D01*
X311354D01*
X312009Y258990D01*
X312510Y259491D01*
X312781Y260146D01*
Y260854D01*
X312591Y261313D01*
X312825Y261786D01*
X312876Y261831D01*
X313134Y261866D01*
X315500Y259500D01*
Y141500D01*
X313000Y139000D01*
X300500D01*
X297000Y135500D01*
Y125000D01*
X294500Y122500D01*
X181884D01*
X181692Y122962D01*
X182449Y123719D01*
X182854D01*
X183509Y123990D01*
X184010Y124491D01*
X184281Y125146D01*
Y125854D01*
X184010Y126509D01*
X183509Y127010D01*
X182854Y127281D01*
X182146D01*
X181491Y127010D01*
X180990Y126509D01*
X180719Y125854D01*
Y125449D01*
X179229Y123960D01*
X177191D01*
X176984Y124460D01*
X177343Y124819D01*
X177811Y125629D01*
X178053Y126532D01*
Y127468D01*
X177811Y128371D01*
X177343Y129181D01*
X176681Y129843D01*
X175871Y130311D01*
X174968Y130553D01*
X174032D01*
X173129Y130311D01*
X172319Y129843D01*
X171657Y129181D01*
X171189Y128371D01*
X170947Y127468D01*
Y126532D01*
X171189Y125629D01*
X171657Y124819D01*
X172016Y124460D01*
X171809Y123960D01*
X167191D01*
X166984Y124460D01*
X167343Y124819D01*
X167811Y125629D01*
X168053Y126532D01*
Y127468D01*
X167811Y128371D01*
X167343Y129181D01*
X166681Y129843D01*
X165871Y130311D01*
X164968Y130553D01*
X164032D01*
X163129Y130311D01*
X162319Y129843D01*
X161657Y129181D01*
X161189Y128371D01*
X160947Y127468D01*
Y126532D01*
X161189Y125629D01*
X161657Y124819D01*
X162016Y124460D01*
X161809Y123960D01*
X158053D01*
Y130553D01*
X150947D01*
Y123960D01*
X140691D01*
X140484Y124460D01*
X140843Y124819D01*
X141311Y125629D01*
X141553Y126532D01*
Y127468D01*
X141311Y128371D01*
X140843Y129181D01*
X140181Y129843D01*
X139371Y130311D01*
X138468Y130553D01*
X137532D01*
X136629Y130311D01*
X135819Y129843D01*
X135157Y129181D01*
X134689Y128371D01*
X134447Y127468D01*
Y126532D01*
X134689Y125629D01*
X135157Y124819D01*
X135516Y124460D01*
X135309Y123960D01*
X130691D01*
X130484Y124460D01*
X130843Y124819D01*
X131311Y125629D01*
X131553Y126532D01*
Y127468D01*
X131311Y128371D01*
X130843Y129181D01*
X130645Y129379D01*
X130724Y129773D01*
Y134351D01*
X165000D01*
X165459Y134541D01*
X175959Y145041D01*
X176149Y145500D01*
Y153000D01*
X175959Y153459D01*
X172459Y156959D01*
X172000Y157149D01*
X158241D01*
X158150Y157112D01*
X158053Y157122D01*
X157929Y157020D01*
X157782Y156959D01*
X157760Y156906D01*
X157727Y156854D01*
X157668Y156806D01*
X157517Y156522D01*
X157509Y156510D01*
X156854Y156781D01*
X156146D01*
X155491Y156510D01*
X155483Y156522D01*
X155332Y156806D01*
X155273Y156854D01*
X155240Y156906D01*
X155218Y156959D01*
X155071Y157020D01*
X154947Y157122D01*
X154850Y157112D01*
X154759Y157149D01*
X150741D01*
X150650Y157112D01*
X150553Y157122D01*
X150429Y157020D01*
X150282Y156959D01*
X150260Y156906D01*
X150227Y156854D01*
X150168Y156806D01*
X150017Y156522D01*
X150009Y156510D01*
X149354Y156781D01*
X148646D01*
X147991Y156510D01*
X147533Y156052D01*
X147250Y156029D01*
X146967Y156052D01*
X146509Y156510D01*
X145854Y156781D01*
X145146D01*
X144491Y156510D01*
X144418Y156437D01*
X143918Y156644D01*
Y159000D01*
X143848Y159351D01*
X143649Y159649D01*
X142149Y161149D01*
X141851Y161348D01*
X141500Y161418D01*
X122880D01*
X119649Y164649D01*
X119351Y164848D01*
X119000Y164918D01*
X109380D01*
X107418Y166880D01*
Y174000D01*
X107348Y174351D01*
X107149Y174649D01*
X106418Y175380D01*
Y190128D01*
X106833Y190405D01*
X107161Y190270D01*
X108028D01*
X108830Y190602D01*
X108925Y190696D01*
X107382Y192239D01*
X107595Y192451D01*
X107382Y192663D01*
X108925Y194205D01*
X108830Y194300D01*
X108028Y194632D01*
X107161D01*
X106833Y194496D01*
X106418Y194774D01*
Y197352D01*
X106833Y197630D01*
X107161Y197494D01*
X108028D01*
X108830Y197826D01*
X108925Y197921D01*
X107382Y199463D01*
X107595Y199675D01*
X107382Y199887D01*
X108925Y201430D01*
X108830Y201524D01*
X108028Y201856D01*
X107161D01*
X106833Y201721D01*
X106418Y201998D01*
Y218923D01*
X107389Y219894D01*
X107872Y219670D01*
X107900Y219601D01*
Y219472D01*
X107991Y219381D01*
X108041Y219262D01*
X108160Y219212D01*
X108252Y219121D01*
X108641Y218959D01*
X108959Y218641D01*
X109132Y218225D01*
Y217775D01*
X108959Y217359D01*
X108641Y217041D01*
X108252Y216879D01*
X108160Y216788D01*
X108041Y216739D01*
X107991Y216619D01*
X107900Y216528D01*
Y216399D01*
X107851Y216279D01*
Y215221D01*
X107900Y215101D01*
Y214972D01*
X107991Y214881D01*
X108041Y214761D01*
X108160Y214712D01*
X108252Y214621D01*
X108641Y214459D01*
X108959Y214141D01*
X109132Y213725D01*
Y213275D01*
X108959Y212859D01*
X108800Y212700D01*
X108610Y212241D01*
X108800Y211781D01*
X112041Y208541D01*
X112500Y208351D01*
X125231D01*
X127851Y205731D01*
Y167500D01*
X128041Y167041D01*
X132541Y162541D01*
X133000Y162351D01*
X156678D01*
X156924Y161851D01*
X156719Y161354D01*
Y160646D01*
X156990Y159991D01*
X157491Y159490D01*
X158146Y159219D01*
X158854D01*
X159509Y159490D01*
X160010Y159991D01*
X160048Y160082D01*
X239620D01*
X244082Y155620D01*
Y153048D01*
X243991Y153010D01*
X243490Y152509D01*
X243219Y151854D01*
Y151146D01*
X243490Y150491D01*
X243991Y149990D01*
X244646Y149719D01*
X245354D01*
X246009Y149990D01*
X246322Y149620D01*
X243120Y146418D01*
X211048D01*
X211010Y146509D01*
X210509Y147010D01*
X209854Y147281D01*
X209146D01*
X208491Y147010D01*
X207990Y146509D01*
X207719Y145854D01*
Y145146D01*
X207990Y144491D01*
X208491Y143990D01*
X209146Y143719D01*
X209854D01*
X210509Y143990D01*
X211010Y144491D01*
X211048Y144582D01*
X243500D01*
X243851Y144652D01*
X244149Y144851D01*
X248149Y148851D01*
X248348Y149149D01*
X248418Y149500D01*
Y157500D01*
X248348Y157851D01*
X248149Y158149D01*
X245743Y160554D01*
X245781Y160646D01*
Y161354D01*
X245575Y161851D01*
X245822Y162351D01*
X265000D01*
X273000Y162350D01*
X273459Y162541D01*
X275459Y164541D01*
X275649Y165000D01*
Y175500D01*
X275459Y175959D01*
X272959Y178459D01*
X272500Y178649D01*
X171375D01*
X171168Y179149D01*
X171510Y179491D01*
X171781Y180146D01*
Y180854D01*
X171510Y181509D01*
X171009Y182010D01*
X170918Y182048D01*
Y221452D01*
X171009Y221490D01*
X171510Y221991D01*
X171781Y222646D01*
Y223354D01*
X171510Y224009D01*
X171009Y224510D01*
X170354Y224781D01*
X169646D01*
X168991Y224510D01*
X168490Y224009D01*
X168250Y223429D01*
X168145Y223413D01*
X167855D01*
X167750Y223429D01*
X167510Y224009D01*
X167009Y224510D01*
X166354Y224781D01*
X165646D01*
X165554Y224743D01*
X163418Y226880D01*
Y252952D01*
X163509Y252990D01*
X164010Y253491D01*
X164281Y254146D01*
Y254854D01*
X164010Y255509D01*
X163509Y256010D01*
X162854Y256281D01*
X162146D01*
X161491Y256010D01*
X160990Y255509D01*
X160719Y254854D01*
Y254146D01*
X160990Y253491D01*
X161491Y252990D01*
X161582Y252952D01*
Y226500D01*
X161652Y226149D01*
X161851Y225851D01*
X164257Y223446D01*
X164219Y223354D01*
Y222646D01*
X164490Y221991D01*
X164991Y221490D01*
X165646Y221219D01*
X166354D01*
X167009Y221490D01*
X167510Y221991D01*
X167750Y222571D01*
X167855Y222587D01*
X168145D01*
X168250Y222571D01*
X168490Y221991D01*
X168991Y221490D01*
X169082Y221452D01*
Y182048D01*
X168991Y182010D01*
X168490Y181509D01*
X168219Y180854D01*
Y180146D01*
X168490Y179491D01*
X168832Y179149D01*
X168625Y178649D01*
X150269D01*
X147149Y181769D01*
Y181779D01*
X147100Y181899D01*
Y182028D01*
X147009Y182119D01*
X146959Y182238D01*
X146840Y182288D01*
X146748Y182379D01*
X146359Y182541D01*
X146041Y182859D01*
X145868Y183275D01*
Y183725D01*
X146041Y184141D01*
X146359Y184459D01*
X146748Y184621D01*
X146840Y184712D01*
X146959Y184762D01*
X147009Y184881D01*
X147100Y184972D01*
Y185101D01*
X147149Y185221D01*
Y185779D01*
X147100Y185899D01*
Y186028D01*
X147009Y186119D01*
X146959Y186239D01*
X146840Y186288D01*
X146748Y186379D01*
X146359Y186541D01*
X146041Y186859D01*
X145868Y187275D01*
Y187725D01*
X146041Y188141D01*
X146359Y188459D01*
X146748Y188621D01*
X146840Y188712D01*
X146959Y188761D01*
X147009Y188881D01*
X147100Y188972D01*
Y189101D01*
X147149Y189221D01*
Y215279D01*
X147100Y215399D01*
Y215528D01*
X147009Y215619D01*
X146959Y215739D01*
X146840Y215788D01*
X146748Y215879D01*
X146359Y216041D01*
X146041Y216359D01*
X145868Y216775D01*
Y217225D01*
X146041Y217641D01*
X146359Y217959D01*
X146748Y218121D01*
X146840Y218212D01*
X146959Y218262D01*
X147009Y218381D01*
X147100Y218472D01*
Y218601D01*
X147149Y218721D01*
Y219279D01*
X147100Y219399D01*
Y219528D01*
X147009Y219619D01*
X146959Y219739D01*
X146840Y219788D01*
X146748Y219879D01*
X146359Y220041D01*
X146041Y220359D01*
X145868Y220775D01*
Y221225D01*
X146041Y221641D01*
X146359Y221959D01*
X146748Y222121D01*
X146840Y222212D01*
X146959Y222262D01*
X147009Y222381D01*
X147100Y222472D01*
Y222601D01*
X147149Y222721D01*
Y223279D01*
X147100Y223399D01*
Y223528D01*
X147009Y223619D01*
X146959Y223739D01*
X146840Y223788D01*
X146748Y223879D01*
X146359Y224041D01*
X146041Y224359D01*
X145868Y224775D01*
Y225225D01*
X146041Y225641D01*
X146200Y225800D01*
X146390Y226259D01*
X146200Y226719D01*
X125281Y247638D01*
X125488Y248138D01*
X125573D01*
X126227Y248409D01*
X126728Y248910D01*
X126999Y249565D01*
Y250273D01*
X126871Y250582D01*
X127206Y251082D01*
X132620D01*
X135851Y247851D01*
X135827Y247309D01*
X135804Y247281D01*
X135146D01*
X134491Y247010D01*
X133990Y246509D01*
X133719Y245854D01*
Y245146D01*
X133990Y244491D01*
X134491Y243990D01*
X135146Y243719D01*
X135854D01*
X136509Y243990D01*
X136967Y244448D01*
X137250Y244471D01*
X137533Y244448D01*
X137991Y243990D01*
X138646Y243719D01*
X139354D01*
X140009Y243990D01*
X140510Y244491D01*
X140781Y245146D01*
Y245854D01*
X140510Y246509D01*
X140009Y247010D01*
X139354Y247281D01*
X139196D01*
X139044Y247781D01*
X139149Y247851D01*
X140649Y249351D01*
X140848Y249649D01*
X140918Y250000D01*
Y251620D01*
X143568Y254270D01*
X143767Y254568D01*
X143836Y254919D01*
Y263482D01*
X144837Y264482D01*
X157982D01*
X161313Y261151D01*
X161611Y260952D01*
X161962Y260882D01*
X175320D01*
X176257Y259946D01*
X176219Y259854D01*
Y259146D01*
X176490Y258491D01*
X176991Y257990D01*
X177646Y257719D01*
X178354D01*
X179009Y257990D01*
X179510Y258491D01*
X179781Y259146D01*
Y259854D01*
X179510Y260509D01*
X179052Y260967D01*
X179029Y261250D01*
X179052Y261533D01*
X179510Y261991D01*
X179781Y262646D01*
Y263354D01*
X179510Y264009D01*
X179009Y264510D01*
X178354Y264781D01*
X177646D01*
X176991Y264510D01*
X176490Y264009D01*
X176452Y263918D01*
X162839D01*
X159408Y267349D01*
X159110Y267548D01*
X158759Y267618D01*
X144003D01*
X143652Y267548D01*
X143354Y267349D01*
X142712Y266707D01*
X142212Y266707D01*
X141959Y266959D01*
X141500Y267149D01*
X141500Y267149D01*
X141500Y267149D01*
X90803Y267149D01*
X90611Y267611D01*
X100500Y277500D01*
X294000D01*
X296438Y275062D01*
D02*
G37*
G36*
X141500Y266500D02*
X142003Y265997D01*
X141070Y265065D01*
X140871Y264767D01*
X140801Y264416D01*
Y255915D01*
X140203Y255318D01*
X119677D01*
X117946Y257049D01*
X117648Y257248D01*
X117297Y257318D01*
X112900D01*
X112549Y257248D01*
X112251Y257049D01*
X109202Y254000D01*
X102500D01*
X100500Y252000D01*
Y228461D01*
X100322Y228195D01*
X100184Y227500D01*
X100322Y226805D01*
X100500Y226539D01*
Y223974D01*
X100216Y223784D01*
X99822Y223195D01*
X99684Y222500D01*
X99822Y221805D01*
X100216Y221216D01*
X100500Y221026D01*
Y164000D01*
X106814Y157686D01*
X106669Y157207D01*
X106521Y157178D01*
X105932Y156784D01*
X105538Y156195D01*
X105400Y155500D01*
X105538Y154805D01*
X105932Y154216D01*
X106521Y153822D01*
X107216Y153684D01*
X107911Y153822D01*
X108500Y154216D01*
X108894Y154805D01*
X109032Y155500D01*
X108932Y156000D01*
X109246Y156500D01*
X140049D01*
X140240Y156038D01*
X136851Y152649D01*
X136652Y152351D01*
X136582Y152000D01*
Y149557D01*
X136652Y149206D01*
X136851Y148908D01*
X138489Y147270D01*
X138787Y147071D01*
X139138Y147001D01*
X141919D01*
X142270Y147071D01*
X142568Y147270D01*
X148568Y153270D01*
X149000Y153184D01*
X149695Y153322D01*
X150284Y153716D01*
X150678Y154305D01*
X150816Y155000D01*
X150678Y155695D01*
X150474Y156000D01*
X150741Y156500D01*
X154759D01*
X155026Y156000D01*
X154822Y155695D01*
X154684Y155000D01*
X154822Y154305D01*
X155216Y153716D01*
X155805Y153322D01*
X156500Y153184D01*
X157195Y153322D01*
X157784Y153716D01*
X158178Y154305D01*
X158316Y155000D01*
X158178Y155695D01*
X157974Y156000D01*
X158241Y156500D01*
X172000D01*
X175500Y153000D01*
Y145500D01*
X165000Y135000D01*
X130724D01*
Y142675D01*
X130784Y142716D01*
X131178Y143305D01*
X131316Y144000D01*
X131178Y144695D01*
X130784Y145284D01*
X130195Y145678D01*
X129500Y145816D01*
X128805Y145678D01*
X128216Y145284D01*
X127822Y144695D01*
X127684Y144000D01*
X127822Y143305D01*
X128216Y142716D01*
X128277Y142675D01*
Y135000D01*
X117724D01*
Y142675D01*
X117784Y142716D01*
X118178Y143305D01*
X118316Y144000D01*
X118178Y144695D01*
X117784Y145284D01*
X117195Y145678D01*
X116500Y145816D01*
X115805Y145678D01*
X115216Y145284D01*
X114822Y144695D01*
X114684Y144000D01*
X114822Y143305D01*
X115216Y142716D01*
X115277Y142675D01*
Y141947D01*
X114784Y141784D01*
X114195Y142178D01*
X113500Y142316D01*
X112805Y142178D01*
X112216Y141784D01*
X111822Y141195D01*
X111684Y140500D01*
X111822Y139805D01*
X111591Y139251D01*
X111224Y139178D01*
X110635Y138784D01*
X110241Y138195D01*
X110103Y137500D01*
X110241Y136805D01*
X110635Y136216D01*
X111224Y135822D01*
X111919Y135684D01*
X112614Y135822D01*
X113203Y136216D01*
X113597Y136805D01*
X113735Y137500D01*
X113597Y138195D01*
X113828Y138749D01*
X114195Y138822D01*
X114784Y139216D01*
X115277Y139053D01*
Y135000D01*
X103000D01*
X99500Y138500D01*
X94500D01*
X88500Y144500D01*
Y184500D01*
X83500Y189500D01*
Y260500D01*
X89500Y266500D01*
X141500Y266500D01*
D02*
G37*
G36*
X104033Y226448D02*
X104491Y225990D01*
X105146Y225719D01*
X105854D01*
X105943Y225756D01*
X106530Y225457D01*
X106555Y225353D01*
X102351Y221149D01*
X102152Y220851D01*
X102082Y220500D01*
Y174048D01*
X101991Y174010D01*
X101649Y173668D01*
X101149Y173875D01*
Y221026D01*
X101124Y221088D01*
X101137Y221153D01*
X101032Y221310D01*
X100959Y221485D01*
X100898Y221511D01*
X100861Y221566D01*
X100684Y221684D01*
X100434Y222058D01*
X100346Y222500D01*
X100434Y222942D01*
X100684Y223316D01*
X100861Y223434D01*
X100898Y223489D01*
X100959Y223515D01*
X101032Y223690D01*
X101137Y223847D01*
X101124Y223913D01*
X101149Y223974D01*
Y225475D01*
X101565Y225752D01*
X101646Y225719D01*
X102354D01*
X103009Y225990D01*
X103467Y226448D01*
X103750Y226471D01*
X104033Y226448D01*
D02*
G37*
G36*
X114800Y253000D02*
X116005Y253000D01*
X117654Y251351D01*
X117952Y251152D01*
X118303Y251082D01*
X120918D01*
X145741Y226259D01*
X145490Y226009D01*
X145219Y225354D01*
Y224646D01*
X145490Y223991D01*
X145991Y223490D01*
X146500Y223279D01*
Y222721D01*
X145991Y222510D01*
X145490Y222009D01*
X145219Y221354D01*
Y220646D01*
X145490Y219991D01*
X145991Y219490D01*
X146500Y219279D01*
Y218721D01*
X145991Y218510D01*
X145490Y218009D01*
X145219Y217354D01*
Y216646D01*
X145490Y215991D01*
X145991Y215490D01*
X146500Y215279D01*
Y189221D01*
X145991Y189010D01*
X145490Y188509D01*
X145219Y187854D01*
Y187146D01*
X145490Y186491D01*
X145991Y185990D01*
X146500Y185779D01*
Y185221D01*
X145991Y185010D01*
X145490Y184509D01*
X145219Y183854D01*
Y183146D01*
X145490Y182491D01*
X145991Y181990D01*
X146500Y181779D01*
Y181500D01*
X150000Y178000D01*
X272500D01*
X275000Y175500D01*
Y165000D01*
X273000Y163000D01*
X265000Y163000D01*
X133000D01*
X128500Y167500D01*
Y206000D01*
X125500Y209000D01*
X112500D01*
X109259Y212241D01*
X109510Y212491D01*
X109781Y213146D01*
Y213854D01*
X109510Y214509D01*
X109009Y215010D01*
X108500Y215221D01*
Y216279D01*
X109009Y216490D01*
X109510Y216991D01*
X109781Y217646D01*
Y218354D01*
X109510Y219009D01*
X109009Y219510D01*
X108500Y219721D01*
Y221005D01*
X110849Y223354D01*
X111048Y223652D01*
X111059Y223710D01*
X111118Y224003D01*
Y249820D01*
X114298Y253000D01*
X114800D01*
D02*
G37*
G36*
X101991Y170990D02*
X102646Y170719D01*
X103354D01*
X103664Y170847D01*
X104164Y170513D01*
Y164919D01*
X104233Y164568D01*
X104432Y164270D01*
X107351Y161351D01*
X107649Y161152D01*
X108000Y161082D01*
X117620D01*
X120351Y158351D01*
X120649Y158152D01*
X121000Y158082D01*
X140491D01*
X140873Y157700D01*
X140829Y157213D01*
X140404Y157016D01*
X140382Y157015D01*
X140297Y157100D01*
X140168D01*
X140049Y157149D01*
X109246D01*
X109175Y157120D01*
X109100Y157133D01*
X108953Y157028D01*
X108786Y156959D01*
X108757Y156889D01*
X108695Y156845D01*
X108382Y156345D01*
X108342Y156108D01*
X108296Y155873D01*
X108370Y155500D01*
X108282Y155058D01*
X108032Y154684D01*
X107658Y154434D01*
X107216Y154346D01*
X106774Y154434D01*
X106400Y154684D01*
X106150Y155058D01*
X106062Y155500D01*
X106150Y155942D01*
X106400Y156316D01*
X106774Y156566D01*
X106796Y156570D01*
X106878Y156625D01*
X106975Y156634D01*
X107077Y156758D01*
X107209Y156846D01*
X107228Y156943D01*
X107291Y157019D01*
X107436Y157497D01*
X107426Y157595D01*
X107464Y157686D01*
X107403Y157833D01*
X107387Y157992D01*
X107311Y158054D01*
X107273Y158145D01*
X101149Y164269D01*
Y171125D01*
X101649Y171332D01*
X101991Y170990D01*
D02*
G37*
G36*
X87851Y184231D02*
Y144500D01*
X88041Y144041D01*
X93120Y138962D01*
X92928Y138500D01*
X91500D01*
X87500Y134500D01*
X85500D01*
X83500Y136500D01*
Y187928D01*
X83962Y188120D01*
X87851Y184231D01*
D02*
G37*
G36*
X102541Y134541D02*
X103000Y134351D01*
X115277D01*
Y129773D01*
X115355Y129379D01*
X115157Y129181D01*
X114689Y128371D01*
X114447Y127468D01*
Y126986D01*
X114032Y126708D01*
X113854Y126781D01*
X113146D01*
X112491Y126510D01*
X112053Y126072D01*
X111757Y126124D01*
X111553Y126225D01*
Y130553D01*
X104447D01*
Y123447D01*
X111553D01*
Y123775D01*
X111757Y123876D01*
X112053Y123928D01*
X112491Y123490D01*
X113146Y123219D01*
X113411D01*
X113582Y123000D01*
X113337Y122500D01*
X103500D01*
X102000Y124000D01*
Y134428D01*
X102462Y134620D01*
X102541Y134541D01*
D02*
G37*
%LPC*%
G36*
X222520Y276953D02*
X221480D01*
X220474Y276683D01*
X219573Y276163D01*
X219417Y276007D01*
X222000Y273424D01*
X224583Y276007D01*
X224427Y276163D01*
X223526Y276683D01*
X222520Y276953D01*
D02*
G37*
G36*
X225007Y275583D02*
X222424Y273000D01*
X225007Y270417D01*
X225163Y270573D01*
X225683Y271474D01*
X225953Y272480D01*
Y273520D01*
X225683Y274526D01*
X225163Y275427D01*
X225007Y275583D01*
D02*
G37*
G36*
X218993D02*
X218837Y275427D01*
X218317Y274526D01*
X218047Y273520D01*
Y272480D01*
X218317Y271474D01*
X218837Y270573D01*
X218993Y270417D01*
X221576Y273000D01*
X218993Y275583D01*
D02*
G37*
G36*
X212468Y276553D02*
X211532D01*
X210629Y276311D01*
X209819Y275843D01*
X209157Y275181D01*
X208689Y274371D01*
X208447Y273468D01*
Y272532D01*
X208689Y271629D01*
X209157Y270819D01*
X209819Y270157D01*
X210629Y269689D01*
X211532Y269447D01*
X212468D01*
X213371Y269689D01*
X214181Y270157D01*
X214843Y270819D01*
X215311Y271629D01*
X215553Y272532D01*
Y273468D01*
X215311Y274371D01*
X214843Y275181D01*
X214181Y275843D01*
X213371Y276311D01*
X212468Y276553D01*
D02*
G37*
G36*
X202468D02*
X201532D01*
X200629Y276311D01*
X199819Y275843D01*
X199157Y275181D01*
X198689Y274371D01*
X198447Y273468D01*
Y272532D01*
X198689Y271629D01*
X199157Y270819D01*
X199819Y270157D01*
X200629Y269689D01*
X201532Y269447D01*
X202468D01*
X203371Y269689D01*
X204181Y270157D01*
X204843Y270819D01*
X205311Y271629D01*
X205553Y272532D01*
Y273468D01*
X205311Y274371D01*
X204843Y275181D01*
X204181Y275843D01*
X203371Y276311D01*
X202468Y276553D01*
D02*
G37*
G36*
X192468D02*
X191532D01*
X190629Y276311D01*
X189819Y275843D01*
X189157Y275181D01*
X188689Y274371D01*
X188447Y273468D01*
Y272532D01*
X188689Y271629D01*
X189157Y270819D01*
X189819Y270157D01*
X190629Y269689D01*
X191532Y269447D01*
X192468D01*
X193371Y269689D01*
X194181Y270157D01*
X194843Y270819D01*
X195311Y271629D01*
X195553Y272532D01*
Y273468D01*
X195311Y274371D01*
X194843Y275181D01*
X194181Y275843D01*
X193371Y276311D01*
X192468Y276553D01*
D02*
G37*
G36*
X182468D02*
X181532D01*
X180629Y276311D01*
X179819Y275843D01*
X179157Y275181D01*
X178689Y274371D01*
X178447Y273468D01*
Y272532D01*
X178689Y271629D01*
X179157Y270819D01*
X179819Y270157D01*
X180629Y269689D01*
X181532Y269447D01*
X182468D01*
X183371Y269689D01*
X184181Y270157D01*
X184843Y270819D01*
X185311Y271629D01*
X185553Y272532D01*
Y273468D01*
X185311Y274371D01*
X184843Y275181D01*
X184181Y275843D01*
X183371Y276311D01*
X182468Y276553D01*
D02*
G37*
G36*
X175553D02*
X168447D01*
Y269447D01*
X175553D01*
Y276553D01*
D02*
G37*
G36*
X159468D02*
X158532D01*
X157629Y276311D01*
X156819Y275843D01*
X156157Y275181D01*
X155689Y274371D01*
X155447Y273468D01*
Y272532D01*
X155689Y271629D01*
X156157Y270819D01*
X156819Y270157D01*
X157629Y269689D01*
X158532Y269447D01*
X159468D01*
X160371Y269689D01*
X161181Y270157D01*
X161843Y270819D01*
X162311Y271629D01*
X162553Y272532D01*
Y273468D01*
X162311Y274371D01*
X161843Y275181D01*
X161181Y275843D01*
X160371Y276311D01*
X159468Y276553D01*
D02*
G37*
G36*
X149468D02*
X148532D01*
X147629Y276311D01*
X146819Y275843D01*
X146157Y275181D01*
X145689Y274371D01*
X145447Y273468D01*
Y272532D01*
X145689Y271629D01*
X146157Y270819D01*
X146819Y270157D01*
X147629Y269689D01*
X148532Y269447D01*
X149468D01*
X150371Y269689D01*
X151181Y270157D01*
X151843Y270819D01*
X152311Y271629D01*
X152553Y272532D01*
Y273468D01*
X152311Y274371D01*
X151843Y275181D01*
X151181Y275843D01*
X150371Y276311D01*
X149468Y276553D01*
D02*
G37*
G36*
X139468D02*
X138532D01*
X137629Y276311D01*
X136819Y275843D01*
X136157Y275181D01*
X135689Y274371D01*
X135447Y273468D01*
Y272532D01*
X135689Y271629D01*
X136157Y270819D01*
X136819Y270157D01*
X137629Y269689D01*
X138532Y269447D01*
X139468D01*
X140371Y269689D01*
X141181Y270157D01*
X141843Y270819D01*
X142311Y271629D01*
X142553Y272532D01*
Y273468D01*
X142311Y274371D01*
X141843Y275181D01*
X141181Y275843D01*
X140371Y276311D01*
X139468Y276553D01*
D02*
G37*
G36*
X129468D02*
X128532D01*
X127629Y276311D01*
X126819Y275843D01*
X126157Y275181D01*
X125689Y274371D01*
X125447Y273468D01*
Y272532D01*
X125689Y271629D01*
X126157Y270819D01*
X126819Y270157D01*
X127629Y269689D01*
X128532Y269447D01*
X129468D01*
X130371Y269689D01*
X131181Y270157D01*
X131843Y270819D01*
X132311Y271629D01*
X132553Y272532D01*
Y273468D01*
X132311Y274371D01*
X131843Y275181D01*
X131181Y275843D01*
X130371Y276311D01*
X129468Y276553D01*
D02*
G37*
G36*
X119468D02*
X118532D01*
X117629Y276311D01*
X116819Y275843D01*
X116157Y275181D01*
X115689Y274371D01*
X115447Y273468D01*
Y272532D01*
X115689Y271629D01*
X116157Y270819D01*
X116819Y270157D01*
X117629Y269689D01*
X118532Y269447D01*
X119468D01*
X120371Y269689D01*
X121181Y270157D01*
X121843Y270819D01*
X122311Y271629D01*
X122553Y272532D01*
Y273468D01*
X122311Y274371D01*
X121843Y275181D01*
X121181Y275843D01*
X120371Y276311D01*
X119468Y276553D01*
D02*
G37*
G36*
X112553D02*
X105447D01*
Y269447D01*
X112553D01*
Y276553D01*
D02*
G37*
G36*
X222000Y272576D02*
X219417Y269993D01*
X219573Y269837D01*
X220474Y269317D01*
X221480Y269047D01*
X222520D01*
X223526Y269317D01*
X224427Y269837D01*
X224583Y269993D01*
X222000Y272576D01*
D02*
G37*
G36*
X307854Y259281D02*
X307146D01*
X306491Y259010D01*
X305990Y258509D01*
X305719Y257854D01*
Y257146D01*
X305990Y256491D01*
X306491Y255990D01*
X307146Y255719D01*
X307854D01*
X308509Y255990D01*
X309010Y256491D01*
X309281Y257146D01*
Y257854D01*
X309010Y258509D01*
X308509Y259010D01*
X307854Y259281D01*
D02*
G37*
G36*
X152354Y256281D02*
X151646D01*
X150991Y256010D01*
X150490Y255509D01*
X150219Y254854D01*
Y254146D01*
X150490Y253491D01*
X150991Y252990D01*
X151646Y252719D01*
X152354D01*
X153009Y252990D01*
X153510Y253491D01*
X153781Y254146D01*
Y254854D01*
X153510Y255509D01*
X153009Y256010D01*
X152354Y256281D01*
D02*
G37*
G36*
X172854Y237281D02*
X172146D01*
X171491Y237010D01*
X171103Y236621D01*
X169500D01*
X169500Y236622D01*
X169071Y236536D01*
X168707Y236293D01*
X168707Y236293D01*
X166707Y234293D01*
X166464Y233929D01*
X166378Y233500D01*
X166378Y233500D01*
Y229500D01*
X166378Y229500D01*
X166464Y229071D01*
X166707Y228707D01*
X168707Y226707D01*
X168707Y226707D01*
X169071Y226464D01*
X169500Y226378D01*
X169500Y226378D01*
X171103D01*
X171491Y225990D01*
X172146Y225719D01*
X172854D01*
X173509Y225990D01*
X174010Y226491D01*
X174281Y227146D01*
Y227854D01*
X174010Y228509D01*
X173509Y229010D01*
X172854Y229281D01*
X172146D01*
X171491Y229010D01*
X171103Y228622D01*
X169965D01*
X168622Y229965D01*
Y233035D01*
X169965Y234379D01*
X171103D01*
X171448Y234033D01*
X171471Y233750D01*
X171448Y233467D01*
X170990Y233009D01*
X170719Y232354D01*
Y231646D01*
X170990Y230991D01*
X171491Y230490D01*
X172146Y230219D01*
X172854D01*
X173509Y230490D01*
X174010Y230991D01*
X174281Y231646D01*
Y232354D01*
X174010Y233009D01*
X173552Y233467D01*
X173529Y233750D01*
X173552Y234033D01*
X174010Y234491D01*
X174281Y235146D01*
Y235854D01*
X174010Y236509D01*
X173509Y237010D01*
X172854Y237281D01*
D02*
G37*
G36*
X225854Y233781D02*
X225146D01*
X224491Y233510D01*
X223990Y233009D01*
X223719Y232354D01*
Y231646D01*
X223990Y230991D01*
X224491Y230490D01*
X225146Y230219D01*
X225854D01*
X226509Y230490D01*
X227010Y230991D01*
X227281Y231646D01*
Y232354D01*
X227010Y233009D01*
X226509Y233510D01*
X225854Y233781D01*
D02*
G37*
G36*
X219854Y229281D02*
X219146D01*
X218491Y229010D01*
X217990Y228509D01*
X217719Y227854D01*
Y227146D01*
X217990Y226491D01*
X218491Y225990D01*
X219146Y225719D01*
X219854D01*
X220509Y225990D01*
X221010Y226491D01*
X221281Y227146D01*
Y227854D01*
X221010Y228509D01*
X220509Y229010D01*
X219854Y229281D01*
D02*
G37*
G36*
X201500Y254649D02*
X186000D01*
X185541Y254459D01*
X184041Y252959D01*
X183851Y252500D01*
Y249500D01*
X184041Y249041D01*
X186041Y247041D01*
X186500Y246851D01*
X198231D01*
X200851Y244231D01*
Y219500D01*
X201041Y219041D01*
X202041Y218041D01*
X202500Y217851D01*
X210000D01*
X210459Y218041D01*
X214459Y222041D01*
X214649Y222500D01*
Y236231D01*
X217769Y239351D01*
X259731D01*
X261351Y237731D01*
Y227500D01*
X261541Y227041D01*
X263541Y225041D01*
X264000Y224851D01*
X264778D01*
X264932Y224351D01*
X261541Y220959D01*
X261351Y220500D01*
Y211769D01*
X259162Y209581D01*
X258991Y209510D01*
X258490Y209009D01*
X258419Y208838D01*
X256731Y207149D01*
X238269D01*
X231959Y213459D01*
X231500Y213649D01*
X222000D01*
X221541Y213459D01*
X219041Y210959D01*
X218851Y210500D01*
Y199500D01*
X219041Y199041D01*
X221541Y196541D01*
X222000Y196351D01*
X275000D01*
X275459Y196541D01*
X277959Y199041D01*
X278149Y199500D01*
Y221500D01*
X277959Y221959D01*
X275568Y224351D01*
X275722Y224851D01*
X282500D01*
X282959Y225041D01*
X284959Y227041D01*
X285149Y227500D01*
Y245000D01*
X284959Y245459D01*
X281959Y248459D01*
X281500Y248649D01*
X207769D01*
X201959Y254459D01*
X201500Y254649D01*
D02*
G37*
G36*
X118865Y205469D02*
X117997D01*
X117196Y205136D01*
X117101Y205042D01*
X118431Y203712D01*
X119761Y205042D01*
X119667Y205136D01*
X118865Y205469D01*
D02*
G37*
G36*
X111641D02*
X110773D01*
X109971Y205136D01*
X109877Y205042D01*
X111207Y203712D01*
X112537Y205042D01*
X112442Y205136D01*
X111641Y205469D01*
D02*
G37*
G36*
X116677Y204618D02*
X116582Y204523D01*
X116250Y203721D01*
Y202853D01*
X116582Y202052D01*
X116677Y201957D01*
X118007Y203287D01*
X116677Y204618D01*
D02*
G37*
G36*
X109452D02*
X109358Y204523D01*
X109026Y203721D01*
Y202853D01*
X109358Y202052D01*
X109452Y201957D01*
X110782Y203287D01*
X109452Y204618D01*
D02*
G37*
G36*
X120185D02*
X118855Y203287D01*
X120185Y201957D01*
X120280Y202052D01*
X120612Y202853D01*
Y203721D01*
X120280Y204523D01*
X120185Y204618D01*
D02*
G37*
G36*
X112961D02*
X111631Y203287D01*
X112961Y201957D01*
X113056Y202052D01*
X113388Y202853D01*
Y203721D01*
X113056Y204523D01*
X112961Y204618D01*
D02*
G37*
G36*
X118431Y202863D02*
X117101Y201533D01*
X117196Y201438D01*
X117997Y201106D01*
X118865D01*
X119667Y201438D01*
X119761Y201533D01*
X118431Y202863D01*
D02*
G37*
G36*
X111207D02*
X109877Y201533D01*
X109971Y201438D01*
X110773Y201106D01*
X111641D01*
X112442Y201438D01*
X112537Y201533D01*
X111207Y202863D01*
D02*
G37*
G36*
X122477Y201856D02*
X121609D01*
X120808Y201524D01*
X120713Y201430D01*
X122043Y200099D01*
X123373Y201430D01*
X123279Y201524D01*
X122477Y201856D01*
D02*
G37*
G36*
X115253D02*
X114385D01*
X113583Y201524D01*
X113489Y201430D01*
X114819Y200099D01*
X116149Y201430D01*
X116054Y201524D01*
X115253Y201856D01*
D02*
G37*
G36*
X120289Y201005D02*
X120194Y200911D01*
X119862Y200109D01*
Y199241D01*
X120194Y198440D01*
X120289Y198345D01*
X121619Y199675D01*
X120289Y201005D01*
D02*
G37*
G36*
X113065D02*
X112970Y200911D01*
X112638Y200109D01*
Y199241D01*
X112970Y198440D01*
X113065Y198345D01*
X114395Y199675D01*
X113065Y201005D01*
D02*
G37*
G36*
X123798D02*
X122468Y199675D01*
X123798Y198345D01*
X123892Y198440D01*
X124224Y199241D01*
Y200109D01*
X123892Y200911D01*
X123798Y201005D01*
D02*
G37*
G36*
X116573D02*
X115243Y199675D01*
X116573Y198345D01*
X116668Y198440D01*
X117000Y199241D01*
Y200109D01*
X116668Y200911D01*
X116573Y201005D01*
D02*
G37*
G36*
X109349D02*
X108019Y199675D01*
X109349Y198345D01*
X109443Y198440D01*
X109776Y199241D01*
Y200109D01*
X109443Y200911D01*
X109349Y201005D01*
D02*
G37*
G36*
X122043Y199251D02*
X120713Y197921D01*
X120808Y197826D01*
X121609Y197494D01*
X122477D01*
X123279Y197826D01*
X123373Y197921D01*
X122043Y199251D01*
D02*
G37*
G36*
X114819D02*
X113489Y197921D01*
X113583Y197826D01*
X114385Y197494D01*
X115253D01*
X116054Y197826D01*
X116149Y197921D01*
X114819Y199251D01*
D02*
G37*
G36*
X118865Y198244D02*
X117997D01*
X117196Y197912D01*
X117101Y197817D01*
X118431Y196487D01*
X119761Y197817D01*
X119667Y197912D01*
X118865Y198244D01*
D02*
G37*
G36*
X111641D02*
X110773D01*
X109971Y197912D01*
X109877Y197817D01*
X111207Y196487D01*
X112537Y197817D01*
X112442Y197912D01*
X111641Y198244D01*
D02*
G37*
G36*
X120185Y197393D02*
X118855Y196063D01*
X120185Y194733D01*
X120280Y194827D01*
X120612Y195629D01*
Y196497D01*
X120280Y197299D01*
X120185Y197393D01*
D02*
G37*
G36*
X112961D02*
X111631Y196063D01*
X112961Y194733D01*
X113056Y194827D01*
X113388Y195629D01*
Y196497D01*
X113056Y197299D01*
X112961Y197393D01*
D02*
G37*
G36*
X116677Y197393D02*
X116582Y197299D01*
X116250Y196497D01*
Y195629D01*
X116582Y194827D01*
X116677Y194733D01*
X118007Y196063D01*
X116677Y197393D01*
D02*
G37*
G36*
X109452D02*
X109358Y197299D01*
X109026Y196497D01*
Y195629D01*
X109358Y194827D01*
X109452Y194733D01*
X110782Y196063D01*
X109452Y197393D01*
D02*
G37*
G36*
X118431Y195639D02*
X117101Y194309D01*
X117196Y194214D01*
X117997Y193882D01*
X118865D01*
X119667Y194214D01*
X119761Y194309D01*
X118431Y195639D01*
D02*
G37*
G36*
X111207D02*
X109877Y194309D01*
X109971Y194214D01*
X110773Y193882D01*
X111641D01*
X112442Y194214D01*
X112537Y194309D01*
X111207Y195639D01*
D02*
G37*
G36*
X122477Y194632D02*
X121609D01*
X120808Y194300D01*
X120713Y194205D01*
X122043Y192875D01*
X123373Y194205D01*
X123279Y194300D01*
X122477Y194632D01*
D02*
G37*
G36*
X115253D02*
X114385D01*
X113583Y194300D01*
X113489Y194205D01*
X114819Y192875D01*
X116149Y194205D01*
X116054Y194300D01*
X115253Y194632D01*
D02*
G37*
G36*
X123798Y193781D02*
X122468Y192451D01*
X123798Y191121D01*
X123892Y191215D01*
X124224Y192017D01*
Y192885D01*
X123892Y193686D01*
X123798Y193781D01*
D02*
G37*
G36*
X116573D02*
X115243Y192451D01*
X116573Y191121D01*
X116668Y191215D01*
X117000Y192017D01*
Y192885D01*
X116668Y193686D01*
X116573Y193781D01*
D02*
G37*
G36*
X109349D02*
X108019Y192451D01*
X109349Y191121D01*
X109443Y191215D01*
X109776Y192017D01*
Y192885D01*
X109443Y193686D01*
X109349Y193781D01*
D02*
G37*
G36*
X120289Y193781D02*
X120194Y193686D01*
X119862Y192885D01*
Y192017D01*
X120194Y191215D01*
X120289Y191121D01*
X121619Y192451D01*
X120289Y193781D01*
D02*
G37*
G36*
X113065D02*
X112970Y193686D01*
X112638Y192885D01*
Y192017D01*
X112970Y191215D01*
X113065Y191121D01*
X114395Y192451D01*
X113065Y193781D01*
D02*
G37*
G36*
X122043Y192026D02*
X120713Y190696D01*
X120808Y190602D01*
X121609Y190270D01*
X122477D01*
X123279Y190602D01*
X123373Y190696D01*
X122043Y192026D01*
D02*
G37*
G36*
X114819D02*
X113489Y190696D01*
X113583Y190602D01*
X114385Y190270D01*
X115253D01*
X116054Y190602D01*
X116149Y190696D01*
X114819Y192026D01*
D02*
G37*
G36*
X118865Y191020D02*
X117997D01*
X117196Y190688D01*
X117101Y190593D01*
X118431Y189263D01*
X119761Y190593D01*
X119667Y190688D01*
X118865Y191020D01*
D02*
G37*
G36*
X111641D02*
X110773D01*
X109971Y190688D01*
X109877Y190593D01*
X111207Y189263D01*
X112537Y190593D01*
X112442Y190688D01*
X111641Y191020D01*
D02*
G37*
G36*
X116677Y190169D02*
X116582Y190074D01*
X116250Y189272D01*
Y188405D01*
X116582Y187603D01*
X116677Y187508D01*
X118007Y188839D01*
X116677Y190169D01*
D02*
G37*
G36*
X109452D02*
X109358Y190074D01*
X109026Y189272D01*
Y188405D01*
X109358Y187603D01*
X109452Y187508D01*
X110782Y188839D01*
X109452Y190169D01*
D02*
G37*
G36*
X120185D02*
X118855Y188839D01*
X120185Y187508D01*
X120280Y187603D01*
X120612Y188405D01*
Y189272D01*
X120280Y190074D01*
X120185Y190169D01*
D02*
G37*
G36*
X112961D02*
X111631Y188839D01*
X112961Y187508D01*
X113056Y187603D01*
X113388Y188405D01*
Y189272D01*
X113056Y190074D01*
X112961Y190169D01*
D02*
G37*
G36*
X118431Y188414D02*
X117101Y187084D01*
X117196Y186989D01*
X117997Y186658D01*
X118865D01*
X119667Y186989D01*
X119761Y187084D01*
X118431Y188414D01*
D02*
G37*
G36*
X111207D02*
X109877Y187084D01*
X109971Y186989D01*
X110773Y186658D01*
X111641D01*
X112442Y186989D01*
X112537Y187084D01*
X111207Y188414D01*
D02*
G37*
G36*
X291354Y152781D02*
X290646D01*
X289991Y152510D01*
X289501Y152020D01*
X280999D01*
X280509Y152510D01*
X279854Y152781D01*
X279146D01*
X278491Y152510D01*
X277990Y152009D01*
X277719Y151354D01*
Y150646D01*
X277990Y149991D01*
X278491Y149490D01*
X279146Y149219D01*
X279854D01*
X280509Y149490D01*
X280999Y149980D01*
X289501D01*
X289991Y149490D01*
X290646Y149219D01*
X291354D01*
X292009Y149490D01*
X292510Y149991D01*
X292781Y150646D01*
Y151354D01*
X292510Y152009D01*
X292009Y152510D01*
X291354Y152781D01*
D02*
G37*
G36*
X214354Y140781D02*
X213646D01*
X212991Y140510D01*
X212490Y140009D01*
X212219Y139354D01*
Y138646D01*
X212490Y137991D01*
X212991Y137490D01*
X213646Y137219D01*
X214354D01*
X215009Y137490D01*
X215510Y137991D01*
X215781Y138646D01*
Y139354D01*
X215510Y140009D01*
X215009Y140510D01*
X214354Y140781D01*
D02*
G37*
G36*
X205854Y143781D02*
X205146D01*
X204491Y143510D01*
X203990Y143009D01*
X203719Y142354D01*
Y141646D01*
X203990Y140991D01*
X204301Y140680D01*
X204217Y140103D01*
X203991Y140010D01*
X203490Y139509D01*
X203219Y138854D01*
Y138146D01*
X203490Y137491D01*
X203991Y136990D01*
X204646Y136719D01*
X205354D01*
X206009Y136990D01*
X206510Y137491D01*
X206781Y138146D01*
Y138854D01*
X206510Y139509D01*
X206199Y139820D01*
X206283Y140396D01*
X206509Y140490D01*
X207010Y140991D01*
X207281Y141646D01*
Y142354D01*
X207010Y143009D01*
X206509Y143510D01*
X205854Y143781D01*
D02*
G37*
G36*
X277553Y140553D02*
X270447D01*
Y133447D01*
X277553D01*
Y140553D01*
D02*
G37*
G36*
X257842Y144056D02*
X256787Y143917D01*
X255803Y143510D01*
X254958Y142861D01*
X254309Y142016D01*
X253902Y141032D01*
X253763Y139976D01*
Y137024D01*
X253902Y135968D01*
X254309Y134984D01*
X254958Y134139D01*
X255803Y133490D01*
X256787Y133083D01*
X257842Y132944D01*
X258898Y133083D01*
X259882Y133490D01*
X260727Y134139D01*
X261376Y134984D01*
X261783Y135968D01*
X261922Y137024D01*
Y139976D01*
X261783Y141032D01*
X261376Y142016D01*
X260727Y142861D01*
X259882Y143510D01*
X258898Y143917D01*
X257842Y144056D01*
D02*
G37*
G36*
X248000D02*
X246944Y143917D01*
X245960Y143510D01*
X245115Y142861D01*
X244467Y142016D01*
X244059Y141032D01*
X243920Y139976D01*
Y137024D01*
X244022Y136252D01*
X240493Y132723D01*
X239652D01*
X239553Y133223D01*
X240197Y133490D01*
X241042Y134139D01*
X241691Y134984D01*
X242098Y135968D01*
X242237Y137024D01*
Y139976D01*
X242098Y141032D01*
X241691Y142016D01*
X241042Y142861D01*
X240197Y143510D01*
X239213Y143917D01*
X238158Y144056D01*
X237102Y143917D01*
X236118Y143510D01*
X235273Y142861D01*
X234624Y142016D01*
X234217Y141032D01*
X234078Y139976D01*
Y137024D01*
X234217Y135968D01*
X234624Y134984D01*
X235273Y134139D01*
X236118Y133490D01*
X236762Y133223D01*
X236663Y132723D01*
X227500D01*
X227032Y132630D01*
X226635Y132365D01*
X222551Y128281D01*
X222146D01*
X221491Y128010D01*
X220990Y127509D01*
X220719Y126854D01*
Y126146D01*
X220990Y125491D01*
X221491Y124990D01*
X222146Y124719D01*
X222854D01*
X223509Y124990D01*
X224010Y125491D01*
X224281Y126146D01*
Y126551D01*
X228007Y130277D01*
X241000D01*
X241468Y130370D01*
X241865Y130635D01*
X245259Y134028D01*
X245960Y133490D01*
X246944Y133083D01*
X248000Y132944D01*
X249056Y133083D01*
X250040Y133490D01*
X250885Y134139D01*
X251533Y134984D01*
X251941Y135968D01*
X252080Y137024D01*
Y139976D01*
X251941Y141032D01*
X251533Y142016D01*
X250885Y142861D01*
X250040Y143510D01*
X249056Y143917D01*
X248000Y144056D01*
D02*
G37*
G36*
X228354Y127781D02*
X227646D01*
X226991Y127510D01*
X226490Y127009D01*
X226219Y126354D01*
Y125646D01*
X226490Y124991D01*
X226991Y124490D01*
X227646Y124219D01*
X228354D01*
X229009Y124490D01*
X229510Y124991D01*
X229781Y125646D01*
Y126354D01*
X229510Y127009D01*
X229009Y127510D01*
X228354Y127781D01*
D02*
G37*
G36*
X274468Y130553D02*
X273532D01*
X272629Y130311D01*
X271819Y129843D01*
X271157Y129181D01*
X270689Y128371D01*
X270447Y127468D01*
Y126532D01*
X270689Y125629D01*
X271157Y124819D01*
X271819Y124157D01*
X272629Y123689D01*
X273532Y123447D01*
X274468D01*
X275371Y123689D01*
X276181Y124157D01*
X276843Y124819D01*
X277311Y125629D01*
X277553Y126532D01*
Y127468D01*
X277311Y128371D01*
X276843Y129181D01*
X276181Y129843D01*
X275371Y130311D01*
X274468Y130553D01*
D02*
G37*
%LPD*%
G36*
X207500Y248000D02*
X281500D01*
X284500Y245000D01*
Y227500D01*
X282500Y225500D01*
X264000D01*
X262000Y227500D01*
Y238000D01*
X260000Y240000D01*
X217500D01*
X214000Y236500D01*
Y222500D01*
X210000Y218500D01*
X202500D01*
X201500Y219500D01*
Y244500D01*
X198500Y247500D01*
X186500D01*
X184500Y249500D01*
Y252500D01*
X186000Y254000D01*
X201500D01*
X207500Y248000D01*
D02*
G37*
G36*
X277500Y221500D02*
Y199500D01*
X275000Y197000D01*
X222000D01*
X219500Y199500D01*
Y210500D01*
X222000Y213000D01*
X231500D01*
X238000Y206500D01*
X257000D01*
X262000Y211500D01*
Y220500D01*
X265500Y224000D01*
X275000D01*
X277500Y221500D01*
D02*
G37*
%LPC*%
G36*
X130781Y265816D02*
X130086Y265678D01*
X129497Y265284D01*
X129103Y264695D01*
X128965Y264000D01*
X129103Y263305D01*
X129497Y262716D01*
X130086Y262322D01*
X130781Y262184D01*
X131476Y262322D01*
X132065Y262716D01*
X132459Y263305D01*
X132597Y264000D01*
X132459Y264695D01*
X132065Y265284D01*
X131476Y265678D01*
X130781Y265816D01*
D02*
G37*
G36*
X122000Y263816D02*
X121305Y263678D01*
X120716Y263284D01*
X120322Y262695D01*
X120184Y262000D01*
X120322Y261305D01*
X120638Y260833D01*
X120685Y260500D01*
X120638Y260167D01*
X120322Y259695D01*
X120184Y259000D01*
X120322Y258305D01*
X120716Y257716D01*
X121305Y257322D01*
X122000Y257184D01*
X122695Y257322D01*
X123284Y257716D01*
X123678Y258305D01*
X123816Y259000D01*
X123678Y259695D01*
X123362Y260167D01*
X123315Y260500D01*
X123362Y260833D01*
X123678Y261305D01*
X123816Y262000D01*
X123678Y262695D01*
X123284Y263284D01*
X122695Y263678D01*
X122000Y263816D01*
D02*
G37*
G36*
X86500Y260816D02*
X85805Y260678D01*
X85216Y260284D01*
X84822Y259695D01*
X84684Y259000D01*
X84822Y258305D01*
X85216Y257716D01*
X85805Y257322D01*
X86144Y257255D01*
Y256745D01*
X85805Y256678D01*
X85216Y256284D01*
X84822Y255695D01*
X84684Y255000D01*
X84822Y254305D01*
X85216Y253716D01*
X85805Y253322D01*
X86500Y253184D01*
X87195Y253322D01*
X87784Y253716D01*
X88178Y254305D01*
X88316Y255000D01*
X88178Y255695D01*
X87784Y256284D01*
X87195Y256678D01*
X86856Y256745D01*
Y257255D01*
X87195Y257322D01*
X87784Y257716D01*
X88178Y258305D01*
X88316Y259000D01*
X88178Y259695D01*
X87784Y260284D01*
X87195Y260678D01*
X86500Y260816D01*
D02*
G37*
G36*
X86000Y223816D02*
X85305Y223678D01*
X84716Y223284D01*
X84322Y222695D01*
X84184Y222000D01*
X84322Y221305D01*
X84716Y220716D01*
X85305Y220322D01*
X86000Y220184D01*
X86695Y220322D01*
X87284Y220716D01*
X87678Y221305D01*
X87816Y222000D01*
X87678Y222695D01*
X87284Y223284D01*
X86695Y223678D01*
X86000Y223816D01*
D02*
G37*
G36*
X104000Y154816D02*
X103305Y154678D01*
X102716Y154284D01*
X102322Y153695D01*
X102184Y153000D01*
X102322Y152305D01*
X102716Y151716D01*
X103305Y151322D01*
X104000Y151184D01*
X104695Y151322D01*
X105284Y151716D01*
X105678Y152305D01*
X105816Y153000D01*
X105678Y153695D01*
X105284Y154284D01*
X104695Y154678D01*
X104000Y154816D01*
D02*
G37*
G36*
X149500Y147316D02*
X148805Y147178D01*
X148216Y146784D01*
X147822Y146195D01*
X147684Y145500D01*
X147822Y144805D01*
X148216Y144216D01*
X148805Y143822D01*
X149500Y143684D01*
X150195Y143822D01*
X150784Y144216D01*
X151178Y144805D01*
X151316Y145500D01*
X151178Y146195D01*
X150784Y146784D01*
X150195Y147178D01*
X149500Y147316D01*
D02*
G37*
G36*
X147500Y143316D02*
X146805Y143178D01*
X146216Y142784D01*
X145822Y142195D01*
X145684Y141500D01*
X145822Y140805D01*
X146216Y140216D01*
X146805Y139822D01*
X147500Y139684D01*
X148195Y139822D01*
X148784Y140216D01*
X149178Y140805D01*
X149316Y141500D01*
X149178Y142195D01*
X148784Y142784D01*
X148195Y143178D01*
X147500Y143316D01*
D02*
G37*
%LPD*%
D14*
X167500Y229500D02*
X169500Y227500D01*
X172500D01*
X167500Y229500D02*
Y233500D01*
X169500Y235500D01*
X172500D01*
D93*
X158500Y161000D02*
X240000D01*
X141919Y147919D02*
X149000Y155000D01*
X244000Y161000D02*
X247500Y157500D01*
X240000Y161000D02*
X245000Y156000D01*
Y151500D02*
Y156000D01*
X247500Y149500D02*
Y157500D01*
X243500Y145500D02*
X247500Y149500D01*
X209500Y145500D02*
X243500D01*
X139138Y147919D02*
X141919D01*
X140337Y151210D02*
X143000Y153873D01*
X140000Y150000D02*
X140337Y150337D01*
Y151210D01*
X141500Y160500D02*
X143000Y159000D01*
Y153873D02*
Y159000D01*
X137500Y149557D02*
Y152000D01*
X141800Y156300D02*
Y158200D01*
X137500Y152000D02*
X141800Y156300D01*
X142919Y263862D02*
X144457Y265400D01*
X158362D01*
X118303Y252000D02*
X133000D01*
X136500Y248500D02*
X138500D01*
X133000Y252000D02*
X136500Y248500D01*
X135300Y253200D02*
X137500Y251000D01*
X138500Y248500D02*
X140000Y250000D01*
X141719Y264416D02*
X144003Y266700D01*
X142919Y254919D02*
Y263862D01*
X140000Y252000D02*
X142919Y254919D01*
X141719Y255535D02*
Y264416D01*
X140584Y254400D02*
X141719Y255535D01*
X140000Y250000D02*
Y252000D01*
X144003Y266700D02*
X158759D01*
X119297Y254400D02*
X140584D01*
X158362Y265400D02*
X161962Y261800D01*
X158759Y266700D02*
X162459Y263000D01*
X178000D01*
X175700Y261800D02*
X178000Y259500D01*
X161962Y261800D02*
X175700D01*
X162500Y226500D02*
Y254500D01*
X117297Y256400D02*
X119297Y254400D01*
X118800Y253200D02*
X135300D01*
X116800Y255200D02*
X118800Y253200D01*
X113503Y255200D02*
X116800D01*
X112900Y256400D02*
X117297D01*
X116303Y254000D02*
X118303Y252000D01*
X114000Y254000D02*
X116303D01*
X110200Y224003D02*
Y250200D01*
X114000Y254000D01*
X107800Y251300D02*
X112900Y256400D01*
X109000Y224500D02*
Y250697D01*
X113503Y255200D01*
X107800Y225300D02*
Y251300D01*
X105500Y219303D02*
X110200Y224003D01*
X106500Y166500D02*
Y174000D01*
X105500Y175000D02*
X106500Y174000D01*
X105500Y175000D02*
Y219303D01*
X105081Y164919D02*
Y173419D01*
X104300Y174200D02*
Y219800D01*
Y174200D02*
X105081Y173419D01*
X106500Y166500D02*
X109000Y164000D01*
X103000Y220500D02*
X107800Y225300D01*
X105081Y164919D02*
X108000Y162000D01*
X103000Y172500D02*
Y220500D01*
X104300Y219800D02*
X109000Y224500D01*
X119000Y164000D02*
X122500Y160500D01*
X109000Y164000D02*
X119000D01*
X118000Y162000D02*
X121000Y159000D01*
X108000Y162000D02*
X118000D01*
X121000Y159000D02*
X141000D01*
X122500Y160500D02*
X141500D01*
X141000Y159000D02*
X141800Y158200D01*
X137500Y149557D02*
X139138Y147919D01*
X170000Y180500D02*
Y223000D01*
X162500Y226500D02*
X166000Y223000D01*
D94*
X227500Y131500D02*
X241000D01*
X248000Y138500D01*
X222500Y126500D02*
X227500Y131500D01*
X113500Y125000D02*
X115764Y122736D01*
X179736D02*
X182500Y125500D01*
X115764Y122736D02*
X179736D01*
X116500Y129773D02*
X118000Y128273D01*
X116500Y129773D02*
Y144000D01*
X118000Y127000D02*
Y128273D01*
X129500Y129773D02*
Y144000D01*
X128000Y128273D02*
X129500Y129773D01*
X128000Y127000D02*
Y128273D01*
D95*
X279500Y151000D02*
X291000D01*
X277147Y269752D02*
X275310D01*
X277147Y271589D01*
Y272048D01*
X276688Y272507D01*
X275769D01*
X275310Y272048D01*
X269800Y267281D02*
Y264526D01*
X271178D01*
X271637Y264985D01*
Y265444D01*
X271178Y265903D01*
X269800D01*
X271178D01*
X271637Y266363D01*
Y266822D01*
X271178Y267281D01*
X269800D01*
X274392D02*
X272555D01*
Y264526D01*
X274392D01*
X272555Y265903D02*
X273473D01*
X275310Y264526D02*
Y266363D01*
X276228Y267281D01*
X277147Y266363D01*
Y264526D01*
Y265903D01*
X275310D01*
X278065Y264526D02*
Y267281D01*
X279443D01*
X279902Y266822D01*
Y265903D01*
X279443Y265444D01*
X278065D01*
X278983D02*
X279902Y264526D01*
X282198D02*
Y267281D01*
X280820Y265903D01*
X282657D01*
X288167Y264526D02*
X286330D01*
X288167Y266363D01*
Y266822D01*
X287708Y267281D01*
X286789D01*
X286330Y266822D01*
X289085D02*
X289544Y267281D01*
X290463D01*
X290922Y266822D01*
Y264985D01*
X290463Y264526D01*
X289544D01*
X289085Y264985D01*
Y266822D01*
X293677Y264526D02*
X291840D01*
X293677Y266363D01*
Y266822D01*
X293218Y267281D01*
X292299D01*
X291840Y266822D01*
X296432Y264526D02*
X294595D01*
X296432Y266363D01*
Y266822D01*
X295973Y267281D01*
X295054D01*
X294595Y266822D01*
X270718Y259300D02*
X269800Y260218D01*
Y261137D01*
X270718Y262055D01*
X273933Y261596D02*
X273473Y262055D01*
X272555D01*
X272096Y261596D01*
Y259759D01*
X272555Y259300D01*
X273473D01*
X273933Y259759D01*
X274851Y259300D02*
X275769Y260218D01*
Y261137D01*
X274851Y262055D01*
X279902Y259759D02*
X280361Y259300D01*
X281279D01*
X281738Y259759D01*
Y261596D01*
X281279Y262055D01*
X280361D01*
X279902Y261596D01*
Y261137D01*
X280361Y260678D01*
X281738D01*
X282657Y262055D02*
Y260218D01*
X283575Y259300D01*
X284493Y260218D01*
Y262055D01*
X285412Y259300D02*
X286330D01*
X285871D01*
Y262055D01*
X285412Y261596D01*
X287708Y262055D02*
Y259300D01*
X289544D01*
X290463Y262055D02*
Y259300D01*
X291381Y260218D01*
X292299Y259300D01*
Y262055D01*
D97*
X238158Y138500D02*
D03*
X257842D02*
D03*
X248000D02*
D03*
D98*
X159000Y273000D02*
D03*
X149000D02*
D03*
X139000D02*
D03*
X129000D02*
D03*
X119000D02*
D03*
X222000D02*
D03*
X212000D02*
D03*
X202000D02*
D03*
X192000D02*
D03*
X182000D02*
D03*
X118000Y127000D02*
D03*
X128000D02*
D03*
X138000D02*
D03*
X174500D02*
D03*
X164500D02*
D03*
X341500Y172500D02*
D03*
Y162500D02*
D03*
Y152500D02*
D03*
X274000Y127000D02*
D03*
D99*
X109000Y273000D02*
D03*
X172000D02*
D03*
X108000Y127000D02*
D03*
X154500D02*
D03*
D100*
X107595Y192451D02*
D03*
Y199675D02*
D03*
X111207Y188839D02*
D03*
Y196063D02*
D03*
Y203287D02*
D03*
X114819Y192451D02*
D03*
Y199675D02*
D03*
X118431Y188839D02*
D03*
Y196063D02*
D03*
Y203287D02*
D03*
X122043Y192451D02*
D03*
Y199675D02*
D03*
X158500Y161000D02*
D03*
X156500Y155000D02*
D03*
X149500Y145500D02*
D03*
X149000Y155000D02*
D03*
X205500Y142000D02*
D03*
X222500Y158500D02*
D03*
X104000Y153000D02*
D03*
X107216Y155500D02*
D03*
X221500Y216500D02*
D03*
Y219500D02*
D03*
X259000Y232000D02*
D03*
Y236500D02*
D03*
X296000Y231500D02*
D03*
Y246500D02*
D03*
X291000Y244000D02*
D03*
Y249000D02*
D03*
Y254000D02*
D03*
X296000Y256500D02*
D03*
Y251500D02*
D03*
X281000Y254000D02*
D03*
X286000Y256500D02*
D03*
Y251500D02*
D03*
X276000D02*
D03*
Y256500D02*
D03*
X271000Y254000D02*
D03*
X261000D02*
D03*
Y259000D02*
D03*
Y264000D02*
D03*
X266000Y251500D02*
D03*
Y256500D02*
D03*
Y261500D02*
D03*
Y266500D02*
D03*
Y271500D02*
D03*
X261000Y269000D02*
D03*
X256000Y271500D02*
D03*
X251000Y269000D02*
D03*
X246000Y271500D02*
D03*
X241000Y269000D02*
D03*
X236000Y271500D02*
D03*
X296000Y241500D02*
D03*
Y236500D02*
D03*
X304500Y248000D02*
D03*
Y253500D02*
D03*
X315000Y257000D02*
D03*
X312000Y253000D02*
D03*
X315000Y249500D02*
D03*
X312000Y246000D02*
D03*
X315000Y242500D02*
D03*
X312000Y239000D02*
D03*
X315000Y236000D02*
D03*
X312000Y233000D02*
D03*
X315000Y230000D02*
D03*
X312000Y227000D02*
D03*
X233000Y222500D02*
D03*
Y225500D02*
D03*
X229500Y229000D02*
D03*
Y233000D02*
D03*
Y237000D02*
D03*
X225500D02*
D03*
X246000Y254000D02*
D03*
X243000Y251000D02*
D03*
X240000Y254000D02*
D03*
X231500Y250500D02*
D03*
X228000Y253000D02*
D03*
X224500Y250500D02*
D03*
X221000Y253000D02*
D03*
X217500Y250500D02*
D03*
X214000Y253000D02*
D03*
X210500Y250500D02*
D03*
X207000Y253000D02*
D03*
X217500Y270500D02*
D03*
X207000D02*
D03*
X197000D02*
D03*
X192500Y256500D02*
D03*
X195000Y260000D02*
D03*
X190000D02*
D03*
X184500Y256500D02*
D03*
X172000Y250500D02*
D03*
Y254500D02*
D03*
X176000Y250500D02*
D03*
X180000Y254500D02*
D03*
Y250500D02*
D03*
X176000Y254500D02*
D03*
X172000Y258500D02*
D03*
X312000Y205000D02*
D03*
Y196000D02*
D03*
Y187000D02*
D03*
X277500Y196000D02*
D03*
Y187000D02*
D03*
X281000Y209500D02*
D03*
Y200500D02*
D03*
Y191500D02*
D03*
X285500Y187000D02*
D03*
Y196000D02*
D03*
Y205000D02*
D03*
X290000Y191500D02*
D03*
Y200500D02*
D03*
X295000Y187000D02*
D03*
X294500Y196000D02*
D03*
Y205000D02*
D03*
X303500Y187000D02*
D03*
X299000Y191500D02*
D03*
Y200500D02*
D03*
X303500Y196000D02*
D03*
Y205000D02*
D03*
X302500Y169500D02*
D03*
Y175000D02*
D03*
X312500Y172000D02*
D03*
X310000Y168000D02*
D03*
X279000Y159000D02*
D03*
X312500Y163500D02*
D03*
X309500Y149000D02*
D03*
X299500Y159500D02*
D03*
X302000Y156500D02*
D03*
X299500Y153500D02*
D03*
X295500D02*
D03*
X301500Y141500D02*
D03*
X298500Y138000D02*
D03*
X295000Y141500D02*
D03*
X288000D02*
D03*
X291500Y138000D02*
D03*
X295000Y134500D02*
D03*
X291500Y124500D02*
D03*
X284500D02*
D03*
X281500Y127500D02*
D03*
Y134500D02*
D03*
X284500Y131000D02*
D03*
X288000Y127500D02*
D03*
X295000D02*
D03*
X291500Y131000D02*
D03*
X288000Y134500D02*
D03*
X284500Y138000D02*
D03*
X281500Y141500D02*
D03*
X278500Y145000D02*
D03*
X276000Y148500D02*
D03*
X273500Y152000D02*
D03*
X276000Y155500D02*
D03*
X273500Y159000D02*
D03*
X262500Y124000D02*
D03*
X192500Y134500D02*
D03*
X203000Y126000D02*
D03*
X199500Y129000D02*
D03*
X196000Y132000D02*
D03*
Y126000D02*
D03*
X192500Y129000D02*
D03*
X189000Y132000D02*
D03*
Y126000D02*
D03*
X185500Y129000D02*
D03*
X182500Y132000D02*
D03*
X217000Y158500D02*
D03*
X208000D02*
D03*
X196000D02*
D03*
X189500D02*
D03*
X178000Y148000D02*
D03*
X179500Y135000D02*
D03*
X174500Y141000D02*
D03*
X177000Y138000D02*
D03*
X172000D02*
D03*
X169500Y125500D02*
D03*
X147500Y141500D02*
D03*
X108000Y218000D02*
D03*
Y213500D02*
D03*
X147000Y225000D02*
D03*
Y221000D02*
D03*
Y217000D02*
D03*
Y183500D02*
D03*
Y187500D02*
D03*
X159000Y232000D02*
D03*
Y236500D02*
D03*
X189000Y192000D02*
D03*
X198000Y200500D02*
D03*
X189000D02*
D03*
X193500Y196500D02*
D03*
Y204000D02*
D03*
Y212000D02*
D03*
Y218500D02*
D03*
X184500D02*
D03*
Y212000D02*
D03*
Y196500D02*
D03*
Y204000D02*
D03*
X176000Y218500D02*
D03*
X172500Y215000D02*
D03*
X176000Y212000D02*
D03*
X172500Y208000D02*
D03*
X176000Y204000D02*
D03*
X172500Y200000D02*
D03*
X176000Y196000D02*
D03*
X172500Y192000D02*
D03*
X166000Y212000D02*
D03*
Y208000D02*
D03*
Y204000D02*
D03*
Y200000D02*
D03*
Y196000D02*
D03*
Y192000D02*
D03*
Y188000D02*
D03*
X162000Y212000D02*
D03*
Y208000D02*
D03*
Y204000D02*
D03*
Y200000D02*
D03*
Y196000D02*
D03*
Y192000D02*
D03*
Y188000D02*
D03*
X108000Y209000D02*
D03*
X125500Y174500D02*
D03*
Y180500D02*
D03*
X108000Y176000D02*
D03*
X111500Y180500D02*
D03*
X118500D02*
D03*
X122000Y184000D02*
D03*
X115000D02*
D03*
X108000D02*
D03*
X157500Y241000D02*
D03*
Y245500D02*
D03*
Y250000D02*
D03*
X144000Y246000D02*
D03*
X86000Y222000D02*
D03*
X86500Y255000D02*
D03*
Y259000D02*
D03*
X101500Y222500D02*
D03*
X102000Y273500D02*
D03*
X99000Y271000D02*
D03*
X86000Y181500D02*
D03*
Y177500D02*
D03*
Y173500D02*
D03*
X86500Y136500D02*
D03*
X243000Y234500D02*
D03*
X246000Y237500D02*
D03*
X244000Y161000D02*
D03*
X245000Y151500D02*
D03*
X209500Y145500D02*
D03*
X222000Y200000D02*
D03*
Y204000D02*
D03*
X228000Y207500D02*
D03*
X224000D02*
D03*
X222000Y211000D02*
D03*
X226000D02*
D03*
X230000D02*
D03*
X272500Y218000D02*
D03*
Y222000D02*
D03*
X270000Y220000D02*
D03*
X267000Y218000D02*
D03*
Y222000D02*
D03*
X264000Y219500D02*
D03*
Y215500D02*
D03*
Y211500D02*
D03*
Y208000D02*
D03*
X260000D02*
D03*
X262000Y205000D02*
D03*
X246500Y201500D02*
D03*
Y198500D02*
D03*
Y204500D02*
D03*
X223500Y184500D02*
D03*
Y188000D02*
D03*
X227000D02*
D03*
Y184500D02*
D03*
X230500D02*
D03*
Y188000D02*
D03*
X246000Y234500D02*
D03*
X243000Y237500D02*
D03*
X229500Y225500D02*
D03*
X226000D02*
D03*
X229500Y222500D02*
D03*
X226000D02*
D03*
X229500Y219500D02*
D03*
X226000D02*
D03*
X229500Y216500D02*
D03*
X226000D02*
D03*
X181500Y158000D02*
D03*
X166500Y146000D02*
D03*
X163000D02*
D03*
X166500Y140000D02*
D03*
X163000Y143000D02*
D03*
X166500D02*
D03*
X159500Y146000D02*
D03*
X205000Y138500D02*
D03*
X214000Y139000D02*
D03*
X222500Y126500D02*
D03*
X228000Y126000D02*
D03*
X113500Y125000D02*
D03*
X182500Y125500D02*
D03*
X111919Y137500D02*
D03*
X111000Y133000D02*
D03*
X113500Y140500D02*
D03*
X107000Y146500D02*
D03*
X140000Y150000D02*
D03*
X145500Y155000D02*
D03*
X137500Y251000D02*
D03*
X145000Y258681D02*
D03*
Y263000D02*
D03*
X139500Y256500D02*
D03*
Y260000D02*
D03*
X157500Y263319D02*
D03*
X152000Y254500D02*
D03*
X157500Y259000D02*
D03*
X178000Y259500D02*
D03*
X162500Y254500D02*
D03*
X125218Y249919D02*
D03*
X115000Y251919D02*
D03*
X103000Y172500D02*
D03*
X102000Y227500D02*
D03*
X105500D02*
D03*
X178000Y263000D02*
D03*
X115000Y249000D02*
D03*
X156000Y140000D02*
D03*
X170000Y180500D02*
D03*
Y223000D02*
D03*
X172500Y227500D02*
D03*
X166000Y223000D02*
D03*
X122000Y262000D02*
D03*
X288000Y153500D02*
D03*
X279500Y228500D02*
D03*
X275000D02*
D03*
X270500D02*
D03*
X266000D02*
D03*
X282000Y232000D02*
D03*
X277500D02*
D03*
X273000D02*
D03*
X268500D02*
D03*
X264000D02*
D03*
X186500Y252500D02*
D03*
Y249500D02*
D03*
X209500Y221500D02*
D03*
X205500D02*
D03*
X211500Y225000D02*
D03*
X207500D02*
D03*
X203500D02*
D03*
X272000Y175000D02*
D03*
X268500D02*
D03*
X272000Y172000D02*
D03*
X268500D02*
D03*
X272000Y169000D02*
D03*
X268500D02*
D03*
X272000Y166000D02*
D03*
X268500D02*
D03*
X119500Y225000D02*
D03*
X116000D02*
D03*
X112500D02*
D03*
X138000Y133000D02*
D03*
X130500Y150500D02*
D03*
X311000Y260500D02*
D03*
X307500Y257500D02*
D03*
X139000Y245500D02*
D03*
X135500D02*
D03*
X130781Y264000D02*
D03*
X115000Y240000D02*
D03*
X172500Y235500D02*
D03*
Y232000D02*
D03*
X157500Y254500D02*
D03*
X115000Y246000D02*
D03*
Y243000D02*
D03*
X122000Y259000D02*
D03*
X145500Y133000D02*
D03*
X149000D02*
D03*
X152500D02*
D03*
X107500D02*
D03*
X104000D02*
D03*
X120000Y139500D02*
D03*
X123000D02*
D03*
X126000D02*
D03*
X116500Y144000D02*
D03*
X129500D02*
D03*
X156000Y143000D02*
D03*
X159500Y140000D02*
D03*
Y143000D02*
D03*
X163000Y140000D02*
D03*
X156000Y146000D02*
D03*
X115000Y150500D02*
D03*
X103500Y146500D02*
D03*
X107000Y143500D02*
D03*
X103500D02*
D03*
X107000Y140500D02*
D03*
X103500D02*
D03*
X107000Y137500D02*
D03*
X103500D02*
D03*
X225500Y232000D02*
D03*
X219500Y227500D02*
D03*
X397500Y150500D02*
D03*
X359000Y155500D02*
D03*
X390500Y156500D02*
D03*
X359000Y159000D02*
D03*
X291000Y151000D02*
D03*
X279500D02*
D03*
D101*
X341500Y142500D02*
D03*
X274000Y137000D02*
D03*
M02*
