G04*
G04 #@! TF.GenerationSoftware,Altium Limited,Altium Designer,22.3.1 (43)*
G04*
G04 Layer_Color=32896*
%FSLAX25Y25*%
%MOIN*%
G70*
G04*
G04 #@! TF.SameCoordinates,D668225F-02C3-4EAC-AD72-9857121BA27B*
G04*
G04*
G04 #@! TF.FilePolarity,Positive*
G04*
G01*
G75*
%ADD10C,0.00787*%
%ADD11C,0.00394*%
%ADD12C,0.00591*%
%ADD13C,0.00500*%
%ADD14C,0.01000*%
%ADD132C,0.01181*%
%ADD133C,0.00984*%
D10*
X93673Y198240D02*
G03*
X93673Y198240I-122J0D01*
G01*
X290012Y219854D02*
G03*
X290406Y219854I197J0D01*
G01*
D02*
G03*
X290012Y219854I-197J0D01*
G01*
D02*
G03*
X290406Y219854I197J0D01*
G01*
X133500Y257909D02*
Y259090D01*
X234500Y257909D02*
Y259090D01*
X192335Y250410D02*
Y251590D01*
X151000Y257909D02*
Y259090D01*
X164500Y257909D02*
Y259090D01*
X102107Y255483D02*
Y264538D01*
X119500Y255472D02*
Y264528D01*
X88382Y212622D02*
X98618D01*
X96496Y202386D02*
X98618D01*
X88382D02*
X90504D01*
X185500Y138909D02*
Y140091D01*
Y152909D02*
Y154091D01*
Y145909D02*
Y147091D01*
X254102Y148594D02*
X258236D01*
X259614Y148791D02*
Y160209D01*
X261386D01*
Y148791D02*
Y160209D01*
X259614Y148791D02*
X261386D01*
D11*
X236500Y253906D02*
G03*
X236500Y253512I0J-197D01*
G01*
D02*
G03*
X236500Y253906I0J197D01*
G01*
X201500D02*
G03*
X201500Y253512I0J-197D01*
G01*
D02*
G03*
X201500Y253906I0J197D01*
G01*
X93500Y177579D02*
G03*
X93500Y177972I0J197D01*
G01*
D02*
G03*
X93500Y177579I0J-197D01*
G01*
Y157476D02*
G03*
X93500Y157870I0J197D01*
G01*
D02*
G03*
X93500Y157476I0J-197D01*
G01*
X131500Y253906D02*
G03*
X131500Y253512I0J-197D01*
G01*
D02*
G03*
X131500Y253906I0J197D01*
G01*
X149000D02*
G03*
X149000Y253512I0J-197D01*
G01*
D02*
G03*
X149000Y253906I0J197D01*
G01*
X166500D02*
G03*
X166500Y253512I0J-197D01*
G01*
D02*
G03*
X166500Y253906I0J197D01*
G01*
X192595Y139500D02*
G03*
X192988Y139500I197J0D01*
G01*
D02*
G03*
X192595Y139500I-197J0D01*
G01*
Y153500D02*
G03*
X192988Y153500I197J0D01*
G01*
D02*
G03*
X192595Y153500I-197J0D01*
G01*
Y146500D02*
G03*
X192988Y146500I197J0D01*
G01*
D02*
G03*
X192595Y146500I-197J0D01*
G01*
X90350Y185453D02*
Y186240D01*
Y190965D02*
Y191752D01*
X96650Y190965D02*
Y191752D01*
Y185453D02*
Y186240D01*
X90350Y165350D02*
Y166138D01*
Y170862D02*
Y171650D01*
X96650Y170862D02*
Y171650D01*
Y165350D02*
Y166138D01*
X266016Y215504D02*
X314008D01*
Y167512D02*
Y215504D01*
X266016Y167512D02*
X314008D01*
X266016D02*
Y215504D01*
D12*
X228937Y155681D02*
Y156468D01*
X221063D02*
X228937D01*
X221063Y155681D02*
Y156468D01*
Y152532D02*
Y153319D01*
Y152532D02*
X228937D01*
Y153319D01*
X211000Y156000D02*
Y156500D01*
X220000D01*
Y156000D02*
Y156500D01*
Y152500D02*
Y153000D01*
X211000Y152500D02*
X220000D01*
X211000D02*
Y153000D01*
X215500Y152500D02*
Y156500D01*
X202404Y145732D02*
X202757Y145379D01*
X202404Y145732D02*
X208768Y152096D01*
X209121Y151743D01*
X211243Y149621D02*
X211596Y149268D01*
X205232Y142904D02*
X211596Y149268D01*
X204879Y143257D02*
X205232Y142904D01*
X205586Y148914D02*
X208414Y146086D01*
X243000Y148500D02*
Y149000D01*
X252000D01*
Y148500D02*
Y149000D01*
Y145000D02*
Y145500D01*
X243000Y145000D02*
X252000D01*
X243000D02*
Y145500D01*
X247500Y145000D02*
Y149000D01*
X218500Y124500D02*
Y125000D01*
X209500Y124500D02*
X218500D01*
X209500D02*
Y125000D01*
Y128000D02*
Y128500D01*
X218500D01*
Y128000D02*
Y128500D01*
X214000Y124500D02*
Y128500D01*
X255500Y124000D02*
Y128000D01*
X260000Y127500D02*
Y128000D01*
X251000D02*
X260000D01*
X251000Y127500D02*
Y128000D01*
Y124000D02*
Y124500D01*
Y124000D02*
X260000D01*
Y124500D01*
X234500Y124000D02*
Y128000D01*
X230000Y124000D02*
Y124500D01*
Y124000D02*
X239000D01*
Y124500D01*
Y127500D02*
Y128000D01*
X230000D02*
X239000D01*
X230000Y127500D02*
Y128000D01*
X230264Y129500D02*
Y130000D01*
X221264Y129500D02*
X230264D01*
X221264D02*
Y130000D01*
Y133000D02*
Y133500D01*
X230264D01*
Y133000D02*
Y133500D01*
X225764Y129500D02*
Y133500D01*
X100063Y237681D02*
Y238469D01*
X107937D01*
Y237681D02*
Y238469D01*
Y234531D02*
Y235319D01*
X100063Y234531D02*
X107937D01*
X100063D02*
Y235319D01*
X100013Y252636D02*
Y253423D01*
X107887D01*
Y252636D02*
Y253423D01*
Y249486D02*
Y250274D01*
X100013Y249486D02*
X107887D01*
X100013D02*
Y250274D01*
Y247636D02*
Y248423D01*
X107887D01*
Y247636D02*
Y248423D01*
Y244486D02*
Y245274D01*
X100013Y244486D02*
X107887D01*
X100013D02*
Y245274D01*
X100063Y242681D02*
Y243468D01*
X107937D01*
Y242681D02*
Y243468D01*
Y239531D02*
Y240319D01*
X100063Y239531D02*
X107937D01*
X100063D02*
Y240319D01*
X292500Y161000D02*
Y165000D01*
X288000Y161000D02*
Y161500D01*
Y161000D02*
X297000D01*
Y161500D01*
Y164500D02*
Y165000D01*
X288000D02*
X297000D01*
X288000Y164500D02*
Y165000D01*
X301063Y161031D02*
Y161819D01*
Y161031D02*
X308937D01*
Y161819D01*
Y164181D02*
Y164969D01*
X301063D02*
X308937D01*
X301063Y164181D02*
Y164969D01*
X259531Y182437D02*
X260319D01*
X259531Y174563D02*
Y182437D01*
Y174563D02*
X260319D01*
X262681D02*
X263469D01*
Y182437D01*
X262681D02*
X263469D01*
X256457Y202693D02*
X258032D01*
X256457Y189307D02*
Y202693D01*
Y189307D02*
X258032D01*
X261968D02*
X263543D01*
Y202693D01*
X261968D02*
X263543D01*
X256457Y196000D02*
X263543D01*
X309000Y156000D02*
Y160000D01*
X304500Y156000D02*
Y156500D01*
Y156000D02*
X313500D01*
Y156500D01*
Y159500D02*
Y160000D01*
X304500D02*
X313500D01*
X304500Y159500D02*
Y160000D01*
X248000Y154500D02*
X252000D01*
X251500Y150000D02*
X252000D01*
Y159000D01*
X251500D02*
X252000D01*
X248000D02*
X248500D01*
X248000Y150000D02*
Y159000D01*
Y150000D02*
X248500D01*
X210063Y129532D02*
Y130319D01*
Y129532D02*
X217937D01*
Y130319D01*
Y132681D02*
Y133468D01*
X210063D02*
X217937D01*
X210063Y132681D02*
Y133468D01*
X224181Y140563D02*
X224969D01*
Y148437D01*
X224181D02*
X224969D01*
X221031D02*
X221819D01*
X221031Y140563D02*
Y148437D01*
Y140563D02*
X221819D01*
X203031Y137169D02*
X203819D01*
X203031Y129295D02*
Y137169D01*
Y129295D02*
X203819D01*
X206181D02*
X206968D01*
Y137169D01*
X206181D02*
X206968D01*
X226000Y139500D02*
X230000D01*
X226000Y144000D02*
X226500D01*
X226000Y135000D02*
Y144000D01*
Y135000D02*
X226500D01*
X229500D02*
X230000D01*
Y144000D01*
X229500D02*
X230000D01*
X169500Y131500D02*
Y135500D01*
X174000Y135000D02*
Y135500D01*
X165000D02*
X174000D01*
X165000Y135000D02*
Y135500D01*
Y131500D02*
Y132000D01*
Y131500D02*
X174000D01*
Y132000D01*
D13*
X113921Y162598D02*
X126520D01*
X113921D02*
Y167717D01*
Y232283D02*
Y237402D01*
X126520D01*
X254079Y195276D02*
Y210236D01*
D14*
X96500Y249500D02*
X90502D01*
Y246501D01*
X91502Y245501D01*
X93501D01*
X94501Y246501D01*
Y249500D01*
Y247501D02*
X96500Y245501D01*
Y243502D02*
X92501D01*
X90502Y241503D01*
X92501Y239503D01*
X96500D01*
X93501D01*
Y243502D01*
X90502Y237504D02*
X96500D01*
Y234505D01*
X95500Y233505D01*
X91502D01*
X90502Y234505D01*
Y237504D01*
Y231506D02*
Y229506D01*
Y230506D01*
X96500D01*
Y231506D01*
Y229506D01*
X90502Y223508D02*
Y225508D01*
X91502Y226507D01*
X95500D01*
X96500Y225508D01*
Y223508D01*
X95500Y222509D01*
X91502D01*
X90502Y223508D01*
X369493Y174291D02*
X368494Y175291D01*
X366494D01*
X365494Y174291D01*
Y173292D01*
X366494Y172292D01*
X367494D01*
X366494D01*
X365494Y171292D01*
Y170293D01*
X366494Y169293D01*
X368494D01*
X369493Y170293D01*
X363495Y169293D02*
Y170293D01*
X362495D01*
Y169293D01*
X363495D01*
X358497Y174291D02*
X357497Y175291D01*
X355498D01*
X354498Y174291D01*
Y173292D01*
X355498Y172292D01*
X356497D01*
X355498D01*
X354498Y171292D01*
Y170293D01*
X355498Y169293D01*
X357497D01*
X358497Y170293D01*
X352499Y175291D02*
Y171292D01*
X350499Y169293D01*
X348500Y171292D01*
Y175291D01*
X360496Y164694D02*
X361496Y165693D01*
X363495D01*
X364495Y164694D01*
Y163694D01*
X363495Y162694D01*
X361496D01*
X360496Y161695D01*
Y160695D01*
X361496Y159695D01*
X363495D01*
X364495Y160695D01*
X354498Y164694D02*
X355498Y165693D01*
X357497D01*
X358497Y164694D01*
Y160695D01*
X357497Y159695D01*
X355498D01*
X354498Y160695D01*
X352499Y165693D02*
Y159695D01*
X348500D01*
X360496Y155096D02*
X361496Y156096D01*
X363495D01*
X364495Y155096D01*
Y154096D01*
X363495Y153097D01*
X361496D01*
X360496Y152097D01*
Y151097D01*
X361496Y150098D01*
X363495D01*
X364495Y151097D01*
X358497Y156096D02*
Y150098D01*
X355498D01*
X354498Y151097D01*
Y155096D01*
X355498Y156096D01*
X358497D01*
X352499Y150098D02*
Y154096D01*
X350499Y156096D01*
X348500Y154096D01*
Y150098D01*
Y153097D01*
X352499D01*
X360496Y145498D02*
X361496Y146498D01*
X363495D01*
X364495Y145498D01*
Y141500D01*
X363495Y140500D01*
X361496D01*
X360496Y141500D01*
Y143499D01*
X362495D01*
X358497Y140500D02*
Y146498D01*
X354498Y140500D01*
Y146498D01*
X352499D02*
Y140500D01*
X349500D01*
X348500Y141500D01*
Y145498D01*
X349500Y146498D01*
X352499D01*
X176012Y263500D02*
X170014D01*
Y260501D01*
X171013Y259501D01*
X173013D01*
X174012Y260501D01*
Y263500D01*
Y261501D02*
X176012Y259501D01*
X170014Y257502D02*
Y253503D01*
Y255503D01*
X176012D01*
X171013Y247505D02*
X170014Y248505D01*
Y250504D01*
X171013Y251504D01*
X172013D01*
X173013Y250504D01*
Y248505D01*
X174012Y247505D01*
X175012D01*
X176012Y248505D01*
Y250504D01*
X175012Y251504D01*
X179611Y263500D02*
Y259501D01*
Y261501D01*
X185609D01*
X179611Y257502D02*
X185609Y253503D01*
X179611D02*
X185609Y257502D01*
X195207Y263500D02*
X189209D01*
Y260501D01*
X190209Y259501D01*
X192208D01*
X193208Y260501D01*
Y263500D01*
Y261501D02*
X195207Y259501D01*
X189209Y257502D02*
X195207Y253503D01*
X189209D02*
X195207Y257502D01*
X198807Y259501D02*
Y263500D01*
X201806D01*
X200806Y261501D01*
Y260501D01*
X201806Y259501D01*
X203805D01*
X204805Y260501D01*
Y262500D01*
X203805Y263500D01*
X198807Y257502D02*
X202805D01*
X204805Y255503D01*
X202805Y253503D01*
X198807D01*
X208404Y263500D02*
X214402D01*
Y260501D01*
X213403Y259501D01*
X209404D01*
X208404Y260501D01*
Y263500D01*
Y257502D02*
Y253503D01*
Y255503D01*
X214402D01*
Y251504D02*
X208404D01*
Y248505D01*
X209404Y247505D01*
X211403D01*
X212403Y248505D01*
Y251504D01*
Y249504D02*
X214402Y247505D01*
X219002Y259501D02*
X218002Y260501D01*
Y262500D01*
X219002Y263500D01*
X223000D01*
X224000Y262500D01*
Y260501D01*
X223000Y259501D01*
X221001D01*
Y261501D01*
X224000Y257502D02*
X218002D01*
X224000Y253503D01*
X218002D01*
Y251504D02*
X224000D01*
Y248505D01*
X223000Y247505D01*
X219002D01*
X218002Y248505D01*
Y251504D01*
X106709Y147496D02*
X105709Y148496D01*
Y150495D01*
X106709Y151495D01*
X110707D01*
X111707Y150495D01*
Y148496D01*
X110707Y147496D01*
X108708D01*
Y149495D01*
X111707Y145497D02*
X105709D01*
X111707Y141498D01*
X105709D01*
Y139499D02*
X111707D01*
Y136500D01*
X110707Y135500D01*
X106709D01*
X105709Y136500D01*
Y139499D01*
X116306Y147496D02*
X115307Y148496D01*
Y150495D01*
X116306Y151495D01*
X117306D01*
X118306Y150495D01*
Y148496D01*
X119305Y147496D01*
X120305D01*
X121305Y148496D01*
Y150495D01*
X120305Y151495D01*
X115307Y145497D02*
X121305D01*
Y142498D01*
X120305Y141498D01*
X116306D01*
X115307Y142498D01*
Y145497D01*
X121305Y139499D02*
X117306D01*
X115307Y137499D01*
X117306Y135500D01*
X121305D01*
X118306D01*
Y139499D01*
X125904Y147496D02*
X124904Y148496D01*
Y150495D01*
X125904Y151495D01*
X126904D01*
X127903Y150495D01*
Y148496D01*
X128903Y147496D01*
X129903D01*
X130902Y148496D01*
Y150495D01*
X129903Y151495D01*
X125904Y141498D02*
X124904Y142498D01*
Y144497D01*
X125904Y145497D01*
X129903D01*
X130902Y144497D01*
Y142498D01*
X129903Y141498D01*
X124904Y139499D02*
X130902D01*
Y135500D01*
X135502Y156493D02*
X134502Y155494D01*
Y153494D01*
X135502Y152495D01*
X136501D01*
X137501Y153494D01*
Y154494D01*
Y153494D01*
X138501Y152495D01*
X139500D01*
X140500Y153494D01*
Y155494D01*
X139500Y156493D01*
X140500Y150495D02*
X139500D01*
Y149495D01*
X140500D01*
Y150495D01*
X135502Y145497D02*
X134502Y144497D01*
Y142498D01*
X135502Y141498D01*
X136501D01*
X137501Y142498D01*
Y143497D01*
Y142498D01*
X138501Y141498D01*
X139500D01*
X140500Y142498D01*
Y144497D01*
X139500Y145497D01*
X134502Y139499D02*
X138501D01*
X140500Y137499D01*
X138501Y135500D01*
X134502D01*
D132*
X235850Y245512D02*
G03*
X235850Y245512I-591J0D01*
G01*
D133*
X220004Y144512D02*
G03*
X220004Y144512I-492J0D01*
G01*
M02*
