M48
;Layer_Color=9474304
;FILE_FORMAT=2:5
INCH,TZ
;TYPE=PLATED
T1F00S00C0.01181
T2F00S00C0.03543
%
T01
X86500Y136500
X103500Y137500
Y140500
Y143500
Y146500
X107000
Y143500
Y140500
Y137500
X111919
X113500Y140500
X116500Y144000
X120000Y139500
X123000
X126000
X129500Y144000
X130500Y150500
X140000Y150000
X145500Y155000
X149000
X149500Y145500
X147500Y141500
X156000Y140000
Y143000
Y146000
X152500Y133000
X149000
X145500
X138000
X111000
X107500
X104000
X113500Y125000
X115000Y150500
X107216Y155500
X104000Y153000
X156500Y155000
X159500Y146000
Y143000
Y140000
X163000
Y143000
Y146000
X166500
Y143000
Y140000
X172000Y138000
X177000
X179500Y135000
X182500Y132000
X185500Y129000
X189000Y132000
X192500Y134500
Y129000
X196000Y132000
Y126000
X199500Y129000
X203000Y126000
X189000
X182500Y125500
X169500
X174500Y141000
X178000Y148000
X205500Y142000
X205000Y138500
X214000Y139000
X209500Y145500
X222500Y126500
X228000Y126000
X262500Y124000
X284500Y124500
X281500Y127500
X284500Y131000
X281500Y134500
X288000
Y141500
X281500
X284500Y138000
X291500
X298500
X301500Y141500
X295000
Y134500
Y127500
X291500Y124500
X288000Y127500
X291500Y131000
X291000Y151000
X288000Y153500
X295500
X299500
X309500Y149000
X279500Y151000
X276000Y148500
X278500Y145000
X273500Y152000
X276000Y155500
X245000Y151500
X359000Y155500
X397500Y150500
X390500Y156500
X359000Y159000
X312500Y163500
Y172000
X315000Y230000
Y236000
Y242500
Y249500
Y257000
X312000Y253000
Y246000
Y239000
Y233000
Y227000
X296000Y231500
Y236500
Y241500
Y246500
Y251500
Y256500
X291000Y254000
Y249000
Y244000
X286000Y251500
Y256500
X281000Y254000
X276000Y251500
Y256500
X271000Y254000
X266000Y251500
Y256500
Y261500
Y266500
Y271500
X261000Y269000
Y264000
Y259000
Y254000
X246000
X243000Y251000
X240000Y254000
X231500Y250500
X228000Y253000
X224500Y250500
X221000Y253000
X217500Y250500
X214000Y253000
X210500Y250500
X207000Y253000
Y270500
X197000
X195000Y260000
X190000
X192500Y256500
X184500
X186500Y252500
Y249500
X180000Y250500
X176000
X172000
Y254500
X176000
X180000
X178000Y259500
Y263000
X172000Y258500
X162500Y254500
X157500
Y250000
Y245500
Y241000
X159000Y236500
Y232000
X172500
Y235500
Y227500
X170000Y223000
X166000
Y212000
Y208000
Y204000
Y200000
Y196000
Y192000
Y188000
X162000
Y192000
Y196000
Y200000
Y204000
Y208000
Y212000
X172500Y215000
X176000Y212000
Y218500
X184500
Y212000
Y204000
Y196500
X189000Y200500
X193500Y204000
Y196500
X198000Y200500
X193500Y212000
Y218500
X205500Y221500
X209500
X211500Y225000
X207500
X203500
X219500Y227500
X226000Y225500
Y222500
Y219500
Y216500
X229500
Y219500
Y222500
Y225500
X233000
Y222500
X229500Y229000
Y233000
Y237000
X225500
Y232000
X221500Y219500
Y216500
X222000Y211000
X226000
X230000
X228000Y207500
X224000
X222000Y204000
Y200000
X223500Y188000
Y184500
X227000
Y188000
X230500
Y184500
X246500Y198500
Y201500
Y204500
X262000Y205000
X264000Y208000
Y211500
Y215500
Y219500
X267000Y218000
Y222000
X270000Y220000
X272500Y218000
Y222000
X270500Y228500
X275000
X279500
X277500Y232000
X282000
X273000
X268500
X264000
X259000
Y236500
X246000Y237500
Y234500
X243000
Y237500
X266000Y228500
X260000Y208000
X281000Y209500
Y200500
X277500Y196000
X281000Y191500
X277500Y187000
X285500
Y196000
Y205000
X290000Y200500
Y191500
X294500Y196000
Y205000
X299000Y200500
Y191500
X295000Y187000
X303500
X312000
Y196000
X303500
Y205000
X312000
X310000Y168000
X302500Y169500
Y175000
X299500Y159500
X302000Y156500
X279000Y159000
X273500
X272000Y166000
Y169000
Y172000
Y175000
X268500
Y172000
Y169000
Y166000
X244000Y161000
X222500Y158500
X217000
X208000
X196000
X189500
X181500Y158000
X158500Y161000
X170000Y180500
X172500Y192000
X176000Y196000
X172500Y200000
X176000Y204000
X172500Y208000
X189000Y192000
X157500Y259000
Y263319
X217500Y270500
X236000Y271500
X241000Y269000
X246000Y271500
X251000Y269000
X256000Y271500
X307500Y257500
X311000Y260500
X304500Y253500
Y248000
X152000Y254500
X145000Y258681
Y263000
X139500Y260000
Y256500
X137500Y251000
X139000Y245500
X135500
X144000Y246000
X125218Y249919
X115000Y249000
Y251919
Y246000
Y243000
Y240000
X116000Y225000
X119500
X112500
X105500Y227500
X102000
X101500Y222500
X108000Y218000
Y213500
Y209000
X111207Y203287
X107595Y199675
Y192451
X111207Y196063
Y188839
X118431
X114819Y192451
X118431Y196063
X114819Y199675
X118431Y203287
X122043Y199675
Y192451
X122000Y184000
X125500Y180500
Y174500
X118500Y180500
X111500
X115000Y184000
X108000
Y176000
X103000Y172500
X86000Y173500
Y177500
Y181500
Y222000
X86500Y255000
Y259000
X99000Y271000
X102000Y273500
X122000Y262000
Y259000
X130781Y264000
X147000Y225000
Y221000
Y217000
Y187500
Y183500
T02
X108000Y127000
X118000
X128000
X138000
X154500
X164500
X174500
X238158Y138500
X248000
X257842
X274000Y137000
Y127000
X341500Y142500
Y152500
Y162500
Y172500
X222000Y273000
X212000
X202000
X192000
X182000
X172000
X159000
X149000
X139000
X129000
X119000
X109000
M30
