G04*
G04 #@! TF.GenerationSoftware,Altium Limited,Altium Designer,22.3.1 (43)*
G04*
G04 Layer_Color=16711935*
%FSLAX25Y25*%
%MOIN*%
G70*
G04*
G04 #@! TF.SameCoordinates,D668225F-02C3-4EAC-AD72-9857121BA27B*
G04*
G04*
G04 #@! TF.FilePolarity,Negative*
G04*
G01*
G75*
%ADD50R,0.29500X0.16500*%
%ADD52R,0.03950X0.03556*%
%ADD53R,0.03753X0.03162*%
%ADD55R,0.03162X0.03320*%
%ADD57R,0.03320X0.03162*%
%ADD65R,0.03162X0.03753*%
%ADD69R,0.04776X0.04776*%
%ADD70R,0.07769X0.16824*%
%ADD71R,0.16824X0.07769*%
%ADD76C,0.11811*%
%ADD82R,0.06312X0.05918*%
%ADD83R,0.05761X0.11509*%
%ADD85R,0.03950X0.02965*%
%ADD86R,0.05524X0.01981*%
%ADD87O,0.07690X0.10642*%
%ADD88C,0.06706*%
%ADD89R,0.06706X0.06706*%
%ADD90C,0.03162*%
%ADD91R,0.06706X0.06706*%
%ADD107R,0.31456X0.24621*%
G04:AMPARAMS|DCode=117|XSize=31.62mil|YSize=37.53mil|CornerRadius=0mil|HoleSize=0mil|Usage=FLASHONLY|Rotation=315.000|XOffset=0mil|YOffset=0mil|HoleType=Round|Shape=Rectangle|*
%AMROTATEDRECTD117*
4,1,4,-0.02445,-0.00209,0.00209,0.02445,0.02445,0.00209,-0.00209,-0.02445,-0.02445,-0.00209,0.0*
%
%ADD117ROTATEDRECTD117*%

%ADD118R,0.07887X0.32296*%
%ADD119R,0.07887X0.26784*%
%ADD120R,0.08202X0.10524*%
%ADD121R,0.10524X0.08202*%
%ADD122R,0.04737X0.04934*%
%ADD123R,0.04934X0.09461*%
%ADD124R,0.05702X0.03202*%
%ADD125R,0.07887X0.04895*%
%ADD126R,0.02965X0.03950*%
%ADD127R,0.01981X0.05524*%
%ADD128R,0.04934X0.03162*%
%ADD129R,0.04737X0.07493*%
%ADD130R,0.03556X0.01981*%
D50*
X283250Y266250D02*
D03*
D52*
X135665Y258500D02*
D03*
X131335D02*
D03*
X232335D02*
D03*
X236665D02*
D03*
X190169Y251000D02*
D03*
X194500D02*
D03*
X153165Y258500D02*
D03*
X148835D02*
D03*
X162335D02*
D03*
X166665D02*
D03*
X183335Y139500D02*
D03*
X187665D02*
D03*
X183335Y153500D02*
D03*
X187665D02*
D03*
X183335Y146500D02*
D03*
X187665D02*
D03*
D53*
X213236Y154500D02*
D03*
X217764D02*
D03*
X245236Y147000D02*
D03*
X249764D02*
D03*
X216264Y126500D02*
D03*
X211736D02*
D03*
X253236Y126000D02*
D03*
X257764D02*
D03*
X236764D02*
D03*
X232236D02*
D03*
X228028Y131500D02*
D03*
X223500D02*
D03*
X294764Y163000D02*
D03*
X290236D02*
D03*
X311264Y158000D02*
D03*
X306736D02*
D03*
X167236Y133500D02*
D03*
X171764D02*
D03*
D55*
X226732Y154500D02*
D03*
X223268D02*
D03*
X105732Y236500D02*
D03*
X102268D02*
D03*
X105682Y251455D02*
D03*
X102217D02*
D03*
X105682Y246455D02*
D03*
X102217D02*
D03*
X105732Y241500D02*
D03*
X102268D02*
D03*
X303268Y163000D02*
D03*
X306732D02*
D03*
X212268Y131500D02*
D03*
X215732D02*
D03*
D57*
X261500Y180232D02*
D03*
Y176768D02*
D03*
X223000Y142768D02*
D03*
Y146232D02*
D03*
X205000Y134965D02*
D03*
Y131500D02*
D03*
D65*
X250000Y156764D02*
D03*
Y152236D02*
D03*
X228000Y137236D02*
D03*
Y141764D02*
D03*
D69*
X299008Y209520D02*
D03*
X308024D02*
D03*
Y200504D02*
D03*
Y191488D02*
D03*
Y173496D02*
D03*
X289992D02*
D03*
Y209520D02*
D03*
D70*
X272000Y187000D02*
D03*
Y204992D02*
D03*
D71*
X276488Y173496D02*
D03*
D76*
X305000Y131000D02*
D03*
Y269000D02*
D03*
X95000Y131000D02*
D03*
D82*
X260000Y199150D02*
D03*
Y192850D02*
D03*
D83*
X107343Y260010D02*
D03*
X96871D02*
D03*
X114264Y260000D02*
D03*
X124736D02*
D03*
D85*
X236500Y250854D02*
D03*
Y245146D02*
D03*
X201500Y250854D02*
D03*
Y245146D02*
D03*
X131500Y250854D02*
D03*
Y245146D02*
D03*
X149000Y250854D02*
D03*
Y245146D02*
D03*
X166500Y250854D02*
D03*
Y245146D02*
D03*
D86*
X236500Y248000D02*
D03*
X201500D02*
D03*
X131500D02*
D03*
X149000D02*
D03*
X166500D02*
D03*
D87*
X238158Y138500D02*
D03*
X257842D02*
D03*
X248000D02*
D03*
D88*
X159000Y273000D02*
D03*
X149000D02*
D03*
X139000D02*
D03*
X129000D02*
D03*
X119000D02*
D03*
X222000D02*
D03*
X212000D02*
D03*
X202000D02*
D03*
X192000D02*
D03*
X182000D02*
D03*
X118000Y127000D02*
D03*
X128000D02*
D03*
X138000D02*
D03*
X174500D02*
D03*
X164500D02*
D03*
X341500Y172500D02*
D03*
Y162500D02*
D03*
Y152500D02*
D03*
X274000Y127000D02*
D03*
D89*
X109000Y273000D02*
D03*
X172000D02*
D03*
X108000Y127000D02*
D03*
X154500D02*
D03*
D90*
X107595Y192451D02*
D03*
Y199675D02*
D03*
X111207Y188839D02*
D03*
Y196063D02*
D03*
Y203287D02*
D03*
X114819Y192451D02*
D03*
Y199675D02*
D03*
X118431Y188839D02*
D03*
Y196063D02*
D03*
Y203287D02*
D03*
X122043Y192451D02*
D03*
Y199675D02*
D03*
D91*
X341500Y142500D02*
D03*
X274000Y137000D02*
D03*
D107*
X141460Y202453D02*
D03*
D117*
X205399Y145899D02*
D03*
X208601Y149101D02*
D03*
D118*
X251421Y178347D02*
D03*
D119*
Y224410D02*
D03*
D120*
X236559Y165256D02*
D03*
X219039D02*
D03*
X201520D02*
D03*
X184000D02*
D03*
X166480D02*
D03*
X148961D02*
D03*
X131441D02*
D03*
Y234744D02*
D03*
X148961D02*
D03*
X166480D02*
D03*
X184000D02*
D03*
X201520D02*
D03*
X219039D02*
D03*
X236559D02*
D03*
D121*
X116579Y172835D02*
D03*
Y190945D02*
D03*
Y209055D02*
D03*
Y227165D02*
D03*
D122*
X93500Y201500D02*
D03*
D123*
X99307Y207504D02*
D03*
X87693D02*
D03*
D124*
X97154Y188602D02*
D03*
X89850D02*
D03*
X97154Y168500D02*
D03*
X89850D02*
D03*
D125*
X93500Y195000D02*
D03*
Y182205D02*
D03*
Y174898D02*
D03*
Y162102D02*
D03*
D126*
X195646Y139500D02*
D03*
X201354D02*
D03*
X195646Y153500D02*
D03*
X201354D02*
D03*
X195646Y146500D02*
D03*
X201354D02*
D03*
D127*
X198500Y139500D02*
D03*
Y153500D02*
D03*
Y146500D02*
D03*
D128*
X264831Y154500D02*
D03*
X256169Y158240D02*
D03*
Y150760D02*
D03*
D129*
X214000Y139000D02*
D03*
D130*
X209866Y141953D02*
D03*
Y139984D02*
D03*
Y138016D02*
D03*
Y136047D02*
D03*
X218134D02*
D03*
Y138016D02*
D03*
Y139984D02*
D03*
Y141953D02*
D03*
M02*
