G04*
G04 #@! TF.GenerationSoftware,Altium Limited,Altium Designer,22.3.1 (43)*
G04*
G04 Layer_Color=128*
%FSLAX25Y25*%
%MOIN*%
G70*
G04*
G04 #@! TF.SameCoordinates,D668225F-02C3-4EAC-AD72-9857121BA27B*
G04*
G04*
G04 #@! TF.FilePolarity,Positive*
G04*
G01*
G75*
%ADD16R,0.03150X0.02756*%
%ADD17R,0.02953X0.02362*%
%ADD19R,0.02362X0.02520*%
%ADD21R,0.02520X0.02362*%
%ADD29R,0.02362X0.02953*%
%ADD33R,0.03976X0.03976*%
%ADD34R,0.06969X0.16024*%
%ADD35R,0.16024X0.06969*%
%ADD45R,0.05512X0.05118*%
%ADD46R,0.04961X0.10709*%
%ADD48R,0.03150X0.02165*%
%ADD49R,0.04724X0.01181*%
G04:AMPARAMS|DCode=102|XSize=23.62mil|YSize=29.53mil|CornerRadius=0mil|HoleSize=0mil|Usage=FLASHONLY|Rotation=315.000|XOffset=0mil|YOffset=0mil|HoleType=Round|Shape=Rectangle|*
%AMROTATEDRECTD102*
4,1,4,-0.01879,-0.00209,0.00209,0.01879,0.01879,0.00209,-0.00209,-0.01879,-0.01879,-0.00209,0.0*
%
%ADD102ROTATEDRECTD102*%

%ADD103R,0.07087X0.31496*%
%ADD104R,0.07087X0.25984*%
%ADD105R,0.07402X0.09724*%
%ADD106R,0.09724X0.07402*%
%ADD108R,0.03937X0.04134*%
%ADD109R,0.04134X0.08661*%
%ADD110R,0.04902X0.02402*%
%ADD111R,0.07087X0.04095*%
%ADD112R,0.02165X0.03150*%
%ADD113R,0.01181X0.04724*%
%ADD114R,0.04134X0.02362*%
%ADD115R,0.03937X0.06693*%
%ADD116R,0.02756X0.01181*%
%ADD131R,0.29456X0.22621*%
D16*
X135665Y258500D02*
D03*
X131335D02*
D03*
X232335D02*
D03*
X236665D02*
D03*
X190169Y251000D02*
D03*
X194500D02*
D03*
X153165Y258500D02*
D03*
X148835D02*
D03*
X162335D02*
D03*
X166665D02*
D03*
X183335Y139500D02*
D03*
X187665D02*
D03*
X183335Y153500D02*
D03*
X187665D02*
D03*
X183335Y146500D02*
D03*
X187665D02*
D03*
D17*
X213236Y154500D02*
D03*
X217764D02*
D03*
X245236Y147000D02*
D03*
X249764D02*
D03*
X216264Y126500D02*
D03*
X211736D02*
D03*
X253236Y126000D02*
D03*
X257764D02*
D03*
X236764D02*
D03*
X232236D02*
D03*
X228028Y131500D02*
D03*
X223500D02*
D03*
X294764Y163000D02*
D03*
X290236D02*
D03*
X311264Y158000D02*
D03*
X306736D02*
D03*
X167236Y133500D02*
D03*
X171764D02*
D03*
D19*
X226732Y154500D02*
D03*
X223268D02*
D03*
X105732Y236500D02*
D03*
X102268D02*
D03*
X105682Y251455D02*
D03*
X102217D02*
D03*
X105682Y246455D02*
D03*
X102217D02*
D03*
X105732Y241500D02*
D03*
X102268D02*
D03*
X303268Y163000D02*
D03*
X306732D02*
D03*
X212268Y131500D02*
D03*
X215732D02*
D03*
D21*
X261500Y180232D02*
D03*
Y176768D02*
D03*
X223000Y142768D02*
D03*
Y146232D02*
D03*
X205000Y134965D02*
D03*
Y131500D02*
D03*
D29*
X250000Y156764D02*
D03*
Y152236D02*
D03*
X228000Y137236D02*
D03*
Y141764D02*
D03*
D33*
X299008Y209520D02*
D03*
X308024D02*
D03*
Y200504D02*
D03*
Y191488D02*
D03*
Y173496D02*
D03*
X289992D02*
D03*
Y209520D02*
D03*
D34*
X272000Y187000D02*
D03*
Y204992D02*
D03*
D35*
X276488Y173496D02*
D03*
D45*
X260000Y199150D02*
D03*
Y192850D02*
D03*
D46*
X107343Y260010D02*
D03*
X96871D02*
D03*
X114264Y260000D02*
D03*
X124736D02*
D03*
D48*
X236500Y250854D02*
D03*
Y245146D02*
D03*
X201500Y250854D02*
D03*
Y245146D02*
D03*
X131500Y250854D02*
D03*
Y245146D02*
D03*
X149000Y250854D02*
D03*
Y245146D02*
D03*
X166500Y250854D02*
D03*
Y245146D02*
D03*
D49*
X236500Y248000D02*
D03*
X201500D02*
D03*
X131500D02*
D03*
X149000D02*
D03*
X166500D02*
D03*
D102*
X205399Y145899D02*
D03*
X208601Y149101D02*
D03*
D103*
X251421Y178347D02*
D03*
D104*
Y224410D02*
D03*
D105*
X236559Y165256D02*
D03*
X219039D02*
D03*
X201520D02*
D03*
X184000D02*
D03*
X166480D02*
D03*
X148961D02*
D03*
X131441D02*
D03*
Y234744D02*
D03*
X148961D02*
D03*
X166480D02*
D03*
X184000D02*
D03*
X201520D02*
D03*
X219039D02*
D03*
X236559D02*
D03*
D106*
X116579Y172835D02*
D03*
Y190945D02*
D03*
Y209055D02*
D03*
Y227165D02*
D03*
D108*
X93500Y201500D02*
D03*
D109*
X99307Y207504D02*
D03*
X87693D02*
D03*
D110*
X97154Y188602D02*
D03*
X89850D02*
D03*
X97154Y168500D02*
D03*
X89850D02*
D03*
D111*
X93500Y195000D02*
D03*
Y182205D02*
D03*
Y174898D02*
D03*
Y162102D02*
D03*
D112*
X195646Y139500D02*
D03*
X201354D02*
D03*
X195646Y153500D02*
D03*
X201354D02*
D03*
X195646Y146500D02*
D03*
X201354D02*
D03*
D113*
X198500Y139500D02*
D03*
Y153500D02*
D03*
Y146500D02*
D03*
D114*
X264831Y154500D02*
D03*
X256169Y158240D02*
D03*
Y150760D02*
D03*
D115*
X214000Y139000D02*
D03*
D116*
X209866Y141953D02*
D03*
Y139984D02*
D03*
Y138016D02*
D03*
Y136047D02*
D03*
X218134D02*
D03*
Y138016D02*
D03*
Y139984D02*
D03*
Y141953D02*
D03*
D131*
X141460Y202453D02*
D03*
M02*
