G04*
G04 #@! TF.GenerationSoftware,Altium Limited,Altium Designer,22.3.1 (43)*
G04*
G04 Layer_Physical_Order=3*
G04 Layer_Color=16440176*
%FSLAX25Y25*%
%MOIN*%
G70*
G04*
G04 #@! TF.SameCoordinates,D668225F-02C3-4EAC-AD72-9857121BA27B*
G04*
G04*
G04 #@! TF.FilePolarity,Positive*
G04*
G01*
G75*
%ADD14C,0.01000*%
%ADD93C,0.00600*%
%ADD94C,0.01200*%
%ADD95C,0.00800*%
%ADD97O,0.06890X0.09843*%
%ADD98C,0.05906*%
%ADD99R,0.05906X0.05906*%
%ADD100C,0.02362*%
%ADD101R,0.05906X0.05906*%
G36*
X232702Y277000D02*
X223220Y267518D01*
X188469D01*
X188277Y267980D01*
X190222Y269924D01*
X190629Y269689D01*
X191532Y269447D01*
X192468D01*
X193371Y269689D01*
X194181Y270157D01*
X194843Y270819D01*
X195311Y271629D01*
X195553Y272532D01*
Y273468D01*
X195311Y274371D01*
X194843Y275181D01*
X194181Y275843D01*
X193371Y276311D01*
X192468Y276553D01*
X191532D01*
X190629Y276311D01*
X189819Y275843D01*
X189157Y275181D01*
X188689Y274371D01*
X188447Y273468D01*
Y272532D01*
X188689Y271629D01*
X188924Y271222D01*
X186620Y268918D01*
X177729D01*
X177600Y269401D01*
X179486Y270489D01*
X179819Y270157D01*
X180629Y269689D01*
X181532Y269447D01*
X182468D01*
X183371Y269689D01*
X184181Y270157D01*
X184843Y270819D01*
X185311Y271629D01*
X185553Y272532D01*
Y273468D01*
X185311Y274371D01*
X184843Y275181D01*
X184181Y275843D01*
X183371Y276311D01*
X182468Y276553D01*
X181532D01*
X180629Y276311D01*
X179819Y275843D01*
X179157Y275181D01*
X178689Y274371D01*
X178447Y273468D01*
Y272532D01*
X178569Y272079D01*
X175986Y270588D01*
X175553Y270838D01*
Y276553D01*
X168447D01*
Y269918D01*
X161649D01*
X161442Y270418D01*
X161843Y270819D01*
X162311Y271629D01*
X162553Y272532D01*
Y273468D01*
X162311Y274371D01*
X161843Y275181D01*
X161181Y275843D01*
X160371Y276311D01*
X159468Y276553D01*
X158532D01*
X157629Y276311D01*
X156819Y275843D01*
X156157Y275181D01*
X155689Y274371D01*
X155447Y273468D01*
Y272532D01*
X155689Y271629D01*
X156157Y270819D01*
X156558Y270418D01*
X156351Y269918D01*
X151649D01*
X151442Y270418D01*
X151843Y270819D01*
X152311Y271629D01*
X152553Y272532D01*
Y273468D01*
X152311Y274371D01*
X151843Y275181D01*
X151181Y275843D01*
X150371Y276311D01*
X149468Y276553D01*
X148532D01*
X147629Y276311D01*
X146819Y275843D01*
X146157Y275181D01*
X145689Y274371D01*
X145447Y273468D01*
Y272532D01*
X145689Y271629D01*
X146157Y270819D01*
X146558Y270418D01*
X146351Y269918D01*
X141649D01*
X141442Y270418D01*
X141843Y270819D01*
X142311Y271629D01*
X142553Y272532D01*
Y273468D01*
X142311Y274371D01*
X141843Y275181D01*
X141181Y275843D01*
X140371Y276311D01*
X139468Y276553D01*
X138532D01*
X137629Y276311D01*
X136819Y275843D01*
X136157Y275181D01*
X135689Y274371D01*
X135447Y273468D01*
Y272532D01*
X135689Y271629D01*
X136157Y270819D01*
X136558Y270418D01*
X136351Y269918D01*
X131649D01*
X131442Y270418D01*
X131843Y270819D01*
X132311Y271629D01*
X132553Y272532D01*
Y273468D01*
X132311Y274371D01*
X131843Y275181D01*
X131181Y275843D01*
X130371Y276311D01*
X129468Y276553D01*
X128532D01*
X127629Y276311D01*
X126819Y275843D01*
X126157Y275181D01*
X125689Y274371D01*
X125447Y273468D01*
Y272532D01*
X125689Y271629D01*
X126157Y270819D01*
X126819Y270157D01*
X127629Y269689D01*
X128067Y269572D01*
X128217Y269014D01*
X126851Y267649D01*
X126766Y267521D01*
X126442Y267452D01*
X126282Y267461D01*
X126189Y267489D01*
X126084Y267647D01*
X122234Y271496D01*
X122311Y271629D01*
X122553Y272532D01*
Y273468D01*
X122311Y274371D01*
X121843Y275181D01*
X121181Y275843D01*
X120371Y276311D01*
X119468Y276553D01*
X118532D01*
X117629Y276311D01*
X116819Y275843D01*
X116157Y275181D01*
X115689Y274371D01*
X115447Y273468D01*
Y272532D01*
X115689Y271629D01*
X116157Y270819D01*
X116819Y270157D01*
X117629Y269689D01*
X118532Y269447D01*
X119468D01*
X120371Y269689D01*
X120504Y269766D01*
X123995Y266275D01*
Y251214D01*
X123708Y250928D01*
X123437Y250273D01*
Y249565D01*
X123708Y248910D01*
X124209Y248409D01*
X124864Y248138D01*
X125573D01*
X126082Y248349D01*
X126582Y248111D01*
Y245880D01*
X119120Y238418D01*
X116644D01*
X116437Y238918D01*
X116510Y238991D01*
X116781Y239646D01*
Y240354D01*
X116510Y241009D01*
X116019Y241500D01*
X116510Y241991D01*
X116781Y242646D01*
Y243354D01*
X116510Y244009D01*
X116019Y244500D01*
X116510Y244991D01*
X116781Y245646D01*
Y246354D01*
X116510Y247009D01*
X116019Y247500D01*
X116510Y247991D01*
X116781Y248646D01*
Y249354D01*
X116510Y250009D01*
X116059Y250460D01*
X116510Y250910D01*
X116781Y251565D01*
Y252273D01*
X116510Y252928D01*
X116009Y253429D01*
X115354Y253700D01*
X114646D01*
X113991Y253429D01*
X113490Y252928D01*
X113219Y252273D01*
Y251565D01*
X113490Y250910D01*
X113941Y250460D01*
X113490Y250009D01*
X113219Y249354D01*
Y248646D01*
X113490Y247991D01*
X113981Y247500D01*
X113490Y247009D01*
X113219Y246354D01*
Y245646D01*
X113490Y244991D01*
X113981Y244500D01*
X113490Y244009D01*
X113219Y243354D01*
Y242646D01*
X113490Y241991D01*
X113981Y241500D01*
X113490Y241009D01*
X113219Y240354D01*
Y239646D01*
X113490Y238991D01*
X113564Y238918D01*
X113356Y238418D01*
X112000D01*
X111649Y238348D01*
X111351Y238149D01*
X102446Y229243D01*
X102354Y229281D01*
X101646D01*
X100991Y229010D01*
X100490Y228509D01*
X100219Y227854D01*
Y227146D01*
X100490Y226491D01*
X100991Y225990D01*
X101646Y225719D01*
X102354D01*
X103009Y225990D01*
X103467Y226448D01*
X103750Y226471D01*
X104033Y226448D01*
X104491Y225990D01*
X105146Y225719D01*
X105854D01*
X106509Y225990D01*
X107010Y226491D01*
X107281Y227146D01*
Y227854D01*
X107010Y228509D01*
X106509Y229010D01*
X106508Y229013D01*
X112877Y235382D01*
X119997D01*
X120348Y235452D01*
X120646Y235651D01*
X129349Y244354D01*
X129548Y244652D01*
X129618Y245003D01*
Y265820D01*
X130680Y266882D01*
X133431D01*
X133623Y266420D01*
X132851Y265649D01*
X132652Y265351D01*
X132582Y265000D01*
Y247500D01*
X132652Y247149D01*
X132851Y246851D01*
X133757Y245946D01*
X133719Y245854D01*
Y245146D01*
X133990Y244491D01*
X134491Y243990D01*
X135146Y243719D01*
X135854D01*
X136509Y243990D01*
X136967Y244448D01*
X137250Y244471D01*
X137533Y244448D01*
X137991Y243990D01*
X138646Y243719D01*
X139354D01*
X140009Y243990D01*
X140510Y244491D01*
X140781Y245146D01*
Y245854D01*
X140510Y246509D01*
X140009Y247010D01*
X139354Y247281D01*
X138646D01*
X138554Y247243D01*
X137041Y248757D01*
X137051Y248800D01*
X137286Y249219D01*
X137854D01*
X138509Y249490D01*
X139010Y249991D01*
X139281Y250646D01*
Y251354D01*
X139010Y252009D01*
X138509Y252510D01*
X137854Y252781D01*
X137146D01*
X136491Y252510D01*
X136118Y252136D01*
X135618Y252317D01*
Y263120D01*
X136980Y264482D01*
X176310D01*
X176502Y264020D01*
X176490Y264009D01*
X176219Y263354D01*
Y262646D01*
X176490Y261991D01*
X176948Y261533D01*
X176971Y261250D01*
X176948Y260967D01*
X176490Y260509D01*
X176219Y259854D01*
Y259146D01*
X176490Y258491D01*
X176991Y257990D01*
X177646Y257719D01*
X178354D01*
X179009Y257990D01*
X179510Y258491D01*
X179781Y259146D01*
Y259854D01*
X179510Y260509D01*
X179052Y260967D01*
X179029Y261250D01*
X179052Y261533D01*
X179510Y261991D01*
X179781Y262646D01*
Y263354D01*
X179510Y264009D01*
X179498Y264020D01*
X179690Y264482D01*
X224097D01*
X224448Y264552D01*
X224746Y264751D01*
X234377Y274382D01*
X268400D01*
Y257900D01*
X298100D01*
Y263747D01*
X298562Y263938D01*
X300500Y262000D01*
X306582D01*
Y259048D01*
X306491Y259010D01*
X305990Y258509D01*
X305719Y257854D01*
Y257146D01*
X305990Y256491D01*
X306491Y255990D01*
X307146Y255719D01*
X307854D01*
X308509Y255990D01*
X309010Y256491D01*
X309281Y257146D01*
Y257854D01*
X309010Y258509D01*
X308509Y259010D01*
X308418Y259048D01*
Y262000D01*
X309328D01*
X309519Y261538D01*
X309490Y261509D01*
X309219Y260854D01*
Y260146D01*
X309490Y259491D01*
X309991Y258990D01*
X310646Y258719D01*
X311354D01*
X312009Y258990D01*
X312510Y259491D01*
X312781Y260146D01*
Y260854D01*
X312591Y261313D01*
X312825Y261786D01*
X312876Y261831D01*
X313134Y261866D01*
X315500Y259500D01*
Y141500D01*
X313000Y139000D01*
X300500D01*
X297000Y135500D01*
Y125000D01*
X294500Y122500D01*
X103500D01*
X102000Y124000D01*
Y135774D01*
X102491Y135990D01*
X103146Y135719D01*
X103854D01*
X104509Y135990D01*
X104967Y136448D01*
X105250Y136471D01*
X105533Y136448D01*
X105991Y135990D01*
X106646Y135719D01*
X107354D01*
X108009Y135990D01*
X108510Y136491D01*
X108781Y137146D01*
Y137854D01*
X108510Y138509D01*
X108019Y139000D01*
X108510Y139491D01*
X108781Y140146D01*
Y140854D01*
X108510Y141509D01*
X108019Y142000D01*
X108510Y142491D01*
X108781Y143146D01*
Y143854D01*
X108510Y144509D01*
X108019Y145000D01*
X108510Y145491D01*
X108781Y146146D01*
Y146854D01*
X108510Y147509D01*
X108009Y148010D01*
X107354Y148281D01*
X106646D01*
X105991Y148010D01*
X105533Y147552D01*
X105250Y147529D01*
X104967Y147552D01*
X104509Y148010D01*
X103854Y148281D01*
X103146D01*
X102491Y148010D01*
X101990Y147509D01*
X101719Y146854D01*
Y146146D01*
X101990Y145491D01*
X102481Y145000D01*
X101990Y144509D01*
X101719Y143854D01*
Y143146D01*
X101990Y142491D01*
X102481Y142000D01*
X101990Y141509D01*
X101719Y140854D01*
Y140146D01*
X101990Y139491D01*
X102481Y139000D01*
X101990Y138509D01*
X101719Y137854D01*
Y137146D01*
X101830Y136877D01*
X101406Y136594D01*
X99500Y138500D01*
X91500D01*
X87500Y134500D01*
X85500D01*
X83500Y136500D01*
Y260500D01*
X100500Y277500D01*
X232495D01*
X232702Y277000D01*
D02*
G37*
%LPC*%
G36*
X222520Y276953D02*
X221480D01*
X220474Y276683D01*
X219573Y276163D01*
X219417Y276007D01*
X222000Y273424D01*
X224583Y276007D01*
X224427Y276163D01*
X223526Y276683D01*
X222520Y276953D01*
D02*
G37*
G36*
X225007Y275583D02*
X222424Y273000D01*
X225007Y270417D01*
X225163Y270573D01*
X225683Y271474D01*
X225953Y272480D01*
Y273520D01*
X225683Y274526D01*
X225163Y275427D01*
X225007Y275583D01*
D02*
G37*
G36*
X218993D02*
X218837Y275427D01*
X218317Y274526D01*
X218047Y273520D01*
Y272480D01*
X218317Y271474D01*
X218837Y270573D01*
X218993Y270417D01*
X221576Y273000D01*
X218993Y275583D01*
D02*
G37*
G36*
X212468Y276553D02*
X211532D01*
X210629Y276311D01*
X209819Y275843D01*
X209157Y275181D01*
X208689Y274371D01*
X208447Y273468D01*
Y272532D01*
X208689Y271629D01*
X209157Y270819D01*
X209819Y270157D01*
X210629Y269689D01*
X211532Y269447D01*
X212468D01*
X213371Y269689D01*
X214181Y270157D01*
X214843Y270819D01*
X215311Y271629D01*
X215553Y272532D01*
Y273468D01*
X215311Y274371D01*
X214843Y275181D01*
X214181Y275843D01*
X213371Y276311D01*
X212468Y276553D01*
D02*
G37*
G36*
X202468D02*
X201532D01*
X200629Y276311D01*
X199819Y275843D01*
X199157Y275181D01*
X198689Y274371D01*
X198447Y273468D01*
Y272532D01*
X198689Y271629D01*
X199157Y270819D01*
X199819Y270157D01*
X200629Y269689D01*
X201532Y269447D01*
X202468D01*
X203371Y269689D01*
X204181Y270157D01*
X204843Y270819D01*
X205311Y271629D01*
X205553Y272532D01*
Y273468D01*
X205311Y274371D01*
X204843Y275181D01*
X204181Y275843D01*
X203371Y276311D01*
X202468Y276553D01*
D02*
G37*
G36*
X112553D02*
X105447D01*
Y269447D01*
X112553D01*
Y276553D01*
D02*
G37*
G36*
X222000Y272576D02*
X219417Y269993D01*
X219573Y269837D01*
X220474Y269317D01*
X221480Y269047D01*
X222520D01*
X223526Y269317D01*
X224427Y269837D01*
X224583Y269993D01*
X222000Y272576D01*
D02*
G37*
G36*
X139854Y261781D02*
X139146D01*
X138491Y261510D01*
X137990Y261009D01*
X137719Y260354D01*
Y259646D01*
X137990Y258991D01*
X138448Y258533D01*
X138471Y258250D01*
X138448Y257967D01*
X137990Y257509D01*
X137719Y256854D01*
Y256146D01*
X137990Y255491D01*
X138491Y254990D01*
X139146Y254719D01*
X139854D01*
X140509Y254990D01*
X141010Y255491D01*
X141281Y256146D01*
Y256854D01*
X141010Y257509D01*
X140552Y257967D01*
X140529Y258250D01*
X140552Y258533D01*
X141010Y258991D01*
X141281Y259646D01*
Y260354D01*
X141010Y261009D01*
X140509Y261510D01*
X139854Y261781D01*
D02*
G37*
G36*
X162854Y256281D02*
X162146D01*
X161491Y256010D01*
X160990Y255509D01*
X160719Y254854D01*
Y254146D01*
X160990Y253491D01*
X161491Y252990D01*
X162146Y252719D01*
X162854D01*
X163509Y252990D01*
X164010Y253491D01*
X164281Y254146D01*
Y254854D01*
X164010Y255509D01*
X163509Y256010D01*
X162854Y256281D01*
D02*
G37*
G36*
X152354D02*
X151646D01*
X150991Y256010D01*
X150490Y255509D01*
X150219Y254854D01*
Y254146D01*
X150490Y253491D01*
X150991Y252990D01*
X151646Y252719D01*
X152354D01*
X153009Y252990D01*
X153510Y253491D01*
X153781Y254146D01*
Y254854D01*
X153510Y255509D01*
X153009Y256010D01*
X152354Y256281D01*
D02*
G37*
G36*
X186854Y254281D02*
X186146D01*
X185491Y254010D01*
X184990Y253509D01*
X184719Y252854D01*
Y252146D01*
X184990Y251491D01*
X185481Y251000D01*
X184990Y250509D01*
X184719Y249854D01*
Y249146D01*
X184990Y248491D01*
X185491Y247990D01*
X186146Y247719D01*
X186854D01*
X187509Y247990D01*
X188010Y248491D01*
X188281Y249146D01*
Y249854D01*
X188010Y250509D01*
X187519Y251000D01*
X188010Y251491D01*
X188281Y252146D01*
Y252854D01*
X188010Y253509D01*
X187509Y254010D01*
X186854Y254281D01*
D02*
G37*
G36*
X282354Y233781D02*
X281646D01*
X280991Y233510D01*
X280490Y233009D01*
X280219Y232354D01*
Y231646D01*
X280490Y230991D01*
X280991Y230490D01*
X281646Y230219D01*
X282354D01*
X283009Y230490D01*
X283510Y230991D01*
X283781Y231646D01*
Y232354D01*
X283510Y233009D01*
X283009Y233510D01*
X282354Y233781D01*
D02*
G37*
G36*
X172854Y237281D02*
X172146D01*
X171491Y237010D01*
X170990Y236509D01*
X170719Y235854D01*
Y235146D01*
X170990Y234491D01*
X171448Y234033D01*
X171471Y233750D01*
X171448Y233467D01*
X170990Y233009D01*
X170719Y232354D01*
Y231646D01*
X170990Y230991D01*
X171491Y230490D01*
X172146Y230219D01*
X172854D01*
X173509Y230490D01*
X173795Y230777D01*
X224205D01*
X224491Y230490D01*
X225146Y230219D01*
X225854D01*
X226509Y230490D01*
X227010Y230991D01*
X227281Y231646D01*
Y232354D01*
X227010Y233009D01*
X226509Y233510D01*
X225854Y233781D01*
X225146D01*
X224491Y233510D01*
X224205Y233224D01*
X173795D01*
X173552Y233467D01*
X173529Y233750D01*
X173552Y234033D01*
X174010Y234491D01*
X174281Y235146D01*
Y235854D01*
X174010Y236509D01*
X173509Y237010D01*
X172854Y237281D01*
D02*
G37*
G36*
X219854Y229281D02*
X219146D01*
X218491Y229010D01*
X218103Y228622D01*
X173897D01*
X173509Y229010D01*
X172854Y229281D01*
X172146D01*
X171491Y229010D01*
X170990Y228509D01*
X170719Y227854D01*
Y227146D01*
X170990Y226491D01*
X171491Y225990D01*
X172146Y225719D01*
X172854D01*
X173509Y225990D01*
X173897Y226378D01*
X201706D01*
X201936Y225878D01*
X201719Y225354D01*
Y224646D01*
X201990Y223991D01*
X202491Y223490D01*
X203146Y223219D01*
X203854D01*
X204091Y223317D01*
X204374Y222893D01*
X203990Y222509D01*
X203719Y221854D01*
Y221146D01*
X203990Y220491D01*
X204491Y219990D01*
X205146Y219719D01*
X205854D01*
X206509Y219990D01*
X207010Y220491D01*
X207250Y221071D01*
X207355Y221087D01*
X207645D01*
X207750Y221071D01*
X207990Y220491D01*
X208491Y219990D01*
X209146Y219719D01*
X209854D01*
X210509Y219990D01*
X211010Y220491D01*
X211281Y221146D01*
Y221854D01*
X211010Y222509D01*
X210626Y222893D01*
X210909Y223317D01*
X211146Y223219D01*
X211854D01*
X212509Y223490D01*
X213010Y223991D01*
X213281Y224646D01*
Y225354D01*
X213064Y225878D01*
X213294Y226378D01*
X218103D01*
X218491Y225990D01*
X219146Y225719D01*
X219854D01*
X220509Y225990D01*
X221010Y226491D01*
X221281Y227146D01*
Y227854D01*
X221010Y228509D01*
X220509Y229010D01*
X219854Y229281D01*
D02*
G37*
G36*
X277854Y233781D02*
X277146D01*
X276491Y233510D01*
X275990Y233009D01*
X275719Y232354D01*
Y231646D01*
X275990Y230991D01*
X276491Y230490D01*
X277146Y230219D01*
X277854D01*
X278091Y230317D01*
X278374Y229893D01*
X277990Y229509D01*
X277719Y228854D01*
Y228146D01*
X277990Y227491D01*
X278491Y226990D01*
X279146Y226719D01*
X279854D01*
X280509Y226990D01*
X281010Y227491D01*
X281281Y228146D01*
Y228854D01*
X281010Y229509D01*
X280509Y230010D01*
X279854Y230281D01*
X279146D01*
X278909Y230183D01*
X278626Y230607D01*
X279010Y230991D01*
X279281Y231646D01*
Y232354D01*
X279010Y233009D01*
X278509Y233510D01*
X277854Y233781D01*
D02*
G37*
G36*
X273354D02*
X272646D01*
X271991Y233510D01*
X271490Y233009D01*
X271219Y232354D01*
Y231646D01*
X271490Y230991D01*
X271991Y230490D01*
X272646Y230219D01*
X273354D01*
X273591Y230317D01*
X273874Y229893D01*
X273490Y229509D01*
X273219Y228854D01*
Y228146D01*
X273490Y227491D01*
X273991Y226990D01*
X274646Y226719D01*
X275354D01*
X276009Y226990D01*
X276510Y227491D01*
X276781Y228146D01*
Y228854D01*
X276510Y229509D01*
X276009Y230010D01*
X275354Y230281D01*
X274646D01*
X274409Y230183D01*
X274126Y230607D01*
X274510Y230991D01*
X274781Y231646D01*
Y232354D01*
X274510Y233009D01*
X274009Y233510D01*
X273354Y233781D01*
D02*
G37*
G36*
X268854D02*
X268146D01*
X267491Y233510D01*
X266990Y233009D01*
X266719Y232354D01*
Y231646D01*
X266990Y230991D01*
X267491Y230490D01*
X268146Y230219D01*
X268854D01*
X269091Y230317D01*
X269374Y229893D01*
X268990Y229509D01*
X268719Y228854D01*
Y228146D01*
X268990Y227491D01*
X269491Y226990D01*
X270146Y226719D01*
X270854D01*
X271509Y226990D01*
X272010Y227491D01*
X272281Y228146D01*
Y228854D01*
X272010Y229509D01*
X271509Y230010D01*
X270854Y230281D01*
X270146D01*
X269909Y230183D01*
X269626Y230607D01*
X270010Y230991D01*
X270281Y231646D01*
Y232354D01*
X270010Y233009D01*
X269509Y233510D01*
X268854Y233781D01*
D02*
G37*
G36*
X264354D02*
X263646D01*
X262991Y233510D01*
X262490Y233009D01*
X262219Y232354D01*
Y231646D01*
X262490Y230991D01*
X262991Y230490D01*
X263646Y230219D01*
X264354D01*
X264591Y230317D01*
X264874Y229893D01*
X264490Y229509D01*
X264219Y228854D01*
Y228146D01*
X264490Y227491D01*
X264991Y226990D01*
X265646Y226719D01*
X266354D01*
X267009Y226990D01*
X267510Y227491D01*
X267781Y228146D01*
Y228854D01*
X267510Y229509D01*
X267009Y230010D01*
X266354Y230281D01*
X265646D01*
X265409Y230183D01*
X265126Y230607D01*
X265510Y230991D01*
X265781Y231646D01*
Y232354D01*
X265510Y233009D01*
X265009Y233510D01*
X264354Y233781D01*
D02*
G37*
G36*
X119854Y226781D02*
X119146D01*
X118491Y226510D01*
X118033Y226052D01*
X117750Y226029D01*
X117467Y226052D01*
X117009Y226510D01*
X116354Y226781D01*
X115646D01*
X114991Y226510D01*
X114533Y226052D01*
X114250Y226029D01*
X113967Y226052D01*
X113509Y226510D01*
X112854Y226781D01*
X112146D01*
X111491Y226510D01*
X110990Y226009D01*
X110719Y225354D01*
Y224646D01*
X110990Y223991D01*
X111491Y223490D01*
X112146Y223219D01*
X112854D01*
X113509Y223490D01*
X113967Y223948D01*
X114250Y223971D01*
X114533Y223948D01*
X114991Y223490D01*
X115646Y223219D01*
X116354D01*
X117009Y223490D01*
X117467Y223948D01*
X117750Y223971D01*
X118033Y223948D01*
X118491Y223490D01*
X119146Y223219D01*
X119854D01*
X120509Y223490D01*
X121010Y223991D01*
X121281Y224646D01*
Y225354D01*
X121010Y226009D01*
X120509Y226510D01*
X119854Y226781D01*
D02*
G37*
G36*
X170354Y224781D02*
X169646D01*
X168991Y224510D01*
X168490Y224009D01*
X168250Y223429D01*
X168145Y223413D01*
X167855D01*
X167750Y223429D01*
X167510Y224009D01*
X167009Y224510D01*
X166354Y224781D01*
X165646D01*
X164991Y224510D01*
X164490Y224009D01*
X164219Y223354D01*
Y222646D01*
X164490Y221991D01*
X164991Y221490D01*
X165646Y221219D01*
X166354D01*
X167009Y221490D01*
X167510Y221991D01*
X167750Y222571D01*
X167855Y222587D01*
X168145D01*
X168250Y222571D01*
X168490Y221991D01*
X168991Y221490D01*
X169646Y221219D01*
X170354D01*
X171009Y221490D01*
X171510Y221991D01*
X171781Y222646D01*
Y223354D01*
X171510Y224009D01*
X171009Y224510D01*
X170354Y224781D01*
D02*
G37*
G36*
X272854Y223781D02*
X272146D01*
X271491Y223510D01*
X270990Y223009D01*
X270719Y222354D01*
Y222171D01*
X270354Y221781D01*
X270257Y221781D01*
X269646D01*
X269273Y221627D01*
X268781Y221953D01*
Y222354D01*
X268510Y223009D01*
X268009Y223510D01*
X267354Y223781D01*
X266646D01*
X265991Y223510D01*
X265490Y223009D01*
X265219Y222354D01*
Y221646D01*
X265330Y221377D01*
X265180Y221205D01*
X264927Y221044D01*
X264354Y221281D01*
X263646D01*
X262991Y221010D01*
X262490Y220509D01*
X262219Y219854D01*
Y219146D01*
X262490Y218491D01*
X262991Y217990D01*
X263571Y217750D01*
X263587Y217645D01*
Y217355D01*
X263571Y217250D01*
X262991Y217010D01*
X262490Y216509D01*
X262219Y215854D01*
Y215146D01*
X262490Y214491D01*
X262991Y213990D01*
X263571Y213750D01*
X263587Y213645D01*
Y213355D01*
X263571Y213250D01*
X262991Y213010D01*
X262490Y212509D01*
X262219Y211854D01*
Y211146D01*
X262490Y210491D01*
X262948Y210033D01*
X262971Y209750D01*
X262948Y209467D01*
X262490Y209009D01*
X262250Y208429D01*
X262145Y208413D01*
X261855D01*
X261750Y208429D01*
X261510Y209009D01*
X261009Y209510D01*
X260354Y209781D01*
X259646D01*
X258991Y209510D01*
X258490Y209009D01*
X258219Y208354D01*
Y207646D01*
X258490Y206991D01*
X258991Y206490D01*
X259646Y206219D01*
X260047D01*
X260373Y205727D01*
X260219Y205354D01*
Y204646D01*
X260490Y203991D01*
X260991Y203490D01*
X261646Y203219D01*
X262354D01*
X263009Y203490D01*
X263510Y203991D01*
X263781Y204646D01*
Y205354D01*
X263627Y205727D01*
X263953Y206219D01*
X264354D01*
X265009Y206490D01*
X265510Y206991D01*
X265781Y207646D01*
Y208354D01*
X265510Y209009D01*
X265052Y209467D01*
X265029Y209750D01*
X265052Y210033D01*
X265510Y210491D01*
X265781Y211146D01*
Y211854D01*
X265510Y212509D01*
X265009Y213010D01*
X264429Y213250D01*
X264413Y213355D01*
Y213645D01*
X264429Y213750D01*
X265009Y213990D01*
X265510Y214491D01*
X265781Y215146D01*
Y215854D01*
X265670Y216123D01*
X265820Y216295D01*
X266073Y216456D01*
X266646Y216219D01*
X267354D01*
X268009Y216490D01*
X268510Y216991D01*
X268781Y217646D01*
Y218047D01*
X269273Y218373D01*
X269646Y218219D01*
X270257D01*
X270354Y218219D01*
X270719Y217829D01*
Y217646D01*
X270990Y216991D01*
X271491Y216490D01*
X272146Y216219D01*
X272854D01*
X273509Y216490D01*
X274010Y216991D01*
X274281Y217646D01*
Y218354D01*
X274010Y219009D01*
X273509Y219510D01*
X272929Y219750D01*
X272913Y219855D01*
Y220145D01*
X272929Y220250D01*
X273509Y220490D01*
X274010Y220991D01*
X274281Y221646D01*
Y222354D01*
X274010Y223009D01*
X273509Y223510D01*
X272854Y223781D01*
D02*
G37*
G36*
X230354Y212781D02*
X229646D01*
X228991Y212510D01*
X228490Y212009D01*
X228250Y211429D01*
X228145Y211413D01*
X227855D01*
X227750Y211429D01*
X227510Y212009D01*
X227009Y212510D01*
X226354Y212781D01*
X225646D01*
X224991Y212510D01*
X224490Y212009D01*
X224250Y211429D01*
X224145Y211413D01*
X223855D01*
X223750Y211429D01*
X223510Y212009D01*
X223009Y212510D01*
X222354Y212781D01*
X221646D01*
X220991Y212510D01*
X220490Y212009D01*
X220219Y211354D01*
Y210646D01*
X220490Y209991D01*
X220991Y209490D01*
X221646Y209219D01*
X222354D01*
X222591Y209317D01*
X222874Y208893D01*
X222490Y208509D01*
X222219Y207854D01*
Y207146D01*
X222490Y206491D01*
X222874Y206107D01*
X222591Y205683D01*
X222354Y205781D01*
X221646D01*
X220991Y205510D01*
X220490Y205009D01*
X220219Y204354D01*
Y203646D01*
X220490Y202991D01*
X220991Y202490D01*
X221571Y202250D01*
X221587Y202145D01*
Y201855D01*
X221571Y201750D01*
X220991Y201510D01*
X220490Y201009D01*
X220219Y200354D01*
Y199646D01*
X220490Y198991D01*
X220991Y198490D01*
X221646Y198219D01*
X222354D01*
X223009Y198490D01*
X223510Y198991D01*
X223781Y199646D01*
Y200354D01*
X223510Y201009D01*
X223009Y201510D01*
X222429Y201750D01*
X222413Y201855D01*
Y202145D01*
X222429Y202250D01*
X223009Y202490D01*
X223510Y202991D01*
X223781Y203646D01*
Y204354D01*
X223510Y205009D01*
X223126Y205393D01*
X223409Y205817D01*
X223646Y205719D01*
X224354D01*
X225009Y205990D01*
X225510Y206491D01*
X225750Y207071D01*
X225855Y207087D01*
X226145D01*
X226250Y207071D01*
X226490Y206491D01*
X226991Y205990D01*
X227646Y205719D01*
X228354D01*
X229009Y205990D01*
X229510Y206491D01*
X229781Y207146D01*
Y207854D01*
X229510Y208509D01*
X229126Y208893D01*
X229409Y209317D01*
X229646Y209219D01*
X230354D01*
X231009Y209490D01*
X231510Y209991D01*
X231781Y210646D01*
Y211354D01*
X231510Y212009D01*
X231009Y212510D01*
X230354Y212781D01*
D02*
G37*
G36*
X118865Y205469D02*
X117997D01*
X117196Y205136D01*
X117101Y205042D01*
X118431Y203712D01*
X119761Y205042D01*
X119667Y205136D01*
X118865Y205469D01*
D02*
G37*
G36*
X111641D02*
X110773D01*
X109971Y205136D01*
X109877Y205042D01*
X111207Y203712D01*
X112537Y205042D01*
X112442Y205136D01*
X111641Y205469D01*
D02*
G37*
G36*
X116677Y204618D02*
X116582Y204523D01*
X116250Y203721D01*
Y202853D01*
X116582Y202052D01*
X116677Y201957D01*
X118007Y203287D01*
X116677Y204618D01*
D02*
G37*
G36*
X109452D02*
X109358Y204523D01*
X109026Y203721D01*
Y202853D01*
X109358Y202052D01*
X109452Y201957D01*
X110782Y203287D01*
X109452Y204618D01*
D02*
G37*
G36*
X120185D02*
X118855Y203287D01*
X120185Y201957D01*
X120280Y202052D01*
X120612Y202853D01*
Y203721D01*
X120280Y204523D01*
X120185Y204618D01*
D02*
G37*
G36*
X112961D02*
X111631Y203287D01*
X112961Y201957D01*
X113056Y202052D01*
X113388Y202853D01*
Y203721D01*
X113056Y204523D01*
X112961Y204618D01*
D02*
G37*
G36*
X118431Y202863D02*
X117101Y201533D01*
X117196Y201438D01*
X117997Y201106D01*
X118865D01*
X119667Y201438D01*
X119761Y201533D01*
X118431Y202863D01*
D02*
G37*
G36*
X111207D02*
X109877Y201533D01*
X109971Y201438D01*
X110773Y201106D01*
X111641D01*
X112442Y201438D01*
X112537Y201533D01*
X111207Y202863D01*
D02*
G37*
G36*
X122477Y201856D02*
X121609D01*
X120808Y201524D01*
X120713Y201430D01*
X122043Y200099D01*
X123373Y201430D01*
X123279Y201524D01*
X122477Y201856D01*
D02*
G37*
G36*
X115253D02*
X114385D01*
X113583Y201524D01*
X113489Y201430D01*
X114819Y200099D01*
X116149Y201430D01*
X116054Y201524D01*
X115253Y201856D01*
D02*
G37*
G36*
X108028D02*
X107161D01*
X106359Y201524D01*
X106264Y201430D01*
X107595Y200099D01*
X108925Y201430D01*
X108830Y201524D01*
X108028Y201856D01*
D02*
G37*
G36*
X120289Y201005D02*
X120194Y200911D01*
X119862Y200109D01*
Y199241D01*
X120194Y198440D01*
X120289Y198345D01*
X121619Y199675D01*
X120289Y201005D01*
D02*
G37*
G36*
X113065D02*
X112970Y200911D01*
X112638Y200109D01*
Y199241D01*
X112970Y198440D01*
X113065Y198345D01*
X114395Y199675D01*
X113065Y201005D01*
D02*
G37*
G36*
X105840D02*
X105745Y200911D01*
X105413Y200109D01*
Y199241D01*
X105745Y198440D01*
X105840Y198345D01*
X107170Y199675D01*
X105840Y201005D01*
D02*
G37*
G36*
X123798D02*
X122468Y199675D01*
X123798Y198345D01*
X123892Y198440D01*
X124224Y199241D01*
Y200109D01*
X123892Y200911D01*
X123798Y201005D01*
D02*
G37*
G36*
X116573D02*
X115243Y199675D01*
X116573Y198345D01*
X116668Y198440D01*
X117000Y199241D01*
Y200109D01*
X116668Y200911D01*
X116573Y201005D01*
D02*
G37*
G36*
X109349D02*
X108019Y199675D01*
X109349Y198345D01*
X109443Y198440D01*
X109776Y199241D01*
Y200109D01*
X109443Y200911D01*
X109349Y201005D01*
D02*
G37*
G36*
X122043Y199251D02*
X120713Y197921D01*
X120808Y197826D01*
X121609Y197494D01*
X122477D01*
X123279Y197826D01*
X123373Y197921D01*
X122043Y199251D01*
D02*
G37*
G36*
X114819D02*
X113489Y197921D01*
X113583Y197826D01*
X114385Y197494D01*
X115253D01*
X116054Y197826D01*
X116149Y197921D01*
X114819Y199251D01*
D02*
G37*
G36*
X107595D02*
X106264Y197921D01*
X106359Y197826D01*
X107161Y197494D01*
X108028D01*
X108830Y197826D01*
X108925Y197921D01*
X107595Y199251D01*
D02*
G37*
G36*
X246854Y206281D02*
X246146D01*
X245491Y206010D01*
X244990Y205509D01*
X244719Y204854D01*
Y204146D01*
X244990Y203491D01*
X245481Y203000D01*
X244990Y202509D01*
X244719Y201854D01*
Y201146D01*
X244990Y200491D01*
X245481Y200000D01*
X244990Y199509D01*
X244719Y198854D01*
Y198146D01*
X244990Y197491D01*
X245491Y196990D01*
X246146Y196719D01*
X246854D01*
X247509Y196990D01*
X248010Y197491D01*
X248281Y198146D01*
Y198854D01*
X248010Y199509D01*
X247519Y200000D01*
X248010Y200491D01*
X248281Y201146D01*
Y201854D01*
X248010Y202509D01*
X247519Y203000D01*
X248010Y203491D01*
X248281Y204146D01*
Y204854D01*
X248010Y205509D01*
X247509Y206010D01*
X246854Y206281D01*
D02*
G37*
G36*
X118865Y198244D02*
X117997D01*
X117196Y197912D01*
X117101Y197817D01*
X118431Y196487D01*
X119761Y197817D01*
X119667Y197912D01*
X118865Y198244D01*
D02*
G37*
G36*
X111641D02*
X110773D01*
X109971Y197912D01*
X109877Y197817D01*
X111207Y196487D01*
X112537Y197817D01*
X112442Y197912D01*
X111641Y198244D01*
D02*
G37*
G36*
X120185Y197393D02*
X118855Y196063D01*
X120185Y194733D01*
X120280Y194827D01*
X120612Y195629D01*
Y196497D01*
X120280Y197299D01*
X120185Y197393D01*
D02*
G37*
G36*
X112961D02*
X111631Y196063D01*
X112961Y194733D01*
X113056Y194827D01*
X113388Y195629D01*
Y196497D01*
X113056Y197299D01*
X112961Y197393D01*
D02*
G37*
G36*
X116677Y197393D02*
X116582Y197299D01*
X116250Y196497D01*
Y195629D01*
X116582Y194827D01*
X116677Y194733D01*
X118007Y196063D01*
X116677Y197393D01*
D02*
G37*
G36*
X109452D02*
X109358Y197299D01*
X109026Y196497D01*
Y195629D01*
X109358Y194827D01*
X109452Y194733D01*
X110782Y196063D01*
X109452Y197393D01*
D02*
G37*
G36*
X118431Y195639D02*
X117101Y194309D01*
X117196Y194214D01*
X117997Y193882D01*
X118865D01*
X119667Y194214D01*
X119761Y194309D01*
X118431Y195639D01*
D02*
G37*
G36*
X111207D02*
X109877Y194309D01*
X109971Y194214D01*
X110773Y193882D01*
X111641D01*
X112442Y194214D01*
X112537Y194309D01*
X111207Y195639D01*
D02*
G37*
G36*
X122477Y194632D02*
X121609D01*
X120808Y194300D01*
X120713Y194205D01*
X122043Y192875D01*
X123373Y194205D01*
X123279Y194300D01*
X122477Y194632D01*
D02*
G37*
G36*
X115253D02*
X114385D01*
X113583Y194300D01*
X113489Y194205D01*
X114819Y192875D01*
X116149Y194205D01*
X116054Y194300D01*
X115253Y194632D01*
D02*
G37*
G36*
X108028D02*
X107161D01*
X106359Y194300D01*
X106264Y194205D01*
X107595Y192875D01*
X108925Y194205D01*
X108830Y194300D01*
X108028Y194632D01*
D02*
G37*
G36*
X123798Y193781D02*
X122468Y192451D01*
X123798Y191121D01*
X123892Y191215D01*
X124224Y192017D01*
Y192885D01*
X123892Y193686D01*
X123798Y193781D01*
D02*
G37*
G36*
X116573D02*
X115243Y192451D01*
X116573Y191121D01*
X116668Y191215D01*
X117000Y192017D01*
Y192885D01*
X116668Y193686D01*
X116573Y193781D01*
D02*
G37*
G36*
X109349D02*
X108019Y192451D01*
X109349Y191121D01*
X109443Y191215D01*
X109776Y192017D01*
Y192885D01*
X109443Y193686D01*
X109349Y193781D01*
D02*
G37*
G36*
X120289Y193781D02*
X120194Y193686D01*
X119862Y192885D01*
Y192017D01*
X120194Y191215D01*
X120289Y191121D01*
X121619Y192451D01*
X120289Y193781D01*
D02*
G37*
G36*
X113065D02*
X112970Y193686D01*
X112638Y192885D01*
Y192017D01*
X112970Y191215D01*
X113065Y191121D01*
X114395Y192451D01*
X113065Y193781D01*
D02*
G37*
G36*
X105840D02*
X105745Y193686D01*
X105413Y192885D01*
Y192017D01*
X105745Y191215D01*
X105840Y191121D01*
X107170Y192451D01*
X105840Y193781D01*
D02*
G37*
G36*
X122043Y192026D02*
X120713Y190696D01*
X120808Y190602D01*
X121609Y190270D01*
X122477D01*
X123279Y190602D01*
X123373Y190696D01*
X122043Y192026D01*
D02*
G37*
G36*
X114819D02*
X113489Y190696D01*
X113583Y190602D01*
X114385Y190270D01*
X115253D01*
X116054Y190602D01*
X116149Y190696D01*
X114819Y192026D01*
D02*
G37*
G36*
X107595D02*
X106264Y190696D01*
X106359Y190602D01*
X107161Y190270D01*
X108028D01*
X108830Y190602D01*
X108925Y190696D01*
X107595Y192026D01*
D02*
G37*
G36*
X118865Y191020D02*
X117997D01*
X117196Y190688D01*
X117101Y190593D01*
X118431Y189263D01*
X119761Y190593D01*
X119667Y190688D01*
X118865Y191020D01*
D02*
G37*
G36*
X111641D02*
X110773D01*
X109971Y190688D01*
X109877Y190593D01*
X111207Y189263D01*
X112537Y190593D01*
X112442Y190688D01*
X111641Y191020D01*
D02*
G37*
G36*
X116677Y190169D02*
X116582Y190074D01*
X116250Y189272D01*
Y188405D01*
X116582Y187603D01*
X116677Y187508D01*
X118007Y188839D01*
X116677Y190169D01*
D02*
G37*
G36*
X109452D02*
X109358Y190074D01*
X109026Y189272D01*
Y188405D01*
X109358Y187603D01*
X109452Y187508D01*
X110782Y188839D01*
X109452Y190169D01*
D02*
G37*
G36*
X120185D02*
X118855Y188839D01*
X120185Y187508D01*
X120280Y187603D01*
X120612Y188405D01*
Y189272D01*
X120280Y190074D01*
X120185Y190169D01*
D02*
G37*
G36*
X112961D02*
X111631Y188839D01*
X112961Y187508D01*
X113056Y187603D01*
X113388Y188405D01*
Y189272D01*
X113056Y190074D01*
X112961Y190169D01*
D02*
G37*
G36*
X118431Y188414D02*
X117101Y187084D01*
X117196Y186989D01*
X117997Y186658D01*
X118865D01*
X119667Y186989D01*
X119761Y187084D01*
X118431Y188414D01*
D02*
G37*
G36*
X111207D02*
X109877Y187084D01*
X109971Y186989D01*
X110773Y186658D01*
X111641D01*
X112442Y186989D01*
X112537Y187084D01*
X111207Y188414D01*
D02*
G37*
G36*
X170354Y182281D02*
X169646D01*
X168991Y182010D01*
X168490Y181509D01*
X168219Y180854D01*
Y180146D01*
X168490Y179491D01*
X168991Y178990D01*
X169646Y178719D01*
X170354D01*
X171009Y178990D01*
X171510Y179491D01*
X171781Y180146D01*
Y180854D01*
X171510Y181509D01*
X171009Y182010D01*
X170354Y182281D01*
D02*
G37*
G36*
X272354Y176781D02*
X271646D01*
X270991Y176510D01*
X270533Y176052D01*
X270250Y176029D01*
X269967Y176052D01*
X269509Y176510D01*
X268854Y176781D01*
X268146D01*
X267491Y176510D01*
X266990Y176009D01*
X266719Y175354D01*
Y174646D01*
X266990Y173991D01*
X267481Y173500D01*
X266990Y173009D01*
X266719Y172354D01*
Y171646D01*
X266990Y170991D01*
X267481Y170500D01*
X266990Y170009D01*
X266719Y169354D01*
Y168646D01*
X266990Y167991D01*
X267481Y167500D01*
X266990Y167009D01*
X266719Y166354D01*
Y165646D01*
X266990Y164991D01*
X267491Y164490D01*
X268146Y164219D01*
X268854D01*
X269509Y164490D01*
X269967Y164948D01*
X270250Y164971D01*
X270533Y164948D01*
X270991Y164490D01*
X271646Y164219D01*
X272354D01*
X273009Y164490D01*
X273510Y164991D01*
X273781Y165646D01*
Y166354D01*
X273510Y167009D01*
X273019Y167500D01*
X273510Y167991D01*
X273781Y168646D01*
Y169354D01*
X273510Y170009D01*
X273019Y170500D01*
X273510Y170991D01*
X273781Y171646D01*
Y172354D01*
X273510Y173009D01*
X273019Y173500D01*
X273510Y173991D01*
X273781Y174646D01*
Y175354D01*
X273510Y176009D01*
X273009Y176510D01*
X272354Y176781D01*
D02*
G37*
G36*
X103354Y174281D02*
X102646D01*
X101991Y174010D01*
X101490Y173509D01*
X101219Y172854D01*
Y172146D01*
X101490Y171491D01*
X101991Y170990D01*
X102646Y170719D01*
X103354D01*
X104009Y170990D01*
X104510Y171491D01*
X104781Y172146D01*
Y172854D01*
X104510Y173509D01*
X104009Y174010D01*
X103354Y174281D01*
D02*
G37*
G36*
X244354Y162781D02*
X243646D01*
X242991Y162510D01*
X242490Y162009D01*
X242219Y161354D01*
Y160646D01*
X242490Y159991D01*
X242991Y159490D01*
X243646Y159219D01*
X244354D01*
X245009Y159490D01*
X245510Y159991D01*
X245781Y160646D01*
Y161354D01*
X245510Y162009D01*
X245009Y162510D01*
X244354Y162781D01*
D02*
G37*
G36*
X158854D02*
X158146D01*
X157491Y162510D01*
X156990Y162009D01*
X156719Y161354D01*
Y160646D01*
X156990Y159991D01*
X157491Y159490D01*
X158146Y159219D01*
X158854D01*
X159509Y159490D01*
X160010Y159991D01*
X160281Y160646D01*
Y161354D01*
X160010Y162009D01*
X159509Y162510D01*
X158854Y162781D01*
D02*
G37*
G36*
X149354Y156781D02*
X148646D01*
X147991Y156510D01*
X147533Y156052D01*
X147250Y156029D01*
X146967Y156052D01*
X146509Y156510D01*
X145854Y156781D01*
X145146D01*
X144491Y156510D01*
X143990Y156009D01*
X143719Y155354D01*
Y154646D01*
X143990Y153991D01*
X144491Y153490D01*
X145146Y153219D01*
X145854D01*
X146509Y153490D01*
X146967Y153948D01*
X147250Y153971D01*
X147533Y153948D01*
X147991Y153490D01*
X148646Y153219D01*
X149354D01*
X150009Y153490D01*
X150510Y153991D01*
X150781Y154646D01*
Y155354D01*
X150510Y156009D01*
X150009Y156510D01*
X149354Y156781D01*
D02*
G37*
G36*
X156854D02*
X156146D01*
X155491Y156510D01*
X154990Y156009D01*
X154719Y155354D01*
Y154646D01*
X154990Y153991D01*
X155491Y153490D01*
X156146Y153219D01*
X156854D01*
X157509Y153490D01*
X158010Y153991D01*
X158281Y154646D01*
Y155354D01*
X158010Y156009D01*
X157509Y156510D01*
X156854Y156781D01*
D02*
G37*
G36*
X104354Y154781D02*
X103646D01*
X102991Y154510D01*
X102490Y154009D01*
X102219Y153354D01*
Y152646D01*
X102490Y151991D01*
X102991Y151490D01*
X103646Y151219D01*
X104354D01*
X105009Y151490D01*
X105510Y151991D01*
X105781Y152646D01*
Y153354D01*
X105510Y154009D01*
X105009Y154510D01*
X104354Y154781D01*
D02*
G37*
G36*
X245354Y153281D02*
X244646D01*
X243991Y153010D01*
X243490Y152509D01*
X243219Y151854D01*
Y151146D01*
X243490Y150491D01*
X243991Y149990D01*
X244646Y149719D01*
X245354D01*
X246009Y149990D01*
X246510Y150491D01*
X246781Y151146D01*
Y151854D01*
X246510Y152509D01*
X246009Y153010D01*
X245354Y153281D01*
D02*
G37*
G36*
X291354Y152781D02*
X290646D01*
X289991Y152510D01*
X289490Y152009D01*
X289219Y151354D01*
Y150646D01*
X289490Y149991D01*
X289991Y149490D01*
X290646Y149219D01*
X291354D01*
X292009Y149490D01*
X292510Y149991D01*
X292781Y150646D01*
Y151354D01*
X292510Y152009D01*
X292009Y152510D01*
X291354Y152781D01*
D02*
G37*
G36*
X279854D02*
X279146D01*
X278491Y152510D01*
X277990Y152009D01*
X277719Y151354D01*
Y150646D01*
X277990Y149991D01*
X278491Y149490D01*
X279146Y149219D01*
X279854D01*
X280509Y149490D01*
X281010Y149991D01*
X281281Y150646D01*
Y151354D01*
X281010Y152009D01*
X280509Y152510D01*
X279854Y152781D01*
D02*
G37*
G36*
X130854Y152281D02*
X130146D01*
X129491Y152010D01*
X128990Y151509D01*
X128719Y150854D01*
Y150146D01*
X128990Y149491D01*
X129491Y148990D01*
X130146Y148719D01*
X130854D01*
X131509Y148990D01*
X132010Y149491D01*
X132281Y150146D01*
Y150854D01*
X132010Y151509D01*
X131509Y152010D01*
X130854Y152281D01*
D02*
G37*
G36*
X115354D02*
X114646D01*
X113991Y152010D01*
X113490Y151509D01*
X113219Y150854D01*
Y150146D01*
X113490Y149491D01*
X113991Y148990D01*
X114646Y148719D01*
X115354D01*
X116009Y148990D01*
X116510Y149491D01*
X116781Y150146D01*
Y150854D01*
X116510Y151509D01*
X116009Y152010D01*
X115354Y152281D01*
D02*
G37*
G36*
X140354Y151781D02*
X139646D01*
X138991Y151510D01*
X138490Y151009D01*
X138219Y150354D01*
Y149646D01*
X138490Y148991D01*
X138991Y148490D01*
X139646Y148219D01*
X140354D01*
X141009Y148490D01*
X141510Y148991D01*
X141781Y149646D01*
Y150354D01*
X141510Y151009D01*
X141009Y151510D01*
X140354Y151781D01*
D02*
G37*
G36*
X166854Y147781D02*
X166146D01*
X165491Y147510D01*
X165033Y147052D01*
X164750Y147029D01*
X164467Y147052D01*
X164009Y147510D01*
X163354Y147781D01*
X162646D01*
X161991Y147510D01*
X161533Y147052D01*
X161250Y147029D01*
X160967Y147052D01*
X160509Y147510D01*
X159854Y147781D01*
X159146D01*
X158491Y147510D01*
X158033Y147052D01*
X157750Y147029D01*
X157467Y147052D01*
X157009Y147510D01*
X156354Y147781D01*
X155646D01*
X154991Y147510D01*
X154490Y147009D01*
X154219Y146354D01*
Y145646D01*
X154490Y144991D01*
X154981Y144500D01*
X154490Y144009D01*
X154219Y143354D01*
Y142646D01*
X154490Y141991D01*
X154981Y141500D01*
X154490Y141009D01*
X154219Y140354D01*
Y139646D01*
X154490Y138991D01*
X154991Y138490D01*
X155646Y138219D01*
X156354D01*
X157009Y138490D01*
X157467Y138948D01*
X157750Y138971D01*
X158033Y138948D01*
X158491Y138490D01*
X159146Y138219D01*
X159854D01*
X160509Y138490D01*
X160967Y138948D01*
X161250Y138971D01*
X161533Y138948D01*
X161991Y138490D01*
X162646Y138219D01*
X163354D01*
X164009Y138490D01*
X164467Y138948D01*
X164750Y138971D01*
X165033Y138948D01*
X165491Y138490D01*
X166146Y138219D01*
X166854D01*
X167509Y138490D01*
X168010Y138991D01*
X168281Y139646D01*
Y140354D01*
X168010Y141009D01*
X167519Y141500D01*
X168010Y141991D01*
X168281Y142646D01*
Y143354D01*
X168010Y144009D01*
X167519Y144500D01*
X168010Y144991D01*
X168281Y145646D01*
Y146354D01*
X168010Y147009D01*
X167509Y147510D01*
X166854Y147781D01*
D02*
G37*
G36*
X209854Y147281D02*
X209146D01*
X208491Y147010D01*
X207990Y146509D01*
X207719Y145854D01*
Y145146D01*
X207990Y144491D01*
X208491Y143990D01*
X209146Y143719D01*
X209854D01*
X210509Y143990D01*
X211010Y144491D01*
X211281Y145146D01*
Y145854D01*
X211010Y146509D01*
X210509Y147010D01*
X209854Y147281D01*
D02*
G37*
G36*
X129854Y145781D02*
X129146D01*
X128491Y145510D01*
X127990Y145009D01*
X127719Y144354D01*
Y143646D01*
X127990Y142991D01*
X128491Y142490D01*
X129146Y142219D01*
X129854D01*
X130509Y142490D01*
X131010Y142991D01*
X131281Y143646D01*
Y144354D01*
X131010Y145009D01*
X130509Y145510D01*
X129854Y145781D01*
D02*
G37*
G36*
X116854D02*
X116146D01*
X115491Y145510D01*
X114990Y145009D01*
X114719Y144354D01*
Y143646D01*
X114990Y142991D01*
X115491Y142490D01*
X116146Y142219D01*
X116854D01*
X117509Y142490D01*
X118010Y142991D01*
X118281Y143646D01*
Y144354D01*
X118010Y145009D01*
X117509Y145510D01*
X116854Y145781D01*
D02*
G37*
G36*
X126354Y141281D02*
X125646D01*
X124991Y141010D01*
X124500Y140519D01*
X124009Y141010D01*
X123354Y141281D01*
X122646D01*
X121991Y141010D01*
X121500Y140519D01*
X121009Y141010D01*
X120354Y141281D01*
X119646D01*
X118991Y141010D01*
X118490Y140509D01*
X118219Y139854D01*
Y139146D01*
X118490Y138491D01*
X118991Y137990D01*
X119646Y137719D01*
X120354D01*
X121009Y137990D01*
X121500Y138481D01*
X121991Y137990D01*
X122646Y137719D01*
X123354D01*
X124009Y137990D01*
X124500Y138481D01*
X124991Y137990D01*
X125646Y137719D01*
X126354D01*
X127009Y137990D01*
X127510Y138491D01*
X127781Y139146D01*
Y139854D01*
X127510Y140509D01*
X127009Y141010D01*
X126354Y141281D01*
D02*
G37*
G36*
X214354Y140781D02*
X213646D01*
X212991Y140510D01*
X212490Y140009D01*
X212219Y139354D01*
Y138646D01*
X212490Y137991D01*
X212991Y137490D01*
X213646Y137219D01*
X214354D01*
X215009Y137490D01*
X215510Y137991D01*
X215781Y138646D01*
Y139354D01*
X215510Y140009D01*
X215009Y140510D01*
X214354Y140781D01*
D02*
G37*
G36*
X205854Y143781D02*
X205146D01*
X204491Y143510D01*
X203990Y143009D01*
X203719Y142354D01*
Y141646D01*
X203990Y140991D01*
X204301Y140680D01*
X204217Y140103D01*
X203991Y140010D01*
X203490Y139509D01*
X203219Y138854D01*
Y138146D01*
X203490Y137491D01*
X203991Y136990D01*
X204646Y136719D01*
X205354D01*
X206009Y136990D01*
X206510Y137491D01*
X206781Y138146D01*
Y138854D01*
X206510Y139509D01*
X206199Y139820D01*
X206283Y140396D01*
X206509Y140490D01*
X207010Y140991D01*
X207281Y141646D01*
Y142354D01*
X207010Y143009D01*
X206509Y143510D01*
X205854Y143781D01*
D02*
G37*
G36*
X113854Y142281D02*
X113146D01*
X112491Y142010D01*
X111990Y141509D01*
X111719Y140854D01*
Y140146D01*
X111870Y139781D01*
X111565Y139281D01*
X110910Y139010D01*
X110409Y138509D01*
X110138Y137854D01*
Y137146D01*
X110409Y136491D01*
X110910Y135990D01*
X111565Y135719D01*
X112273D01*
X112928Y135990D01*
X113429Y136491D01*
X113700Y137146D01*
Y137854D01*
X113549Y138219D01*
X113854Y138719D01*
X114509Y138990D01*
X115010Y139491D01*
X115281Y140146D01*
Y140854D01*
X115010Y141509D01*
X114509Y142010D01*
X113854Y142281D01*
D02*
G37*
G36*
X277553Y140553D02*
X270447D01*
Y133447D01*
X277553D01*
Y140553D01*
D02*
G37*
G36*
X257842Y144056D02*
X256787Y143917D01*
X255803Y143510D01*
X254958Y142861D01*
X254309Y142016D01*
X253902Y141032D01*
X253763Y139976D01*
Y137024D01*
X253902Y135968D01*
X254309Y134984D01*
X254958Y134139D01*
X255803Y133490D01*
X256787Y133083D01*
X257842Y132944D01*
X258898Y133083D01*
X259882Y133490D01*
X260727Y134139D01*
X261376Y134984D01*
X261783Y135968D01*
X261922Y137024D01*
Y139976D01*
X261783Y141032D01*
X261376Y142016D01*
X260727Y142861D01*
X259882Y143510D01*
X258898Y143917D01*
X257842Y144056D01*
D02*
G37*
G36*
X248000D02*
X246944Y143917D01*
X245960Y143510D01*
X245115Y142861D01*
X244467Y142016D01*
X244059Y141032D01*
X243920Y139976D01*
Y137024D01*
X244059Y135968D01*
X244467Y134984D01*
X245115Y134139D01*
X245960Y133490D01*
X246944Y133083D01*
X248000Y132944D01*
X249056Y133083D01*
X250040Y133490D01*
X250885Y134139D01*
X251533Y134984D01*
X251941Y135968D01*
X252080Y137024D01*
Y139976D01*
X251941Y141032D01*
X251533Y142016D01*
X250885Y142861D01*
X250040Y143510D01*
X249056Y143917D01*
X248000Y144056D01*
D02*
G37*
G36*
X238158D02*
X237102Y143917D01*
X236118Y143510D01*
X235273Y142861D01*
X234624Y142016D01*
X234217Y141032D01*
X234078Y139976D01*
Y137024D01*
X234217Y135968D01*
X234624Y134984D01*
X235273Y134139D01*
X236118Y133490D01*
X237102Y133083D01*
X238158Y132944D01*
X239213Y133083D01*
X240197Y133490D01*
X241042Y134139D01*
X241691Y134984D01*
X242098Y135968D01*
X242237Y137024D01*
Y139976D01*
X242098Y141032D01*
X241691Y142016D01*
X241042Y142861D01*
X240197Y143510D01*
X239213Y143917D01*
X238158Y144056D01*
D02*
G37*
G36*
X118468Y130553D02*
X117532D01*
X116629Y130311D01*
X115819Y129843D01*
X115157Y129181D01*
X114689Y128371D01*
X114447Y127468D01*
Y126986D01*
X114032Y126708D01*
X113854Y126781D01*
X113146D01*
X112491Y126510D01*
X112053Y126072D01*
X111757Y126124D01*
X111553Y126225D01*
Y130553D01*
X104447D01*
Y123447D01*
X111553D01*
Y123775D01*
X111757Y123876D01*
X112053Y123928D01*
X112491Y123490D01*
X113146Y123219D01*
X113854D01*
X114509Y123490D01*
X115010Y123991D01*
X115088Y124180D01*
X115678Y124298D01*
X115819Y124157D01*
X116629Y123689D01*
X117532Y123447D01*
X118468D01*
X119371Y123689D01*
X120181Y124157D01*
X120843Y124819D01*
X121311Y125629D01*
X121553Y126532D01*
Y127468D01*
X121311Y128371D01*
X120843Y129181D01*
X120181Y129843D01*
X119371Y130311D01*
X118468Y130553D01*
D02*
G37*
G36*
X222854Y128281D02*
X222146D01*
X221491Y128010D01*
X220990Y127509D01*
X220719Y126854D01*
Y126146D01*
X220990Y125491D01*
X221491Y124990D01*
X222146Y124719D01*
X222854D01*
X223509Y124990D01*
X224010Y125491D01*
X224281Y126146D01*
Y126854D01*
X224010Y127509D01*
X223509Y128010D01*
X222854Y128281D01*
D02*
G37*
G36*
X228354Y127781D02*
X227646D01*
X226991Y127510D01*
X226490Y127009D01*
X226219Y126354D01*
Y125646D01*
X226490Y124991D01*
X226991Y124490D01*
X227646Y124219D01*
X228354D01*
X229009Y124490D01*
X229510Y124991D01*
X229781Y125646D01*
Y126354D01*
X229510Y127009D01*
X229009Y127510D01*
X228354Y127781D01*
D02*
G37*
G36*
X182854Y127281D02*
X182146D01*
X181491Y127010D01*
X180990Y126509D01*
X180719Y125854D01*
Y125146D01*
X180990Y124491D01*
X181491Y123990D01*
X182146Y123719D01*
X182854D01*
X183509Y123990D01*
X184010Y124491D01*
X184281Y125146D01*
Y125854D01*
X184010Y126509D01*
X183509Y127010D01*
X182854Y127281D01*
D02*
G37*
G36*
X274468Y130553D02*
X273532D01*
X272629Y130311D01*
X271819Y129843D01*
X271157Y129181D01*
X270689Y128371D01*
X270447Y127468D01*
Y126532D01*
X270689Y125629D01*
X271157Y124819D01*
X271819Y124157D01*
X272629Y123689D01*
X273532Y123447D01*
X274468D01*
X275371Y123689D01*
X276181Y124157D01*
X276843Y124819D01*
X277311Y125629D01*
X277553Y126532D01*
Y127468D01*
X277311Y128371D01*
X276843Y129181D01*
X276181Y129843D01*
X275371Y130311D01*
X274468Y130553D01*
D02*
G37*
G36*
X174968D02*
X174032D01*
X173129Y130311D01*
X172319Y129843D01*
X171657Y129181D01*
X171189Y128371D01*
X170947Y127468D01*
Y126532D01*
X171189Y125629D01*
X171657Y124819D01*
X172319Y124157D01*
X173129Y123689D01*
X174032Y123447D01*
X174968D01*
X175871Y123689D01*
X176681Y124157D01*
X177343Y124819D01*
X177811Y125629D01*
X178053Y126532D01*
Y127468D01*
X177811Y128371D01*
X177343Y129181D01*
X176681Y129843D01*
X175871Y130311D01*
X174968Y130553D01*
D02*
G37*
G36*
X164968D02*
X164032D01*
X163129Y130311D01*
X162319Y129843D01*
X161657Y129181D01*
X161189Y128371D01*
X160947Y127468D01*
Y126532D01*
X161189Y125629D01*
X161657Y124819D01*
X162319Y124157D01*
X163129Y123689D01*
X164032Y123447D01*
X164968D01*
X165871Y123689D01*
X166681Y124157D01*
X167343Y124819D01*
X167811Y125629D01*
X168053Y126532D01*
Y127468D01*
X167811Y128371D01*
X167343Y129181D01*
X166681Y129843D01*
X165871Y130311D01*
X164968Y130553D01*
D02*
G37*
G36*
X158053D02*
X150947D01*
Y123447D01*
X158053D01*
Y130553D01*
D02*
G37*
G36*
X138468D02*
X137532D01*
X136629Y130311D01*
X135819Y129843D01*
X135157Y129181D01*
X134689Y128371D01*
X134447Y127468D01*
Y126532D01*
X134689Y125629D01*
X135157Y124819D01*
X135819Y124157D01*
X136629Y123689D01*
X137532Y123447D01*
X138468D01*
X139371Y123689D01*
X140181Y124157D01*
X140843Y124819D01*
X141311Y125629D01*
X141553Y126532D01*
Y127468D01*
X141311Y128371D01*
X140843Y129181D01*
X140181Y129843D01*
X139371Y130311D01*
X138468Y130553D01*
D02*
G37*
G36*
X128468D02*
X127532D01*
X126629Y130311D01*
X125819Y129843D01*
X125157Y129181D01*
X124689Y128371D01*
X124447Y127468D01*
Y126532D01*
X124689Y125629D01*
X125157Y124819D01*
X125819Y124157D01*
X126629Y123689D01*
X127532Y123447D01*
X128468D01*
X129371Y123689D01*
X130181Y124157D01*
X130843Y124819D01*
X131311Y125629D01*
X131553Y126532D01*
Y127468D01*
X131311Y128371D01*
X130843Y129181D01*
X130181Y129843D01*
X129371Y130311D01*
X128468Y130553D01*
D02*
G37*
%LPD*%
D14*
X172500Y227500D02*
X219500D01*
D93*
X112000Y237500D02*
X119500D01*
X105500Y227500D02*
Y229303D01*
X102000Y227500D02*
X112000Y237500D01*
X105500Y229303D02*
X112497Y236300D01*
X223600Y266600D02*
X233500Y276500D01*
X136600Y265400D02*
X224097D01*
X233997Y275300D01*
X135100Y266600D02*
X223600D01*
X134700Y249800D02*
Y263500D01*
X187000Y268000D02*
X192000Y273000D01*
X175675Y267800D02*
X175875Y268000D01*
X134700Y263500D02*
X136600Y265400D01*
X175875Y268000D02*
X187000D01*
X130300Y267800D02*
X175675D01*
X133500Y265000D02*
X135100Y266600D01*
X128700Y266200D02*
X130300Y267800D01*
X128700Y245003D02*
Y266200D01*
X133500Y247500D02*
Y265000D01*
X175071Y269000D02*
X182000Y273000D01*
X134700Y249800D02*
X139000Y245500D01*
X133500Y247500D02*
X135500Y245500D01*
X311000Y260500D02*
Y267500D01*
X307500Y257500D02*
Y268300D01*
X300500Y275300D02*
X307500Y268300D01*
X233997Y275300D02*
X300500D01*
X302000Y276500D02*
X311000Y267500D01*
X233500Y276500D02*
X302000D01*
X129500Y269000D02*
X175071D01*
X129324Y268824D02*
X129500Y269000D01*
X127500Y267000D02*
X129324Y268824D01*
X127500Y245500D02*
Y267000D01*
X119500Y237500D02*
X127500Y245500D01*
X119997Y236300D02*
X128700Y245003D01*
X112497Y236300D02*
X119997D01*
D94*
X125218Y249919D02*
Y266782D01*
X172500Y232000D02*
X225500D01*
X119000Y273000D02*
X125218Y266782D01*
D95*
X280820Y272048D02*
X281279Y272507D01*
X282198D01*
X282657Y272048D01*
Y271589D01*
X282198Y271130D01*
X281738D01*
X282198D01*
X282657Y270670D01*
Y270211D01*
X282198Y269752D01*
X281279D01*
X280820Y270211D01*
X269800Y267281D02*
Y264526D01*
X271178D01*
X271637Y264985D01*
Y265444D01*
X271178Y265903D01*
X269800D01*
X271178D01*
X271637Y266363D01*
Y266822D01*
X271178Y267281D01*
X269800D01*
X274392D02*
X272555D01*
Y264526D01*
X274392D01*
X272555Y265903D02*
X273473D01*
X275310Y264526D02*
Y266363D01*
X276228Y267281D01*
X277147Y266363D01*
Y264526D01*
Y265903D01*
X275310D01*
X278065Y264526D02*
Y267281D01*
X279443D01*
X279902Y266822D01*
Y265903D01*
X279443Y265444D01*
X278065D01*
X278983D02*
X279902Y264526D01*
X282198D02*
Y267281D01*
X280820Y265903D01*
X282657D01*
X288167Y264526D02*
X286330D01*
X288167Y266363D01*
Y266822D01*
X287708Y267281D01*
X286789D01*
X286330Y266822D01*
X289085D02*
X289544Y267281D01*
X290463D01*
X290922Y266822D01*
Y264985D01*
X290463Y264526D01*
X289544D01*
X289085Y264985D01*
Y266822D01*
X293677Y264526D02*
X291840D01*
X293677Y266363D01*
Y266822D01*
X293218Y267281D01*
X292299D01*
X291840Y266822D01*
X296432Y264526D02*
X294595D01*
X296432Y266363D01*
Y266822D01*
X295973Y267281D01*
X295054D01*
X294595Y266822D01*
X270718Y259300D02*
X269800Y260218D01*
Y261137D01*
X270718Y262055D01*
X273933Y261596D02*
X273473Y262055D01*
X272555D01*
X272096Y261596D01*
Y259759D01*
X272555Y259300D01*
X273473D01*
X273933Y259759D01*
X274851Y259300D02*
X275769Y260218D01*
Y261137D01*
X274851Y262055D01*
X279902Y259759D02*
X280361Y259300D01*
X281279D01*
X281738Y259759D01*
Y261596D01*
X281279Y262055D01*
X280361D01*
X279902Y261596D01*
Y261137D01*
X280361Y260678D01*
X281738D01*
X282657Y262055D02*
Y260218D01*
X283575Y259300D01*
X284493Y260218D01*
Y262055D01*
X285412Y259300D02*
X286330D01*
X285871D01*
Y262055D01*
X285412Y261596D01*
X287708Y262055D02*
Y259300D01*
X289544D01*
X290463Y262055D02*
Y259300D01*
X291381Y260218D01*
X292299Y259300D01*
Y262055D01*
D97*
X238158Y138500D02*
D03*
X257842D02*
D03*
X248000D02*
D03*
D98*
X159000Y273000D02*
D03*
X149000D02*
D03*
X139000D02*
D03*
X129000D02*
D03*
X119000D02*
D03*
X222000D02*
D03*
X212000D02*
D03*
X202000D02*
D03*
X192000D02*
D03*
X182000D02*
D03*
X118000Y127000D02*
D03*
X128000D02*
D03*
X138000D02*
D03*
X174500D02*
D03*
X164500D02*
D03*
X341500Y172500D02*
D03*
Y162500D02*
D03*
Y152500D02*
D03*
X274000Y127000D02*
D03*
D99*
X109000Y273000D02*
D03*
X172000D02*
D03*
X108000Y127000D02*
D03*
X154500D02*
D03*
D100*
X107595Y192451D02*
D03*
Y199675D02*
D03*
X111207Y188839D02*
D03*
Y196063D02*
D03*
Y203287D02*
D03*
X114819Y192451D02*
D03*
Y199675D02*
D03*
X118431Y188839D02*
D03*
Y196063D02*
D03*
Y203287D02*
D03*
X122043Y192451D02*
D03*
Y199675D02*
D03*
X158500Y161000D02*
D03*
X156500Y155000D02*
D03*
X149500Y145500D02*
D03*
X149000Y155000D02*
D03*
X205500Y142000D02*
D03*
X222500Y158500D02*
D03*
X104000Y153000D02*
D03*
X107216Y155500D02*
D03*
X221500Y216500D02*
D03*
Y219500D02*
D03*
X259000Y232000D02*
D03*
Y236500D02*
D03*
X296000Y231500D02*
D03*
Y246500D02*
D03*
X291000Y244000D02*
D03*
Y249000D02*
D03*
Y254000D02*
D03*
X296000Y256500D02*
D03*
Y251500D02*
D03*
X281000Y254000D02*
D03*
X286000Y256500D02*
D03*
Y251500D02*
D03*
X276000D02*
D03*
Y256500D02*
D03*
X271000Y254000D02*
D03*
X261000D02*
D03*
Y259000D02*
D03*
Y264000D02*
D03*
X266000Y251500D02*
D03*
Y256500D02*
D03*
Y261500D02*
D03*
Y266500D02*
D03*
Y271500D02*
D03*
X261000Y269000D02*
D03*
X256000Y271500D02*
D03*
X251000Y269000D02*
D03*
X246000Y271500D02*
D03*
X241000Y269000D02*
D03*
X236000Y271500D02*
D03*
X296000Y241500D02*
D03*
Y236500D02*
D03*
X304500Y248000D02*
D03*
Y253500D02*
D03*
X315000Y257000D02*
D03*
X312000Y253000D02*
D03*
X315000Y249500D02*
D03*
X312000Y246000D02*
D03*
X315000Y242500D02*
D03*
X312000Y239000D02*
D03*
X315000Y236000D02*
D03*
X312000Y233000D02*
D03*
X315000Y230000D02*
D03*
X312000Y227000D02*
D03*
X233000Y222500D02*
D03*
Y225500D02*
D03*
X229500Y229000D02*
D03*
Y233000D02*
D03*
Y237000D02*
D03*
X225500D02*
D03*
X246000Y254000D02*
D03*
X243000Y251000D02*
D03*
X240000Y254000D02*
D03*
X231500Y250500D02*
D03*
X228000Y253000D02*
D03*
X224500Y250500D02*
D03*
X221000Y253000D02*
D03*
X217500Y250500D02*
D03*
X214000Y253000D02*
D03*
X210500Y250500D02*
D03*
X207000Y253000D02*
D03*
X217500Y270500D02*
D03*
X207000D02*
D03*
X197000D02*
D03*
X192500Y256500D02*
D03*
X195000Y260000D02*
D03*
X190000D02*
D03*
X184500Y256500D02*
D03*
X172000Y250500D02*
D03*
Y254500D02*
D03*
X176000Y250500D02*
D03*
X180000Y254500D02*
D03*
Y250500D02*
D03*
X176000Y254500D02*
D03*
X172000Y258500D02*
D03*
X312000Y205000D02*
D03*
Y196000D02*
D03*
Y187000D02*
D03*
X277500Y196000D02*
D03*
Y187000D02*
D03*
X281000Y209500D02*
D03*
Y200500D02*
D03*
Y191500D02*
D03*
X285500Y187000D02*
D03*
Y196000D02*
D03*
Y205000D02*
D03*
X290000Y191500D02*
D03*
Y200500D02*
D03*
X295000Y187000D02*
D03*
X294500Y196000D02*
D03*
Y205000D02*
D03*
X303500Y187000D02*
D03*
X299000Y191500D02*
D03*
Y200500D02*
D03*
X303500Y196000D02*
D03*
Y205000D02*
D03*
X302500Y169500D02*
D03*
Y175000D02*
D03*
X312500Y172000D02*
D03*
X310000Y168000D02*
D03*
X279000Y159000D02*
D03*
X312500Y163500D02*
D03*
X309500Y149000D02*
D03*
X299500Y159500D02*
D03*
X302000Y156500D02*
D03*
X299500Y153500D02*
D03*
X295500D02*
D03*
X301500Y141500D02*
D03*
X298500Y138000D02*
D03*
X295000Y141500D02*
D03*
X288000D02*
D03*
X291500Y138000D02*
D03*
X295000Y134500D02*
D03*
X291500Y124500D02*
D03*
X284500D02*
D03*
X281500Y127500D02*
D03*
Y134500D02*
D03*
X284500Y131000D02*
D03*
X288000Y127500D02*
D03*
X295000D02*
D03*
X291500Y131000D02*
D03*
X288000Y134500D02*
D03*
X284500Y138000D02*
D03*
X281500Y141500D02*
D03*
X278500Y145000D02*
D03*
X276000Y148500D02*
D03*
X273500Y152000D02*
D03*
X276000Y155500D02*
D03*
X273500Y159000D02*
D03*
X262500Y124000D02*
D03*
X192500Y134500D02*
D03*
X203000Y126000D02*
D03*
X199500Y129000D02*
D03*
X196000Y132000D02*
D03*
Y126000D02*
D03*
X192500Y129000D02*
D03*
X189000Y132000D02*
D03*
Y126000D02*
D03*
X185500Y129000D02*
D03*
X182500Y132000D02*
D03*
X217000Y158500D02*
D03*
X208000D02*
D03*
X196000D02*
D03*
X189500D02*
D03*
X178000Y148000D02*
D03*
X179500Y135000D02*
D03*
X174500Y141000D02*
D03*
X177000Y138000D02*
D03*
X172000D02*
D03*
X169500Y125500D02*
D03*
X147500Y141500D02*
D03*
X108000Y218000D02*
D03*
Y213500D02*
D03*
X147000Y225000D02*
D03*
Y221000D02*
D03*
Y217000D02*
D03*
Y183500D02*
D03*
Y187500D02*
D03*
X159000Y232000D02*
D03*
Y236500D02*
D03*
X189000Y192000D02*
D03*
X198000Y200500D02*
D03*
X189000D02*
D03*
X193500Y196500D02*
D03*
Y204000D02*
D03*
Y212000D02*
D03*
Y218500D02*
D03*
X184500D02*
D03*
Y212000D02*
D03*
Y196500D02*
D03*
Y204000D02*
D03*
X176000Y218500D02*
D03*
X172500Y215000D02*
D03*
X176000Y212000D02*
D03*
X172500Y208000D02*
D03*
X176000Y204000D02*
D03*
X172500Y200000D02*
D03*
X176000Y196000D02*
D03*
X172500Y192000D02*
D03*
X166000Y212000D02*
D03*
Y208000D02*
D03*
Y204000D02*
D03*
Y200000D02*
D03*
Y196000D02*
D03*
Y192000D02*
D03*
Y188000D02*
D03*
X162000Y212000D02*
D03*
Y208000D02*
D03*
Y204000D02*
D03*
Y200000D02*
D03*
Y196000D02*
D03*
Y192000D02*
D03*
Y188000D02*
D03*
X108000Y209000D02*
D03*
X125500Y174500D02*
D03*
Y180500D02*
D03*
X108000Y176000D02*
D03*
X111500Y180500D02*
D03*
X118500D02*
D03*
X122000Y184000D02*
D03*
X115000D02*
D03*
X108000D02*
D03*
X157500Y241000D02*
D03*
Y245500D02*
D03*
Y250000D02*
D03*
X144000Y246000D02*
D03*
X86000Y222000D02*
D03*
X86500Y255000D02*
D03*
Y259000D02*
D03*
X101500Y222500D02*
D03*
X102000Y273500D02*
D03*
X99000Y271000D02*
D03*
X86000Y181500D02*
D03*
Y177500D02*
D03*
Y173500D02*
D03*
X86500Y136500D02*
D03*
X243000Y234500D02*
D03*
X246000Y237500D02*
D03*
X244000Y161000D02*
D03*
X245000Y151500D02*
D03*
X209500Y145500D02*
D03*
X222000Y200000D02*
D03*
Y204000D02*
D03*
X228000Y207500D02*
D03*
X224000D02*
D03*
X222000Y211000D02*
D03*
X226000D02*
D03*
X230000D02*
D03*
X272500Y218000D02*
D03*
Y222000D02*
D03*
X270000Y220000D02*
D03*
X267000Y218000D02*
D03*
Y222000D02*
D03*
X264000Y219500D02*
D03*
Y215500D02*
D03*
Y211500D02*
D03*
Y208000D02*
D03*
X260000D02*
D03*
X262000Y205000D02*
D03*
X246500Y201500D02*
D03*
Y198500D02*
D03*
Y204500D02*
D03*
X223500Y184500D02*
D03*
Y188000D02*
D03*
X227000D02*
D03*
Y184500D02*
D03*
X230500D02*
D03*
Y188000D02*
D03*
X246000Y234500D02*
D03*
X243000Y237500D02*
D03*
X229500Y225500D02*
D03*
X226000D02*
D03*
X229500Y222500D02*
D03*
X226000D02*
D03*
X229500Y219500D02*
D03*
X226000D02*
D03*
X229500Y216500D02*
D03*
X226000D02*
D03*
X181500Y158000D02*
D03*
X166500Y146000D02*
D03*
X163000D02*
D03*
X166500Y140000D02*
D03*
X163000Y143000D02*
D03*
X166500D02*
D03*
X159500Y146000D02*
D03*
X205000Y138500D02*
D03*
X214000Y139000D02*
D03*
X222500Y126500D02*
D03*
X228000Y126000D02*
D03*
X113500Y125000D02*
D03*
X182500Y125500D02*
D03*
X111919Y137500D02*
D03*
X111000Y133000D02*
D03*
X113500Y140500D02*
D03*
X107000Y146500D02*
D03*
X140000Y150000D02*
D03*
X145500Y155000D02*
D03*
X137500Y251000D02*
D03*
X145000Y258681D02*
D03*
Y263000D02*
D03*
X139500Y256500D02*
D03*
Y260000D02*
D03*
X157500Y263319D02*
D03*
X152000Y254500D02*
D03*
X157500Y259000D02*
D03*
X178000Y259500D02*
D03*
X162500Y254500D02*
D03*
X125218Y249919D02*
D03*
X115000Y251919D02*
D03*
X103000Y172500D02*
D03*
X102000Y227500D02*
D03*
X105500D02*
D03*
X178000Y263000D02*
D03*
X115000Y249000D02*
D03*
X156000Y140000D02*
D03*
X170000Y180500D02*
D03*
Y223000D02*
D03*
X172500Y227500D02*
D03*
X166000Y223000D02*
D03*
X122000Y262000D02*
D03*
X288000Y153500D02*
D03*
X279500Y228500D02*
D03*
X275000D02*
D03*
X270500D02*
D03*
X266000D02*
D03*
X282000Y232000D02*
D03*
X277500D02*
D03*
X273000D02*
D03*
X268500D02*
D03*
X264000D02*
D03*
X186500Y252500D02*
D03*
Y249500D02*
D03*
X209500Y221500D02*
D03*
X205500D02*
D03*
X211500Y225000D02*
D03*
X207500D02*
D03*
X203500D02*
D03*
X272000Y175000D02*
D03*
X268500D02*
D03*
X272000Y172000D02*
D03*
X268500D02*
D03*
X272000Y169000D02*
D03*
X268500D02*
D03*
X272000Y166000D02*
D03*
X268500D02*
D03*
X119500Y225000D02*
D03*
X116000D02*
D03*
X112500D02*
D03*
X138000Y133000D02*
D03*
X130500Y150500D02*
D03*
X311000Y260500D02*
D03*
X307500Y257500D02*
D03*
X139000Y245500D02*
D03*
X135500D02*
D03*
X130781Y264000D02*
D03*
X115000Y240000D02*
D03*
X172500Y235500D02*
D03*
Y232000D02*
D03*
X157500Y254500D02*
D03*
X115000Y246000D02*
D03*
Y243000D02*
D03*
X122000Y259000D02*
D03*
X145500Y133000D02*
D03*
X149000D02*
D03*
X152500D02*
D03*
X107500D02*
D03*
X104000D02*
D03*
X120000Y139500D02*
D03*
X123000D02*
D03*
X126000D02*
D03*
X116500Y144000D02*
D03*
X129500D02*
D03*
X156000Y143000D02*
D03*
X159500Y140000D02*
D03*
Y143000D02*
D03*
X163000Y140000D02*
D03*
X156000Y146000D02*
D03*
X115000Y150500D02*
D03*
X103500Y146500D02*
D03*
X107000Y143500D02*
D03*
X103500D02*
D03*
X107000Y140500D02*
D03*
X103500D02*
D03*
X107000Y137500D02*
D03*
X103500D02*
D03*
X225500Y232000D02*
D03*
X219500Y227500D02*
D03*
X397500Y150500D02*
D03*
X359000Y155500D02*
D03*
X390500Y156500D02*
D03*
X359000Y159000D02*
D03*
X291000Y151000D02*
D03*
X279500D02*
D03*
D101*
X341500Y142500D02*
D03*
X274000Y137000D02*
D03*
M02*
