M48
;Layer_Color=9474304
;FILE_FORMAT=2:5
INCH,TZ
;TYPE=PLATED
T1F00S00C0.01181
T2F00S00C0.03543
%
T01
X640488Y208258
X650988
X660988
X662988Y218758
X667988
X665488Y222258
X673488
X671488Y226258
Y229258
X677988Y228258
X681988
X685988
Y224258
X681988
X677988
X679988Y219258
Y215758
X685988Y220258
X695488Y224258
X700488
Y228758
Y233258
Y237758
X698988Y242258
Y246758
X685488
Y243258
Y251258
X687988Y255758
X691988
Y266758
Y270758
Y274758
Y278758
Y282758
Y286758
Y290758
X695988
Y286758
Y282758
Y278758
Y274758
Y270758
Y266758
X685488Y263758
X681988Y266758
Y260258
X673488
Y266758
Y274758
Y282258
X668988Y278258
X664488Y274758
Y282258
X659988Y278258
X664488Y266758
Y260258
X652488Y257258
X648488
X646488Y253758
X650488
X654488
X638488Y251258
X631988Y253258
Y256258
Y259258
Y262258
X628488
Y259258
Y256258
Y253258
Y249758
Y245758
Y241758
X632488
Y246758
X636488Y259258
Y262258
X635988Y267758
X631988
X627988
X629988Y271258
X633988
X635988Y274758
Y278758
X634488Y290758
Y294258
X630988
Y290758
X627488
Y294258
X668988Y286758
X685488
X681988Y282758
X685488Y278758
X681988Y274758
X685488Y270758
X687988Y298258
X710988Y295258
Y291258
X732488Y298258
Y304258
X739488Y298258
X746488
X742988Y294758
X735988
X739557Y289920
X746782
X750394Y286308
X746782Y282695
X750394Y279083
X746782Y275471
X743169Y279083
X739557Y275471
Y282695
X743169Y286308
X735945
Y279083
X749988Y269758
Y265258
Y260758
X756488Y256258
X755988Y251258
X752488
X745488Y253758
X741988
X738488
X742988Y238758
Y235758
Y232758
Y229758
Y226839
X732770Y228839
X735988Y219758
Y216758
X727207Y214758
X718488Y218758
Y222258
X720488Y227758
X718988Y233258
X722488
X713988Y232758
X712988Y220077
Y215758
X700488Y215439
Y219758
X705988Y224258
X710988Y253758
Y257758
Y261758
X771988Y256758
X771488Y223758
Y219758
X758988Y207758
X755988Y205258
X749988Y294758
Y302758
X754988Y306258
X771988Y305258
Y301258
Y297258
X650988Y225758
X647488Y228258
X643988Y225758
X640488Y228258
X636988Y225758
X633488Y228258
X629988Y225758
X626488Y228258
X614988Y227758
X611988Y224758
X617988
X616988Y209758
X611988Y207258
X606988Y209758
X601988Y207258
X596988Y209758
Y214758
Y219758
Y224758
X591988Y227258
Y222258
Y217258
Y212258
Y207258
X586988Y224758
X581988Y227258
Y222258
X576988Y224758
X571988Y222258
Y227258
X566988Y229758
Y234758
X561988Y232258
Y227258
Y222258
X566988Y224758
X553488Y225258
Y230758
X545988Y232758
X542988Y229258
X545988Y225758
X542988Y221758
X546988Y218258
X550488Y221258
X542988Y236258
X545988Y239758
X542988Y242758
X545988Y245758
X542988Y248758
X545988Y251758
X561988Y247258
Y242258
Y237258
X575988Y246758
X580488
X584988
X589488
X593988
X598988
Y242258
X611988Y241258
Y244258
X614988
Y241258
X624988Y253258
Y256258
X611488Y274258
Y277258
Y280258
X595988Y273758
X593988Y270758
Y267258
Y263258
Y259258
X590988Y260758
Y256758
X587988Y258758
X585488Y260758
Y256758
X587488Y250258
X582988
X578488
X591988
X597988Y270758
X576988Y269258
Y278258
X580488Y282758
X576988Y287258
X580488Y291758
X572488
Y282758
Y273758
X567988Y278258
Y287258
X563488Y282758
Y273758
X558988Y278258
Y287258
X562988Y291758
X554488
X545988
Y282758
X554488
Y273758
X545988
X545488Y306758
X547988Y310758
X555488Y309258
Y303758
X585988
Y306758
Y309758
X589488
Y306758
Y303758
X621988Y207258
X515512Y229242
X508512Y235242
X477012Y234242
Y237742
X430512Y242242
X428012Y246742
X430512Y250742
X420512Y248242
Y253742
X421512Y265742
X430012
Y274742
X421512
X412512
X403512
X395512
X399012Y279242
Y288242
X403512Y283742
X408012Y279242
Y270242
X399012
X395512Y265742
X403512
X413012
X417012Y270242
Y279242
X412512Y283742
X421512
X430012
Y305742
Y311742
X433012Y308742
X414012Y310242
X400012Y310742
X395512
X391012
X386512
X382012
X377012
X384012Y307242
X388512
X393012
X397512
X390512Y300742
Y296742
X388012Y298742
X385012Y296742
Y300742
X382012Y298242
Y294242
Y290242
Y286742
X378012
X380012Y283742
X364512Y283242
Y280242
Y277242
X340012Y278742
Y282742
X342012Y286242
X346012
X344012Y289742
X340012
X339512Y295242
Y298242
X344012
Y301242
Y304242
X347512
Y301242
Y298242
Y295242
X344012
X348012Y289742
X351012Y301242
Y304242
X347512Y307742
Y311742
X343512Y310742
X337512Y306242
X329512Y303742
X325512
X321512
X323512Y300242
X327512
X316012Y279242
X341512Y266742
Y263242
X345012
Y266742
X348512
Y263242
X340512Y237242
X335012
X326012
X314012
X323512Y220742
X323012Y217242
X332012Y217742
X327512Y224242
X321012Y204742
X317512Y207742
X314012Y210742
Y204742
X340512Y205242
X346012Y204742
X380512Y202742
X402512Y203242
X399512Y206242
X402512Y209742
X399512Y213242
X406012
Y220242
X399512
X402512Y216742
X409512
X416512
X419512Y220242
X413012
Y213242
Y206242
X409512Y203242
X406012Y206242
X409512Y209742
X409012Y229742
X406012Y232242
X413512
X417512
X420012Y235242
X417512Y238242
X427512Y227742
X397512Y229742
X394012Y227242
X396512Y223742
X391512Y230742
X394012Y234242
X391512Y237742
X397012
X390012Y244742
Y247742
Y250742
Y253742
X386512
Y250742
Y247742
Y244742
X362012Y239742
X363012Y230242
X307512Y237242
X299512Y236742
X296012Y226742
X292512Y219742
X295012Y216742
X290012
X284512Y218742
Y221742
Y224742
X281012
Y221742
Y218742
X277512
Y221742
Y224742
X274012
Y221742
Y218742
X265512Y220242
X267512Y224242
X267012Y233742
X263512
X258012Y228742
X248512Y229242
X247512Y222742
X244012Y218242
X241012
X238012
X231512Y219242
X229931Y216242
X225012
Y219242
Y222242
Y225242
X221512
Y222242
Y219242
Y216242
X222012Y211742
X225512
X229012
X231512Y203742
X234512Y222742
X233012Y229242
X225228Y234242
X222012Y231742
X221012Y251242
X226012Y254742
X229512Y259242
X236512
X243512
Y253242
X240012Y262742
X233012
X226012
X229218Y267580
X225606Y271193
X229218Y274805
X225606Y278417
X229218Y282029
X232831Y278417
X236443Y282029
Y274805
X232831Y271193
X236443Y267580
X240055Y271193
Y278417
X226012Y287742
Y292242
Y296742
X219512Y301242
X220012Y306242
X223512
X230512Y303742
X234012
X237512
X265012
Y299742
Y295742
X280012Y290742
X284012
Y286742
Y282742
Y278742
Y274742
Y270742
Y266742
X280012
Y270742
Y274742
Y278742
Y282742
Y286742
X290512
Y293742
X294012Y290742
Y297242
X302512
Y290742
Y282742
Y275242
X307012Y279242
X311512Y282742
Y275242
X307012Y270742
X290512
X294012Y274742
X290512Y278742
X294012Y282742
X288012Y301742
X284012
X290512Y306242
Y310742
X277012
X311512Y297242
Y290742
X288012Y259242
X265012Y262242
Y266242
X276512Y239742
X274512Y233742
X270512Y211742
X267012
X263512
X256012
X287512Y204242
X300512
X303512Y207742
X300512Y210742
X297512Y213742
X307012Y210742
X310512Y213242
Y207742
X307012Y204742
X204512Y215242
X204012Y252242
Y256242
Y260242
Y300742
X204512Y333742
Y337742
X217012Y349742
X220012Y352242
X240012Y340742
Y337742
X243230Y328661
X233012Y327742
Y330661
Y324742
Y321742
Y318742
X253512Y324242
X257012
X262012Y324742
X255512Y329742
X257512Y335242
Y338742
X263012Y337423
Y341742
X275512Y342061
Y337742
Y333242
Y328742
Y324242
Y319742
X277012Y315242
X290512Y314242
X290012Y329242
Y333242
X294012
Y329242
X298012
Y333242
X302512Y335242
X304512Y331242
Y328242
X310512Y335242
X308012Y338742
X296012Y338242
Y341742
X290012Y337242
X280512Y333242
X270012
X248793Y342742
X313012Y338742
X315012Y349242
X325012
X335512
X354012Y350242
X359012Y347742
X364012Y350242
X369012Y347742
X374012Y350242
X379012Y347742
Y342742
Y337742
Y332742
X384012Y330242
Y335242
Y340242
Y345242
Y350242
X389012Y332742
X394012Y330242
Y335242
X399012Y332742
X404012Y335242
Y330242
X409012Y327742
Y322742
X414012Y325242
Y330242
Y335242
X409012Y332742
X422512Y332242
Y326742
X430012Y324742
X433012Y328242
X430012Y331742
X433012Y335742
X429012Y339242
X425512Y336242
X433012Y321242
X430012Y317742
X433012Y314742
X414012Y315242
Y320242
X377012Y315242
X364012Y316242
Y313242
X361012
Y316242
Y329742
X364012Y332742
X358012
X349512Y329242
X346012Y331742
X342512Y329242
X339012Y331742
X335512Y329242
X332012Y331742
X328512Y329242
X325012Y331742
X343512Y315742
X347512
X460488Y328258
X467488Y322258
X498988Y323258
Y319758
X545488Y315258
X558488Y319258
X555988Y322258
X558488Y325258
X562488
X566988Y327758
X569988Y325258
X578488Y327758
X581988Y330258
X579488Y333758
X576488Y337258
X569988
X562988
X556488
X559488Y340758
X566488
X562988Y344258
Y351258
X566488Y354258
X569988Y351258
X573488Y354258
X576488Y351258
X573488Y347758
X576488Y344258
X569988
X566488Y347758
X573488Y340758
X584488Y326758
X581988Y323258
X584488Y319758
X578988
X585988Y312758
X589488
X613988Y317758
X612988Y327258
X595488Y354758
X548488Y329758
X635488Y320258
X640988
X649988
X661988
X668488
X676488Y320758
X679988Y330758
X683488Y337758
X680988Y340758
X685988
X691488Y338758
Y335758
Y332758
X694988
Y335758
Y338758
X698488
Y335758
Y332758
X701988
Y335758
Y338758
X710488Y337258
X708488Y333258
X708988Y323758
X712488
X717988Y328758
X727488Y328258
X728488Y334758
X731988Y339258
X734988
X737988
X744488Y338258
X746069Y341258
X750988
Y338258
Y335258
Y332258
X754488
Y335258
Y338258
Y341258
X753988Y345758
X750488
X746988
X744488Y353758
X741488Y334758
X742988Y328258
X750772Y323258
X753988Y325758
X771488Y342258
X719988Y345758
X712488
X708988
X705488
X688488Y353258
X675488
X672488Y349758
X675488Y346758
X678488Y343758
X668988Y346758
X665488Y344258
Y349758
X661988Y346758
Y352758
X658488Y349758
X654988Y352758
X668988
X652988Y340258
X652488Y336758
X648488Y333258
X643988Y339758
X635488Y352258
X629988Y352758
X701488Y323758
X699488Y317758
T02
X635988Y205758
X645988
X655988
X665988
X675988
X685988
X698988
X708988
X718988
X728988
X738988
X748988
X516488Y306258
X459512Y251242
Y241242
Y231242
Y221242
X392012Y215742
Y205742
X375854Y217242
X366012
X356169
X292512Y205742
X282512
X272512
X256012
X246012
X236012
X226012
X227012Y351742
X237012
X247012
X257012
X267012
X277012
X290012
X300012
X310012
X320012
X330012
X340012
X516488Y336258
Y326258
Y316258
X583988Y341758
Y351758
X600146Y340258
X609988
X619831
X683488Y351758
X693488
X703488
X719988
X729988
X739988
X749988
M30
