G04*
G04 #@! TF.GenerationSoftware,Altium Limited,Altium Designer,22.3.1 (43)*
G04*
G04 Layer_Color=8421504*
%FSLAX25Y25*%
%MOIN*%
G70*
G04*
G04 #@! TF.SameCoordinates,9666C8D3-C488-416E-8FBA-698088E7738B*
G04*
G04*
G04 #@! TF.FilePolarity,Positive*
G04*
G01*
G75*
%ADD11C,0.04000*%
%ADD12R,0.03150X0.02756*%
%ADD13R,0.02953X0.02362*%
%ADD14R,0.05512X0.08268*%
%ADD15R,0.02362X0.02520*%
G04:AMPARAMS|DCode=16|XSize=14.96mil|YSize=13.78mil|CornerRadius=0.62mil|HoleSize=0mil|Usage=FLASHONLY|Rotation=360.000|XOffset=0mil|YOffset=0mil|HoleType=Round|Shape=RoundedRectangle|*
%AMROUNDEDRECTD16*
21,1,0.01496,0.01254,0,0,360.0*
21,1,0.01372,0.01378,0,0,360.0*
1,1,0.00124,0.00686,-0.00627*
1,1,0.00124,-0.00686,-0.00627*
1,1,0.00124,-0.00686,0.00627*
1,1,0.00124,0.00686,0.00627*
%
%ADD16ROUNDEDRECTD16*%
%ADD17R,0.02520X0.02362*%
%ADD18R,0.01024X0.03110*%
%ADD19R,0.03110X0.01024*%
%ADD20R,0.03543X0.07874*%
%ADD21R,0.07874X0.03543*%
%ADD22R,0.05236X0.05236*%
%ADD23R,0.06693X0.03937*%
%ADD24R,0.02756X0.05118*%
%ADD25R,0.02362X0.02953*%
%ADD26R,0.03937X0.01772*%
%ADD27R,0.00906X0.01181*%
%ADD28R,0.02756X0.03150*%
%ADD29R,0.03976X0.03976*%
%ADD30R,0.06969X0.16024*%
%ADD31R,0.16024X0.06969*%
%ADD32R,0.04921X0.01968*%
%ADD33R,0.02756X0.02362*%
%ADD34R,0.04134X0.03937*%
%ADD35R,0.08661X0.04134*%
%ADD37C,0.00850*%
%ADD38R,0.02756X0.07087*%
G04:AMPARAMS|DCode=39|XSize=14.96mil|YSize=13.78mil|CornerRadius=0.62mil|HoleSize=0mil|Usage=FLASHONLY|Rotation=270.000|XOffset=0mil|YOffset=0mil|HoleType=Round|Shape=RoundedRectangle|*
%AMROUNDEDRECTD39*
21,1,0.01496,0.01254,0,0,270.0*
21,1,0.01372,0.01378,0,0,270.0*
1,1,0.00124,-0.00627,-0.00686*
1,1,0.00124,-0.00627,0.00686*
1,1,0.00124,0.00627,0.00686*
1,1,0.00124,0.00627,-0.00686*
%
%ADD39ROUNDEDRECTD39*%
%ADD40R,0.01181X0.00906*%
%ADD41R,0.07165X0.03386*%
%ADD42R,0.05512X0.05118*%
%ADD43R,0.04961X0.10709*%
%ADD44R,0.00984X0.00787*%
%ADD45R,0.03150X0.02165*%
%ADD46R,0.04724X0.01181*%
%ADD51R,0.03150X0.02756*%
%ADD52R,0.03110X0.01024*%
D11*
X706488Y319758D02*
D03*
X718488D02*
D03*
X562988Y252758D02*
D03*
X741488Y319758D02*
D03*
X716488Y237758D02*
D03*
X722488D02*
D03*
X747488Y319758D02*
D03*
X726988D02*
D03*
X695988Y296258D02*
D03*
X747488Y237758D02*
D03*
X762488D02*
D03*
X695988Y255758D02*
D03*
X710488Y237758D02*
D03*
X753488Y319758D02*
D03*
X712488D02*
D03*
X695988Y261758D02*
D03*
X269512Y237742D02*
D03*
X257512D02*
D03*
X413012Y304742D02*
D03*
X234512Y237742D02*
D03*
X259512Y319742D02*
D03*
X253512D02*
D03*
X228512Y237742D02*
D03*
X249012D02*
D03*
X280012Y261242D02*
D03*
X228512Y319742D02*
D03*
X213512D02*
D03*
X280012Y301742D02*
D03*
X265512Y319742D02*
D03*
X222512Y237742D02*
D03*
X263512D02*
D03*
X280012Y295742D02*
D03*
D12*
X713654Y328258D02*
D03*
X709323D02*
D03*
X570488Y242758D02*
D03*
X566158D02*
D03*
X508154Y316258D02*
D03*
X503823D02*
D03*
X508154Y326258D02*
D03*
X503823D02*
D03*
X262346Y229242D02*
D03*
X266677D02*
D03*
D13*
X762752Y324758D02*
D03*
X758224D02*
D03*
X614752Y352758D02*
D03*
X610224D02*
D03*
X621224D02*
D03*
X625752D02*
D03*
X665225Y324258D02*
D03*
X669752D02*
D03*
X727752Y330758D02*
D03*
X723224D02*
D03*
X732252Y325758D02*
D03*
X727725D02*
D03*
X738225D02*
D03*
X742752D02*
D03*
X660224Y315758D02*
D03*
X664752D02*
D03*
X603225Y321758D02*
D03*
X607752D02*
D03*
X213248Y232742D02*
D03*
X217776D02*
D03*
X361248Y204742D02*
D03*
X365775D02*
D03*
X354776D02*
D03*
X350248D02*
D03*
X310775Y233242D02*
D03*
X306248D02*
D03*
X248248Y226742D02*
D03*
X252776D02*
D03*
X243748Y231742D02*
D03*
X248275D02*
D03*
X237775D02*
D03*
X233248D02*
D03*
X315775Y241742D02*
D03*
X311248D02*
D03*
X372776Y235742D02*
D03*
X368248D02*
D03*
D14*
X655811Y217758D02*
D03*
X638488D02*
D03*
X320189Y339742D02*
D03*
X337512D02*
D03*
D15*
X664256Y228758D02*
D03*
X667721D02*
D03*
X636756Y254758D02*
D03*
X640221D02*
D03*
X665756Y328758D02*
D03*
X669221D02*
D03*
X463488Y313258D02*
D03*
X460024D02*
D03*
X676721Y315758D02*
D03*
X673256D02*
D03*
X768256Y319758D02*
D03*
X771721D02*
D03*
X768256Y324758D02*
D03*
X771721D02*
D03*
X762721Y319758D02*
D03*
X759256D02*
D03*
X311744Y328742D02*
D03*
X308279D02*
D03*
X339244Y302742D02*
D03*
X335779D02*
D03*
X310244Y228742D02*
D03*
X306779D02*
D03*
X512512Y244242D02*
D03*
X515976D02*
D03*
X299279Y241742D02*
D03*
X302744D02*
D03*
X207744Y237742D02*
D03*
X204279D02*
D03*
X207744Y232742D02*
D03*
X204279D02*
D03*
X213279Y237742D02*
D03*
X216744D02*
D03*
D16*
X640457Y247782D02*
D03*
X638488D02*
D03*
X636461Y246739D02*
D03*
Y244770D02*
D03*
Y242802D02*
D03*
X638488Y241758D02*
D03*
X640457D02*
D03*
X642484Y242802D02*
D03*
Y244770D02*
D03*
Y246739D02*
D03*
X335543Y309718D02*
D03*
X337512D02*
D03*
X339539Y310761D02*
D03*
Y312730D02*
D03*
Y314698D02*
D03*
X337512Y315742D02*
D03*
X335543D02*
D03*
X333516Y314698D02*
D03*
Y312730D02*
D03*
Y310761D02*
D03*
D17*
X655988Y244026D02*
D03*
Y247491D02*
D03*
X651488Y244026D02*
D03*
Y247491D02*
D03*
X646988Y244026D02*
D03*
Y247491D02*
D03*
X660488Y244026D02*
D03*
Y247491D02*
D03*
Y236026D02*
D03*
Y239491D02*
D03*
X686488Y234526D02*
D03*
Y237991D02*
D03*
X478488Y322991D02*
D03*
Y319526D02*
D03*
X717988Y332758D02*
D03*
Y336223D02*
D03*
X483988Y319526D02*
D03*
Y322991D02*
D03*
X472988Y319526D02*
D03*
Y322991D02*
D03*
X631488Y301991D02*
D03*
Y298526D02*
D03*
X594488Y242258D02*
D03*
Y238794D02*
D03*
X589689Y242244D02*
D03*
Y238780D02*
D03*
X584912Y242266D02*
D03*
Y238802D02*
D03*
X580135Y242244D02*
D03*
Y238780D02*
D03*
X575402Y242222D02*
D03*
Y238758D02*
D03*
X562488Y332991D02*
D03*
Y329526D02*
D03*
Y317026D02*
D03*
Y320491D02*
D03*
X574988Y320991D02*
D03*
Y317526D02*
D03*
X320012Y313474D02*
D03*
Y310009D02*
D03*
X324512Y313474D02*
D03*
Y310009D02*
D03*
X329012Y313474D02*
D03*
Y310009D02*
D03*
X315512Y313474D02*
D03*
Y310009D02*
D03*
Y321474D02*
D03*
Y318009D02*
D03*
X289512Y322974D02*
D03*
Y319509D02*
D03*
X497512Y234509D02*
D03*
Y237974D02*
D03*
X258012Y224742D02*
D03*
Y221277D02*
D03*
X492012Y237974D02*
D03*
Y234509D02*
D03*
X503012Y237974D02*
D03*
Y234509D02*
D03*
X344512Y255509D02*
D03*
Y258974D02*
D03*
X381512Y315242D02*
D03*
Y318706D02*
D03*
X386311Y315256D02*
D03*
Y318720D02*
D03*
X391088Y315234D02*
D03*
Y318698D02*
D03*
X395865Y315256D02*
D03*
Y318720D02*
D03*
X400598Y315278D02*
D03*
Y318742D02*
D03*
X413512Y224509D02*
D03*
Y227974D02*
D03*
Y240474D02*
D03*
Y237009D02*
D03*
X401012Y236509D02*
D03*
Y239974D02*
D03*
D18*
X678409Y249514D02*
D03*
X676441D02*
D03*
X674473D02*
D03*
X672504D02*
D03*
X670536D02*
D03*
X668567D02*
D03*
Y234002D02*
D03*
X670536D02*
D03*
X672504D02*
D03*
X674473D02*
D03*
X676441D02*
D03*
X678409D02*
D03*
X297590Y307986D02*
D03*
X299559D02*
D03*
X301528D02*
D03*
X303496D02*
D03*
X305465D02*
D03*
X307433D02*
D03*
Y323498D02*
D03*
X305465D02*
D03*
X303496D02*
D03*
X301528D02*
D03*
X299559D02*
D03*
X297590D02*
D03*
D19*
X665732Y246680D02*
D03*
Y244711D02*
D03*
Y242743D02*
D03*
Y240774D02*
D03*
Y238806D02*
D03*
Y236837D02*
D03*
X681244D02*
D03*
Y238806D02*
D03*
Y240774D02*
D03*
Y242743D02*
D03*
Y244711D02*
D03*
Y246680D02*
D03*
X310268Y310820D02*
D03*
Y312789D02*
D03*
Y314757D02*
D03*
Y316726D02*
D03*
Y318694D02*
D03*
Y320663D02*
D03*
D20*
X772697Y312223D02*
D03*
X767697D02*
D03*
X762697D02*
D03*
X757697D02*
D03*
X752697D02*
D03*
X747697D02*
D03*
X742697D02*
D03*
X737697D02*
D03*
X732697D02*
D03*
X727697D02*
D03*
X722697D02*
D03*
X717697D02*
D03*
X712697D02*
D03*
X707697D02*
D03*
Y245294D02*
D03*
X712697D02*
D03*
X717697D02*
D03*
X722697D02*
D03*
X727697D02*
D03*
X732697D02*
D03*
X737697D02*
D03*
X742697D02*
D03*
X747697D02*
D03*
X752697D02*
D03*
X757697D02*
D03*
X762697D02*
D03*
X767697D02*
D03*
X772697D02*
D03*
X203303Y245277D02*
D03*
X208303D02*
D03*
X213303D02*
D03*
X218303D02*
D03*
X223303D02*
D03*
X228303D02*
D03*
X233303D02*
D03*
X238303D02*
D03*
X243303D02*
D03*
X248303D02*
D03*
X253303D02*
D03*
X258303D02*
D03*
X263303D02*
D03*
X268303D02*
D03*
Y312206D02*
D03*
X263303D02*
D03*
X258303D02*
D03*
X253303D02*
D03*
X248303D02*
D03*
X243303D02*
D03*
X238303D02*
D03*
X233303D02*
D03*
X228303D02*
D03*
X223303D02*
D03*
X218303D02*
D03*
X213303D02*
D03*
X208303D02*
D03*
X203303D02*
D03*
D21*
X703760Y301258D02*
D03*
Y296258D02*
D03*
Y291258D02*
D03*
Y286258D02*
D03*
Y281258D02*
D03*
Y276258D02*
D03*
Y271258D02*
D03*
Y266258D02*
D03*
Y261258D02*
D03*
Y256258D02*
D03*
X272240Y256242D02*
D03*
Y261242D02*
D03*
Y266242D02*
D03*
Y271242D02*
D03*
Y276242D02*
D03*
Y281242D02*
D03*
Y286242D02*
D03*
Y291242D02*
D03*
Y296242D02*
D03*
Y301242D02*
D03*
D22*
X750394Y289920D02*
D03*
Y282695D02*
D03*
Y275471D02*
D03*
X743169Y289920D02*
D03*
Y282695D02*
D03*
Y275471D02*
D03*
X735945Y289920D02*
D03*
Y282695D02*
D03*
Y275471D02*
D03*
X225606Y267580D02*
D03*
Y274805D02*
D03*
Y282029D02*
D03*
X232831Y267580D02*
D03*
Y274805D02*
D03*
Y282029D02*
D03*
X240055Y267580D02*
D03*
Y274805D02*
D03*
Y282029D02*
D03*
D23*
X605488Y262239D02*
D03*
Y254758D02*
D03*
X617299D02*
D03*
Y262239D02*
D03*
X370512Y295261D02*
D03*
Y302742D02*
D03*
X358701D02*
D03*
Y295261D02*
D03*
D24*
X603520Y266766D02*
D03*
Y250231D02*
D03*
X619268D02*
D03*
Y266766D02*
D03*
X372480Y290734D02*
D03*
Y307269D02*
D03*
X356732D02*
D03*
Y290734D02*
D03*
D25*
X671488Y340022D02*
D03*
Y335495D02*
D03*
X723488Y336258D02*
D03*
Y340786D02*
D03*
X681488Y320286D02*
D03*
Y315758D02*
D03*
X562488Y305495D02*
D03*
Y310022D02*
D03*
X567488D02*
D03*
Y305495D02*
D03*
Y321022D02*
D03*
Y316495D02*
D03*
X762488Y232022D02*
D03*
Y227495D02*
D03*
X747488Y232022D02*
D03*
Y227495D02*
D03*
X304512Y217478D02*
D03*
Y222005D02*
D03*
X252512Y221242D02*
D03*
Y216714D02*
D03*
X294512Y237214D02*
D03*
Y241742D02*
D03*
X413512Y252005D02*
D03*
Y247478D02*
D03*
X408512D02*
D03*
Y252005D02*
D03*
Y236478D02*
D03*
Y241005D02*
D03*
X213512Y325478D02*
D03*
Y330005D02*
D03*
X228512Y325478D02*
D03*
Y330005D02*
D03*
D26*
X657248Y333699D02*
D03*
Y336258D02*
D03*
Y338817D02*
D03*
X664728D02*
D03*
Y336258D02*
D03*
Y333699D02*
D03*
X318752Y223801D02*
D03*
Y221242D02*
D03*
Y218683D02*
D03*
X311272D02*
D03*
Y221242D02*
D03*
Y223801D02*
D03*
D27*
X694473Y344203D02*
D03*
X692504D02*
D03*
X735972D02*
D03*
X734004D02*
D03*
X692504Y342314D02*
D03*
X694473D02*
D03*
X734004D02*
D03*
X735972D02*
D03*
X723004Y212813D02*
D03*
X724972D02*
D03*
Y214703D02*
D03*
X723004D02*
D03*
X281527Y213297D02*
D03*
X283496D02*
D03*
X240027D02*
D03*
X241996D02*
D03*
X283496Y215187D02*
D03*
X281527D02*
D03*
X241996D02*
D03*
X240027D02*
D03*
X252996Y344687D02*
D03*
X251027D02*
D03*
Y342797D02*
D03*
X252996D02*
D03*
D28*
X737703Y233242D02*
D03*
Y237573D02*
D03*
X737483Y330263D02*
D03*
Y334594D02*
D03*
X732488Y330258D02*
D03*
Y334589D02*
D03*
X732770Y237598D02*
D03*
Y233267D02*
D03*
X767500Y237760D02*
D03*
Y233430D02*
D03*
X727837Y237573D02*
D03*
Y233242D02*
D03*
X550488Y236258D02*
D03*
Y240589D02*
D03*
X556958Y236194D02*
D03*
Y240525D02*
D03*
X238297Y324258D02*
D03*
Y319927D02*
D03*
X238517Y227237D02*
D03*
Y222906D02*
D03*
X243512Y227242D02*
D03*
Y222911D02*
D03*
X243230Y319902D02*
D03*
Y324233D02*
D03*
X208500Y319740D02*
D03*
Y324070D02*
D03*
X248163Y319927D02*
D03*
Y324258D02*
D03*
X425512Y321242D02*
D03*
Y316911D02*
D03*
X419042Y321306D02*
D03*
Y316975D02*
D03*
D29*
X659969Y269247D02*
D03*
Y305270D02*
D03*
X678000D02*
D03*
Y287278D02*
D03*
Y278262D02*
D03*
Y269247D02*
D03*
X668984D02*
D03*
X316031Y288253D02*
D03*
Y252230D02*
D03*
X298000D02*
D03*
Y270222D02*
D03*
Y279238D02*
D03*
Y288253D02*
D03*
X307016D02*
D03*
D30*
X641976Y273774D02*
D03*
Y291766D02*
D03*
X334023Y283726D02*
D03*
Y265734D02*
D03*
D31*
X646465Y305270D02*
D03*
X329535Y252230D02*
D03*
D32*
X610331Y307778D02*
D03*
Y311518D02*
D03*
Y315258D02*
D03*
X600488D02*
D03*
Y311518D02*
D03*
Y307778D02*
D03*
X365669Y249722D02*
D03*
Y245982D02*
D03*
Y242242D02*
D03*
X375512D02*
D03*
Y245982D02*
D03*
Y249722D02*
D03*
D33*
X573154Y333258D02*
D03*
X568823D02*
D03*
X402846Y224242D02*
D03*
X407177D02*
D03*
D34*
X554992Y329758D02*
D03*
X421008Y227742D02*
D03*
D35*
X548988Y323951D02*
D03*
Y335565D02*
D03*
X427012Y233549D02*
D03*
Y221935D02*
D03*
D37*
X574988Y327833D02*
D03*
Y326258D02*
D03*
X573414Y327833D02*
D03*
Y326258D02*
D03*
X401012Y229667D02*
D03*
Y231242D02*
D03*
X402587Y229667D02*
D03*
Y231242D02*
D03*
D38*
X545665Y260057D02*
D03*
X549996D02*
D03*
X554327D02*
D03*
X558658D02*
D03*
X562988D02*
D03*
X567319D02*
D03*
X571650D02*
D03*
X575980D02*
D03*
X580311D02*
D03*
Y297459D02*
D03*
X575980D02*
D03*
X571650D02*
D03*
X567319D02*
D03*
X562988D02*
D03*
X558658D02*
D03*
X554327D02*
D03*
X549996D02*
D03*
X545665D02*
D03*
X430335Y297443D02*
D03*
X426004D02*
D03*
X421673D02*
D03*
X417342D02*
D03*
X413012D02*
D03*
X408681D02*
D03*
X404350D02*
D03*
X400020D02*
D03*
X395689D02*
D03*
Y260041D02*
D03*
X400020D02*
D03*
X404350D02*
D03*
X408681D02*
D03*
X413012D02*
D03*
X417342D02*
D03*
X421673D02*
D03*
X426004D02*
D03*
X430335D02*
D03*
D39*
X462457Y318247D02*
D03*
X460488D02*
D03*
X458520D02*
D03*
X457477Y320274D02*
D03*
Y322243D02*
D03*
X458520Y324270D02*
D03*
X460488D02*
D03*
X462457D02*
D03*
X463500Y322243D02*
D03*
Y320274D02*
D03*
X513543Y239253D02*
D03*
X515512D02*
D03*
X517480D02*
D03*
X518524Y237226D02*
D03*
Y235257D02*
D03*
X517480Y233230D02*
D03*
X515512D02*
D03*
X513543D02*
D03*
X512500Y235257D02*
D03*
Y237226D02*
D03*
D40*
X492488Y320290D02*
D03*
Y322258D02*
D03*
X490598D02*
D03*
Y320290D02*
D03*
X483512Y237210D02*
D03*
Y235242D02*
D03*
X485401D02*
D03*
Y237210D02*
D03*
D41*
X605488Y300853D02*
D03*
Y287664D02*
D03*
X370512Y256647D02*
D03*
Y269836D02*
D03*
D42*
X629988Y285408D02*
D03*
Y279109D02*
D03*
X346012Y272092D02*
D03*
Y278391D02*
D03*
D43*
X761252Y333758D02*
D03*
X771725D02*
D03*
X214748Y223742D02*
D03*
X204275D02*
D03*
D44*
X574988Y310314D02*
D03*
X574004Y308758D02*
D03*
Y307203D02*
D03*
X575973D02*
D03*
Y308758D02*
D03*
X401012Y247186D02*
D03*
X401996Y248742D02*
D03*
Y250297D02*
D03*
X400028D02*
D03*
Y248742D02*
D03*
D45*
X550488Y246404D02*
D03*
Y252113D02*
D03*
X556988Y246404D02*
D03*
Y252113D02*
D03*
X425512Y311096D02*
D03*
Y305387D02*
D03*
X419012Y311096D02*
D03*
Y305387D02*
D03*
D46*
X550488Y249258D02*
D03*
X556988D02*
D03*
X425512Y308242D02*
D03*
X419012D02*
D03*
D51*
X405512Y314742D02*
D03*
X409842D02*
D03*
X467846Y241242D02*
D03*
X472177D02*
D03*
X467846Y231242D02*
D03*
X472177D02*
D03*
D52*
X294756Y320663D02*
D03*
Y318694D02*
D03*
Y316726D02*
D03*
Y314757D02*
D03*
Y312789D02*
D03*
Y310820D02*
D03*
M02*
