G04*
G04 #@! TF.GenerationSoftware,Altium Limited,Altium Designer,22.3.1 (43)*
G04*
G04 Layer_Color=32896*
%FSLAX25Y25*%
%MOIN*%
G70*
G04*
G04 #@! TF.SameCoordinates,9666C8D3-C488-416E-8FBA-698088E7738B*
G04*
G04*
G04 #@! TF.FilePolarity,Positive*
G04*
G01*
G75*
%ADD10C,0.01000*%
%ADD74C,0.00787*%
%ADD75C,0.00394*%
%ADD76C,0.00591*%
%ADD77C,0.00500*%
%ADD138C,0.01181*%
%ADD139C,0.00984*%
D10*
X488495Y304467D02*
X489495Y303467D01*
X491494D01*
X492494Y304467D01*
Y305467D01*
X491494Y306466D01*
X490494D01*
X491494D01*
X492494Y307466D01*
Y308466D01*
X491494Y309465D01*
X489495D01*
X488495Y308466D01*
X494493Y309465D02*
Y308466D01*
X495493D01*
Y309465D01*
X494493D01*
X499492Y304467D02*
X500491Y303467D01*
X502491D01*
X503490Y304467D01*
Y305467D01*
X502491Y306466D01*
X501491D01*
X502491D01*
X503490Y307466D01*
Y308466D01*
X502491Y309465D01*
X500491D01*
X499492Y308466D01*
X505490Y303467D02*
Y307466D01*
X507489Y309465D01*
X509488Y307466D01*
Y303467D01*
X497492Y314065D02*
X496492Y313065D01*
X494493D01*
X493493Y314065D01*
Y315064D01*
X494493Y316064D01*
X496492D01*
X497492Y317064D01*
Y318063D01*
X496492Y319063D01*
X494493D01*
X493493Y318063D01*
X503490Y314065D02*
X502491Y313065D01*
X500491D01*
X499492Y314065D01*
Y318063D01*
X500491Y319063D01*
X502491D01*
X503490Y318063D01*
X505490Y313065D02*
Y319063D01*
X509488D01*
X497492Y323662D02*
X496492Y322663D01*
X494493D01*
X493493Y323662D01*
Y324662D01*
X494493Y325662D01*
X496492D01*
X497492Y326661D01*
Y327661D01*
X496492Y328661D01*
X494493D01*
X493493Y327661D01*
X499492Y322663D02*
Y328661D01*
X502491D01*
X503490Y327661D01*
Y323662D01*
X502491Y322663D01*
X499492D01*
X505490Y328661D02*
Y324662D01*
X507489Y322663D01*
X509488Y324662D01*
Y328661D01*
Y325662D01*
X505490D01*
X497492Y333260D02*
X496492Y332260D01*
X494493D01*
X493493Y333260D01*
Y337259D01*
X494493Y338258D01*
X496492D01*
X497492Y337259D01*
Y335259D01*
X495493D01*
X499492Y338258D02*
Y332260D01*
X503490Y338258D01*
Y332260D01*
X505490D02*
Y338258D01*
X508489D01*
X509488Y337259D01*
Y333260D01*
X508489Y332260D01*
X505490D01*
X751280Y331262D02*
X752279Y330262D01*
Y328263D01*
X751280Y327263D01*
X747281D01*
X746281Y328263D01*
Y330262D01*
X747281Y331262D01*
X749280D01*
Y329263D01*
X746281Y333261D02*
X752279D01*
X746281Y337260D01*
X752279D01*
Y339260D02*
X746281D01*
Y342259D01*
X747281Y343258D01*
X751280D01*
X752279Y342259D01*
Y339260D01*
X741682Y331262D02*
X742682Y330262D01*
Y328263D01*
X741682Y327263D01*
X740682D01*
X739683Y328263D01*
Y330262D01*
X738683Y331262D01*
X737683D01*
X736684Y330262D01*
Y328263D01*
X737683Y327263D01*
X742682Y333261D02*
X736684D01*
Y336261D01*
X737683Y337260D01*
X741682D01*
X742682Y336261D01*
Y333261D01*
X736684Y339260D02*
X740682D01*
X742682Y341259D01*
X740682Y343258D01*
X736684D01*
X739683D01*
Y339260D01*
X732084Y331262D02*
X733084Y330262D01*
Y328263D01*
X732084Y327263D01*
X731085D01*
X730085Y328263D01*
Y330262D01*
X729085Y331262D01*
X728086D01*
X727086Y330262D01*
Y328263D01*
X728086Y327263D01*
X732084Y337260D02*
X733084Y336261D01*
Y334261D01*
X732084Y333261D01*
X728086D01*
X727086Y334261D01*
Y336261D01*
X728086Y337260D01*
X733084Y339260D02*
X727086D01*
Y343258D01*
X722487Y322265D02*
X723486Y323265D01*
Y325264D01*
X722487Y326264D01*
X721487D01*
X720487Y325264D01*
Y324265D01*
Y325264D01*
X719488Y326264D01*
X718488D01*
X717488Y325264D01*
Y323265D01*
X718488Y322265D01*
X717488Y328263D02*
X718488D01*
Y329263D01*
X717488D01*
Y328263D01*
X722487Y333261D02*
X723486Y334261D01*
Y336261D01*
X722487Y337260D01*
X721487D01*
X720487Y336261D01*
Y335261D01*
Y336261D01*
X719488Y337260D01*
X718488D01*
X717488Y336261D01*
Y334261D01*
X718488Y333261D01*
X723486Y339260D02*
X719488D01*
X717488Y341259D01*
X719488Y343258D01*
X723486D01*
X681977Y215258D02*
X687975D01*
Y218257D01*
X686975Y219257D01*
X684976D01*
X683976Y218257D01*
Y215258D01*
Y217258D02*
X681977Y219257D01*
X687975Y221256D02*
Y225255D01*
Y223256D01*
X681977D01*
X686975Y231253D02*
X687975Y230254D01*
Y228254D01*
X686975Y227255D01*
X685975D01*
X684976Y228254D01*
Y230254D01*
X683976Y231253D01*
X682976D01*
X681977Y230254D01*
Y228254D01*
X682976Y227255D01*
X678377Y215258D02*
Y219257D01*
Y217258D01*
X672379D01*
X678377Y221256D02*
X672379Y225255D01*
X678377D02*
X672379Y221256D01*
X662781Y215258D02*
X668779D01*
Y218257D01*
X667780Y219257D01*
X665780D01*
X664781Y218257D01*
Y215258D01*
Y217258D02*
X662781Y219257D01*
X668779Y221256D02*
X662781Y225255D01*
X668779D02*
X662781Y221256D01*
X659182Y219257D02*
Y215258D01*
X656183D01*
X657182Y217258D01*
Y218257D01*
X656183Y219257D01*
X654183D01*
X653184Y218257D01*
Y216258D01*
X654183Y215258D01*
X659182Y221256D02*
X655183D01*
X653184Y223256D01*
X655183Y225255D01*
X659182D01*
X649584Y215258D02*
X643586D01*
Y218257D01*
X644586Y219257D01*
X648584D01*
X649584Y218257D01*
Y215258D01*
Y221256D02*
Y225255D01*
Y223256D01*
X643586D01*
Y227255D02*
X649584D01*
Y230254D01*
X648584Y231253D01*
X646585D01*
X645585Y230254D01*
Y227255D01*
Y229254D02*
X643586Y231253D01*
X638987Y219257D02*
X639986Y218257D01*
Y216258D01*
X638987Y215258D01*
X634988D01*
X633988Y216258D01*
Y218257D01*
X634988Y219257D01*
X636987D01*
Y217258D01*
X633988Y221256D02*
X639986D01*
X633988Y225255D01*
X639986D01*
Y227255D02*
X633988D01*
Y230254D01*
X634988Y231253D01*
X638987D01*
X639986Y230254D01*
Y227255D01*
X761488Y229258D02*
X767486D01*
Y232257D01*
X766487Y233257D01*
X764487D01*
X763488Y232257D01*
Y229258D01*
Y231258D02*
X761488Y233257D01*
Y235256D02*
X765487D01*
X767486Y237256D01*
X765487Y239255D01*
X761488D01*
X764487D01*
Y235256D01*
X767486Y241254D02*
X761488D01*
Y244253D01*
X762488Y245253D01*
X766487D01*
X767486Y244253D01*
Y241254D01*
Y247252D02*
Y249252D01*
Y248252D01*
X761488D01*
Y247252D01*
Y249252D01*
X767486Y255250D02*
Y253251D01*
X766487Y252251D01*
X762488D01*
X761488Y253251D01*
Y255250D01*
X762488Y256250D01*
X766487D01*
X767486Y255250D01*
X487505Y253033D02*
X486505Y254033D01*
X484506D01*
X483506Y253033D01*
Y252033D01*
X484506Y251034D01*
X485506D01*
X484506D01*
X483506Y250034D01*
Y249034D01*
X484506Y248035D01*
X486505D01*
X487505Y249034D01*
X481507Y248035D02*
Y249034D01*
X480507D01*
Y248035D01*
X481507D01*
X476509Y253033D02*
X475509Y254033D01*
X473510D01*
X472510Y253033D01*
Y252033D01*
X473510Y251034D01*
X474509D01*
X473510D01*
X472510Y250034D01*
Y249034D01*
X473510Y248035D01*
X475509D01*
X476509Y249034D01*
X470510Y254033D02*
Y250034D01*
X468511Y248035D01*
X466512Y250034D01*
Y254033D01*
X478508Y243435D02*
X479507Y244435D01*
X481507D01*
X482507Y243435D01*
Y242436D01*
X481507Y241436D01*
X479507D01*
X478508Y240436D01*
Y239437D01*
X479507Y238437D01*
X481507D01*
X482507Y239437D01*
X472510Y243435D02*
X473510Y244435D01*
X475509D01*
X476509Y243435D01*
Y239437D01*
X475509Y238437D01*
X473510D01*
X472510Y239437D01*
X470510Y244435D02*
Y238437D01*
X466512D01*
X478508Y233838D02*
X479507Y234837D01*
X481507D01*
X482507Y233838D01*
Y232838D01*
X481507Y231838D01*
X479507D01*
X478508Y230839D01*
Y229839D01*
X479507Y228839D01*
X481507D01*
X482507Y229839D01*
X476509Y234837D02*
Y228839D01*
X473510D01*
X472510Y229839D01*
Y233838D01*
X473510Y234837D01*
X476509D01*
X470510Y228839D02*
Y232838D01*
X468511Y234837D01*
X466512Y232838D01*
Y228839D01*
Y231838D01*
X470510D01*
X478508Y224240D02*
X479507Y225240D01*
X481507D01*
X482507Y224240D01*
Y220241D01*
X481507Y219242D01*
X479507D01*
X478508Y220241D01*
Y222241D01*
X480507D01*
X476509Y219242D02*
Y225240D01*
X472510Y219242D01*
Y225240D01*
X470510D02*
Y219242D01*
X467511D01*
X466512Y220241D01*
Y224240D01*
X467511Y225240D01*
X470510D01*
X224720Y226238D02*
X223721Y227238D01*
Y229237D01*
X224720Y230237D01*
X228719D01*
X229719Y229237D01*
Y227238D01*
X228719Y226238D01*
X226720D01*
Y228237D01*
X229719Y224238D02*
X223721D01*
X229719Y220240D01*
X223721D01*
Y218240D02*
X229719D01*
Y215241D01*
X228719Y214242D01*
X224720D01*
X223721Y215241D01*
Y218240D01*
X234318Y226238D02*
X233318Y227238D01*
Y229237D01*
X234318Y230237D01*
X235318D01*
X236317Y229237D01*
Y227238D01*
X237317Y226238D01*
X238317D01*
X239316Y227238D01*
Y229237D01*
X238317Y230237D01*
X233318Y224238D02*
X239316D01*
Y221239D01*
X238317Y220240D01*
X234318D01*
X233318Y221239D01*
Y224238D01*
X239316Y218240D02*
X235318D01*
X233318Y216241D01*
X235318Y214242D01*
X239316D01*
X236317D01*
Y218240D01*
X243916Y226238D02*
X242916Y227238D01*
Y229237D01*
X243916Y230237D01*
X244915D01*
X245915Y229237D01*
Y227238D01*
X246915Y226238D01*
X247914D01*
X248914Y227238D01*
Y229237D01*
X247914Y230237D01*
X243916Y220240D02*
X242916Y221239D01*
Y223239D01*
X243916Y224238D01*
X247914D01*
X248914Y223239D01*
Y221239D01*
X247914Y220240D01*
X242916Y218240D02*
X248914D01*
Y214242D01*
X253513Y235235D02*
X252514Y234235D01*
Y232236D01*
X253513Y231236D01*
X254513D01*
X255513Y232236D01*
Y233236D01*
Y232236D01*
X256512Y231236D01*
X257512D01*
X258512Y232236D01*
Y234235D01*
X257512Y235235D01*
X258512Y229237D02*
X257512D01*
Y228237D01*
X258512D01*
Y229237D01*
X253513Y224238D02*
X252514Y223239D01*
Y221239D01*
X253513Y220240D01*
X254513D01*
X255513Y221239D01*
Y222239D01*
Y221239D01*
X256512Y220240D01*
X257512D01*
X258512Y221239D01*
Y223239D01*
X257512Y224238D01*
X252514Y218240D02*
X256512D01*
X258512Y216241D01*
X256512Y214242D01*
X252514D01*
X294023Y342242D02*
X288025D01*
Y339243D01*
X289025Y338243D01*
X291024D01*
X292024Y339243D01*
Y342242D01*
Y340242D02*
X294023Y338243D01*
X288025Y336244D02*
Y332245D01*
Y334244D01*
X294023D01*
X289025Y326247D02*
X288025Y327246D01*
Y329246D01*
X289025Y330245D01*
X290025D01*
X291024Y329246D01*
Y327246D01*
X292024Y326247D01*
X293024D01*
X294023Y327246D01*
Y329246D01*
X293024Y330245D01*
X297623Y342242D02*
Y338243D01*
Y340242D01*
X303621D01*
X297623Y336244D02*
X303621Y332245D01*
X297623D02*
X303621Y336244D01*
X313219Y342242D02*
X307221D01*
Y339243D01*
X308220Y338243D01*
X310220D01*
X311219Y339243D01*
Y342242D01*
Y340242D02*
X313219Y338243D01*
X307221Y336244D02*
X313219Y332245D01*
X307221D02*
X313219Y336244D01*
X316818Y338243D02*
Y342242D01*
X319817D01*
X318818Y340242D01*
Y339243D01*
X319817Y338243D01*
X321817D01*
X322816Y339243D01*
Y341242D01*
X321817Y342242D01*
X316818Y336244D02*
X320817D01*
X322816Y334244D01*
X320817Y332245D01*
X316818D01*
X326416Y342242D02*
X332414D01*
Y339243D01*
X331414Y338243D01*
X327416D01*
X326416Y339243D01*
Y342242D01*
Y336244D02*
Y332245D01*
Y334244D01*
X332414D01*
Y330245D02*
X326416D01*
Y327246D01*
X327416Y326247D01*
X329415D01*
X330415Y327246D01*
Y330245D01*
Y328246D02*
X332414Y326247D01*
X337013Y338243D02*
X336014Y339243D01*
Y341242D01*
X337013Y342242D01*
X341012D01*
X342012Y341242D01*
Y339243D01*
X341012Y338243D01*
X339013D01*
Y340242D01*
X342012Y336244D02*
X336014D01*
X342012Y332245D01*
X336014D01*
Y330245D02*
X342012D01*
Y327246D01*
X341012Y326247D01*
X337013D01*
X336014Y327246D01*
Y330245D01*
X214512Y328242D02*
X208514D01*
Y325243D01*
X209513Y324243D01*
X211513D01*
X212512Y325243D01*
Y328242D01*
Y326242D02*
X214512Y324243D01*
Y322244D02*
X210513D01*
X208514Y320244D01*
X210513Y318245D01*
X214512D01*
X211513D01*
Y322244D01*
X208514Y316246D02*
X214512D01*
Y313246D01*
X213512Y312247D01*
X209513D01*
X208514Y313246D01*
Y316246D01*
Y310247D02*
Y308248D01*
Y309248D01*
X214512D01*
Y310247D01*
Y308248D01*
X208514Y302250D02*
Y304249D01*
X209513Y305249D01*
X213512D01*
X214512Y304249D01*
Y302250D01*
X213512Y301250D01*
X209513D01*
X208514Y302250D01*
D74*
X764315Y280518D02*
G03*
X764315Y280518I122J0D01*
G01*
X567977Y258904D02*
G03*
X567583Y258904I-197J0D01*
G01*
D02*
G03*
X567977Y258904I197J0D01*
G01*
D02*
G03*
X567583Y258904I-197J0D01*
G01*
X724488Y220849D02*
Y219668D01*
X623488Y220849D02*
Y219668D01*
X665654Y228349D02*
Y227168D01*
X706988Y220849D02*
Y219668D01*
X693488Y220849D02*
Y219668D01*
X755881Y223276D02*
Y214220D01*
X738488Y223286D02*
Y214231D01*
X769606Y266136D02*
X759370D01*
X761492Y276373D02*
X759370D01*
X769606D02*
X767484D01*
X672488Y339849D02*
Y338668D01*
Y325849D02*
Y324668D01*
Y332849D02*
Y331668D01*
X603886Y330164D02*
X599752D01*
X598374Y329967D02*
Y318550D01*
X596602D01*
Y329967D02*
Y318550D01*
X598374Y329967D02*
X596602D01*
X211685Y276982D02*
G03*
X211685Y276982I-122J0D01*
G01*
X408024Y298596D02*
G03*
X408417Y298596I197J0D01*
G01*
D02*
G03*
X408024Y298596I-197J0D01*
G01*
D02*
G03*
X408417Y298596I197J0D01*
G01*
X251512Y336651D02*
Y337832D01*
X352512Y336651D02*
Y337832D01*
X310346Y329151D02*
Y330332D01*
X269012Y336651D02*
Y337832D01*
X282512Y336651D02*
Y337832D01*
X220119Y334224D02*
Y343280D01*
X237512Y334214D02*
Y343269D01*
X206394Y291364D02*
X216630D01*
X214508Y281128D02*
X216630D01*
X206394D02*
X208516D01*
X303512Y217651D02*
Y218832D01*
Y231651D02*
Y232832D01*
Y224651D02*
Y225832D01*
X372114Y227336D02*
X376248D01*
X377626Y227533D02*
Y238950D01*
X379398D01*
Y227533D02*
Y238950D01*
X377626Y227533D02*
X379398D01*
D75*
X621488Y224853D02*
G03*
X621488Y225247I0J197D01*
G01*
D02*
G03*
X621488Y224853I0J-197D01*
G01*
X656488D02*
G03*
X656488Y225247I0J197D01*
G01*
D02*
G03*
X656488Y224853I0J-197D01*
G01*
X764488Y301180D02*
G03*
X764488Y300786I0J-197D01*
G01*
D02*
G03*
X764488Y301180I0J197D01*
G01*
Y321282D02*
G03*
X764488Y320888I0J-197D01*
G01*
D02*
G03*
X764488Y321282I0J197D01*
G01*
X726488Y224853D02*
G03*
X726488Y225247I0J197D01*
G01*
D02*
G03*
X726488Y224853I0J-197D01*
G01*
X708988D02*
G03*
X708988Y225247I0J197D01*
G01*
D02*
G03*
X708988Y224853I0J-197D01*
G01*
X691488D02*
G03*
X691488Y225247I0J197D01*
G01*
D02*
G03*
X691488Y224853I0J-197D01*
G01*
X665394Y339258D02*
G03*
X665000Y339258I-197J0D01*
G01*
D02*
G03*
X665394Y339258I197J0D01*
G01*
Y325258D02*
G03*
X665000Y325258I-197J0D01*
G01*
D02*
G03*
X665394Y325258I197J0D01*
G01*
Y332258D02*
G03*
X665000Y332258I-197J0D01*
G01*
D02*
G03*
X665394Y332258I197J0D01*
G01*
X767638Y293306D02*
Y292518D01*
Y287794D02*
Y287006D01*
X761339Y287794D02*
Y287006D01*
Y293306D02*
Y292518D01*
X767638Y313408D02*
Y312620D01*
Y307896D02*
Y307109D01*
X761339Y307896D02*
Y307109D01*
Y313408D02*
Y312620D01*
X591972Y263254D02*
X543980D01*
Y311246D02*
Y263254D01*
X591972Y311246D02*
X543980D01*
X591972D02*
Y263254D01*
X354512Y332647D02*
G03*
X354512Y332254I0J-197D01*
G01*
D02*
G03*
X354512Y332647I0J197D01*
G01*
X319512D02*
G03*
X319512Y332254I0J-197D01*
G01*
D02*
G03*
X319512Y332647I0J197D01*
G01*
X211512Y256320D02*
G03*
X211512Y256714I0J197D01*
G01*
D02*
G03*
X211512Y256320I0J-197D01*
G01*
Y236218D02*
G03*
X211512Y236612I0J197D01*
G01*
D02*
G03*
X211512Y236218I0J-197D01*
G01*
X249512Y332647D02*
G03*
X249512Y332254I0J-197D01*
G01*
D02*
G03*
X249512Y332647I0J197D01*
G01*
X267012D02*
G03*
X267012Y332254I0J-197D01*
G01*
D02*
G03*
X267012Y332647I0J197D01*
G01*
X284512D02*
G03*
X284512Y332254I0J-197D01*
G01*
D02*
G03*
X284512Y332647I0J197D01*
G01*
X310606Y218242D02*
G03*
X311000Y218242I197J0D01*
G01*
D02*
G03*
X310606Y218242I-197J0D01*
G01*
Y232242D02*
G03*
X311000Y232242I197J0D01*
G01*
D02*
G03*
X310606Y232242I-197J0D01*
G01*
Y225242D02*
G03*
X311000Y225242I197J0D01*
G01*
D02*
G03*
X310606Y225242I-197J0D01*
G01*
X208362Y264194D02*
Y264982D01*
Y269706D02*
Y270494D01*
X214661Y269706D02*
Y270494D01*
Y264194D02*
Y264982D01*
X208362Y244092D02*
Y244880D01*
Y249604D02*
Y250391D01*
X214661Y249604D02*
Y250391D01*
Y244092D02*
Y244880D01*
X384028Y294246D02*
X432020D01*
Y246253D02*
Y294246D01*
X384028Y246253D02*
X432020D01*
X384028D02*
Y294246D01*
D76*
X629051Y323077D02*
Y322290D01*
X636925D02*
X629051D01*
X636925Y323077D02*
Y322290D01*
Y326227D02*
Y325439D01*
Y326227D02*
X629051D01*
Y325439D01*
X646988Y322758D02*
Y322258D01*
X637988D01*
Y322758D02*
Y322258D01*
Y326258D02*
Y325758D01*
X646988Y326258D02*
X637988D01*
X646988D02*
Y325758D01*
X642488Y326258D02*
Y322258D01*
X655584Y333026D02*
X655231Y333380D01*
X655584Y333026D02*
X649221Y326662D01*
X648867Y327016D01*
X646746Y329137D02*
X646392Y329491D01*
X652756Y335855D02*
X646392Y329491D01*
X653110Y335501D02*
X652756Y335855D01*
X652402Y329844D02*
X649574Y332673D01*
X614988Y330258D02*
Y329758D01*
X605988D01*
Y330258D02*
Y329758D01*
Y333758D02*
Y333258D01*
X614988Y333758D02*
X605988D01*
X614988D02*
Y333258D01*
X610488Y333758D02*
Y329758D01*
X639488Y354258D02*
Y353758D01*
X648488Y354258D02*
X639488D01*
X648488D02*
Y353758D01*
Y350758D02*
Y350258D01*
X639488D01*
Y350758D02*
Y350258D01*
X643988Y354258D02*
Y350258D01*
X602488Y354758D02*
Y350758D01*
X597988Y351258D02*
Y350758D01*
X606988D02*
X597988D01*
X606988Y351258D02*
Y350758D01*
Y354758D02*
Y354258D01*
Y354758D02*
X597988D01*
Y354258D01*
X623488Y354758D02*
Y350758D01*
X627988Y354758D02*
Y354258D01*
Y354758D02*
X618988D01*
Y354258D01*
Y351258D02*
Y350758D01*
X627988D02*
X618988D01*
X627988Y351258D02*
Y350758D01*
X627725Y349258D02*
Y348758D01*
X636725Y349258D02*
X627725D01*
X636725D02*
Y348758D01*
Y345758D02*
Y345258D01*
X627725D01*
Y345758D02*
Y345258D01*
X632225Y349258D02*
Y345258D01*
X757925Y241077D02*
Y240290D01*
X750051D01*
Y241077D02*
Y240290D01*
Y244227D02*
Y243439D01*
X757925Y244227D02*
X750051D01*
X757925D02*
Y243439D01*
X757976Y226122D02*
Y225335D01*
X750102D01*
Y226122D02*
Y225335D01*
Y229272D02*
Y228485D01*
X757976Y229272D02*
X750102D01*
X757976D02*
Y228485D01*
Y231122D02*
Y230335D01*
X750102D01*
Y231122D02*
Y230335D01*
Y234272D02*
Y233485D01*
X757976Y234272D02*
X750102D01*
X757976D02*
Y233485D01*
X757925Y236077D02*
Y235290D01*
X750051D01*
Y236077D02*
Y235290D01*
Y239227D02*
Y238439D01*
X757925Y239227D02*
X750051D01*
X757925D02*
Y238439D01*
X565488Y317758D02*
Y313758D01*
X569988Y317758D02*
Y317258D01*
Y317758D02*
X560988D01*
Y317258D01*
Y314258D02*
Y313758D01*
X569988D02*
X560988D01*
X569988Y314258D02*
Y313758D01*
X556925Y317727D02*
Y316939D01*
Y317727D02*
X549051D01*
Y316939D01*
Y314577D02*
Y313790D01*
X556925D02*
X549051D01*
X556925Y314577D02*
Y313790D01*
X598457Y296321D02*
X597669D01*
X598457Y304195D02*
Y296321D01*
Y304195D02*
X597669D01*
X595307D02*
X594520D01*
Y296321D01*
X595307D02*
X594520D01*
X601532Y276065D02*
X599957D01*
X601532Y289451D02*
Y276065D01*
Y289451D02*
X599957D01*
X596020D02*
X594445D01*
Y276065D01*
X596020D02*
X594445D01*
X601532Y282758D02*
X594445D01*
X548988Y322758D02*
Y318758D01*
X553488Y322758D02*
Y322258D01*
Y322758D02*
X544488D01*
Y322258D01*
Y319258D02*
Y318758D01*
X553488D02*
X544488D01*
X553488Y319258D02*
Y318758D01*
X609988Y324258D02*
X605988D01*
X606488Y328758D02*
X605988D01*
Y319758D01*
X606488D02*
X605988D01*
X609988D02*
X609488D01*
X609988Y328758D02*
Y319758D01*
Y328758D02*
X609488D01*
X647925Y349227D02*
Y348439D01*
Y349227D02*
X640051D01*
Y348439D01*
Y346077D02*
Y345290D01*
X647925D02*
X640051D01*
X647925Y346077D02*
Y345290D01*
X633807Y338195D02*
X633020D01*
Y330321D01*
X633807D02*
X633020D01*
X636957D02*
X636169D01*
X636957Y338195D02*
Y330321D01*
Y338195D02*
X636169D01*
X654957Y341589D02*
X654169D01*
X654957Y349463D02*
Y341589D01*
Y349463D02*
X654169D01*
X651807D02*
X651020D01*
Y341589D01*
X651807D02*
X651020D01*
X631988Y339258D02*
X627988D01*
X631988Y334758D02*
X631488D01*
X631988Y343758D02*
Y334758D01*
Y343758D02*
X631488D01*
X628488D02*
X627988D01*
Y334758D01*
X628488D02*
X627988D01*
X688488Y347258D02*
Y343258D01*
X683988Y343758D02*
Y343258D01*
X692988D02*
X683988D01*
X692988Y343758D02*
Y343258D01*
Y347258D02*
Y346758D01*
Y347258D02*
X683988D01*
Y346758D01*
X346949Y234423D02*
Y235210D01*
X339075D02*
X346949D01*
X339075Y234423D02*
Y235210D01*
Y231273D02*
Y232061D01*
Y231273D02*
X346949D01*
Y232061D01*
X329012Y234742D02*
Y235242D01*
X338012D01*
Y234742D02*
Y235242D01*
Y231242D02*
Y231742D01*
X329012Y231242D02*
X338012D01*
X329012D02*
Y231742D01*
X333512Y231242D02*
Y235242D01*
X320415Y224474D02*
X320769Y224120D01*
X320415Y224474D02*
X326780Y230838D01*
X327133Y230484D01*
X329254Y228363D02*
X329608Y228009D01*
X323244Y221645D02*
X329608Y228009D01*
X322890Y221999D02*
X323244Y221645D01*
X323598Y227656D02*
X326426Y224827D01*
X361012Y227242D02*
Y227742D01*
X370012D01*
Y227242D02*
Y227742D01*
Y223742D02*
Y224242D01*
X361012Y223742D02*
X370012D01*
X361012D02*
Y224242D01*
X365512Y223742D02*
Y227742D01*
X336512Y203242D02*
Y203742D01*
X327512Y203242D02*
X336512D01*
X327512D02*
Y203742D01*
Y206742D02*
Y207242D01*
X336512D01*
Y206742D02*
Y207242D01*
X332012Y203242D02*
Y207242D01*
X373512Y202742D02*
Y206742D01*
X378012Y206242D02*
Y206742D01*
X369012D02*
X378012D01*
X369012Y206242D02*
Y206742D01*
Y202742D02*
Y203242D01*
Y202742D02*
X378012D01*
Y203242D01*
X352512Y202742D02*
Y206742D01*
X348012Y202742D02*
Y203242D01*
Y202742D02*
X357012D01*
Y203242D01*
Y206242D02*
Y206742D01*
X348012D02*
X357012D01*
X348012Y206242D02*
Y206742D01*
X348275Y208242D02*
Y208742D01*
X339276Y208242D02*
X348275D01*
X339276D02*
Y208742D01*
Y211742D02*
Y212242D01*
X348275D01*
Y211742D02*
Y212242D01*
X343776Y208242D02*
Y212242D01*
X218075Y316423D02*
Y317210D01*
X225949D01*
Y316423D02*
Y317210D01*
Y313273D02*
Y314061D01*
X218075Y313273D02*
X225949D01*
X218075D02*
Y314061D01*
X218024Y331378D02*
Y332165D01*
X225898D01*
Y331378D02*
Y332165D01*
Y328228D02*
Y329015D01*
X218024Y328228D02*
X225898D01*
X218024D02*
Y329015D01*
Y326378D02*
Y327165D01*
X225898D01*
Y326378D02*
Y327165D01*
Y323228D02*
Y324015D01*
X218024Y323228D02*
X225898D01*
X218024D02*
Y324015D01*
X218075Y321423D02*
Y322210D01*
X225949D01*
Y321423D02*
Y322210D01*
Y318273D02*
Y319061D01*
X218075Y318273D02*
X225949D01*
X218075D02*
Y319061D01*
X410512Y239742D02*
Y243742D01*
X406012Y239742D02*
Y240242D01*
Y239742D02*
X415012D01*
Y240242D01*
Y243242D02*
Y243742D01*
X406012D02*
X415012D01*
X406012Y243242D02*
Y243742D01*
X419075Y239773D02*
Y240561D01*
Y239773D02*
X426949D01*
Y240561D01*
Y242923D02*
Y243710D01*
X419075D02*
X426949D01*
X419075Y242923D02*
Y243710D01*
X377543Y261179D02*
X378331D01*
X377543Y253305D02*
Y261179D01*
Y253305D02*
X378331D01*
X380693D02*
X381480D01*
Y261179D01*
X380693D02*
X381480D01*
X374468Y281435D02*
X376043D01*
X374468Y268049D02*
Y281435D01*
Y268049D02*
X376043D01*
X379980D02*
X381555D01*
Y281435D01*
X379980D02*
X381555D01*
X374468Y274742D02*
X381555D01*
X427012Y234742D02*
Y238742D01*
X422512Y234742D02*
Y235242D01*
Y234742D02*
X431512D01*
Y235242D01*
Y238242D02*
Y238742D01*
X422512D02*
X431512D01*
X422512Y238242D02*
Y238742D01*
X366012Y233242D02*
X370012D01*
X369512Y228742D02*
X370012D01*
Y237742D01*
X369512D02*
X370012D01*
X366012D02*
X366512D01*
X366012Y228742D02*
Y237742D01*
Y228742D02*
X366512D01*
X328075Y208273D02*
Y209061D01*
Y208273D02*
X335949D01*
Y209061D01*
Y211423D02*
Y212210D01*
X328075D02*
X335949D01*
X328075Y211423D02*
Y212210D01*
X342193Y219305D02*
X342980D01*
Y227179D01*
X342193D02*
X342980D01*
X339043D02*
X339831D01*
X339043Y219305D02*
Y227179D01*
Y219305D02*
X339831D01*
X321043Y215911D02*
X321831D01*
X321043Y208037D02*
Y215911D01*
Y208037D02*
X321831D01*
X324193D02*
X324980D01*
Y215911D01*
X324193D02*
X324980D01*
X344012Y218242D02*
X348012D01*
X344012Y222742D02*
X344512D01*
X344012Y213742D02*
Y222742D01*
Y213742D02*
X344512D01*
X347512D02*
X348012D01*
Y222742D01*
X347512D02*
X348012D01*
X287512Y210242D02*
Y214242D01*
X292012Y213742D02*
Y214242D01*
X283012D02*
X292012D01*
X283012Y213742D02*
Y214242D01*
Y210242D02*
Y210742D01*
Y210242D02*
X292012D01*
Y210742D01*
D77*
X744067Y316160D02*
X731469D01*
X744067D02*
Y311042D01*
Y246475D02*
Y241357D01*
X731469D01*
X603909Y283483D02*
Y268522D01*
X231933Y241340D02*
X244531D01*
X231933D02*
Y246458D01*
Y311025D02*
Y316143D01*
X244531D01*
X372091Y274017D02*
Y288978D01*
D138*
X622138Y233246D02*
G03*
X622138Y233246I591J0D01*
G01*
X353862Y324254D02*
G03*
X353862Y324254I-591J0D01*
G01*
D139*
X637984Y334246D02*
G03*
X637984Y334246I492J0D01*
G01*
X338016Y223253D02*
G03*
X338016Y223253I-492J0D01*
G01*
M02*
