G04*
G04 #@! TF.GenerationSoftware,Altium Limited,Altium Designer,22.3.1 (43)*
G04*
G04 Layer_Color=8388736*
%FSLAX25Y25*%
%MOIN*%
G70*
G04*
G04 #@! TF.SameCoordinates,9666C8D3-C488-416E-8FBA-698088E7738B*
G04*
G04*
G04 #@! TF.FilePolarity,Positive*
G04*
G01*
G75*
%ADD10C,0.01000*%
D10*
X448638Y304693D02*
G03*
X468323Y285008I19685J0D01*
G01*
Y357499D02*
G03*
X448638Y337813I0J-19685D01*
G01*
X507693Y285008D02*
G03*
X527378Y304693I0J19685D01*
G01*
Y337813D02*
G03*
X507693Y357499I-19685J0D01*
G01*
X539878Y219703D02*
G03*
X559563Y200018I19685J0D01*
G01*
Y357499D02*
G03*
X539878Y337813I0J-19685D01*
G01*
X756414Y200018D02*
G03*
X776098Y219703I0J19685D01*
G01*
Y337813D02*
G03*
X756414Y357499I-19685J0D01*
G01*
X527378Y337802D02*
G03*
X539878Y337802I6250J0D01*
G01*
X527378Y252812D02*
G03*
X539878Y252812I6250J0D01*
G01*
Y304682D02*
G03*
X527378Y304682I-6250J0D01*
G01*
X539878Y219703D02*
G03*
X527378Y219703I-6250J0D01*
G01*
X507693Y357499D02*
X468323D01*
X507693Y285008D02*
X468323D01*
X448638Y337813D02*
Y304693D01*
X527378Y337813D02*
Y304693D01*
X756414Y357499D02*
X559563D01*
X756414Y200018D02*
X559563D01*
X539878Y337813D02*
Y219703D01*
X776098Y337813D02*
Y219703D01*
X527378Y252812D02*
Y219703D01*
X527362Y252807D02*
G03*
X507677Y272492I-19685J0D01*
G01*
Y200002D02*
G03*
X527362Y219687I0J19685D01*
G01*
X468307Y272492D02*
G03*
X448622Y252807I0J-19685D01*
G01*
Y219687D02*
G03*
X468307Y200002I19685J0D01*
G01*
X436122Y337797D02*
G03*
X416437Y357482I-19685J0D01*
G01*
Y200002D02*
G03*
X436122Y219687I0J19685D01*
G01*
X219586Y357482D02*
G03*
X199901Y337797I0J-19685D01*
G01*
Y219687D02*
G03*
X219586Y200002I19685J0D01*
G01*
X448622Y219698D02*
G03*
X436122Y219698I-6250J0D01*
G01*
X448622Y304688D02*
G03*
X436122Y304688I-6250J0D01*
G01*
Y252818D02*
G03*
X448622Y252818I6250J0D01*
G01*
X436122Y337797D02*
G03*
X448622Y337797I6250J0D01*
G01*
X468307Y200002D02*
X507677D01*
X468307Y272492D02*
X507677D01*
X527362Y219687D02*
Y252807D01*
X448622Y219687D02*
Y252807D01*
X219586Y200002D02*
X416437D01*
X219586Y357482D02*
X416437D01*
X436122Y219687D02*
Y337797D01*
X199901Y219687D02*
Y337797D01*
X448622Y304688D02*
Y337797D01*
M02*
