G04*
G04 #@! TF.GenerationSoftware,Altium Limited,Altium Designer,22.3.1 (43)*
G04*
G04 Layer_Physical_Order=1*
G04 Layer_Color=255*
%FSLAX25Y25*%
%MOIN*%
G70*
G04*
G04 #@! TF.SameCoordinates,9666C8D3-C488-416E-8FBA-698088E7738B*
G04*
G04*
G04 #@! TF.FilePolarity,Positive*
G04*
G01*
G75*
%ADD10C,0.01000*%
%ADD11C,0.04000*%
%ADD12R,0.03150X0.02756*%
%ADD13R,0.02953X0.02362*%
%ADD14R,0.05512X0.08268*%
%ADD15R,0.02362X0.02520*%
G04:AMPARAMS|DCode=16|XSize=14.96mil|YSize=13.78mil|CornerRadius=0.62mil|HoleSize=0mil|Usage=FLASHONLY|Rotation=360.000|XOffset=0mil|YOffset=0mil|HoleType=Round|Shape=RoundedRectangle|*
%AMROUNDEDRECTD16*
21,1,0.01496,0.01254,0,0,360.0*
21,1,0.01372,0.01378,0,0,360.0*
1,1,0.00124,0.00686,-0.00627*
1,1,0.00124,-0.00686,-0.00627*
1,1,0.00124,-0.00686,0.00627*
1,1,0.00124,0.00686,0.00627*
%
%ADD16ROUNDEDRECTD16*%
%ADD17R,0.02520X0.02362*%
%ADD18R,0.01024X0.03110*%
%ADD19R,0.03110X0.01024*%
%ADD20R,0.03543X0.07874*%
%ADD21R,0.07874X0.03543*%
%ADD22R,0.05236X0.05236*%
%ADD23R,0.06693X0.03937*%
%ADD24R,0.02756X0.05118*%
%ADD25R,0.02362X0.02953*%
%ADD26R,0.03937X0.01772*%
%ADD27R,0.00906X0.01181*%
%ADD28R,0.02756X0.03150*%
%ADD29R,0.03976X0.03976*%
%ADD30R,0.06969X0.16024*%
%ADD31R,0.16024X0.06969*%
%ADD32R,0.04921X0.01968*%
%ADD33R,0.02756X0.02362*%
%ADD34R,0.04134X0.03937*%
%ADD35R,0.08661X0.04134*%
%ADD36C,0.03937*%
%ADD37C,0.00850*%
%ADD38R,0.02756X0.07087*%
G04:AMPARAMS|DCode=39|XSize=14.96mil|YSize=13.78mil|CornerRadius=0.62mil|HoleSize=0mil|Usage=FLASHONLY|Rotation=270.000|XOffset=0mil|YOffset=0mil|HoleType=Round|Shape=RoundedRectangle|*
%AMROUNDEDRECTD39*
21,1,0.01496,0.01254,0,0,270.0*
21,1,0.01372,0.01378,0,0,270.0*
1,1,0.00124,-0.00627,-0.00686*
1,1,0.00124,-0.00627,0.00686*
1,1,0.00124,0.00627,0.00686*
1,1,0.00124,0.00627,-0.00686*
%
%ADD39ROUNDEDRECTD39*%
%ADD40R,0.01181X0.00906*%
%ADD41R,0.07165X0.03386*%
%ADD42R,0.05512X0.05118*%
%ADD43R,0.04961X0.10709*%
%ADD44R,0.00984X0.00787*%
%ADD45R,0.03150X0.02165*%
%ADD46R,0.04724X0.01181*%
%ADD47C,0.00600*%
%ADD48C,0.01200*%
%ADD49C,0.00800*%
%ADD50C,0.01250*%
%ADD51R,0.03150X0.02756*%
%ADD52R,0.03110X0.01024*%
%ADD53O,0.06890X0.09843*%
%ADD54C,0.05906*%
%ADD55R,0.05906X0.05906*%
%ADD56C,0.02362*%
%ADD57R,0.05906X0.05906*%
G36*
X695796Y355796D02*
X694992Y354993D01*
X694860Y355069D01*
X693956Y355311D01*
X693020D01*
X692117Y355069D01*
X691307Y354601D01*
X690645Y353940D01*
X690178Y353130D01*
X689935Y352226D01*
Y351291D01*
X690178Y350387D01*
X690645Y349577D01*
X691307Y348915D01*
X692117Y348448D01*
X693020Y348206D01*
X693956D01*
X694860Y348448D01*
X695670Y348915D01*
X696331Y349577D01*
X696799Y350387D01*
X697041Y351291D01*
Y352226D01*
X696799Y353130D01*
X696722Y353262D01*
X698148Y354688D01*
X699935D01*
Y350687D01*
X699732D01*
X699264Y350593D01*
X698867Y350328D01*
X693933Y345394D01*
X693044D01*
X687244Y351193D01*
X687041Y351329D01*
Y352226D01*
X686799Y353130D01*
X686331Y353940D01*
X685670Y354601D01*
X684860Y355069D01*
X683956Y355311D01*
X683020D01*
X682117Y355069D01*
X681307Y354601D01*
X680645Y353940D01*
X680178Y353130D01*
X679936Y352226D01*
Y351291D01*
X680178Y350387D01*
X680645Y349577D01*
X681307Y348915D01*
X682117Y348448D01*
X683020Y348206D01*
X683956D01*
X684860Y348448D01*
X685670Y348915D01*
X685866Y349111D01*
X691451Y343526D01*
Y343140D01*
X682029Y333718D01*
X681839Y333258D01*
Y322362D01*
X682029Y321903D01*
X682488Y321713D01*
X682620D01*
Y318210D01*
X682341Y317835D01*
X679707D01*
Y316982D01*
X678502D01*
Y317618D01*
X671475D01*
Y316982D01*
X666828D01*
Y317539D01*
X662676D01*
Y317540D01*
X662301D01*
X661896Y317769D01*
X661447Y318218D01*
X660988Y318408D01*
X655988D01*
X655529Y318218D01*
X654029Y316718D01*
X653839Y316258D01*
Y312027D01*
X651219Y309408D01*
X633988D01*
X633529Y309218D01*
X628529Y304218D01*
X628339Y303758D01*
Y301758D01*
X628529Y301299D01*
X629529Y300299D01*
X629628Y300258D01*
Y300209D01*
X629745D01*
X629988Y300109D01*
X646219D01*
X647339Y298989D01*
Y264527D01*
X645219Y262408D01*
X641988D01*
X641529Y262218D01*
X639029Y259718D01*
X638839Y259258D01*
Y256618D01*
X638440D01*
Y253039D01*
X638134D01*
X637479Y252768D01*
X636978Y252267D01*
X636707Y251613D01*
Y250904D01*
X636978Y250249D01*
X637367Y249861D01*
Y248914D01*
X637325Y248886D01*
X637179Y248667D01*
X637127Y248409D01*
Y247155D01*
X637179Y246897D01*
X637325Y246678D01*
X637544Y246531D01*
X637802Y246480D01*
X638834D01*
X639041Y245980D01*
X638272Y245211D01*
X638101Y245281D01*
X637810Y245456D01*
X637770Y245655D01*
X637624Y245874D01*
X637405Y246021D01*
X637147Y246072D01*
X636387D01*
X636381Y246073D01*
X634904D01*
X634269Y246708D01*
Y247113D01*
X633998Y247767D01*
X633497Y248268D01*
X632843Y248539D01*
X632134D01*
X631479Y248268D01*
X630978Y247767D01*
X630707Y247113D01*
Y246404D01*
X630978Y245749D01*
X631479Y245248D01*
X632134Y244977D01*
X632539D01*
X633532Y243985D01*
X633929Y243719D01*
X634397Y243626D01*
X634938D01*
X635100Y243429D01*
Y242175D01*
X635151Y241916D01*
X635297Y241697D01*
X635516Y241551D01*
X635775Y241500D01*
X637127D01*
Y241131D01*
X637179Y240873D01*
X637325Y240654D01*
X637544Y240508D01*
X637802Y240456D01*
X639174D01*
X639433Y240508D01*
X639472Y240534D01*
X639512Y240508D01*
X639771Y240456D01*
X641143D01*
X641401Y240508D01*
X641620Y240654D01*
X641766Y240873D01*
X641818Y241131D01*
Y242385D01*
X641766Y242644D01*
X641620Y242863D01*
X641401Y243009D01*
X641143Y243060D01*
X640111D01*
X639904Y243560D01*
X641782Y245438D01*
X641794D01*
X641798Y245437D01*
X643170D01*
X643429Y245488D01*
X643648Y245634D01*
X643794Y245853D01*
X643845Y246112D01*
Y246267D01*
X644561D01*
X645029Y245799D01*
X645128Y245758D01*
Y245709D01*
X645245D01*
X645488Y245609D01*
X661488D01*
X661533Y245627D01*
X663231Y243930D01*
X663577Y243698D01*
Y243599D01*
X665683D01*
X665732Y243589D01*
X665781Y243599D01*
X667887D01*
Y247359D01*
X677553D01*
Y251669D01*
X667455D01*
Y247791D01*
X664486D01*
X664138Y248258D01*
Y250758D01*
X663947Y251218D01*
X657138Y258027D01*
Y266259D01*
X657380Y266658D01*
X657638Y266658D01*
X662557D01*
Y271835D01*
X657638D01*
X657380Y271835D01*
X657138Y272234D01*
Y282489D01*
X664757Y290109D01*
X688988D01*
X689447Y290299D01*
X691948Y292799D01*
X692138Y293258D01*
Y303489D01*
X695948Y307299D01*
X696138Y307758D01*
Y319489D01*
X699494Y322846D01*
X699978Y322749D01*
X700479Y322248D01*
X701134Y321977D01*
X701371D01*
Y319075D01*
X700871Y318895D01*
X700497Y319268D01*
X699843Y319539D01*
X699134D01*
X698479Y319268D01*
X697978Y318767D01*
X697707Y318113D01*
Y317404D01*
X697978Y316749D01*
X698479Y316248D01*
X698571Y316211D01*
Y307638D01*
X695339Y304407D01*
X695141Y304110D01*
X695071Y303758D01*
Y298704D01*
X694985Y298681D01*
X694392Y298339D01*
X693908Y297855D01*
X693565Y297262D01*
X693388Y296601D01*
Y295916D01*
X693565Y295255D01*
X693908Y294662D01*
X694392Y294178D01*
X694985Y293835D01*
X695646Y293658D01*
X696331D01*
X696992Y293835D01*
X697585Y294178D01*
X698069Y294662D01*
X698284Y295035D01*
X698869D01*
X699223Y294681D01*
X699223Y293758D01*
X699223Y293387D01*
Y289130D01*
X699223Y288758D01*
X699223Y288387D01*
Y284130D01*
X699223Y283758D01*
X699223Y283387D01*
Y279130D01*
X699223Y278758D01*
X699223Y278387D01*
Y274130D01*
X699223Y273758D01*
X699223Y273387D01*
Y269130D01*
X699223Y268758D01*
X699223Y268387D01*
Y264130D01*
X699223Y263758D01*
X699223Y263387D01*
Y262176D01*
X698568D01*
X698411Y262762D01*
X698069Y263355D01*
X697585Y263839D01*
X696992Y264181D01*
X696331Y264358D01*
X695646D01*
X694985Y264181D01*
X694392Y263839D01*
X693908Y263355D01*
X693565Y262762D01*
X693407Y262170D01*
X693150Y262119D01*
X692852Y261920D01*
X688434Y257502D01*
X688343Y257539D01*
X687634D01*
X686979Y257268D01*
X686478Y256767D01*
X686207Y256113D01*
Y255404D01*
X686478Y254749D01*
X686979Y254248D01*
X687634Y253977D01*
X688343D01*
X688997Y254248D01*
X689498Y254749D01*
X689738Y255329D01*
X689843Y255346D01*
X690133D01*
X690238Y255329D01*
X690478Y254749D01*
X690979Y254248D01*
X691634Y253977D01*
X692343D01*
X692997Y254248D01*
X693177Y254428D01*
X693802Y254346D01*
X693908Y254162D01*
X694392Y253678D01*
X694985Y253335D01*
X695646Y253158D01*
X696331D01*
X696992Y253335D01*
X697585Y253678D01*
X698069Y254162D01*
X698411Y254755D01*
X698568Y255341D01*
X699223D01*
Y253887D01*
X708297D01*
Y258387D01*
X708297Y258758D01*
X708297Y259130D01*
Y263387D01*
X708297Y263758D01*
X708297Y264130D01*
Y268387D01*
X708297Y268758D01*
X708297Y269130D01*
Y273387D01*
X708297Y273758D01*
X708297Y274130D01*
Y278387D01*
X708297Y278758D01*
X708297Y279130D01*
Y283387D01*
X708297Y283758D01*
X708297Y284130D01*
Y288387D01*
X708297Y288758D01*
X708297Y289130D01*
Y293387D01*
X708297Y293758D01*
X708297Y294130D01*
Y298630D01*
X699223D01*
Y297482D01*
X698284D01*
X698069Y297855D01*
X697585Y298339D01*
X696992Y298681D01*
X696906Y298704D01*
Y303378D01*
X700137Y306610D01*
X700336Y306907D01*
X700406Y307258D01*
Y316211D01*
X700497Y316248D01*
X700871Y316622D01*
X701371Y316441D01*
Y308458D01*
X701440Y308107D01*
X701639Y307809D01*
X704339Y305110D01*
X704637Y304911D01*
X704988Y304841D01*
X724988D01*
X725339Y304911D01*
X725637Y305110D01*
X727616Y307088D01*
X727815Y307386D01*
X727875Y307686D01*
X730069D01*
Y307686D01*
X730325D01*
Y307686D01*
X735069D01*
Y307686D01*
X735325D01*
Y307686D01*
X740069D01*
Y307686D01*
X740325D01*
Y307686D01*
X745069D01*
Y307686D01*
X745325D01*
Y307686D01*
X749825D01*
X750197Y307686D01*
X750569Y307686D01*
X752602D01*
X752661Y307386D01*
X752860Y307088D01*
X753245Y306704D01*
X753207Y306613D01*
Y305904D01*
X753478Y305249D01*
X753979Y304748D01*
X754634Y304477D01*
X755343D01*
X755997Y304748D01*
X756498Y305249D01*
X756769Y305904D01*
Y306613D01*
X756532Y307186D01*
X756733Y307686D01*
X760197Y307686D01*
X760569Y307686D01*
X764839D01*
Y307258D01*
X765029Y306799D01*
X766029Y305799D01*
X766488Y305609D01*
X768488D01*
X768948Y305799D01*
X769947Y306799D01*
X770138Y307258D01*
Y326258D01*
X770037Y326501D01*
Y326618D01*
X769989D01*
X769947Y326718D01*
X768447Y328218D01*
X767988Y328408D01*
X766757D01*
X765638Y329527D01*
Y338758D01*
X765448Y339218D01*
X764869Y339796D01*
X765060Y340258D01*
X766488D01*
X770488Y344258D01*
X772488D01*
X774488Y342258D01*
Y239758D01*
Y218258D01*
X757488Y201258D01*
X746872D01*
X746680Y201720D01*
X747166Y202206D01*
X752541D01*
Y209311D01*
X752948Y209535D01*
X762988D01*
X763456Y209628D01*
X763853Y209893D01*
X768365Y214405D01*
X768631Y214802D01*
X768724Y215270D01*
Y231255D01*
X769478D01*
Y235604D01*
Y239935D01*
X768920D01*
Y240757D01*
X770069D01*
Y249831D01*
X765325D01*
Y249831D01*
X765069D01*
Y249831D01*
X763615D01*
Y251050D01*
X763545Y251401D01*
X763346Y251698D01*
X762286Y252758D01*
X760637Y254407D01*
X760339Y254606D01*
X760281Y254618D01*
X759988Y254676D01*
X749488D01*
X749137Y254606D01*
X748839Y254407D01*
X747731Y253299D01*
X747191Y252758D01*
X747002D01*
X747269Y253404D01*
Y253544D01*
Y254113D01*
X746998Y254767D01*
X746497Y255268D01*
X745843Y255539D01*
X745134D01*
X744479Y255268D01*
X743978Y254767D01*
X743738Y254188D01*
X743498Y254767D01*
X743455Y254810D01*
X742997Y255268D01*
X742343Y255539D01*
X741634D01*
X740979Y255268D01*
X740478Y254767D01*
X740238Y254188D01*
X739998Y254767D01*
X739955Y254810D01*
X739497Y255268D01*
X738843Y255539D01*
X738134D01*
X737479Y255268D01*
X736978Y254767D01*
X736707Y254113D01*
Y253404D01*
X736833Y253101D01*
X736926Y252876D01*
X736975Y252758D01*
X736872D01*
X736698Y252376D01*
X686890D01*
X686497Y252768D01*
X685843Y253039D01*
X685134D01*
X684479Y252768D01*
X683978Y252267D01*
X683707Y251613D01*
Y250904D01*
X683978Y250249D01*
X684479Y249748D01*
X685134Y249477D01*
X685843D01*
X686497Y249748D01*
X686810Y249378D01*
X685934Y248502D01*
X685843Y248539D01*
X685134D01*
X684479Y248268D01*
X684193Y247982D01*
X681323D01*
X680855Y247889D01*
X680709Y247791D01*
X679089D01*
Y243854D01*
Y239917D01*
Y235725D01*
X683399D01*
Y237582D01*
X684628D01*
Y236210D01*
X688348D01*
Y239772D01*
X686309D01*
X686063Y239936D01*
X685595Y240029D01*
X683399D01*
Y242341D01*
X683899Y242440D01*
X683978Y242249D01*
X684479Y241748D01*
X685134Y241477D01*
X685843D01*
X686497Y241748D01*
X686998Y242249D01*
X687269Y242904D01*
Y243613D01*
X686998Y244267D01*
X686540Y244725D01*
X686517Y245008D01*
X686540Y245292D01*
X686998Y245749D01*
X687269Y246404D01*
Y247113D01*
X687232Y247204D01*
X689368Y249341D01*
X705325D01*
Y240757D01*
X705603D01*
X705794Y240295D01*
X702123Y236624D01*
X701858Y236227D01*
X701765Y235758D01*
Y212765D01*
X700982Y211982D01*
X695988D01*
X695520Y211889D01*
X695123Y211624D01*
X691623Y208123D01*
X691358Y207727D01*
X691265Y207258D01*
Y204265D01*
X690041Y203041D01*
X689541Y203249D01*
Y209311D01*
X682436D01*
Y202829D01*
X678791D01*
X678583Y203329D01*
X678831Y203577D01*
X679299Y204387D01*
X679541Y205291D01*
Y206226D01*
X679299Y207130D01*
X678831Y207940D01*
X678170Y208601D01*
X677360Y209069D01*
X676456Y209311D01*
X675521D01*
X674617Y209069D01*
X673807Y208601D01*
X673145Y207940D01*
X672678Y207130D01*
X672436Y206226D01*
Y205291D01*
X672678Y204387D01*
X673145Y203577D01*
X673393Y203329D01*
X673186Y202829D01*
X668790D01*
X668583Y203329D01*
X668831Y203577D01*
X669299Y204387D01*
X669541Y205291D01*
Y206226D01*
X669299Y207130D01*
X668831Y207940D01*
X668170Y208601D01*
X667360Y209069D01*
X666456Y209311D01*
X665520D01*
X664617Y209069D01*
X663807Y208601D01*
X663145Y207940D01*
X662678Y207130D01*
X662435Y206226D01*
Y205291D01*
X662678Y204387D01*
X663145Y203577D01*
X663393Y203329D01*
X663186Y202829D01*
X658790D01*
X658583Y203329D01*
X658831Y203577D01*
X659299Y204387D01*
X659541Y205291D01*
Y206025D01*
X659638Y206258D01*
Y207258D01*
Y221258D01*
X659447Y221718D01*
X659167Y221998D01*
Y222492D01*
X652455D01*
Y221539D01*
X652339Y221258D01*
Y205758D01*
X652435Y205525D01*
Y205291D01*
X652678Y204387D01*
X653145Y203577D01*
X653393Y203329D01*
X653186Y202829D01*
X650648D01*
X649222Y204255D01*
X649299Y204387D01*
X649541Y205291D01*
Y206226D01*
X649299Y207130D01*
X648831Y207940D01*
X648170Y208601D01*
X647360Y209069D01*
X646456Y209311D01*
X645520D01*
X644617Y209069D01*
X643807Y208601D01*
X643145Y207940D01*
X642678Y207130D01*
X642436Y206226D01*
Y205291D01*
X642678Y204387D01*
X643145Y203577D01*
X643807Y202915D01*
X644617Y202448D01*
X645520Y202206D01*
X646456D01*
X647360Y202448D01*
X647492Y202524D01*
X648296Y201720D01*
X648105Y201258D01*
X563988D01*
X561550Y203696D01*
X561742Y204158D01*
X589588D01*
Y220858D01*
X559888D01*
Y215012D01*
X559426Y214820D01*
X557488Y216758D01*
X554303D01*
X554152Y217258D01*
X554353Y217393D01*
X557823Y220863D01*
X558088Y221260D01*
X558181Y221728D01*
Y234019D01*
X558936D01*
Y238369D01*
Y242699D01*
X558212D01*
Y244721D01*
X559163D01*
Y248087D01*
X554813D01*
Y244721D01*
X555765D01*
Y242699D01*
X554980D01*
Y238369D01*
Y234019D01*
X555734D01*
Y222235D01*
X552982Y219482D01*
X551938D01*
X551731Y219982D01*
X551998Y220249D01*
X552269Y220904D01*
Y221613D01*
X551998Y222267D01*
X551712Y222554D01*
Y234084D01*
X552466D01*
Y238433D01*
Y242764D01*
X551712D01*
Y244721D01*
X552663D01*
Y248087D01*
X548314D01*
Y244721D01*
X549265D01*
Y242764D01*
X548510D01*
Y238433D01*
Y234084D01*
X549265D01*
Y222554D01*
X548978Y222267D01*
X548707Y221613D01*
Y220904D01*
X548978Y220249D01*
X549246Y219982D01*
X549039Y219482D01*
X548284D01*
X547997Y219768D01*
X547343Y220039D01*
X546634D01*
X545979Y219768D01*
X545478Y219267D01*
X545207Y218613D01*
Y217904D01*
X545397Y217445D01*
X545164Y216973D01*
X545112Y216927D01*
X544854Y216892D01*
X542488Y219258D01*
Y337258D01*
X544988Y339758D01*
X557488D01*
X560988Y343258D01*
Y353758D01*
X563488Y356258D01*
X615869D01*
X616060Y355796D01*
X614803Y354539D01*
X612801D01*
X612676Y354539D01*
X612301D01*
X612176Y354539D01*
X608148D01*
Y350977D01*
X608765D01*
Y345606D01*
X607948Y345268D01*
X607103Y344620D01*
X606455Y343775D01*
X606047Y342791D01*
X606026Y342627D01*
X605513Y342560D01*
X605447Y342718D01*
X603447Y344718D01*
X602988Y344908D01*
X602655D01*
X602186Y345268D01*
X601202Y345675D01*
X600146Y345814D01*
X599090Y345675D01*
X598106Y345268D01*
X597261Y344620D01*
X596700Y343888D01*
X596600Y343788D01*
X596138Y343980D01*
Y344758D01*
X595948Y345218D01*
X594947Y346218D01*
X594488Y346408D01*
X581488D01*
X581029Y346218D01*
X580529Y345718D01*
X580339Y345258D01*
Y338758D01*
X580436Y338525D01*
Y338206D01*
X580623D01*
X586339Y332489D01*
Y317758D01*
X586529Y317299D01*
X588861Y314967D01*
X588743Y314378D01*
X588479Y314268D01*
X588022Y313810D01*
X587738Y313787D01*
X587455Y313810D01*
X586997Y314268D01*
X586343Y314539D01*
X585634D01*
X584979Y314268D01*
X584478Y313767D01*
X584207Y313113D01*
Y312404D01*
X584478Y311749D01*
X584969Y311258D01*
X584478Y310767D01*
X584207Y310113D01*
Y309404D01*
X584478Y308749D01*
X584969Y308258D01*
X584478Y307767D01*
X584207Y307113D01*
Y306404D01*
X584478Y305749D01*
X584969Y305258D01*
X584478Y304767D01*
X584207Y304113D01*
Y303404D01*
X584478Y302749D01*
X584979Y302248D01*
X585634Y301977D01*
X586343D01*
X586997Y302248D01*
X587455Y302706D01*
X587738Y302730D01*
X588022Y302706D01*
X588479Y302248D01*
X589134Y301977D01*
X589843D01*
X590339Y302183D01*
X590839Y301937D01*
Y296258D01*
X591029Y295799D01*
X601306Y285523D01*
Y285371D01*
X601339D01*
Y260258D01*
X601529Y259799D01*
X601542Y259786D01*
Y259670D01*
X601658D01*
X602029Y259299D01*
X602488Y259109D01*
X608488D01*
X608948Y259299D01*
X609318Y259670D01*
X609435D01*
Y259786D01*
X609447Y259799D01*
X609638Y260258D01*
Y261758D01*
Y272883D01*
X610138Y273090D01*
X610479Y272748D01*
X611134Y272477D01*
X611843D01*
X612339Y272683D01*
X612839Y272437D01*
Y260258D01*
X613029Y259799D01*
X613529Y259299D01*
X613988Y259109D01*
X622488D01*
X622948Y259299D01*
X623947Y260299D01*
X624138Y260758D01*
Y338535D01*
X642693D01*
X642979Y338248D01*
X643634Y337977D01*
X644343D01*
X644997Y338248D01*
X645284Y338535D01*
X648988D01*
X649457Y338628D01*
X649853Y338893D01*
X650745Y339785D01*
X651314Y339647D01*
X651478Y339249D01*
X651790Y338938D01*
X651705Y338362D01*
X651479Y338268D01*
X650978Y337767D01*
X650707Y337113D01*
Y336404D01*
X650978Y335749D01*
X651479Y335248D01*
X651797Y335117D01*
X651697Y334617D01*
X649649D01*
X649497Y334768D01*
X648843Y335039D01*
X648134D01*
X647479Y334768D01*
X646978Y334267D01*
X646707Y333613D01*
Y332904D01*
X646978Y332249D01*
X647479Y331748D01*
X648134Y331477D01*
X648843D01*
X649497Y331748D01*
X649998Y332249D01*
X650219Y332782D01*
X654680D01*
Y332213D01*
X659817D01*
Y333993D01*
X660317Y334200D01*
X661396Y333120D01*
X661793Y332855D01*
X662160Y332782D01*
Y332213D01*
X664001D01*
Y330618D01*
X663975D01*
Y326899D01*
X664001D01*
Y326039D01*
X663148D01*
Y322477D01*
X667301D01*
Y322477D01*
X667676D01*
Y322477D01*
X671828D01*
Y326039D01*
X670976D01*
Y326899D01*
X671002D01*
Y330618D01*
X670976D01*
Y333418D01*
X673269D01*
Y337571D01*
X673269Y337571D01*
Y337946D01*
X673269D01*
X673269Y338071D01*
Y342098D01*
X669707D01*
Y340041D01*
X667297D01*
Y340303D01*
X662212D01*
Y340758D01*
X662119Y341227D01*
X661853Y341623D01*
X658853Y344623D01*
X658457Y344889D01*
X657988Y344982D01*
X652988D01*
X652520Y344889D01*
X652123Y344623D01*
X648482Y340982D01*
X645284D01*
X644997Y341268D01*
X644343Y341539D01*
X643634D01*
X642979Y341268D01*
X642693Y340982D01*
X624138D01*
Y342758D01*
X624115Y342812D01*
X626617Y345314D01*
X626882Y345711D01*
X626976Y346180D01*
Y350977D01*
X627828D01*
Y351535D01*
X628693D01*
X628979Y351248D01*
X629634Y350977D01*
X630343D01*
X630997Y351248D01*
X631498Y351749D01*
X631769Y352404D01*
Y353113D01*
X631498Y353767D01*
X630997Y354268D01*
X630924Y354299D01*
X631024Y354799D01*
X672218D01*
X673707Y353309D01*
Y352904D01*
X673978Y352249D01*
X674479Y351748D01*
X675134Y351477D01*
X675843D01*
X676497Y351748D01*
X676998Y352249D01*
X677269Y352904D01*
Y353613D01*
X676998Y354267D01*
X676497Y354768D01*
X675843Y355039D01*
X675437D01*
X674681Y355796D01*
X674872Y356258D01*
X695605D01*
X695796Y355796D01*
D02*
G37*
G36*
X755988Y354758D02*
Y347258D01*
Y345758D01*
Y344330D01*
X755526Y344139D01*
X755447Y344218D01*
X754988Y344408D01*
X749488D01*
X749029Y344218D01*
X747529Y342718D01*
X747195Y342651D01*
X747078Y342768D01*
X746424Y343039D01*
X745715D01*
X745060Y342768D01*
X744559Y342267D01*
X744288Y341613D01*
Y340904D01*
X744439Y340539D01*
X744134Y340039D01*
X743479Y339768D01*
X742978Y339267D01*
X742707Y338613D01*
Y337904D01*
X742978Y337249D01*
X743479Y336748D01*
X744134Y336477D01*
X744843D01*
X744934Y336515D01*
X745371Y336078D01*
Y324362D01*
X745328Y324338D01*
X744828Y324629D01*
Y327539D01*
X744828D01*
X744699Y327733D01*
X744769Y327904D01*
Y328613D01*
X744498Y329267D01*
X743997Y329768D01*
X743343Y330039D01*
X742634D01*
X741979Y329768D01*
X741478Y329267D01*
X741207Y328613D01*
Y327939D01*
X740880Y327539D01*
X740301Y327539D01*
X740176Y327539D01*
X738920D01*
Y328088D01*
X739461D01*
Y333370D01*
X740358D01*
X740479Y333248D01*
X741134Y332977D01*
X741843D01*
X742497Y333248D01*
X742998Y333749D01*
X743269Y334404D01*
Y335113D01*
X742998Y335767D01*
X742497Y336268D01*
X741843Y336539D01*
X741134D01*
X740479Y336268D01*
X740028Y335817D01*
X739461D01*
Y336768D01*
X739461Y336768D01*
X739461D01*
X739770Y337121D01*
X739948Y337299D01*
X740138Y337758D01*
Y339758D01*
X739948Y340218D01*
X738947Y341218D01*
X738488Y341408D01*
X735308D01*
X735126Y341591D01*
Y342314D01*
X735086Y342513D01*
X735376Y343013D01*
X735807D01*
X735972Y342980D01*
X739566D01*
X740034Y343073D01*
X740431Y343338D01*
X745935Y348843D01*
X746435Y348636D01*
Y348206D01*
X753541D01*
Y355311D01*
X746435D01*
Y354983D01*
X746231Y354882D01*
X745935Y354830D01*
X745497Y355268D01*
X744843Y355539D01*
X744134D01*
X743479Y355268D01*
X742978Y354767D01*
X742900Y354578D01*
X742310Y354461D01*
X742170Y354601D01*
X741360Y355069D01*
X740456Y355311D01*
X739521D01*
X738617Y355069D01*
X737807Y354601D01*
X737145Y353940D01*
X736678Y353130D01*
X736436Y352226D01*
Y351291D01*
X736678Y350387D01*
X737145Y349577D01*
X737807Y348915D01*
X738617Y348448D01*
X739521Y348206D01*
X740456D01*
X741360Y348448D01*
X741391Y348466D01*
X741698Y348066D01*
X739059Y345427D01*
X735972D01*
X735807Y345394D01*
X734170D01*
X734004Y345427D01*
X728050D01*
X723222Y350255D01*
X723299Y350387D01*
X723541Y351291D01*
Y352226D01*
X723299Y353130D01*
X722831Y353940D01*
X722170Y354601D01*
X721360Y355069D01*
X720456Y355311D01*
X719521D01*
X718617Y355069D01*
X717807Y354601D01*
X717145Y353940D01*
X716678Y353130D01*
X716435Y352226D01*
Y351291D01*
X716678Y350387D01*
X717145Y349577D01*
X717807Y348915D01*
X718617Y348448D01*
X719521Y348206D01*
X720456D01*
X721360Y348448D01*
X721492Y348524D01*
X726678Y343338D01*
X727075Y343073D01*
X727543Y342980D01*
X729638D01*
X729829Y342518D01*
X729529Y342218D01*
X729339Y341758D01*
Y337758D01*
X729529Y337299D01*
X730510Y336318D01*
Y335813D01*
X729953D01*
X729497Y336268D01*
X728843Y336539D01*
X728134D01*
X727479Y336268D01*
X726978Y335767D01*
X726707Y335113D01*
Y334404D01*
X726978Y333749D01*
X727479Y333248D01*
X727984Y333039D01*
X727884Y332539D01*
X725801D01*
X725676Y332539D01*
X725301D01*
X725212Y332539D01*
X724712Y332627D01*
Y334182D01*
X725269D01*
Y338335D01*
X721707D01*
Y337446D01*
X719848D01*
Y338004D01*
X716128D01*
Y334539D01*
Y330977D01*
X716765D01*
Y330054D01*
X716478Y329767D01*
X716328Y329405D01*
X715828Y329505D01*
Y330236D01*
X714877D01*
Y340417D01*
X716856Y342396D01*
X717122Y342793D01*
X717215Y343261D01*
Y344255D01*
X717212Y344270D01*
Y348258D01*
X717119Y348727D01*
X716853Y349124D01*
X710181Y355796D01*
X710372Y356258D01*
X754488D01*
X755988Y354758D01*
D02*
G37*
G36*
X414450Y353804D02*
X414258Y353342D01*
X386412D01*
Y336642D01*
X416112D01*
Y342488D01*
X416574Y342680D01*
X418512Y340742D01*
X421697D01*
X421848Y340242D01*
X421647Y340107D01*
X418177Y336637D01*
X417912Y336240D01*
X417819Y335772D01*
Y323481D01*
X417064D01*
Y319131D01*
Y314801D01*
X417788D01*
Y312779D01*
X416837D01*
Y309413D01*
X421186D01*
Y312779D01*
X420235D01*
Y314801D01*
X421020D01*
Y319131D01*
Y323481D01*
X420266D01*
Y335265D01*
X423019Y338018D01*
X424062D01*
X424269Y337518D01*
X424002Y337251D01*
X423731Y336596D01*
Y335887D01*
X424002Y335233D01*
X424288Y334946D01*
Y323416D01*
X423534D01*
Y319067D01*
Y314736D01*
X424288D01*
Y312779D01*
X423337D01*
Y309413D01*
X427687D01*
Y312779D01*
X426735D01*
Y314736D01*
X427490D01*
Y319067D01*
Y323416D01*
X426735D01*
Y334946D01*
X427022Y335233D01*
X427293Y335887D01*
Y336596D01*
X427022Y337251D01*
X426754Y337518D01*
X426961Y338018D01*
X427716D01*
X428003Y337732D01*
X428657Y337461D01*
X429366D01*
X430021Y337732D01*
X430522Y338233D01*
X430793Y338887D01*
Y339596D01*
X430603Y340055D01*
X430836Y340527D01*
X430888Y340573D01*
X431146Y340608D01*
X433512Y338242D01*
Y220242D01*
X431012Y217742D01*
X418512D01*
X415012Y214242D01*
Y203742D01*
X412512Y201242D01*
X360132D01*
X359940Y201704D01*
X361197Y202961D01*
X363199D01*
X363324Y202960D01*
X363699D01*
X363824Y202961D01*
X367852D01*
Y206523D01*
X367235D01*
Y211894D01*
X368052Y212232D01*
X368897Y212880D01*
X369545Y213725D01*
X369953Y214709D01*
X369974Y214873D01*
X370487Y214940D01*
X370552Y214782D01*
X372552Y212782D01*
X373012Y212592D01*
X373345D01*
X373814Y212232D01*
X374798Y211824D01*
X375854Y211685D01*
X376910Y211824D01*
X377894Y212232D01*
X378739Y212880D01*
X379300Y213612D01*
X379400Y213712D01*
X379862Y213521D01*
Y212742D01*
X380052Y212282D01*
X381052Y211282D01*
X381512Y211092D01*
X394512D01*
X394971Y211282D01*
X395471Y211782D01*
X395661Y212242D01*
Y218742D01*
X395565Y218975D01*
Y219294D01*
X395377D01*
X389661Y225011D01*
Y239742D01*
X389471Y240201D01*
X387139Y242532D01*
X387257Y243122D01*
X387521Y243232D01*
X387979Y243690D01*
X388262Y243713D01*
X388545Y243690D01*
X389003Y243232D01*
X389657Y242961D01*
X390366D01*
X391021Y243232D01*
X391522Y243733D01*
X391793Y244387D01*
Y245096D01*
X391522Y245751D01*
X391031Y246242D01*
X391522Y246733D01*
X391793Y247387D01*
Y248096D01*
X391522Y248751D01*
X391031Y249242D01*
X391522Y249733D01*
X391793Y250387D01*
Y251096D01*
X391522Y251751D01*
X391031Y252242D01*
X391522Y252733D01*
X391793Y253387D01*
Y254096D01*
X391522Y254751D01*
X391021Y255252D01*
X390366Y255523D01*
X389657D01*
X389003Y255252D01*
X388545Y254794D01*
X388262Y254770D01*
X387979Y254794D01*
X387521Y255252D01*
X386866Y255523D01*
X386157D01*
X385661Y255317D01*
X385161Y255563D01*
Y261242D01*
X384971Y261701D01*
X374694Y271977D01*
Y272129D01*
X374661D01*
Y297242D01*
X374471Y297701D01*
X374458Y297714D01*
Y297830D01*
X374342D01*
X373971Y298201D01*
X373512Y298391D01*
X367512D01*
X367053Y298201D01*
X366682Y297830D01*
X366565D01*
Y297714D01*
X366552Y297701D01*
X366362Y297242D01*
Y295742D01*
Y284617D01*
X365862Y284410D01*
X365521Y284752D01*
X364866Y285023D01*
X364158D01*
X363661Y284817D01*
X363161Y285063D01*
Y297242D01*
X362971Y297701D01*
X362471Y298201D01*
X362012Y298391D01*
X353512D01*
X353052Y298201D01*
X352052Y297201D01*
X351862Y296742D01*
Y218965D01*
X333307D01*
X333021Y219252D01*
X332366Y219523D01*
X331658D01*
X331003Y219252D01*
X330716Y218965D01*
X327012D01*
X326543Y218872D01*
X326147Y218607D01*
X325255Y217715D01*
X324686Y217853D01*
X324522Y218251D01*
X324210Y218562D01*
X324295Y219138D01*
X324521Y219232D01*
X325022Y219733D01*
X325293Y220387D01*
Y221096D01*
X325022Y221751D01*
X324521Y222252D01*
X324203Y222383D01*
X324303Y222883D01*
X326351D01*
X326503Y222732D01*
X327157Y222461D01*
X327866D01*
X328521Y222732D01*
X329022Y223233D01*
X329293Y223887D01*
Y224596D01*
X329022Y225251D01*
X328521Y225752D01*
X327866Y226023D01*
X327157D01*
X326503Y225752D01*
X326002Y225251D01*
X325781Y224718D01*
X321320D01*
Y225287D01*
X316183D01*
Y223507D01*
X315683Y223300D01*
X314604Y224380D01*
X314207Y224645D01*
X313840Y224718D01*
Y225287D01*
X311999D01*
Y226882D01*
X312025D01*
Y230602D01*
X311999D01*
Y231461D01*
X312852D01*
Y235023D01*
X308699D01*
Y235023D01*
X308324D01*
Y235023D01*
X304172D01*
Y231461D01*
X305024D01*
Y230602D01*
X304998D01*
Y226882D01*
X305024D01*
Y224082D01*
X302731D01*
Y219929D01*
X302731Y219929D01*
Y219554D01*
X302731D01*
X302731Y219429D01*
Y215402D01*
X306293D01*
Y217459D01*
X308703D01*
Y217197D01*
X313788D01*
Y216742D01*
X313881Y216273D01*
X314147Y215877D01*
X317147Y212877D01*
X317544Y212611D01*
X318012Y212518D01*
X323012D01*
X323480Y212611D01*
X323877Y212877D01*
X327519Y216518D01*
X330716D01*
X331003Y216232D01*
X331658Y215961D01*
X332366D01*
X333021Y216232D01*
X333307Y216518D01*
X351862D01*
Y214742D01*
X351885Y214687D01*
X349383Y212186D01*
X349118Y211789D01*
X349024Y211320D01*
Y206523D01*
X348172D01*
Y205965D01*
X347307D01*
X347021Y206252D01*
X346366Y206523D01*
X345657D01*
X345003Y206252D01*
X344502Y205751D01*
X344231Y205096D01*
Y204387D01*
X344502Y203733D01*
X345003Y203232D01*
X345076Y203201D01*
X344976Y202701D01*
X303782D01*
X302293Y204191D01*
Y204596D01*
X302022Y205251D01*
X301521Y205752D01*
X300866Y206023D01*
X300157D01*
X299503Y205752D01*
X299002Y205251D01*
X298731Y204596D01*
Y203887D01*
X299002Y203233D01*
X299503Y202732D01*
X300157Y202461D01*
X300563D01*
X301320Y201704D01*
X301128Y201242D01*
X280395D01*
X280204Y201704D01*
X281008Y202507D01*
X281140Y202431D01*
X282044Y202189D01*
X282979D01*
X283883Y202431D01*
X284693Y202899D01*
X285355Y203560D01*
X285822Y204370D01*
X286065Y205274D01*
Y206209D01*
X285822Y207113D01*
X285355Y207923D01*
X284693Y208585D01*
X283883Y209052D01*
X282979Y209294D01*
X282044D01*
X281140Y209052D01*
X280330Y208585D01*
X279669Y207923D01*
X279201Y207113D01*
X278959Y206209D01*
Y205274D01*
X279201Y204370D01*
X279278Y204238D01*
X277852Y202812D01*
X276064D01*
Y206813D01*
X276268D01*
X276736Y206907D01*
X277133Y207172D01*
X282067Y212106D01*
X282956D01*
X288756Y206307D01*
X288959Y206171D01*
Y205274D01*
X289201Y204370D01*
X289669Y203560D01*
X290330Y202899D01*
X291140Y202431D01*
X292044Y202189D01*
X292980D01*
X293883Y202431D01*
X294693Y202899D01*
X295355Y203560D01*
X295822Y204370D01*
X296064Y205274D01*
Y206209D01*
X295822Y207113D01*
X295355Y207923D01*
X294693Y208585D01*
X293883Y209052D01*
X292980Y209294D01*
X292044D01*
X291140Y209052D01*
X290330Y208585D01*
X290134Y208389D01*
X284549Y213974D01*
Y214360D01*
X293971Y223782D01*
X294161Y224242D01*
Y235138D01*
X293971Y235597D01*
X293512Y235787D01*
X293380D01*
Y239290D01*
X293659Y239665D01*
X296293D01*
Y240518D01*
X297498D01*
Y239882D01*
X304525D01*
Y240518D01*
X309172D01*
Y239961D01*
X313324D01*
Y239961D01*
X313699D01*
X314104Y239731D01*
X314552Y239282D01*
X315012Y239092D01*
X320012D01*
X320471Y239282D01*
X321971Y240782D01*
X322161Y241242D01*
Y245473D01*
X324781Y248092D01*
X342012D01*
X342471Y248282D01*
X347471Y253282D01*
X347661Y253742D01*
Y255742D01*
X347471Y256201D01*
X346471Y257201D01*
X346372Y257242D01*
Y257291D01*
X346255D01*
X346012Y257391D01*
X329781D01*
X328661Y258511D01*
Y292973D01*
X330781Y295092D01*
X334012D01*
X334471Y295282D01*
X336971Y297782D01*
X337161Y298242D01*
Y300882D01*
X337561D01*
Y304461D01*
X337866D01*
X338521Y304732D01*
X339022Y305233D01*
X339293Y305887D01*
Y306596D01*
X339022Y307251D01*
X338633Y307639D01*
Y308586D01*
X338675Y308614D01*
X338821Y308833D01*
X338873Y309091D01*
Y310345D01*
X338821Y310603D01*
X338675Y310822D01*
X338456Y310969D01*
X338198Y311020D01*
X337166D01*
X336959Y311520D01*
X337729Y312289D01*
X337899Y312219D01*
X338190Y312044D01*
X338230Y311845D01*
X338376Y311626D01*
X338595Y311479D01*
X338853Y311428D01*
X339613D01*
X339619Y311427D01*
X341096D01*
X341731Y310792D01*
Y310387D01*
X342002Y309733D01*
X342503Y309232D01*
X343158Y308961D01*
X343866D01*
X344521Y309232D01*
X345022Y309733D01*
X345293Y310387D01*
Y311096D01*
X345022Y311751D01*
X344521Y312252D01*
X343866Y312523D01*
X343461D01*
X342468Y313515D01*
X342071Y313781D01*
X341603Y313874D01*
X341062D01*
X340900Y314071D01*
Y315325D01*
X340849Y315584D01*
X340703Y315803D01*
X340484Y315949D01*
X340225Y316000D01*
X338873D01*
Y316369D01*
X338821Y316627D01*
X338675Y316846D01*
X338456Y316992D01*
X338198Y317044D01*
X336826D01*
X336567Y316992D01*
X336527Y316966D01*
X336488Y316992D01*
X336229Y317044D01*
X334857D01*
X334599Y316992D01*
X334380Y316846D01*
X334234Y316627D01*
X334182Y316369D01*
Y315115D01*
X334234Y314856D01*
X334380Y314637D01*
X334599Y314491D01*
X334857Y314440D01*
X335889D01*
X336096Y313940D01*
X334218Y312062D01*
X334206D01*
X334202Y312063D01*
X332830D01*
X332571Y312012D01*
X332352Y311866D01*
X332206Y311647D01*
X332155Y311388D01*
Y311233D01*
X331439D01*
X330971Y311701D01*
X330872Y311742D01*
Y311790D01*
X330755D01*
X330512Y311891D01*
X314512D01*
X314467Y311873D01*
X312769Y313570D01*
X312423Y313802D01*
Y313901D01*
X310317D01*
X310268Y313911D01*
X310219Y313901D01*
X308113D01*
Y310141D01*
X298447D01*
Y305831D01*
X308545D01*
Y309709D01*
X311514D01*
X311862Y309242D01*
Y306742D01*
X312052Y306282D01*
X318862Y299473D01*
Y291241D01*
X318620Y290842D01*
X318362Y290842D01*
X313443D01*
Y285665D01*
X318362D01*
X318620Y285665D01*
X318862Y285266D01*
Y275011D01*
X311243Y267391D01*
X287012D01*
X286553Y267201D01*
X284052Y264701D01*
X283862Y264242D01*
Y254011D01*
X280052Y250201D01*
X279862Y249742D01*
Y238011D01*
X276506Y234654D01*
X276022Y234751D01*
X275521Y235252D01*
X274866Y235523D01*
X274629D01*
Y238425D01*
X275129Y238605D01*
X275503Y238232D01*
X276157Y237961D01*
X276866D01*
X277521Y238232D01*
X278022Y238733D01*
X278293Y239387D01*
Y240096D01*
X278022Y240751D01*
X277521Y241252D01*
X277429Y241289D01*
Y249862D01*
X280661Y253093D01*
X280859Y253391D01*
X280929Y253742D01*
Y258796D01*
X281015Y258819D01*
X281608Y259161D01*
X282092Y259645D01*
X282435Y260238D01*
X282612Y260899D01*
Y261584D01*
X282435Y262245D01*
X282092Y262838D01*
X281608Y263322D01*
X281015Y263665D01*
X280354Y263842D01*
X279669D01*
X279008Y263665D01*
X278415Y263322D01*
X277931Y262838D01*
X277716Y262465D01*
X277131D01*
X276777Y262819D01*
X276777Y263742D01*
X276777Y264113D01*
Y268370D01*
X276777Y268742D01*
X276777Y269113D01*
Y273370D01*
X276777Y273742D01*
X276777Y274113D01*
Y278370D01*
X276777Y278742D01*
X276777Y279113D01*
Y283370D01*
X276777Y283742D01*
X276777Y284113D01*
Y288370D01*
X276777Y288742D01*
X276777Y289113D01*
Y293370D01*
X276777Y293742D01*
X276777Y294113D01*
Y295324D01*
X277432D01*
X277589Y294738D01*
X277931Y294145D01*
X278415Y293661D01*
X279008Y293319D01*
X279669Y293142D01*
X280354D01*
X281015Y293319D01*
X281608Y293661D01*
X282092Y294145D01*
X282435Y294738D01*
X282593Y295330D01*
X282850Y295381D01*
X283148Y295580D01*
X287566Y299998D01*
X287657Y299961D01*
X288366D01*
X289021Y300232D01*
X289522Y300733D01*
X289793Y301387D01*
Y302096D01*
X289522Y302751D01*
X289021Y303252D01*
X288366Y303523D01*
X287657D01*
X287003Y303252D01*
X286502Y302751D01*
X286262Y302171D01*
X286157Y302154D01*
X285867D01*
X285762Y302171D01*
X285522Y302751D01*
X285021Y303252D01*
X284366Y303523D01*
X283658D01*
X283003Y303252D01*
X282823Y303072D01*
X282198Y303154D01*
X282092Y303338D01*
X281608Y303822D01*
X281015Y304165D01*
X280354Y304342D01*
X279669D01*
X279008Y304165D01*
X278415Y303822D01*
X277931Y303338D01*
X277589Y302745D01*
X277432Y302159D01*
X276777D01*
Y303613D01*
X267703D01*
Y299113D01*
X267703Y298742D01*
X267703Y298370D01*
Y294113D01*
X267703Y293742D01*
X267703Y293370D01*
Y289113D01*
X267703Y288742D01*
X267703Y288370D01*
Y284113D01*
X267703Y283742D01*
X267703Y283370D01*
Y279113D01*
X267703Y278742D01*
X267703Y278370D01*
Y274113D01*
X267703Y273742D01*
X267703Y273370D01*
Y269113D01*
X267703Y268742D01*
X267703Y268370D01*
Y264113D01*
X267703Y263742D01*
X267703Y263370D01*
Y258870D01*
X276777D01*
Y260018D01*
X277716D01*
X277931Y259645D01*
X278415Y259161D01*
X279008Y258819D01*
X279094Y258796D01*
Y254122D01*
X275863Y250890D01*
X275664Y250593D01*
X275594Y250242D01*
Y241289D01*
X275503Y241252D01*
X275129Y240878D01*
X274629Y241059D01*
Y249042D01*
X274559Y249393D01*
X274361Y249691D01*
X271661Y252391D01*
X271363Y252589D01*
X271012Y252659D01*
X251012D01*
X250661Y252589D01*
X250363Y252391D01*
X248384Y250412D01*
X248185Y250114D01*
X248125Y249814D01*
X245931D01*
Y249814D01*
X245675D01*
Y249814D01*
X240931D01*
Y249814D01*
X240675D01*
Y249814D01*
X235931D01*
Y249814D01*
X235675D01*
Y249814D01*
X230931D01*
Y249814D01*
X230675D01*
Y249814D01*
X226175D01*
X225803Y249814D01*
X225431Y249814D01*
X223398D01*
X223339Y250114D01*
X223140Y250412D01*
X222755Y250796D01*
X222793Y250887D01*
Y251596D01*
X222522Y252251D01*
X222021Y252752D01*
X221366Y253023D01*
X220657D01*
X220003Y252752D01*
X219502Y252251D01*
X219231Y251596D01*
Y250887D01*
X219468Y250314D01*
X219267Y249814D01*
X215803Y249814D01*
X215431Y249814D01*
X211161D01*
Y250242D01*
X210971Y250701D01*
X209971Y251701D01*
X209512Y251891D01*
X207512D01*
X207052Y251701D01*
X206052Y250701D01*
X205862Y250242D01*
Y231242D01*
X205963Y230999D01*
Y230882D01*
X206011D01*
X206052Y230782D01*
X207553Y229282D01*
X208012Y229092D01*
X209243D01*
X210362Y227973D01*
Y218742D01*
X210553Y218282D01*
X211131Y217704D01*
X210940Y217242D01*
X209512D01*
X205512Y213242D01*
X203512D01*
X201512Y215242D01*
Y317742D01*
Y339242D01*
X218512Y356242D01*
X229128D01*
X229320Y355780D01*
X228834Y355294D01*
X223459D01*
Y348189D01*
X223052Y347965D01*
X213012D01*
X212544Y347872D01*
X212147Y347607D01*
X207635Y343095D01*
X207369Y342698D01*
X207276Y342230D01*
Y326245D01*
X206522D01*
Y321896D01*
Y317565D01*
X207080D01*
Y316743D01*
X205931D01*
Y307669D01*
X210675D01*
Y307669D01*
X210931D01*
Y307669D01*
X212385D01*
Y306450D01*
X212455Y306099D01*
X212654Y305802D01*
X213714Y304742D01*
X215363Y303093D01*
X215661Y302894D01*
X215719Y302882D01*
X216012Y302824D01*
X226512D01*
X226863Y302894D01*
X227161Y303093D01*
X228269Y304201D01*
X228809Y304742D01*
X228998D01*
X228731Y304096D01*
Y303956D01*
Y303387D01*
X229002Y302733D01*
X229503Y302232D01*
X230157Y301961D01*
X230866D01*
X231521Y302232D01*
X232022Y302733D01*
X232262Y303312D01*
X232502Y302733D01*
X232545Y302690D01*
X233003Y302232D01*
X233658Y301961D01*
X234366D01*
X235021Y302232D01*
X235522Y302733D01*
X235762Y303312D01*
X236002Y302733D01*
X236045Y302690D01*
X236503Y302232D01*
X237158Y301961D01*
X237866D01*
X238521Y302232D01*
X239022Y302733D01*
X239293Y303387D01*
Y304096D01*
X239167Y304399D01*
X239074Y304624D01*
X239025Y304742D01*
X239128D01*
X239301Y305124D01*
X289110D01*
X289503Y304732D01*
X290158Y304461D01*
X290866D01*
X291521Y304732D01*
X292022Y305233D01*
X292293Y305887D01*
Y306596D01*
X292022Y307251D01*
X291521Y307752D01*
X290866Y308023D01*
X290158D01*
X289503Y307752D01*
X289190Y308122D01*
X290066Y308998D01*
X290158Y308961D01*
X290866D01*
X291521Y309232D01*
X291807Y309518D01*
X294677D01*
X295145Y309611D01*
X295291Y309709D01*
X296911D01*
Y313646D01*
Y317583D01*
Y321775D01*
X292601D01*
Y319918D01*
X291372D01*
Y321290D01*
X287652D01*
Y317728D01*
X289691D01*
X289937Y317564D01*
X290405Y317471D01*
X292601D01*
Y315159D01*
X292101Y315060D01*
X292022Y315251D01*
X291521Y315752D01*
X290866Y316023D01*
X290158D01*
X289503Y315752D01*
X289002Y315251D01*
X288731Y314596D01*
Y313887D01*
X289002Y313233D01*
X289460Y312775D01*
X289483Y312492D01*
X289460Y312208D01*
X289002Y311751D01*
X288731Y311096D01*
Y310387D01*
X288768Y310296D01*
X286632Y308159D01*
X270675D01*
Y316743D01*
X270397D01*
X270205Y317205D01*
X273877Y320877D01*
X274142Y321273D01*
X274235Y321742D01*
Y344735D01*
X275019Y345518D01*
X280012D01*
X280480Y345611D01*
X280877Y345877D01*
X284377Y349377D01*
X284642Y349773D01*
X284735Y350242D01*
Y353235D01*
X285959Y354459D01*
X286459Y354252D01*
Y348189D01*
X293565D01*
Y354671D01*
X297210D01*
X297417Y354171D01*
X297169Y353923D01*
X296701Y353113D01*
X296459Y352209D01*
Y351274D01*
X296701Y350370D01*
X297169Y349560D01*
X297830Y348899D01*
X298640Y348431D01*
X299544Y348189D01*
X300480D01*
X301383Y348431D01*
X302193Y348899D01*
X302855Y349560D01*
X303322Y350370D01*
X303565Y351274D01*
Y352209D01*
X303322Y353113D01*
X302855Y353923D01*
X302607Y354171D01*
X302814Y354671D01*
X307209D01*
X307417Y354171D01*
X307169Y353923D01*
X306701Y353113D01*
X306459Y352209D01*
Y351274D01*
X306701Y350370D01*
X307169Y349560D01*
X307830Y348899D01*
X308640Y348431D01*
X309544Y348189D01*
X310479D01*
X311383Y348431D01*
X312193Y348899D01*
X312855Y349560D01*
X313322Y350370D01*
X313564Y351274D01*
Y352209D01*
X313322Y353113D01*
X312855Y353923D01*
X312607Y354171D01*
X312814Y354671D01*
X317210D01*
X317417Y354171D01*
X317169Y353923D01*
X316701Y353113D01*
X316459Y352209D01*
Y351475D01*
X316362Y351242D01*
Y350242D01*
Y336242D01*
X316552Y335782D01*
X316833Y335502D01*
Y335008D01*
X323545D01*
Y335961D01*
X323661Y336242D01*
Y351742D01*
X323565Y351975D01*
Y352209D01*
X323322Y353113D01*
X322855Y353923D01*
X322607Y354171D01*
X322814Y354671D01*
X325352D01*
X326778Y353245D01*
X326701Y353113D01*
X326459Y352209D01*
Y351274D01*
X326701Y350370D01*
X327169Y349560D01*
X327830Y348899D01*
X328640Y348431D01*
X329544Y348189D01*
X330480D01*
X331383Y348431D01*
X332193Y348899D01*
X332855Y349560D01*
X333322Y350370D01*
X333564Y351274D01*
Y352209D01*
X333322Y353113D01*
X332855Y353923D01*
X332193Y354585D01*
X331383Y355052D01*
X330480Y355294D01*
X329544D01*
X328640Y355052D01*
X328508Y354976D01*
X327704Y355780D01*
X327895Y356242D01*
X412012D01*
X414450Y353804D01*
D02*
G37*
G36*
X265288Y343235D02*
Y336749D01*
X262245Y333706D01*
X261977Y333742D01*
X261661Y334242D01*
Y343742D01*
X261471Y344201D01*
X259971Y345701D01*
X259512Y345891D01*
X254188D01*
Y348888D01*
X254650Y349079D01*
X254830Y348899D01*
X255640Y348431D01*
X256544Y348189D01*
X257480D01*
X258383Y348431D01*
X259193Y348899D01*
X259409Y349114D01*
X265288Y343235D01*
D02*
G37*
G36*
X261012Y343742D02*
Y334242D01*
X260235Y333465D01*
X241012D01*
X240544Y333372D01*
X240147Y333107D01*
X239781Y332742D01*
X232512D01*
X228512Y328742D01*
X212512D01*
X211512Y329742D01*
Y343242D01*
X213512Y345242D01*
X249294D01*
X249477Y344850D01*
X249150Y344487D01*
X248793Y344558D01*
X248098Y344419D01*
X247509Y344026D01*
X247115Y343437D01*
X246977Y342742D01*
X247115Y342047D01*
X247509Y341458D01*
X248098Y341064D01*
X248793Y340926D01*
X249488Y341064D01*
X250077Y341458D01*
X250154Y341573D01*
X251027D01*
X251193Y341606D01*
X252080D01*
Y342212D01*
X252158Y342329D01*
X252251Y342797D01*
X252211Y342996D01*
X252545Y343475D01*
X252583Y343496D01*
X252957D01*
X252964Y343495D01*
X252972Y343496D01*
X254049D01*
Y344181D01*
X254095Y344250D01*
X254188Y344718D01*
Y345242D01*
X259512D01*
X261012Y343742D01*
D02*
G37*
G36*
X704488Y342258D02*
X704488Y328758D01*
X701259Y325529D01*
X700793Y325436D01*
X700204Y325042D01*
X699811Y324453D01*
X699718Y323988D01*
X695488Y319758D01*
Y307758D01*
X691488Y303758D01*
Y293258D01*
X688988Y290758D01*
X664488D01*
X656488Y282758D01*
Y257758D01*
X663488Y250758D01*
Y248258D01*
X661488Y246258D01*
X645488D01*
X640488Y251258D01*
Y253258D01*
X639488Y254258D01*
Y259258D01*
X641988Y261758D01*
X645488D01*
X647988Y264258D01*
Y299258D01*
X646488Y300758D01*
X629988D01*
X628988Y301758D01*
Y303758D01*
X633988Y308758D01*
X651488D01*
X654488Y311758D01*
Y316258D01*
X655988Y317758D01*
X660988D01*
X661488Y317258D01*
Y313258D01*
X662988Y311758D01*
X671488D01*
X673488Y309758D01*
Y303258D01*
X675488Y301258D01*
X679988D01*
X682488Y303758D01*
Y313682D01*
X683269D01*
Y317835D01*
X683269D01*
Y318210D01*
X683269D01*
Y322362D01*
X682488D01*
Y333258D01*
X692243Y343013D01*
X692338D01*
X692504Y342980D01*
X692670Y343013D01*
X692917D01*
X692955Y342992D01*
X693289Y342513D01*
X693249Y342314D01*
X693342Y341845D01*
X693420Y341729D01*
Y341123D01*
X694307D01*
X694473Y341090D01*
X696043D01*
X696512Y341183D01*
X696909Y341448D01*
X699219Y343758D01*
X702988D01*
X704488Y342258D01*
D02*
G37*
G36*
X734004Y342243D02*
Y341794D01*
X735040Y340758D01*
X738488D01*
X739488Y339758D01*
Y337758D01*
X738498Y336768D01*
X735505D01*
Y336758D01*
X734466D01*
Y336764D01*
X730983D01*
X729988Y337758D01*
Y341758D01*
X730988Y342758D01*
X733488D01*
X734004Y342243D01*
D02*
G37*
G36*
X323012Y351742D02*
Y336242D01*
X322512Y335742D01*
X317512D01*
X317012Y336242D01*
Y350242D01*
Y351242D01*
X319512Y353742D01*
X321012D01*
X323012Y351742D01*
D02*
G37*
G36*
X714765Y347751D02*
Y344258D01*
X714768Y344244D01*
Y343768D01*
X712788Y341789D01*
X712523Y341392D01*
X712430Y340924D01*
Y330236D01*
X707148D01*
Y327716D01*
X703731Y324299D01*
X703143Y324418D01*
X702998Y324767D01*
X702497Y325268D01*
X702401Y325752D01*
X704948Y328299D01*
X705138Y328758D01*
X705138Y342258D01*
X704948Y342718D01*
X703447Y344218D01*
X702988Y344408D01*
X699219D01*
X698759Y344218D01*
X696495Y341953D01*
X696258Y341795D01*
X695979Y341739D01*
X694536D01*
X694433Y341760D01*
X694106Y341956D01*
X693928Y342398D01*
X693903Y342513D01*
X694063Y342805D01*
X694290Y343011D01*
X694295Y343013D01*
X694307D01*
X694473Y342980D01*
X694638Y343013D01*
X695525D01*
Y343526D01*
X700205Y348206D01*
X707041D01*
Y354688D01*
X707829D01*
X714765Y347751D01*
D02*
G37*
G36*
X268337Y332630D02*
X268502Y332233D01*
X268788Y331946D01*
Y324748D01*
X266270Y322230D01*
X265854Y322342D01*
X265169D01*
X264508Y322165D01*
X263915Y321822D01*
X263431Y321338D01*
X263089Y320745D01*
X262912Y320084D01*
Y319399D01*
X263023Y318983D01*
X262438Y318398D01*
X262173Y318001D01*
X262080Y317533D01*
Y316743D01*
X260931D01*
Y316743D01*
X260675D01*
X260553Y316811D01*
X260533Y317078D01*
X260592Y317363D01*
X261108Y317661D01*
X261592Y318145D01*
X261934Y318738D01*
X262112Y319399D01*
Y320084D01*
X261934Y320745D01*
X261592Y321338D01*
X261108Y321822D01*
X260515Y322165D01*
X260278Y322228D01*
X260191Y322660D01*
X259926Y323057D01*
X258793Y324191D01*
Y324596D01*
X258522Y325251D01*
X258135Y325637D01*
X258297Y326137D01*
X260631D01*
X261099Y326230D01*
X261496Y326495D01*
X267769Y332768D01*
X268337Y332630D01*
D02*
G37*
G36*
X749029Y327299D02*
X749488Y327109D01*
X752167D01*
X752413Y326609D01*
X752207Y326113D01*
Y325404D01*
X752478Y324749D01*
X752979Y324248D01*
X753634Y323977D01*
X754343D01*
X754997Y324248D01*
X755284Y324535D01*
X756148D01*
Y322977D01*
X758539D01*
X759028Y322488D01*
X759210Y322215D01*
X759913Y321512D01*
X760187Y321329D01*
X760916Y320600D01*
Y320339D01*
X760940Y320221D01*
Y317899D01*
X761473D01*
Y317113D01*
X761120Y316760D01*
X760197Y316760D01*
X759825Y316760D01*
X755325D01*
Y316760D01*
X755069D01*
Y316760D01*
X754276D01*
X754210Y317260D01*
X754492Y317336D01*
X755085Y317678D01*
X755569Y318162D01*
X755911Y318755D01*
X756088Y319416D01*
Y320101D01*
X755911Y320762D01*
X755569Y321355D01*
X755085Y321839D01*
X754492Y322181D01*
X753831Y322358D01*
X753146D01*
X752485Y322181D01*
X751892Y321839D01*
X751408Y321355D01*
X751065Y320762D01*
X750888Y320101D01*
Y319416D01*
X751065Y318755D01*
X751408Y318162D01*
X751473Y318096D01*
Y317113D01*
X751120Y316760D01*
X750197Y316760D01*
X749825Y316760D01*
X748920D01*
Y317583D01*
X749085Y317678D01*
X749569Y318162D01*
X749911Y318755D01*
X750088Y319416D01*
Y320101D01*
X749911Y320762D01*
X749569Y321355D01*
X749085Y321839D01*
X748492Y322181D01*
X748406Y322204D01*
Y327269D01*
X748868Y327460D01*
X749029Y327299D01*
D02*
G37*
G36*
X604988Y342258D02*
Y314758D01*
X603988Y313758D01*
X600488D01*
X596488Y317758D01*
Y342758D01*
X597988Y344258D01*
X602988D01*
X604988Y342258D01*
D02*
G37*
G36*
X758488Y340258D02*
X763488D01*
X764988Y338758D01*
Y329258D01*
X766488Y327758D01*
X767988D01*
X769488Y326258D01*
Y307258D01*
X768488Y306258D01*
X766488D01*
X765488Y307258D01*
Y320258D01*
X764502Y321245D01*
Y321618D01*
X764128D01*
X760301Y325446D01*
Y326539D01*
X759207D01*
X757988Y327758D01*
X749488Y327758D01*
X748406Y328841D01*
Y339758D01*
X748336Y340109D01*
X748137Y340407D01*
X747988Y340556D01*
Y342258D01*
X749488Y343758D01*
X754988D01*
X758488Y340258D01*
D02*
G37*
G36*
X226132Y304659D02*
X224346D01*
X224521Y304732D01*
X224531Y304742D01*
X226214D01*
X226132Y304659D01*
D02*
G37*
G36*
X222503Y304732D02*
X222678Y304659D01*
X220846D01*
X221021Y304732D01*
X221031Y304742D01*
X222493D01*
X222503Y304732D01*
D02*
G37*
G36*
X219003D02*
X219178Y304659D01*
X216392D01*
X216309Y304742D01*
X218993D01*
X219003Y304732D01*
D02*
G37*
G36*
X235762Y304171D02*
X235525Y304742D01*
X235998D01*
X235762Y304171D01*
D02*
G37*
G36*
X232262D02*
X232025Y304742D01*
X232498D01*
X232262Y304171D01*
D02*
G37*
G36*
X612988Y312258D02*
Y303258D01*
X608988Y299258D01*
X601988D01*
X597988Y303258D01*
Y312258D01*
X598488Y312758D01*
X612488D01*
X612988Y312258D01*
D02*
G37*
G36*
X522988Y341258D02*
Y300758D01*
X510988Y288758D01*
X465488D01*
X452988Y301258D01*
Y341258D01*
X464988Y353258D01*
X510988D01*
X522988Y341258D01*
D02*
G37*
G36*
X623488Y342758D02*
Y260758D01*
X622488Y259758D01*
X613988D01*
X613488Y260258D01*
Y300758D01*
X616488Y303758D01*
Y342758D01*
X617988Y344258D01*
X621988D01*
X623488Y342758D01*
D02*
G37*
G36*
X595488Y344758D02*
Y316758D01*
X596488Y315758D01*
Y302258D01*
X601988Y296758D01*
X607988D01*
X608988Y295758D01*
Y261758D01*
Y260258D01*
X608488Y259758D01*
X602488D01*
X601988Y260258D01*
Y285758D01*
X591488Y296258D01*
Y313258D01*
X591011Y313735D01*
X590998Y313767D01*
X590497Y314268D01*
X590465Y314282D01*
X588988Y315758D01*
X586988Y317758D01*
Y332758D01*
X580988Y338758D01*
Y345258D01*
X581488Y345758D01*
X594488D01*
X595488Y344758D01*
D02*
G37*
G36*
X759691Y252758D02*
X757007D01*
X756997Y252768D01*
X756822Y252841D01*
X759608D01*
X759691Y252758D01*
D02*
G37*
G36*
X754979Y252768D02*
X754969Y252758D01*
X753507D01*
X753497Y252768D01*
X753322Y252841D01*
X755154D01*
X754979Y252768D01*
D02*
G37*
G36*
X751479D02*
X751469Y252758D01*
X749786D01*
X749868Y252841D01*
X751654D01*
X751479Y252768D01*
D02*
G37*
G36*
X743975Y252758D02*
X743502D01*
X743738Y253329D01*
X743975Y252758D01*
D02*
G37*
G36*
X740475D02*
X740002D01*
X740238Y253329D01*
X740475Y252758D01*
D02*
G37*
G36*
X378012Y254242D02*
Y245242D01*
X377512Y244742D01*
X363512D01*
X363012Y245242D01*
Y254242D01*
X367012Y258242D01*
X374012D01*
X378012Y254242D01*
D02*
G37*
G36*
X227080Y239917D02*
X226915Y239822D01*
X226431Y239338D01*
X226089Y238745D01*
X225912Y238084D01*
Y237399D01*
X226089Y236738D01*
X226431Y236145D01*
X226915Y235661D01*
X227508Y235319D01*
X227594Y235296D01*
Y230231D01*
X227132Y230040D01*
X226971Y230201D01*
X226512Y230391D01*
X223833D01*
X223587Y230891D01*
X223793Y231387D01*
Y232096D01*
X223522Y232751D01*
X223021Y233252D01*
X222366Y233523D01*
X221657D01*
X221003Y233252D01*
X220716Y232965D01*
X219852D01*
Y234523D01*
X217461D01*
X216972Y235012D01*
X216790Y235285D01*
X216087Y235988D01*
X215813Y236171D01*
X215084Y236900D01*
Y237161D01*
X215060Y237279D01*
Y239601D01*
X214527D01*
Y240387D01*
X214880Y240740D01*
X215803Y240740D01*
X216175Y240740D01*
X220675D01*
Y240740D01*
X220931D01*
Y240740D01*
X221725D01*
X221790Y240240D01*
X221508Y240164D01*
X220915Y239822D01*
X220431Y239338D01*
X220089Y238745D01*
X219912Y238084D01*
Y237399D01*
X220089Y236738D01*
X220431Y236145D01*
X220915Y235661D01*
X221508Y235319D01*
X222169Y235142D01*
X222854D01*
X223515Y235319D01*
X224108Y235661D01*
X224592Y236145D01*
X224935Y236738D01*
X225112Y237399D01*
Y238084D01*
X224935Y238745D01*
X224592Y239338D01*
X224527Y239404D01*
Y240387D01*
X224880Y240740D01*
X225803Y240740D01*
X226175Y240740D01*
X227080D01*
Y239917D01*
D02*
G37*
G36*
X335512Y306242D02*
Y304242D01*
X336512Y303242D01*
Y298242D01*
X334012Y295742D01*
X330512D01*
X328012Y293242D01*
Y258242D01*
X329512Y256742D01*
X346012D01*
X347012Y255742D01*
Y253742D01*
X342012Y248742D01*
X324512D01*
X321512Y245742D01*
Y241242D01*
X320012Y239742D01*
X315012D01*
X314512Y240242D01*
Y244242D01*
X313012Y245742D01*
X304512D01*
X302512Y247742D01*
Y254242D01*
X300512Y256242D01*
X296012D01*
X293512Y253742D01*
Y243818D01*
X292731D01*
Y239665D01*
X292731D01*
Y239290D01*
X292731D01*
Y235138D01*
X293512D01*
Y224242D01*
X283757Y214487D01*
X283662D01*
X283496Y214520D01*
X283330Y214487D01*
X283083D01*
X283045Y214508D01*
X282711Y214987D01*
X282751Y215187D01*
X282658Y215655D01*
X282580Y215771D01*
Y216377D01*
X281693D01*
X281527Y216410D01*
X279957D01*
X279488Y216317D01*
X279092Y216052D01*
X276781Y213742D01*
X273012D01*
X271512Y215242D01*
X271512Y228742D01*
X274741Y231971D01*
X275207Y232064D01*
X275796Y232458D01*
X276189Y233047D01*
X276282Y233512D01*
X280512Y237742D01*
Y249742D01*
X284512Y253742D01*
Y264242D01*
X287012Y266742D01*
X311512D01*
X319512Y274742D01*
Y299742D01*
X312512Y306742D01*
Y309242D01*
X314512Y311242D01*
X330512D01*
X335512Y306242D01*
D02*
G37*
G36*
X715069Y240757D02*
X715325D01*
X715447Y240689D01*
X715467Y240422D01*
X715408Y240137D01*
X714892Y239839D01*
X714408Y239355D01*
X714065Y238762D01*
X713888Y238101D01*
Y237416D01*
X714065Y236755D01*
X714408Y236162D01*
X714892Y235678D01*
X715485Y235335D01*
X715723Y235272D01*
X715808Y234840D01*
X716074Y234443D01*
X717207Y233309D01*
Y232904D01*
X717478Y232249D01*
X717865Y231863D01*
X717703Y231363D01*
X715369D01*
X714901Y231270D01*
X714504Y231005D01*
X708231Y224732D01*
X707663Y224870D01*
X707498Y225267D01*
X707212Y225554D01*
Y232751D01*
X709730Y235270D01*
X710146Y235158D01*
X710831D01*
X711492Y235335D01*
X712085Y235678D01*
X712569Y236162D01*
X712911Y236755D01*
X713088Y237416D01*
Y238101D01*
X712977Y238517D01*
X713562Y239102D01*
X713827Y239499D01*
X713920Y239967D01*
Y240757D01*
X715069D01*
Y240757D01*
D02*
G37*
G36*
X241534Y220736D02*
X245017D01*
X246012Y219742D01*
Y215742D01*
X245012Y214742D01*
X242512D01*
X241996Y215257D01*
Y215706D01*
X240961Y216742D01*
X237512D01*
X236512Y217742D01*
Y219742D01*
X237502Y220732D01*
X240495D01*
Y220742D01*
X241534D01*
Y220736D01*
D02*
G37*
G36*
X272857Y233082D02*
X273002Y232733D01*
X273503Y232232D01*
X273599Y231748D01*
X271053Y229201D01*
X270862Y228742D01*
X270862Y215242D01*
X271053Y214782D01*
X272552Y213282D01*
X273012Y213092D01*
X276781D01*
X277241Y213282D01*
X279505Y215547D01*
X279742Y215705D01*
X280021Y215761D01*
X281464D01*
X281567Y215740D01*
X281894Y215544D01*
X282072Y215102D01*
X282097Y214987D01*
X281937Y214695D01*
X281710Y214489D01*
X281705Y214487D01*
X281693D01*
X281527Y214520D01*
X281362Y214487D01*
X280475D01*
Y213974D01*
X275795Y209294D01*
X268959D01*
Y202812D01*
X268171D01*
X261235Y209749D01*
Y213242D01*
X261232Y213257D01*
Y213732D01*
X263211Y215711D01*
X263477Y216108D01*
X263570Y216576D01*
Y227264D01*
X268852D01*
Y229784D01*
X272269Y233201D01*
X272857Y233082D01*
D02*
G37*
G36*
X231172Y232871D02*
Y229961D01*
X231172D01*
X231301Y229767D01*
X231231Y229596D01*
Y228887D01*
X231502Y228233D01*
X232003Y227732D01*
X232658Y227461D01*
X233366D01*
X234021Y227732D01*
X234522Y228233D01*
X234793Y228887D01*
Y229561D01*
X235120Y229961D01*
X235699Y229961D01*
X235824Y229961D01*
X237080D01*
Y229412D01*
X236539D01*
Y224130D01*
X235642D01*
X235521Y224252D01*
X234866Y224523D01*
X234157D01*
X233503Y224252D01*
X233002Y223751D01*
X232731Y223096D01*
Y222387D01*
X233002Y221733D01*
X233503Y221232D01*
X234157Y220961D01*
X234866D01*
X235521Y221232D01*
X235972Y221683D01*
X236539D01*
Y220732D01*
X236539Y220732D01*
X236539D01*
X236230Y220379D01*
X236052Y220201D01*
X235862Y219742D01*
Y217742D01*
X236052Y217282D01*
X237052Y216282D01*
X237512Y216092D01*
X240692D01*
X240874Y215909D01*
Y215187D01*
X240914Y214987D01*
X240624Y214487D01*
X240193D01*
X240027Y214520D01*
X236434D01*
X235966Y214427D01*
X235569Y214162D01*
X230065Y208657D01*
X229564Y208864D01*
Y209294D01*
X222459D01*
Y202189D01*
X229564D01*
Y202517D01*
X229769Y202618D01*
X230065Y202670D01*
X230503Y202232D01*
X231157Y201961D01*
X231866D01*
X232521Y202232D01*
X233022Y202733D01*
X233100Y202922D01*
X233690Y203039D01*
X233830Y202899D01*
X234640Y202431D01*
X235544Y202189D01*
X236479D01*
X237383Y202431D01*
X238193Y202899D01*
X238855Y203560D01*
X239322Y204370D01*
X239564Y205274D01*
Y206209D01*
X239322Y207113D01*
X238855Y207923D01*
X238193Y208585D01*
X237383Y209052D01*
X236479Y209294D01*
X235544D01*
X234640Y209052D01*
X234609Y209034D01*
X234302Y209434D01*
X236941Y212073D01*
X240027D01*
X240193Y212106D01*
X241830D01*
X241996Y212073D01*
X247950D01*
X252778Y207245D01*
X252701Y207113D01*
X252459Y206209D01*
Y205274D01*
X252701Y204370D01*
X253169Y203560D01*
X253830Y202899D01*
X254640Y202431D01*
X255544Y202189D01*
X256480D01*
X257383Y202431D01*
X258193Y202899D01*
X258855Y203560D01*
X259322Y204370D01*
X259564Y205274D01*
Y206209D01*
X259322Y207113D01*
X258855Y207923D01*
X258193Y208585D01*
X257383Y209052D01*
X256480Y209294D01*
X255544D01*
X254640Y209052D01*
X254508Y208976D01*
X249322Y214162D01*
X248925Y214427D01*
X248457Y214520D01*
X246362D01*
X246171Y214982D01*
X246471Y215282D01*
X246661Y215742D01*
Y219742D01*
X246471Y220201D01*
X245490Y221182D01*
Y221687D01*
X246047D01*
X246503Y221232D01*
X247158Y220961D01*
X247866D01*
X248521Y221232D01*
X249022Y221733D01*
X249293Y222387D01*
Y223096D01*
X249022Y223751D01*
X248521Y224252D01*
X248016Y224461D01*
X248116Y224961D01*
X250199D01*
X250324Y224961D01*
X250699D01*
X250788Y224961D01*
X251288Y224873D01*
Y223318D01*
X250731D01*
Y219165D01*
X254293D01*
Y220054D01*
X256152D01*
Y219496D01*
X259872D01*
Y222961D01*
Y226523D01*
X259235D01*
Y227446D01*
X259522Y227733D01*
X259672Y228095D01*
X260172Y227995D01*
Y227264D01*
X261123D01*
Y217083D01*
X259144Y215104D01*
X258878Y214707D01*
X258785Y214239D01*
Y213245D01*
X258788Y213230D01*
Y209242D01*
X258881Y208773D01*
X259147Y208377D01*
X265820Y201704D01*
X265628Y201242D01*
X221512D01*
X220012Y202742D01*
Y210242D01*
Y211742D01*
Y213170D01*
X220474Y213361D01*
X220552Y213282D01*
X221012Y213092D01*
X226512D01*
X226971Y213282D01*
X228471Y214782D01*
X228805Y214849D01*
X228922Y214732D01*
X229576Y214461D01*
X230285D01*
X230940Y214732D01*
X231441Y215233D01*
X231712Y215887D01*
Y216596D01*
X231561Y216961D01*
X231866Y217461D01*
X232521Y217732D01*
X233022Y218233D01*
X233293Y218887D01*
Y219596D01*
X233022Y220251D01*
X232521Y220752D01*
X231866Y221023D01*
X231157D01*
X231066Y220985D01*
X230629Y221422D01*
Y233138D01*
X230672Y233162D01*
X231172Y232871D01*
D02*
G37*
G36*
X210512Y250242D02*
Y237242D01*
X211498Y236255D01*
Y235882D01*
X211872D01*
X215699Y232054D01*
Y230961D01*
X216793D01*
X218012Y229742D01*
X226512Y229742D01*
X227594Y228659D01*
Y217742D01*
X227664Y217390D01*
X227863Y217093D01*
X228012Y216944D01*
Y215242D01*
X226512Y213742D01*
X221012D01*
X217512Y217242D01*
X212512D01*
X211012Y218742D01*
Y228242D01*
X209512Y229742D01*
X208012D01*
X206512Y231242D01*
Y250242D01*
X207512Y251242D01*
X209512D01*
X210512Y250242D01*
D02*
G37*
G36*
X379512Y239742D02*
Y214742D01*
X378012Y213242D01*
X373012D01*
X371012Y215242D01*
Y242742D01*
X372012Y243742D01*
X375512D01*
X379512Y239742D01*
D02*
G37*
G36*
X362512Y297242D02*
Y256742D01*
X359512Y253742D01*
Y214742D01*
X358012Y213242D01*
X354012D01*
X352512Y214742D01*
Y296742D01*
X353512Y297742D01*
X362012D01*
X362512Y297242D01*
D02*
G37*
G36*
X764488Y227758D02*
Y214258D01*
X762488Y212258D01*
X726706D01*
X726523Y212650D01*
X726850Y213013D01*
X727207Y212942D01*
X727902Y213081D01*
X728491Y213474D01*
X728885Y214063D01*
X729023Y214758D01*
X728885Y215453D01*
X728491Y216042D01*
X727902Y216436D01*
X727207Y216574D01*
X726512Y216436D01*
X725923Y216042D01*
X725846Y215927D01*
X724972D01*
X724807Y215894D01*
X723920D01*
Y215288D01*
X723842Y215171D01*
X723749Y214703D01*
X723789Y214504D01*
X723455Y214025D01*
X723417Y214004D01*
X723043D01*
X723035Y214005D01*
X723028Y214004D01*
X721951D01*
Y213319D01*
X721905Y213250D01*
X721812Y212782D01*
Y212258D01*
X716488D01*
X714988Y213758D01*
Y223258D01*
X715765Y224035D01*
X734988D01*
X735457Y224128D01*
X735853Y224393D01*
X736219Y224758D01*
X743488D01*
X747488Y228758D01*
X763488D01*
X764488Y227758D01*
D02*
G37*
G36*
X374012Y297242D02*
Y271742D01*
X384512Y261242D01*
Y244242D01*
X384988Y243765D01*
X385002Y243733D01*
X385503Y243232D01*
X385535Y243218D01*
X387012Y241742D01*
X389012Y239742D01*
Y224742D01*
X395012Y218742D01*
Y212242D01*
X394512Y211742D01*
X381512D01*
X380512Y212742D01*
Y240742D01*
X379512Y241742D01*
Y255242D01*
X374012Y260742D01*
X368012D01*
X367012Y261742D01*
Y295742D01*
Y297242D01*
X367512Y297742D01*
X373512D01*
X374012Y297242D01*
D02*
G37*
G36*
X714023Y223758D02*
X714339Y223258D01*
Y213758D01*
X714529Y213299D01*
X716029Y211799D01*
X716488Y211609D01*
X721812D01*
Y208612D01*
X721350Y208421D01*
X721170Y208601D01*
X720360Y209069D01*
X719456Y209311D01*
X718520D01*
X717617Y209069D01*
X716807Y208601D01*
X716591Y208386D01*
X710712Y214265D01*
Y220752D01*
X713755Y223794D01*
X714023Y223758D01*
D02*
G37*
G36*
X523012Y256242D02*
Y216242D01*
X511012Y204242D01*
X465012D01*
X453012Y216242D01*
Y256742D01*
X465012Y268742D01*
X510512D01*
X523012Y256242D01*
D02*
G37*
G36*
X658988Y221258D02*
Y207258D01*
Y206258D01*
X656488Y203758D01*
X654988D01*
X652988Y205758D01*
Y221258D01*
X653488Y221758D01*
X658488D01*
X658988Y221258D01*
D02*
G37*
%LPC*%
G36*
X635843Y354039D02*
X635134D01*
X634479Y353768D01*
X633978Y353267D01*
X633707Y352613D01*
Y351904D01*
X633978Y351249D01*
X634479Y350748D01*
X635134Y350477D01*
X635843D01*
X636497Y350748D01*
X636998Y351249D01*
X637269Y351904D01*
Y352613D01*
X636998Y353267D01*
X636497Y353768D01*
X635843Y354039D01*
D02*
G37*
G36*
X584456Y355311D02*
X583521D01*
X582617Y355069D01*
X581807Y354601D01*
X581145Y353940D01*
X580678Y353130D01*
X580436Y352226D01*
Y351291D01*
X580678Y350387D01*
X581145Y349577D01*
X581807Y348915D01*
X582617Y348448D01*
X583521Y348206D01*
X584456D01*
X585360Y348448D01*
X586170Y348915D01*
X586831Y349577D01*
X587299Y350387D01*
X587541Y351291D01*
Y352226D01*
X587299Y353130D01*
X586831Y353940D01*
X586170Y354601D01*
X585360Y355069D01*
X584456Y355311D01*
D02*
G37*
G36*
X571176Y335039D02*
X570801D01*
X570676Y335039D01*
X566845D01*
Y334507D01*
X564348D01*
Y334772D01*
X560628D01*
Y330775D01*
X557659D01*
Y332327D01*
X552325D01*
Y327190D01*
X557659D01*
Y328277D01*
X560628D01*
Y327745D01*
X564348D01*
Y332009D01*
X566845D01*
Y331477D01*
X570676D01*
X570801Y331477D01*
X571176D01*
X571301Y331477D01*
X572164D01*
Y329258D01*
X572260Y328780D01*
X572394Y328579D01*
Y328051D01*
X572388Y328037D01*
Y327629D01*
X572544Y327252D01*
X572833Y326964D01*
X573210Y326808D01*
X573565D01*
X573778Y326623D01*
X573963Y326410D01*
Y326054D01*
X573969Y326041D01*
Y325437D01*
X573834Y325236D01*
X573739Y324758D01*
Y322772D01*
X573128D01*
Y322240D01*
X569269D01*
Y323098D01*
X566008D01*
Y325336D01*
X566649Y325977D01*
X567343D01*
X567997Y326248D01*
X568498Y326749D01*
X568769Y327404D01*
Y328113D01*
X568498Y328767D01*
X567997Y329268D01*
X567343Y329539D01*
X566634D01*
X565979Y329268D01*
X565478Y328767D01*
X565207Y328113D01*
Y327419D01*
X564267Y326479D01*
X564046Y326149D01*
X563969Y325758D01*
Y318807D01*
X560628D01*
Y315245D01*
X560628D01*
X560809Y314809D01*
X558123Y312123D01*
X557858Y311727D01*
X557765Y311258D01*
Y306758D01*
X557858Y306290D01*
X558123Y305893D01*
X559345Y304671D01*
X559742Y304406D01*
X560210Y304313D01*
X560707D01*
Y303418D01*
X561765D01*
Y301602D01*
X561135D01*
X561010Y301602D01*
X560636D01*
X560510Y301602D01*
X556805D01*
X556680Y301602D01*
X556305D01*
X556180Y301602D01*
X552474D01*
X552349Y301602D01*
X551974D01*
X551849Y301602D01*
X548143D01*
X548018Y301602D01*
X547643D01*
X547518Y301602D01*
X543687D01*
Y293316D01*
X547518D01*
X547643Y293316D01*
X548018D01*
X548143Y293316D01*
X551849D01*
X551974Y293316D01*
X552349D01*
X552474Y293316D01*
X556180D01*
X556305Y293316D01*
X556680D01*
X556805Y293316D01*
X560510D01*
X560636Y293316D01*
X561010D01*
X561135Y293316D01*
X564841D01*
X564966Y293316D01*
X565341D01*
X565466Y293316D01*
X569297D01*
Y301602D01*
X568712D01*
Y303418D01*
X569269D01*
Y307446D01*
X569269Y307571D01*
Y307946D01*
X569269Y308071D01*
Y312099D01*
X568712D01*
Y314418D01*
X569269D01*
Y318571D01*
X569269D01*
Y318946D01*
X569269D01*
Y319742D01*
X573128D01*
Y315745D01*
X573739D01*
Y310314D01*
X573834Y309836D01*
X573896Y309743D01*
Y309320D01*
X574270D01*
X574510Y309159D01*
X574988Y309065D01*
X575466Y309159D01*
X575706Y309320D01*
X576080D01*
Y309743D01*
X576142Y309836D01*
X576237Y310314D01*
Y315745D01*
X576848D01*
Y319307D01*
Y322772D01*
X576237D01*
Y324758D01*
X576142Y325236D01*
X576008Y325437D01*
Y326041D01*
X576014Y326054D01*
Y326462D01*
X576248Y326814D01*
X576952D01*
X576978Y326749D01*
X577479Y326248D01*
X578134Y325977D01*
X578843D01*
X579497Y326248D01*
X579998Y326749D01*
X580269Y327404D01*
Y328113D01*
X579998Y328767D01*
X579497Y329268D01*
X578843Y329539D01*
X578134D01*
X577479Y329268D01*
X577064Y328853D01*
X575206D01*
X575192Y328858D01*
X575093D01*
X574684Y329238D01*
X574662Y329320D01*
Y331477D01*
X575132D01*
Y335039D01*
X571301D01*
X571176Y335039D01*
D02*
G37*
G36*
X575973Y308389D02*
X575494Y308294D01*
X575350Y308197D01*
X574880D01*
Y307710D01*
X574819Y307618D01*
X574723Y307140D01*
X574739Y307061D01*
Y306290D01*
X574731Y306251D01*
X574731Y306250D01*
Y301602D01*
X574003D01*
Y293316D01*
X577958D01*
Y301602D01*
X577229D01*
Y306219D01*
X577237Y306258D01*
X577237Y306258D01*
Y307124D01*
X577237Y307124D01*
X577142Y307602D01*
X577065Y307718D01*
Y308197D01*
X576595D01*
X576450Y308294D01*
X575973Y308389D01*
D02*
G37*
G36*
X747215Y292101D02*
X746348D01*
X745546Y291769D01*
X745451Y291674D01*
X746782Y290344D01*
X748112Y291674D01*
X748017Y291769D01*
X747215Y292101D01*
D02*
G37*
G36*
X739991D02*
X739123D01*
X738322Y291769D01*
X738227Y291674D01*
X739557Y290344D01*
X740887Y291674D01*
X740793Y291769D01*
X739991Y292101D01*
D02*
G37*
G36*
X748536Y291250D02*
X747206Y289920D01*
X748536Y288590D01*
X748631Y288684D01*
X748963Y289486D01*
Y290354D01*
X748631Y291155D01*
X748536Y291250D01*
D02*
G37*
G36*
X745027D02*
X744933Y291155D01*
X744600Y290354D01*
Y289486D01*
X744933Y288684D01*
X745027Y288590D01*
X746357Y289920D01*
X745027Y291250D01*
D02*
G37*
G36*
X741312D02*
X739981Y289920D01*
X741312Y288590D01*
X741406Y288684D01*
X741738Y289486D01*
Y290354D01*
X741406Y291155D01*
X741312Y291250D01*
D02*
G37*
G36*
X737803D02*
X737708Y291155D01*
X737376Y290354D01*
Y289486D01*
X737708Y288684D01*
X737803Y288590D01*
X739133Y289920D01*
X737803Y291250D01*
D02*
G37*
G36*
X746782Y289495D02*
X745451Y288165D01*
X745546Y288071D01*
X746348Y287739D01*
X747215D01*
X748017Y288071D01*
X748112Y288165D01*
X746782Y289495D01*
D02*
G37*
G36*
X739557D02*
X738227Y288165D01*
X738322Y288071D01*
X739123Y287739D01*
X739991D01*
X740793Y288071D01*
X740887Y288165D01*
X739557Y289495D01*
D02*
G37*
G36*
X750828Y288489D02*
X749960D01*
X749158Y288157D01*
X749064Y288062D01*
X750394Y286732D01*
X751724Y288062D01*
X751629Y288157D01*
X750828Y288489D01*
D02*
G37*
G36*
X743603D02*
X742735D01*
X741934Y288157D01*
X741839Y288062D01*
X743169Y286732D01*
X744499Y288062D01*
X744405Y288157D01*
X743603Y288489D01*
D02*
G37*
G36*
X736379D02*
X735511D01*
X734710Y288157D01*
X734615Y288062D01*
X735945Y286732D01*
X737275Y288062D01*
X737181Y288157D01*
X736379Y288489D01*
D02*
G37*
G36*
X748639Y287638D02*
X748545Y287543D01*
X748213Y286741D01*
Y285874D01*
X748545Y285072D01*
X748639Y284977D01*
X749969Y286308D01*
X748639Y287638D01*
D02*
G37*
G36*
X741415D02*
X741320Y287543D01*
X740988Y286741D01*
Y285874D01*
X741320Y285072D01*
X741415Y284977D01*
X742745Y286308D01*
X741415Y287638D01*
D02*
G37*
G36*
X734191D02*
X734096Y287543D01*
X733764Y286741D01*
Y285874D01*
X734096Y285072D01*
X734191Y284977D01*
X735521Y286308D01*
X734191Y287638D01*
D02*
G37*
G36*
X752148Y287638D02*
X750818Y286308D01*
X752148Y284977D01*
X752243Y285072D01*
X752575Y285874D01*
Y286741D01*
X752243Y287543D01*
X752148Y287638D01*
D02*
G37*
G36*
X744924D02*
X743594Y286308D01*
X744924Y284977D01*
X745018Y285072D01*
X745351Y285874D01*
Y286741D01*
X745018Y287543D01*
X744924Y287638D01*
D02*
G37*
G36*
X737699D02*
X736369Y286308D01*
X737699Y284977D01*
X737794Y285072D01*
X738126Y285874D01*
Y286741D01*
X737794Y287543D01*
X737699Y287638D01*
D02*
G37*
G36*
X750394Y285883D02*
X749064Y284553D01*
X749158Y284458D01*
X749960Y284126D01*
X750828D01*
X751629Y284458D01*
X751724Y284553D01*
X750394Y285883D01*
D02*
G37*
G36*
X743169D02*
X741839Y284553D01*
X741934Y284458D01*
X742735Y284126D01*
X743603D01*
X744405Y284458D01*
X744499Y284553D01*
X743169Y285883D01*
D02*
G37*
G36*
X735945D02*
X734615Y284553D01*
X734710Y284458D01*
X735511Y284126D01*
X736379D01*
X737181Y284458D01*
X737275Y284553D01*
X735945Y285883D01*
D02*
G37*
G36*
X747215Y284876D02*
X746348D01*
X745546Y284544D01*
X745451Y284450D01*
X746782Y283120D01*
X748112Y284450D01*
X748017Y284544D01*
X747215Y284876D01*
D02*
G37*
G36*
X739991D02*
X739123D01*
X738322Y284544D01*
X738227Y284450D01*
X739557Y283120D01*
X740887Y284450D01*
X740793Y284544D01*
X739991Y284876D01*
D02*
G37*
G36*
X745027Y284026D02*
X744933Y283931D01*
X744600Y283129D01*
Y282261D01*
X744933Y281460D01*
X745027Y281365D01*
X746357Y282695D01*
X745027Y284026D01*
D02*
G37*
G36*
X737803D02*
X737708Y283931D01*
X737376Y283129D01*
Y282261D01*
X737708Y281460D01*
X737803Y281365D01*
X739133Y282695D01*
X737803Y284026D01*
D02*
G37*
G36*
X748536Y284026D02*
X747206Y282695D01*
X748536Y281365D01*
X748631Y281460D01*
X748963Y282261D01*
Y283129D01*
X748631Y283931D01*
X748536Y284026D01*
D02*
G37*
G36*
X741312D02*
X739981Y282695D01*
X741312Y281365D01*
X741406Y281460D01*
X741738Y282261D01*
Y283129D01*
X741406Y283931D01*
X741312Y284026D01*
D02*
G37*
G36*
X746782Y282271D02*
X745451Y280941D01*
X745546Y280846D01*
X746348Y280514D01*
X747215D01*
X748017Y280846D01*
X748112Y280941D01*
X746782Y282271D01*
D02*
G37*
G36*
X739557D02*
X738227Y280941D01*
X738322Y280846D01*
X739123Y280514D01*
X739991D01*
X740793Y280846D01*
X740887Y280941D01*
X739557Y282271D01*
D02*
G37*
G36*
X750828Y281264D02*
X749960D01*
X749158Y280932D01*
X749064Y280837D01*
X750394Y279507D01*
X751724Y280837D01*
X751629Y280932D01*
X750828Y281264D01*
D02*
G37*
G36*
X743603D02*
X742735D01*
X741934Y280932D01*
X741839Y280837D01*
X743169Y279507D01*
X744499Y280837D01*
X744405Y280932D01*
X743603Y281264D01*
D02*
G37*
G36*
X736379D02*
X735511D01*
X734710Y280932D01*
X734615Y280837D01*
X735945Y279507D01*
X737275Y280837D01*
X737181Y280932D01*
X736379Y281264D01*
D02*
G37*
G36*
X752148Y280413D02*
X750818Y279083D01*
X752148Y277753D01*
X752243Y277848D01*
X752575Y278649D01*
Y279517D01*
X752243Y280319D01*
X752148Y280413D01*
D02*
G37*
G36*
X748639D02*
X748545Y280319D01*
X748213Y279517D01*
Y278649D01*
X748545Y277848D01*
X748639Y277753D01*
X749969Y279083D01*
X748639Y280413D01*
D02*
G37*
G36*
X744924D02*
X743594Y279083D01*
X744924Y277753D01*
X745018Y277848D01*
X745351Y278649D01*
Y279517D01*
X745018Y280319D01*
X744924Y280413D01*
D02*
G37*
G36*
X741415D02*
X741320Y280319D01*
X740988Y279517D01*
Y278649D01*
X741320Y277848D01*
X741415Y277753D01*
X742745Y279083D01*
X741415Y280413D01*
D02*
G37*
G36*
X737699D02*
X736369Y279083D01*
X737699Y277753D01*
X737794Y277848D01*
X738126Y278649D01*
Y279517D01*
X737794Y280319D01*
X737699Y280413D01*
D02*
G37*
G36*
X734191D02*
X734096Y280319D01*
X733764Y279517D01*
Y278649D01*
X734096Y277848D01*
X734191Y277753D01*
X735521Y279083D01*
X734191Y280413D01*
D02*
G37*
G36*
X750394Y278659D02*
X749064Y277329D01*
X749158Y277234D01*
X749960Y276902D01*
X750828D01*
X751629Y277234D01*
X751724Y277329D01*
X750394Y278659D01*
D02*
G37*
G36*
X743169D02*
X741839Y277329D01*
X741934Y277234D01*
X742735Y276902D01*
X743603D01*
X744405Y277234D01*
X744499Y277329D01*
X743169Y278659D01*
D02*
G37*
G36*
X735945D02*
X734615Y277329D01*
X734710Y277234D01*
X735511Y276902D01*
X736379D01*
X737181Y277234D01*
X737275Y277329D01*
X735945Y278659D01*
D02*
G37*
G36*
X747215Y277652D02*
X746348D01*
X745546Y277320D01*
X745451Y277225D01*
X746782Y275895D01*
X748112Y277225D01*
X748017Y277320D01*
X747215Y277652D01*
D02*
G37*
G36*
X739991D02*
X739123D01*
X738322Y277320D01*
X738227Y277225D01*
X739557Y275895D01*
X740887Y277225D01*
X740793Y277320D01*
X739991Y277652D01*
D02*
G37*
G36*
X680588Y280851D02*
X675412D01*
Y275674D01*
X680588D01*
Y280851D01*
D02*
G37*
G36*
X748536Y276801D02*
X747206Y275471D01*
X748536Y274141D01*
X748631Y274235D01*
X748963Y275037D01*
Y275905D01*
X748631Y276706D01*
X748536Y276801D01*
D02*
G37*
G36*
X745027D02*
X744933Y276706D01*
X744600Y275905D01*
Y275037D01*
X744933Y274235D01*
X745027Y274141D01*
X746357Y275471D01*
X745027Y276801D01*
D02*
G37*
G36*
X741312D02*
X739981Y275471D01*
X741312Y274141D01*
X741406Y274235D01*
X741738Y275037D01*
Y275905D01*
X741406Y276706D01*
X741312Y276801D01*
D02*
G37*
G36*
X737803D02*
X737708Y276706D01*
X737376Y275905D01*
Y275037D01*
X737708Y274235D01*
X737803Y274141D01*
X739133Y275471D01*
X737803Y276801D01*
D02*
G37*
G36*
X746782Y275047D02*
X745451Y273716D01*
X745546Y273622D01*
X746348Y273290D01*
X747215D01*
X748017Y273622D01*
X748112Y273716D01*
X746782Y275047D01*
D02*
G37*
G36*
X739557D02*
X738227Y273716D01*
X738322Y273622D01*
X739123Y273290D01*
X739991D01*
X740793Y273622D01*
X740887Y273716D01*
X739557Y275047D01*
D02*
G37*
G36*
X680588Y271835D02*
X675412D01*
Y266658D01*
X680588D01*
Y271835D01*
D02*
G37*
G36*
X671572D02*
X666396D01*
Y266658D01*
X671572D01*
Y271835D01*
D02*
G37*
G36*
X644988Y282408D02*
X627488D01*
X627150Y282268D01*
X626632D01*
Y281821D01*
X625029Y280218D01*
X624839Y279758D01*
Y266758D01*
X625029Y266299D01*
X626029Y265299D01*
X626488Y265109D01*
X645488D01*
X645617Y265162D01*
X646061D01*
Y265572D01*
X646138Y265758D01*
Y281258D01*
X646061Y281444D01*
Y282386D01*
X645041D01*
X644988Y282408D01*
D02*
G37*
G36*
X597488Y276408D02*
X594488D01*
X594029Y276218D01*
X591529Y273718D01*
X591339Y273258D01*
Y265527D01*
X589719Y263908D01*
X584988D01*
X584529Y263718D01*
X583029Y262218D01*
X582839Y261758D01*
Y256758D01*
X583029Y256299D01*
X584920Y254408D01*
X584767Y253908D01*
X578872D01*
X578638Y254258D01*
Y255914D01*
X582289D01*
Y264201D01*
X578454D01*
X578447Y264218D01*
X578097Y264568D01*
X577638Y264758D01*
X565839D01*
X565380Y264568D01*
X565333Y264522D01*
X564966Y264201D01*
X561010D01*
Y264201D01*
X560636D01*
Y264201D01*
X556805D01*
X556680Y264201D01*
X556305D01*
X556180Y264201D01*
X552474D01*
X552349Y264201D01*
X551974D01*
X551849Y264201D01*
X548018D01*
Y255914D01*
X548773D01*
Y253795D01*
X548314D01*
Y250430D01*
X552663D01*
Y253795D01*
X551220D01*
Y255914D01*
X551849D01*
X551974Y255914D01*
X552349D01*
X552474Y255914D01*
X553103D01*
Y254774D01*
X553196Y254306D01*
X553462Y253909D01*
X554794Y252577D01*
X554813Y252477D01*
Y250430D01*
X559163D01*
Y253795D01*
X556984D01*
X556879Y253953D01*
X555550Y255281D01*
Y255914D01*
X556180D01*
X556305Y255914D01*
X556680D01*
X556805Y255914D01*
X558291D01*
X558305Y255843D01*
X558570Y255446D01*
X560500Y253517D01*
X560388Y253101D01*
Y252416D01*
X560565Y251755D01*
X560908Y251162D01*
X561392Y250678D01*
X561985Y250336D01*
X562646Y250158D01*
X563331D01*
X563992Y250336D01*
X564339Y250536D01*
X564839Y250250D01*
Y247027D01*
X564029Y246218D01*
X563839Y245758D01*
Y241258D01*
X563983Y240911D01*
Y240780D01*
X564048D01*
X564529Y240299D01*
X564988Y240109D01*
X566988D01*
X567448Y240299D01*
X567929Y240780D01*
X568548D01*
X569029Y240299D01*
X569488Y240109D01*
X594988Y240109D01*
X595447Y240299D01*
X595626Y240477D01*
X596348D01*
Y241200D01*
X596448Y241299D01*
X596638Y241758D01*
Y251258D01*
X596448Y251717D01*
X596832Y251996D01*
X600839Y247989D01*
Y215258D01*
X601029Y214799D01*
X602529Y213299D01*
X602988Y213109D01*
X635132D01*
Y213024D01*
X641844D01*
Y222492D01*
X635132D01*
Y222408D01*
X610757D01*
X609638Y223527D01*
Y242258D01*
Y246758D01*
Y249258D01*
Y256758D01*
X609447Y257218D01*
X609435Y257230D01*
Y257327D01*
X609338D01*
X608448Y258218D01*
X607988Y258408D01*
X601757D01*
X600638Y259527D01*
Y273258D01*
X600448Y273718D01*
X597948Y276218D01*
X597488Y276408D01*
D02*
G37*
G36*
X661834Y241896D02*
X661405Y241810D01*
X661041Y241567D01*
X660745Y241272D01*
X658628D01*
Y237709D01*
X662348D01*
Y239652D01*
X665732D01*
X665781Y239662D01*
X667887D01*
Y241886D01*
X665781D01*
X665732Y241896D01*
X661834D01*
X661834Y241896D01*
D02*
G37*
G36*
X667887Y237949D02*
X663577D01*
Y235725D01*
X667455D01*
Y234051D01*
X667446Y234002D01*
Y231890D01*
X667029Y231718D01*
X666029Y230718D01*
X665988Y230618D01*
X665940D01*
Y230501D01*
X665839Y230258D01*
Y225758D01*
X666029Y225299D01*
X667029Y224299D01*
X667488Y224109D01*
X671988D01*
X672447Y224299D01*
X673947Y225799D01*
X674138Y226258D01*
Y229258D01*
X673947Y229718D01*
X672318Y231347D01*
X672525Y231847D01*
X677553D01*
Y236157D01*
X667887D01*
Y237949D01*
D02*
G37*
G36*
X695843Y226039D02*
X695134D01*
X694479Y225768D01*
X693978Y225267D01*
X693707Y224613D01*
Y223904D01*
X693978Y223249D01*
X694479Y222748D01*
X695134Y222477D01*
X695843D01*
X696497Y222748D01*
X696998Y223249D01*
X697269Y223904D01*
Y224613D01*
X696998Y225267D01*
X696497Y225768D01*
X695843Y226039D01*
D02*
G37*
G36*
X680343Y221039D02*
X679634D01*
X678979Y220768D01*
X678478Y220267D01*
X678207Y219613D01*
Y218904D01*
X678478Y218249D01*
X678936Y217792D01*
X678960Y217508D01*
X678936Y217225D01*
X678478Y216767D01*
X678207Y216113D01*
Y215404D01*
X678478Y214749D01*
X678979Y214248D01*
X679634Y213977D01*
X680343D01*
X680997Y214248D01*
X681498Y214749D01*
X681769Y215404D01*
Y216113D01*
X681498Y216767D01*
X681040Y217225D01*
X681017Y217508D01*
X681040Y217792D01*
X681498Y218249D01*
X681769Y218904D01*
Y219613D01*
X681498Y220267D01*
X680997Y220768D01*
X680343Y221039D01*
D02*
G37*
G36*
X636509Y209711D02*
X635468D01*
X634463Y209442D01*
X633561Y208921D01*
X633405Y208766D01*
X635988Y206183D01*
X638571Y208766D01*
X638415Y208921D01*
X637514Y209442D01*
X636509Y209711D01*
D02*
G37*
G36*
X638995Y208341D02*
X636412Y205758D01*
X638995Y203175D01*
X639151Y203331D01*
X639672Y204233D01*
X639941Y205238D01*
Y206279D01*
X639672Y207284D01*
X639151Y208185D01*
X638995Y208341D01*
D02*
G37*
G36*
X632981D02*
X632825Y208185D01*
X632305Y207284D01*
X632035Y206279D01*
Y205238D01*
X632305Y204233D01*
X632825Y203331D01*
X632981Y203175D01*
X635564Y205758D01*
X632981Y208341D01*
D02*
G37*
G36*
X635988Y205334D02*
X633405Y202751D01*
X633561Y202595D01*
X634463Y202075D01*
X635468Y201806D01*
X636509D01*
X637514Y202075D01*
X638415Y202595D01*
X638571Y202751D01*
X635988Y205334D01*
D02*
G37*
%LPD*%
G36*
X645488Y281258D02*
Y265758D01*
X626488D01*
X625488Y266758D01*
Y279758D01*
X627488Y281758D01*
X644988D01*
X645488Y281258D01*
D02*
G37*
G36*
X595988Y251258D02*
Y241758D01*
X594988Y240758D01*
X569488Y240758D01*
X568988Y241258D01*
X568988Y243758D01*
X578488Y253258D01*
X593988D01*
X595988Y251258D01*
D02*
G37*
G36*
X577988Y263758D02*
Y254258D01*
X568466Y244736D01*
X568314D01*
Y244584D01*
X567488Y243758D01*
Y241258D01*
X566988Y240758D01*
X564988D01*
X564488Y241258D01*
Y245758D01*
X565488Y246758D01*
Y252043D01*
X565588Y252416D01*
Y253101D01*
X565488Y253474D01*
Y263758D01*
X565839Y264109D01*
X577638D01*
X577988Y263758D01*
D02*
G37*
G36*
X599988Y273258D02*
Y259258D01*
X601488Y257758D01*
X607988D01*
X608988Y256758D01*
Y249258D01*
Y223258D01*
X610488Y221758D01*
X640988D01*
Y213758D01*
X602988D01*
X601488Y215258D01*
Y248258D01*
X594988Y254758D01*
X585488D01*
X583488Y256758D01*
Y261758D01*
X584988Y263258D01*
X589988D01*
X591988Y265258D01*
Y273258D01*
X594488Y275758D01*
X597488D01*
X599988Y273258D01*
D02*
G37*
G36*
X673488Y229258D02*
Y226258D01*
X671988Y224758D01*
X667488D01*
X666488Y225758D01*
Y230258D01*
X667488Y231258D01*
X671488D01*
X673488Y229258D01*
D02*
G37*
%LPC*%
G36*
X730456Y355311D02*
X729521D01*
X728617Y355069D01*
X727807Y354601D01*
X727145Y353940D01*
X726678Y353130D01*
X726436Y352226D01*
Y351291D01*
X726678Y350387D01*
X727145Y349577D01*
X727807Y348915D01*
X728617Y348448D01*
X729521Y348206D01*
X730456D01*
X731360Y348448D01*
X732170Y348915D01*
X732831Y349577D01*
X733299Y350387D01*
X733541Y351291D01*
Y352226D01*
X733299Y353130D01*
X732831Y353940D01*
X732170Y354601D01*
X731360Y355069D01*
X730456Y355311D01*
D02*
G37*
G36*
X340532Y355694D02*
X339491D01*
X338486Y355425D01*
X337585Y354905D01*
X337429Y354749D01*
X340012Y352166D01*
X342595Y354749D01*
X342439Y354905D01*
X341537Y355425D01*
X340532Y355694D01*
D02*
G37*
G36*
X343019Y354325D02*
X340436Y351742D01*
X343019Y349159D01*
X343175Y349315D01*
X343695Y350216D01*
X343965Y351221D01*
Y352262D01*
X343695Y353267D01*
X343175Y354169D01*
X343019Y354325D01*
D02*
G37*
G36*
X337005D02*
X336849Y354169D01*
X336328Y353267D01*
X336059Y352262D01*
Y351221D01*
X336328Y350216D01*
X336849Y349315D01*
X337005Y349159D01*
X339587Y351742D01*
X337005Y354325D01*
D02*
G37*
G36*
X340012Y351317D02*
X337429Y348734D01*
X337585Y348579D01*
X338486Y348058D01*
X339491Y347789D01*
X340532D01*
X341537Y348058D01*
X342439Y348579D01*
X342595Y348734D01*
X340012Y351317D01*
D02*
G37*
G36*
X296366Y343523D02*
X295657D01*
X295003Y343252D01*
X294502Y342751D01*
X294231Y342096D01*
Y341387D01*
X294502Y340733D01*
X294960Y340275D01*
X294983Y339992D01*
X294960Y339708D01*
X294502Y339251D01*
X294231Y338596D01*
Y337887D01*
X294502Y337233D01*
X295003Y336732D01*
X295657Y336461D01*
X296366D01*
X297021Y336732D01*
X297522Y337233D01*
X297793Y337887D01*
Y338596D01*
X297522Y339251D01*
X297064Y339708D01*
X297041Y339992D01*
X297064Y340275D01*
X297522Y340733D01*
X297793Y341387D01*
Y342096D01*
X297522Y342751D01*
X297021Y343252D01*
X296366Y343523D01*
D02*
G37*
G36*
X280866Y335023D02*
X280157D01*
X279503Y334752D01*
X279002Y334251D01*
X278731Y333596D01*
Y332887D01*
X279002Y332233D01*
X279503Y331732D01*
X280157Y331461D01*
X280866D01*
X281521Y331732D01*
X282022Y332233D01*
X282293Y332887D01*
Y333596D01*
X282022Y334251D01*
X281521Y334752D01*
X280866Y335023D01*
D02*
G37*
G36*
X308512Y333391D02*
X304012D01*
X303553Y333201D01*
X302052Y331701D01*
X301862Y331242D01*
Y328242D01*
X302052Y327782D01*
X303682Y326153D01*
X303475Y325653D01*
X298447D01*
Y321342D01*
X308113D01*
Y319551D01*
X312423D01*
Y321775D01*
X308545D01*
Y323449D01*
X308555Y323498D01*
Y325610D01*
X308971Y325782D01*
X309971Y326782D01*
X310012Y326882D01*
X310061D01*
Y326999D01*
X310161Y327242D01*
Y331742D01*
X309971Y332201D01*
X308971Y333201D01*
X308512Y333391D01*
D02*
G37*
G36*
X317372Y319791D02*
X313652D01*
Y317847D01*
X310268D01*
X310219Y317838D01*
X308113D01*
Y315614D01*
X310219D01*
X310268Y315604D01*
X314166D01*
X314166Y315604D01*
X314595Y315690D01*
X314959Y315933D01*
X315255Y316228D01*
X317372D01*
Y319791D01*
D02*
G37*
G36*
X340868Y344476D02*
X334156D01*
Y335008D01*
X340868D01*
Y335092D01*
X365243D01*
X366362Y333973D01*
Y315242D01*
Y310742D01*
Y308242D01*
Y300742D01*
X366552Y300282D01*
X366565Y300270D01*
Y300173D01*
X366662D01*
X367552Y299282D01*
X368012Y299092D01*
X374243D01*
X375362Y297973D01*
Y284242D01*
X375553Y283782D01*
X378052Y281282D01*
X378512Y281092D01*
X381512D01*
X381971Y281282D01*
X384471Y283782D01*
X384661Y284242D01*
Y291973D01*
X386281Y293592D01*
X391012D01*
X391471Y293782D01*
X392971Y295282D01*
X393161Y295742D01*
Y300742D01*
X392971Y301201D01*
X391080Y303092D01*
X391233Y303592D01*
X397128D01*
X397362Y303242D01*
Y301586D01*
X393711D01*
Y293299D01*
X397546D01*
X397552Y293282D01*
X397903Y292932D01*
X398362Y292742D01*
X410161D01*
X410620Y292932D01*
X410667Y292978D01*
X411034Y293299D01*
X414990D01*
Y293299D01*
X415365D01*
Y293299D01*
X419195D01*
X419320Y293299D01*
X419695D01*
X419820Y293299D01*
X423526D01*
X423651Y293299D01*
X424026D01*
X424151Y293299D01*
X427982D01*
Y301586D01*
X427227D01*
Y303705D01*
X427687D01*
Y307070D01*
X423337D01*
Y303705D01*
X424780D01*
Y301586D01*
X424151D01*
X424026Y301586D01*
X423651D01*
X423526Y301586D01*
X422897D01*
Y302726D01*
X422803Y303194D01*
X422538Y303591D01*
X421206Y304923D01*
X421186Y305023D01*
Y307070D01*
X416837D01*
Y303705D01*
X419016D01*
X419121Y303547D01*
X420450Y302219D01*
Y301586D01*
X419820D01*
X419695Y301586D01*
X419320D01*
X419195Y301586D01*
X417709D01*
X417695Y301657D01*
X417430Y302054D01*
X415500Y303983D01*
X415612Y304399D01*
Y305084D01*
X415435Y305745D01*
X415092Y306338D01*
X414608Y306822D01*
X414015Y307165D01*
X413354Y307342D01*
X412669D01*
X412008Y307165D01*
X411661Y306964D01*
X411161Y307250D01*
Y310473D01*
X411971Y311282D01*
X412161Y311742D01*
Y316242D01*
X412017Y316589D01*
Y316720D01*
X411952D01*
X411471Y317201D01*
X411012Y317391D01*
X409012D01*
X408553Y317201D01*
X408071Y316720D01*
X407452D01*
X406971Y317201D01*
X406512Y317391D01*
X381012Y317391D01*
X380553Y317201D01*
X380374Y317023D01*
X379652D01*
Y316300D01*
X379553Y316201D01*
X379362Y315742D01*
Y306242D01*
X379553Y305783D01*
X379168Y305504D01*
X375161Y309511D01*
Y342242D01*
X374971Y342701D01*
X373471Y344201D01*
X373012Y344391D01*
X340868D01*
Y344476D01*
D02*
G37*
G36*
X309604Y290842D02*
X304428D01*
Y285665D01*
X309604D01*
Y290842D01*
D02*
G37*
G36*
X300588D02*
X295412D01*
Y285665D01*
X300588D01*
Y290842D01*
D02*
G37*
G36*
X236877Y284210D02*
X236009D01*
X235207Y283878D01*
X235113Y283784D01*
X236443Y282453D01*
X237773Y283784D01*
X237678Y283878D01*
X236877Y284210D01*
D02*
G37*
G36*
X229652D02*
X228785D01*
X227983Y283878D01*
X227888Y283784D01*
X229218Y282453D01*
X230549Y283784D01*
X230454Y283878D01*
X229652Y284210D01*
D02*
G37*
G36*
X234688Y283359D02*
X234594Y283265D01*
X234262Y282463D01*
Y281595D01*
X234594Y280794D01*
X234688Y280699D01*
X236019Y282029D01*
X234688Y283359D01*
D02*
G37*
G36*
X227464D02*
X227369Y283265D01*
X227037Y282463D01*
Y281595D01*
X227369Y280794D01*
X227464Y280699D01*
X228794Y282029D01*
X227464Y283359D01*
D02*
G37*
G36*
X238197D02*
X236867Y282029D01*
X238197Y280699D01*
X238292Y280794D01*
X238624Y281595D01*
Y282463D01*
X238292Y283265D01*
X238197Y283359D01*
D02*
G37*
G36*
X230973D02*
X229643Y282029D01*
X230973Y280699D01*
X231067Y280794D01*
X231399Y281595D01*
Y282463D01*
X231067Y283265D01*
X230973Y283359D01*
D02*
G37*
G36*
X236443Y281605D02*
X235113Y280275D01*
X235207Y280180D01*
X236009Y279848D01*
X236877D01*
X237678Y280180D01*
X237773Y280275D01*
X236443Y281605D01*
D02*
G37*
G36*
X229218D02*
X227888Y280275D01*
X227983Y280180D01*
X228785Y279848D01*
X229652D01*
X230454Y280180D01*
X230549Y280275D01*
X229218Y281605D01*
D02*
G37*
G36*
X240489Y280598D02*
X239621D01*
X238820Y280266D01*
X238725Y280171D01*
X240055Y278841D01*
X241385Y280171D01*
X241290Y280266D01*
X240489Y280598D01*
D02*
G37*
G36*
X233264D02*
X232397D01*
X231595Y280266D01*
X231501Y280171D01*
X232831Y278841D01*
X234161Y280171D01*
X234066Y280266D01*
X233264Y280598D01*
D02*
G37*
G36*
X226040D02*
X225172D01*
X224371Y280266D01*
X224276Y280171D01*
X225606Y278841D01*
X226936Y280171D01*
X226842Y280266D01*
X226040Y280598D01*
D02*
G37*
G36*
X238301Y279747D02*
X238206Y279652D01*
X237874Y278851D01*
Y277983D01*
X238206Y277181D01*
X238301Y277087D01*
X239631Y278417D01*
X238301Y279747D01*
D02*
G37*
G36*
X231076D02*
X230982Y279652D01*
X230649Y278851D01*
Y277983D01*
X230982Y277181D01*
X231076Y277087D01*
X232406Y278417D01*
X231076Y279747D01*
D02*
G37*
G36*
X223852D02*
X223757Y279652D01*
X223425Y278851D01*
Y277983D01*
X223757Y277181D01*
X223852Y277087D01*
X225182Y278417D01*
X223852Y279747D01*
D02*
G37*
G36*
X241809D02*
X240479Y278417D01*
X241809Y277087D01*
X241904Y277181D01*
X242236Y277983D01*
Y278851D01*
X241904Y279652D01*
X241809Y279747D01*
D02*
G37*
G36*
X234585D02*
X233255Y278417D01*
X234585Y277087D01*
X234680Y277181D01*
X235012Y277983D01*
Y278851D01*
X234680Y279652D01*
X234585Y279747D01*
D02*
G37*
G36*
X227361D02*
X226030Y278417D01*
X227361Y277087D01*
X227455Y277181D01*
X227787Y277983D01*
Y278851D01*
X227455Y279652D01*
X227361Y279747D01*
D02*
G37*
G36*
X300588Y281826D02*
X295412D01*
Y276649D01*
X300588D01*
Y281826D01*
D02*
G37*
G36*
X240055Y277993D02*
X238725Y276662D01*
X238820Y276568D01*
X239621Y276236D01*
X240489D01*
X241290Y276568D01*
X241385Y276662D01*
X240055Y277993D01*
D02*
G37*
G36*
X232831D02*
X231501Y276662D01*
X231595Y276568D01*
X232397Y276236D01*
X233264D01*
X234066Y276568D01*
X234161Y276662D01*
X232831Y277993D01*
D02*
G37*
G36*
X225606D02*
X224276Y276662D01*
X224371Y276568D01*
X225172Y276236D01*
X226040D01*
X226842Y276568D01*
X226936Y276662D01*
X225606Y277993D01*
D02*
G37*
G36*
X236877Y276986D02*
X236009D01*
X235207Y276654D01*
X235113Y276559D01*
X236443Y275229D01*
X237773Y276559D01*
X237678Y276654D01*
X236877Y276986D01*
D02*
G37*
G36*
X229652D02*
X228785D01*
X227983Y276654D01*
X227888Y276559D01*
X229218Y275229D01*
X230549Y276559D01*
X230454Y276654D01*
X229652Y276986D01*
D02*
G37*
G36*
X349512Y292391D02*
X330512D01*
X330383Y292338D01*
X329939D01*
Y291928D01*
X329862Y291742D01*
Y276242D01*
X329939Y276056D01*
Y275114D01*
X330959D01*
X331012Y275092D01*
X348512D01*
X348850Y275232D01*
X349368D01*
Y275679D01*
X350971Y277282D01*
X351161Y277742D01*
Y290742D01*
X350971Y291201D01*
X349971Y292201D01*
X349512Y292391D01*
D02*
G37*
G36*
X238197Y276135D02*
X236867Y274805D01*
X238197Y273475D01*
X238292Y273569D01*
X238624Y274371D01*
Y275238D01*
X238292Y276040D01*
X238197Y276135D01*
D02*
G37*
G36*
X230973D02*
X229643Y274805D01*
X230973Y273475D01*
X231067Y273569D01*
X231399Y274371D01*
Y275238D01*
X231067Y276040D01*
X230973Y276135D01*
D02*
G37*
G36*
X234688Y276135D02*
X234594Y276040D01*
X234262Y275238D01*
Y274371D01*
X234594Y273569D01*
X234688Y273475D01*
X236019Y274805D01*
X234688Y276135D01*
D02*
G37*
G36*
X227464D02*
X227369Y276040D01*
X227037Y275238D01*
Y274371D01*
X227369Y273569D01*
X227464Y273475D01*
X228794Y274805D01*
X227464Y276135D01*
D02*
G37*
G36*
X236443Y274380D02*
X235113Y273050D01*
X235207Y272956D01*
X236009Y272623D01*
X236877D01*
X237678Y272956D01*
X237773Y273050D01*
X236443Y274380D01*
D02*
G37*
G36*
X229218D02*
X227888Y273050D01*
X227983Y272956D01*
X228785Y272623D01*
X229652D01*
X230454Y272956D01*
X230549Y273050D01*
X229218Y274380D01*
D02*
G37*
G36*
X240489Y273374D02*
X239621D01*
X238820Y273042D01*
X238725Y272947D01*
X240055Y271617D01*
X241385Y272947D01*
X241290Y273042D01*
X240489Y273374D01*
D02*
G37*
G36*
X233264D02*
X232397D01*
X231595Y273042D01*
X231501Y272947D01*
X232831Y271617D01*
X234161Y272947D01*
X234066Y273042D01*
X233264Y273374D01*
D02*
G37*
G36*
X226040D02*
X225172D01*
X224371Y273042D01*
X224276Y272947D01*
X225606Y271617D01*
X226936Y272947D01*
X226842Y273042D01*
X226040Y273374D01*
D02*
G37*
G36*
X241809Y272523D02*
X240479Y271193D01*
X241810Y269862D01*
X241904Y269957D01*
X242236Y270759D01*
Y271626D01*
X241904Y272428D01*
X241809Y272523D01*
D02*
G37*
G36*
X234585D02*
X233255Y271193D01*
X234585Y269862D01*
X234680Y269957D01*
X235012Y270759D01*
Y271626D01*
X234680Y272428D01*
X234585Y272523D01*
D02*
G37*
G36*
X227361D02*
X226030Y271193D01*
X227361Y269862D01*
X227455Y269957D01*
X227787Y270759D01*
Y271626D01*
X227455Y272428D01*
X227361Y272523D01*
D02*
G37*
G36*
X238301Y272523D02*
X238206Y272428D01*
X237874Y271626D01*
Y270759D01*
X238206Y269957D01*
X238301Y269862D01*
X239631Y271193D01*
X238301Y272523D01*
D02*
G37*
G36*
X231076D02*
X230982Y272428D01*
X230649Y271626D01*
Y270759D01*
X230982Y269957D01*
X231076Y269862D01*
X232406Y271193D01*
X231076Y272523D01*
D02*
G37*
G36*
X223852D02*
X223757Y272428D01*
X223425Y271626D01*
Y270759D01*
X223757Y269957D01*
X223852Y269862D01*
X225182Y271193D01*
X223852Y272523D01*
D02*
G37*
G36*
X240055Y270768D02*
X238725Y269438D01*
X238820Y269343D01*
X239621Y269011D01*
X240489D01*
X241290Y269343D01*
X241385Y269438D01*
X240055Y270768D01*
D02*
G37*
G36*
X232831D02*
X231501Y269438D01*
X231595Y269343D01*
X232397Y269011D01*
X233264D01*
X234066Y269343D01*
X234161Y269438D01*
X232831Y270768D01*
D02*
G37*
G36*
X225606D02*
X224276Y269438D01*
X224371Y269343D01*
X225172Y269011D01*
X226040D01*
X226842Y269343D01*
X226936Y269438D01*
X225606Y270768D01*
D02*
G37*
G36*
X236877Y269761D02*
X236009D01*
X235207Y269429D01*
X235113Y269335D01*
X236443Y268004D01*
X237773Y269335D01*
X237678Y269429D01*
X236877Y269761D01*
D02*
G37*
G36*
X229652D02*
X228785D01*
X227983Y269429D01*
X227888Y269335D01*
X229218Y268004D01*
X230549Y269335D01*
X230454Y269429D01*
X229652Y269761D01*
D02*
G37*
G36*
X234688Y268910D02*
X234594Y268816D01*
X234262Y268014D01*
Y267146D01*
X234594Y266345D01*
X234688Y266250D01*
X236019Y267580D01*
X234688Y268910D01*
D02*
G37*
G36*
X227464D02*
X227369Y268816D01*
X227037Y268014D01*
Y267146D01*
X227369Y266345D01*
X227464Y266250D01*
X228794Y267580D01*
X227464Y268910D01*
D02*
G37*
G36*
X238197D02*
X236867Y267580D01*
X238197Y266250D01*
X238292Y266345D01*
X238624Y267146D01*
Y268014D01*
X238292Y268816D01*
X238197Y268910D01*
D02*
G37*
G36*
X230973D02*
X229643Y267580D01*
X230973Y266250D01*
X231067Y266345D01*
X231399Y267146D01*
Y268014D01*
X231067Y268816D01*
X230973Y268910D01*
D02*
G37*
G36*
X236443Y267156D02*
X235113Y265826D01*
X235207Y265731D01*
X236009Y265399D01*
X236877D01*
X237678Y265731D01*
X237773Y265826D01*
X236443Y267156D01*
D02*
G37*
G36*
X229218D02*
X227888Y265826D01*
X227983Y265731D01*
X228785Y265399D01*
X229652D01*
X230454Y265731D01*
X230549Y265826D01*
X229218Y267156D01*
D02*
G37*
G36*
X428357Y264184D02*
X427982D01*
X427857Y264184D01*
X424151D01*
X424026Y264184D01*
X423651D01*
X423526Y264184D01*
X419820D01*
X419695Y264184D01*
X419320D01*
X419195Y264184D01*
X415490D01*
X415365Y264184D01*
X414990D01*
X414864Y264184D01*
X411159D01*
X411034Y264184D01*
X410659D01*
X410534Y264184D01*
X406703D01*
Y255898D01*
X407288D01*
Y254082D01*
X406731D01*
Y250054D01*
X406731Y249929D01*
Y249554D01*
X406731Y249429D01*
Y245402D01*
X407288D01*
Y243082D01*
X406731D01*
Y238929D01*
X406731D01*
Y238554D01*
X406731D01*
Y237758D01*
X402872D01*
Y241755D01*
X402261D01*
Y247186D01*
X402166Y247664D01*
X402104Y247757D01*
Y248180D01*
X401729D01*
X401490Y248341D01*
X401012Y248435D01*
X400534Y248341D01*
X400294Y248180D01*
X399920D01*
Y247757D01*
X399858Y247664D01*
X399763Y247186D01*
Y241755D01*
X399152D01*
Y238193D01*
Y234728D01*
X399763D01*
Y232742D01*
X399858Y232264D01*
X399992Y232063D01*
Y231459D01*
X399987Y231446D01*
Y231038D01*
X399752Y230686D01*
X399048D01*
X399022Y230751D01*
X398521Y231252D01*
X397866Y231523D01*
X397158D01*
X396503Y231252D01*
X396002Y230751D01*
X395731Y230096D01*
Y229387D01*
X396002Y228733D01*
X396503Y228232D01*
X397158Y227961D01*
X397866D01*
X398521Y228232D01*
X398936Y228647D01*
X400794D01*
X400808Y228642D01*
X400907D01*
X401316Y228262D01*
X401337Y228180D01*
Y226023D01*
X400868D01*
Y222461D01*
X404699D01*
X404824Y222461D01*
X405199D01*
X405324Y222461D01*
X409155D01*
Y222993D01*
X411652D01*
Y222728D01*
X415372D01*
Y226725D01*
X418341D01*
Y225173D01*
X423675D01*
Y230310D01*
X418341D01*
Y229223D01*
X415372D01*
Y229755D01*
X411652D01*
Y225491D01*
X409155D01*
Y226023D01*
X405324D01*
X405199Y226023D01*
X404824D01*
X404699Y226023D01*
X403835D01*
Y228242D01*
X403741Y228720D01*
X403606Y228921D01*
Y229449D01*
X403612Y229463D01*
Y229871D01*
X403456Y230248D01*
X403167Y230536D01*
X402790Y230692D01*
X402435D01*
X402222Y230877D01*
X402037Y231090D01*
Y231446D01*
X402031Y231459D01*
Y232063D01*
X402166Y232264D01*
X402261Y232742D01*
Y234728D01*
X402872D01*
Y235260D01*
X406731D01*
Y234401D01*
X409992D01*
Y232164D01*
X409351Y231523D01*
X408658D01*
X408003Y231252D01*
X407502Y230751D01*
X407231Y230096D01*
Y229387D01*
X407502Y228733D01*
X408003Y228232D01*
X408658Y227961D01*
X409366D01*
X410021Y228232D01*
X410522Y228733D01*
X410793Y229387D01*
Y230081D01*
X411733Y231021D01*
X411954Y231351D01*
X412031Y231742D01*
Y238693D01*
X415372D01*
Y242255D01*
X415372D01*
X415191Y242691D01*
X417877Y245376D01*
X418142Y245773D01*
X418235Y246242D01*
Y250742D01*
X418142Y251210D01*
X417877Y251607D01*
X416655Y252829D01*
X416258Y253094D01*
X415790Y253187D01*
X415293D01*
Y254082D01*
X414235D01*
Y255898D01*
X414864D01*
X414990Y255898D01*
X415365D01*
X415490Y255898D01*
X419195D01*
X419320Y255898D01*
X419695D01*
X419820Y255898D01*
X423526D01*
X423651Y255898D01*
X424026D01*
X424151Y255898D01*
X427857D01*
X427982Y255898D01*
X428357D01*
X428482Y255898D01*
X432312D01*
Y264184D01*
X428482D01*
X428357Y264184D01*
D02*
G37*
G36*
X401998Y264184D02*
X398042D01*
Y255898D01*
X398771D01*
Y251281D01*
X398763Y251242D01*
X398763Y251242D01*
Y250376D01*
X398763Y250376D01*
X398858Y249898D01*
X398935Y249782D01*
Y249303D01*
X399405D01*
X399550Y249206D01*
X400028Y249111D01*
X400505Y249206D01*
X400650Y249303D01*
X401120D01*
Y249790D01*
X401181Y249882D01*
X401276Y250360D01*
X401261Y250440D01*
Y251210D01*
X401269Y251250D01*
X401269Y251250D01*
Y255898D01*
X401998D01*
Y264184D01*
D02*
G37*
G36*
X340866Y207023D02*
X340158D01*
X339503Y206752D01*
X339002Y206251D01*
X338731Y205596D01*
Y204887D01*
X339002Y204233D01*
X339503Y203732D01*
X340158Y203461D01*
X340866D01*
X341521Y203732D01*
X342022Y204233D01*
X342293Y204887D01*
Y205596D01*
X342022Y206251D01*
X341521Y206752D01*
X340866Y207023D01*
D02*
G37*
G36*
X392479Y209294D02*
X391544D01*
X390640Y209052D01*
X389830Y208585D01*
X389169Y207923D01*
X388701Y207113D01*
X388459Y206209D01*
Y205274D01*
X388701Y204370D01*
X389169Y203560D01*
X389830Y202899D01*
X390640Y202431D01*
X391544Y202189D01*
X392479D01*
X393383Y202431D01*
X394193Y202899D01*
X394855Y203560D01*
X395322Y204370D01*
X395565Y205274D01*
Y206209D01*
X395322Y207113D01*
X394855Y207923D01*
X394193Y208585D01*
X393383Y209052D01*
X392479Y209294D01*
D02*
G37*
%LPD*%
G36*
X309512Y331742D02*
Y327242D01*
X308512Y326242D01*
X304512D01*
X302512Y328242D01*
Y331242D01*
X304012Y332742D01*
X308512D01*
X309512Y331742D01*
D02*
G37*
G36*
X406512Y316742D02*
X407012Y316242D01*
X407012Y313742D01*
X397512Y304242D01*
X382012D01*
X380012Y306242D01*
Y315742D01*
X381012Y316742D01*
X406512Y316742D01*
D02*
G37*
G36*
X411512Y316242D02*
Y311742D01*
X410512Y310742D01*
Y305457D01*
X410412Y305084D01*
Y304399D01*
X410512Y304026D01*
Y293742D01*
X410161Y293391D01*
X398362D01*
X398012Y293742D01*
Y303242D01*
X407534Y312764D01*
X407687D01*
Y312916D01*
X408512Y313742D01*
Y316242D01*
X409012Y316742D01*
X411012D01*
X411512Y316242D01*
D02*
G37*
G36*
X374512Y342242D02*
Y309242D01*
X381012Y302742D01*
X390512D01*
X392512Y300742D01*
Y295742D01*
X391012Y294242D01*
X386012D01*
X384012Y292242D01*
Y284242D01*
X381512Y281742D01*
X378512D01*
X376012Y284242D01*
Y298242D01*
X374512Y299742D01*
X368012D01*
X367012Y300742D01*
Y308242D01*
Y334242D01*
X365512Y335742D01*
X335012D01*
Y343742D01*
X373012D01*
X374512Y342242D01*
D02*
G37*
G36*
X350512Y290742D02*
Y277742D01*
X348512Y275742D01*
X331012D01*
X330512Y276242D01*
Y291742D01*
X349512D01*
X350512Y290742D01*
D02*
G37*
%LPC*%
G36*
X240012Y342558D02*
X239317Y342419D01*
X238728Y342026D01*
X238334Y341437D01*
X238196Y340742D01*
X238334Y340047D01*
X238649Y339575D01*
X238697Y339242D01*
X238649Y338909D01*
X238334Y338437D01*
X238196Y337742D01*
X238334Y337047D01*
X238728Y336458D01*
X239317Y336064D01*
X240012Y335926D01*
X240707Y336064D01*
X241296Y336458D01*
X241689Y337047D01*
X241828Y337742D01*
X241689Y338437D01*
X241374Y338909D01*
X241327Y339242D01*
X241374Y339575D01*
X241689Y340047D01*
X241828Y340742D01*
X241689Y341437D01*
X241296Y342026D01*
X240707Y342419D01*
X240012Y342558D01*
D02*
G37*
G36*
X687988Y300074D02*
X687293Y299936D01*
X686704Y299542D01*
X686310Y298953D01*
X686172Y298258D01*
X686310Y297563D01*
X686704Y296974D01*
X687293Y296581D01*
X687988Y296442D01*
X688683Y296581D01*
X689272Y296974D01*
X689666Y297563D01*
X689804Y298258D01*
X689666Y298953D01*
X689272Y299542D01*
X688683Y299936D01*
X687988Y300074D01*
D02*
G37*
G36*
X600224Y341561D02*
X599756Y341467D01*
X599359Y341202D01*
X599281Y341124D01*
X599015Y340726D01*
X598922Y340258D01*
X599015Y339790D01*
X599281Y339393D01*
X599678Y339128D01*
X600146Y339035D01*
X600614Y339128D01*
X601011Y339393D01*
X601090Y339472D01*
X601355Y339869D01*
X601448Y340337D01*
X601355Y340805D01*
X601090Y341202D01*
X600693Y341467D01*
X600224Y341561D01*
D02*
G37*
G36*
X520041Y339811D02*
X512935D01*
Y337482D01*
X506488D01*
X506020Y337389D01*
X505623Y337123D01*
X491811Y323311D01*
X491298D01*
Y322424D01*
X491265Y322258D01*
X491298Y322093D01*
Y321845D01*
X491277Y321807D01*
X490798Y321474D01*
X490598Y321513D01*
X490130Y321420D01*
X490014Y321343D01*
X489408D01*
Y320830D01*
X489328Y320750D01*
X485848D01*
Y321307D01*
X482128D01*
Y320750D01*
X480348D01*
Y321307D01*
X476628D01*
Y320750D01*
X474848D01*
Y321307D01*
X471128D01*
Y320750D01*
X469756D01*
X469288Y320656D01*
X468891Y320391D01*
X465174Y316674D01*
X464712Y316865D01*
Y317215D01*
X464619Y317683D01*
X464353Y318080D01*
X464020Y318413D01*
X464081Y318696D01*
X464211Y318930D01*
X464385Y318965D01*
X464604Y319111D01*
X464751Y319330D01*
X464802Y319588D01*
Y319776D01*
X464872Y320126D01*
X464802Y320476D01*
Y320960D01*
X464863Y321035D01*
X466193D01*
X466479Y320748D01*
X467134Y320477D01*
X467843D01*
X468497Y320748D01*
X468998Y321249D01*
X469269Y321904D01*
Y322613D01*
X468998Y323267D01*
X468497Y323768D01*
X467843Y324039D01*
X467134D01*
X466479Y323768D01*
X466193Y323482D01*
X464491D01*
X464385Y323552D01*
X464127Y323604D01*
X462873D01*
X462615Y323552D01*
X462396Y323406D01*
X462250Y323187D01*
X462198Y322929D01*
Y321900D01*
X461698Y321693D01*
X460930Y322461D01*
X460992Y322612D01*
X461177Y322921D01*
X461374Y322960D01*
X461592Y323107D01*
X461739Y323326D01*
X461790Y323584D01*
Y324956D01*
X461739Y325215D01*
X461712Y325255D01*
Y326963D01*
X461998Y327249D01*
X462269Y327904D01*
Y328613D01*
X461998Y329267D01*
X461497Y329768D01*
X460843Y330039D01*
X460134D01*
X459479Y329768D01*
X458978Y329267D01*
X458707Y328613D01*
Y327904D01*
X458978Y327249D01*
X459265Y326963D01*
Y325728D01*
X459147Y325631D01*
X457893D01*
X457634Y325580D01*
X457415Y325433D01*
X457269Y325215D01*
X457218Y324956D01*
Y323604D01*
X456849D01*
X456591Y323552D01*
X456372Y323406D01*
X456226Y323187D01*
X456175Y322929D01*
Y321557D01*
X456226Y321298D01*
X456253Y321258D01*
X456226Y321218D01*
X456175Y320960D01*
Y319588D01*
X456226Y319330D01*
X456372Y319111D01*
X456591Y318965D01*
X456849Y318913D01*
X458103D01*
X458362Y318965D01*
X458581Y319111D01*
X458727Y319330D01*
X458778Y319588D01*
Y320445D01*
X459278Y320652D01*
X460501Y319429D01*
X460898Y319164D01*
X461155Y318933D01*
Y317561D01*
X461206Y317302D01*
X461352Y317083D01*
X461572Y316937D01*
X461830Y316885D01*
X462087D01*
X462265Y316708D01*
Y315118D01*
X461707D01*
Y311399D01*
X465269D01*
Y313309D01*
X470263Y318302D01*
X471128D01*
Y317745D01*
X474848D01*
Y318302D01*
X476628D01*
Y317745D01*
X480348D01*
Y318302D01*
X482128D01*
Y317745D01*
X485848D01*
Y318302D01*
X489835D01*
X490303Y318396D01*
X490700Y318661D01*
X491276Y319237D01*
X491811D01*
X505655Y305393D01*
X506052Y305128D01*
X506520Y305035D01*
X513138D01*
X513178Y304887D01*
X513645Y304077D01*
X514307Y303415D01*
X515117Y302948D01*
X516020Y302706D01*
X516956D01*
X517860Y302948D01*
X518670Y303415D01*
X519331Y304077D01*
X519799Y304887D01*
X520041Y305791D01*
Y306726D01*
X519799Y307630D01*
X519331Y308440D01*
X518670Y309101D01*
X517860Y309569D01*
X516956Y309811D01*
X516020D01*
X515117Y309569D01*
X514307Y309101D01*
X513645Y308440D01*
X513178Y307630D01*
X513138Y307482D01*
X507027D01*
X493679Y320830D01*
Y321719D01*
X506995Y335035D01*
X512935D01*
Y332706D01*
X520041D01*
Y339811D01*
D02*
G37*
G36*
X516956Y329811D02*
X516020D01*
X515117Y329569D01*
X514307Y329101D01*
X513645Y328440D01*
X513178Y327630D01*
X513138Y327482D01*
X510328D01*
Y328236D01*
X501648D01*
Y326850D01*
X501356D01*
X500888Y326757D01*
X500491Y326492D01*
X499039Y325039D01*
X498634D01*
X497979Y324768D01*
X497478Y324267D01*
X497207Y323613D01*
Y322904D01*
X497478Y322249D01*
X497936Y321792D01*
X497960Y321508D01*
X497936Y321225D01*
X497478Y320767D01*
X497207Y320113D01*
Y319404D01*
X497478Y318749D01*
X497979Y318248D01*
X498634Y317977D01*
X499039D01*
X500845Y316171D01*
X501242Y315906D01*
X501648Y315825D01*
Y314280D01*
X510328D01*
Y315035D01*
X513138D01*
X513178Y314887D01*
X513645Y314077D01*
X514307Y313415D01*
X515117Y312948D01*
X516020Y312706D01*
X516956D01*
X517860Y312948D01*
X518670Y313415D01*
X519331Y314077D01*
X519799Y314887D01*
X520041Y315791D01*
Y316726D01*
X519799Y317630D01*
X519331Y318440D01*
X518670Y319101D01*
X517860Y319569D01*
X516956Y319811D01*
X516020D01*
X515117Y319569D01*
X514307Y319101D01*
X513645Y318440D01*
X513178Y317630D01*
X513138Y317482D01*
X510328D01*
Y318236D01*
X503163D01*
X503045Y318260D01*
X502217D01*
X500769Y319707D01*
Y320113D01*
X500498Y320767D01*
X500040Y321225D01*
X500017Y321508D01*
X500040Y321792D01*
X500498Y322249D01*
X500769Y322904D01*
Y323309D01*
X501741Y324280D01*
X510328D01*
Y325035D01*
X513138D01*
X513178Y324887D01*
X513645Y324077D01*
X514307Y323415D01*
X515117Y322948D01*
X516020Y322706D01*
X516956D01*
X517860Y322948D01*
X518670Y323415D01*
X519331Y324077D01*
X519799Y324887D01*
X520041Y325791D01*
Y326726D01*
X519799Y327630D01*
X519331Y328440D01*
X518670Y329101D01*
X517860Y329569D01*
X516956Y329811D01*
D02*
G37*
G36*
X288012Y261058D02*
X287317Y260919D01*
X286728Y260526D01*
X286334Y259937D01*
X286196Y259242D01*
X286334Y258547D01*
X286728Y257958D01*
X287317Y257564D01*
X288012Y257426D01*
X288707Y257564D01*
X289296Y257958D01*
X289689Y258547D01*
X289828Y259242D01*
X289689Y259937D01*
X289296Y260526D01*
X288707Y260919D01*
X288012Y261058D01*
D02*
G37*
G36*
X246480Y209294D02*
X245544D01*
X244640Y209052D01*
X243830Y208585D01*
X243169Y207923D01*
X242701Y207113D01*
X242459Y206209D01*
Y205274D01*
X242701Y204370D01*
X243169Y203560D01*
X243830Y202899D01*
X244640Y202431D01*
X245544Y202189D01*
X246480D01*
X247383Y202431D01*
X248193Y202899D01*
X248855Y203560D01*
X249322Y204370D01*
X249565Y205274D01*
Y206209D01*
X249322Y207113D01*
X248855Y207923D01*
X248193Y208585D01*
X247383Y209052D01*
X246480Y209294D01*
D02*
G37*
G36*
X375854Y218465D02*
X375386Y218372D01*
X374989Y218107D01*
X374910Y218028D01*
X374645Y217631D01*
X374552Y217163D01*
X374645Y216695D01*
X374910Y216298D01*
X375307Y216033D01*
X375776Y215939D01*
X376244Y216033D01*
X376641Y216298D01*
X376719Y216376D01*
X376985Y216774D01*
X377078Y217242D01*
X376985Y217710D01*
X376719Y218107D01*
X376323Y218372D01*
X375854Y218465D01*
D02*
G37*
G36*
X735988Y221574D02*
X735293Y221436D01*
X734704Y221042D01*
X734310Y220453D01*
X734172Y219758D01*
X734310Y219063D01*
X734626Y218591D01*
X734673Y218258D01*
X734626Y217925D01*
X734310Y217453D01*
X734172Y216758D01*
X734310Y216063D01*
X734704Y215474D01*
X735293Y215081D01*
X735988Y214942D01*
X736683Y215081D01*
X737272Y215474D01*
X737666Y216063D01*
X737804Y216758D01*
X737666Y217453D01*
X737351Y217925D01*
X737303Y218258D01*
X737351Y218591D01*
X737666Y219063D01*
X737804Y219758D01*
X737666Y220453D01*
X737272Y221042D01*
X736683Y221436D01*
X735988Y221574D01*
D02*
G37*
G36*
X459979Y254794D02*
X459044D01*
X458140Y254552D01*
X457330Y254085D01*
X456669Y253423D01*
X456201Y252613D01*
X455959Y251709D01*
Y250774D01*
X456201Y249870D01*
X456669Y249060D01*
X457330Y248399D01*
X458140Y247931D01*
X459044Y247689D01*
X459979D01*
X460883Y247931D01*
X461693Y248399D01*
X462355Y249060D01*
X462822Y249870D01*
X462862Y250018D01*
X468973D01*
X482321Y236670D01*
Y235781D01*
X469005Y222465D01*
X463064D01*
Y224794D01*
X455959D01*
Y217689D01*
X463064D01*
Y220018D01*
X469512D01*
X469980Y220111D01*
X470377Y220376D01*
X484189Y234189D01*
X484702D01*
Y235076D01*
X484735Y235242D01*
X484702Y235407D01*
Y235655D01*
X484723Y235693D01*
X485202Y236026D01*
X485401Y235987D01*
X485870Y236080D01*
X485986Y236157D01*
X486592D01*
Y236670D01*
X486672Y236750D01*
X490152D01*
Y236193D01*
X493872D01*
Y236750D01*
X495652D01*
Y236193D01*
X499372D01*
Y236750D01*
X501152D01*
Y236193D01*
X504872D01*
Y236750D01*
X506244D01*
X506712Y236844D01*
X507109Y237109D01*
X510826Y240826D01*
X511288Y240635D01*
Y240285D01*
X511381Y239817D01*
X511647Y239420D01*
X511979Y239087D01*
X511919Y238804D01*
X511789Y238570D01*
X511615Y238535D01*
X511396Y238389D01*
X511249Y238170D01*
X511198Y237912D01*
Y237724D01*
X511128Y237374D01*
X511198Y237024D01*
Y236540D01*
X511137Y236465D01*
X509807D01*
X509521Y236752D01*
X508866Y237023D01*
X508157D01*
X507503Y236752D01*
X507002Y236251D01*
X506731Y235596D01*
Y234887D01*
X507002Y234233D01*
X507503Y233732D01*
X508157Y233461D01*
X508866D01*
X509521Y233732D01*
X509807Y234018D01*
X511509D01*
X511615Y233948D01*
X511873Y233896D01*
X513127D01*
X513385Y233948D01*
X513604Y234094D01*
X513751Y234313D01*
X513802Y234571D01*
Y235600D01*
X514302Y235807D01*
X515070Y235039D01*
X515008Y234888D01*
X514823Y234579D01*
X514627Y234540D01*
X514407Y234393D01*
X514261Y234174D01*
X514210Y233916D01*
Y232544D01*
X514261Y232285D01*
X514288Y232245D01*
Y230537D01*
X514002Y230251D01*
X513731Y229596D01*
Y228887D01*
X514002Y228233D01*
X514503Y227732D01*
X515157Y227461D01*
X515866D01*
X516521Y227732D01*
X517022Y228233D01*
X517293Y228887D01*
Y229596D01*
X517022Y230251D01*
X516735Y230537D01*
Y231772D01*
X516853Y231869D01*
X518107D01*
X518365Y231920D01*
X518584Y232067D01*
X518731Y232285D01*
X518782Y232544D01*
Y233896D01*
X519150D01*
X519409Y233948D01*
X519628Y234094D01*
X519774Y234313D01*
X519826Y234571D01*
Y235943D01*
X519774Y236202D01*
X519747Y236242D01*
X519774Y236282D01*
X519826Y236540D01*
Y237912D01*
X519774Y238170D01*
X519628Y238389D01*
X519409Y238535D01*
X519150Y238587D01*
X517897D01*
X517638Y238535D01*
X517419Y238389D01*
X517273Y238170D01*
X517222Y237912D01*
Y237055D01*
X516722Y236848D01*
X515499Y238071D01*
X515102Y238336D01*
X514845Y238567D01*
Y239939D01*
X514794Y240198D01*
X514647Y240417D01*
X514429Y240563D01*
X514170Y240615D01*
X513912D01*
X513735Y240792D01*
Y242382D01*
X514293D01*
Y246101D01*
X510731D01*
Y244191D01*
X505737Y239197D01*
X504872D01*
Y239755D01*
X501152D01*
Y239197D01*
X499372D01*
Y239755D01*
X495652D01*
Y239197D01*
X493872D01*
Y239755D01*
X490152D01*
Y239197D01*
X486165D01*
X485697Y239104D01*
X485300Y238839D01*
X484724Y238263D01*
X484189D01*
X470345Y252107D01*
X469948Y252372D01*
X469480Y252465D01*
X462862D01*
X462822Y252613D01*
X462355Y253423D01*
X461693Y254085D01*
X460883Y254552D01*
X459979Y254794D01*
D02*
G37*
G36*
Y244794D02*
X459044D01*
X458140Y244552D01*
X457330Y244085D01*
X456669Y243423D01*
X456201Y242613D01*
X455959Y241709D01*
Y240774D01*
X456201Y239870D01*
X456669Y239060D01*
X457330Y238399D01*
X458140Y237931D01*
X459044Y237689D01*
X459979D01*
X460883Y237931D01*
X461693Y238399D01*
X462355Y239060D01*
X462822Y239870D01*
X462862Y240018D01*
X465672D01*
Y239264D01*
X472837D01*
X472955Y239240D01*
X473783D01*
X475231Y237792D01*
Y237387D01*
X475502Y236733D01*
X475960Y236275D01*
X475983Y235992D01*
X475960Y235708D01*
X475502Y235251D01*
X475231Y234596D01*
Y234191D01*
X474259Y233220D01*
X465672D01*
Y232465D01*
X462862D01*
X462822Y232613D01*
X462355Y233423D01*
X461693Y234085D01*
X460883Y234552D01*
X459979Y234794D01*
X459044D01*
X458140Y234552D01*
X457330Y234085D01*
X456669Y233423D01*
X456201Y232613D01*
X455959Y231709D01*
Y230774D01*
X456201Y229870D01*
X456669Y229060D01*
X457330Y228399D01*
X458140Y227931D01*
X459044Y227689D01*
X459979D01*
X460883Y227931D01*
X461693Y228399D01*
X462355Y229060D01*
X462822Y229870D01*
X462862Y230018D01*
X465672D01*
Y229264D01*
X474352D01*
Y230650D01*
X474644D01*
X475112Y230743D01*
X475509Y231008D01*
X476961Y232461D01*
X477366D01*
X478021Y232732D01*
X478522Y233233D01*
X478793Y233887D01*
Y234596D01*
X478522Y235251D01*
X478064Y235708D01*
X478041Y235992D01*
X478064Y236275D01*
X478522Y236733D01*
X478793Y237387D01*
Y238096D01*
X478522Y238751D01*
X478021Y239252D01*
X477366Y239523D01*
X476961D01*
X475155Y241329D01*
X474758Y241594D01*
X474352Y241675D01*
Y243220D01*
X465672D01*
Y242465D01*
X462862D01*
X462822Y242613D01*
X462355Y243423D01*
X461693Y244085D01*
X460883Y244552D01*
X459979Y244794D01*
D02*
G37*
%LPD*%
D10*
X723036Y205563D02*
G03*
X723035Y205522I999J-41D01*
G01*
X723036Y205563D02*
G03*
X723037Y205945I-4048J195D01*
G01*
X723035Y205990D02*
G03*
X723037Y205945I1000J4D01*
G01*
X723035Y205990D02*
X723035Y205995D01*
X723036Y205563D02*
X723036D01*
X723037Y205945D02*
X723037D01*
X677329Y320286D02*
X676857Y320758D01*
X676488D01*
X727606Y328140D02*
X727488Y328258D01*
X727725Y325758D02*
X727606Y325876D01*
Y328140D02*
Y325876D01*
X724835Y207478D02*
Y202911D01*
X723035Y205522D02*
Y202806D01*
Y207584D02*
Y205995D01*
X734004Y341274D02*
X731988Y339258D01*
X734004Y342314D02*
Y341274D01*
X681488Y320286D02*
X677329D01*
X742988Y328258D02*
X742870Y328140D01*
Y325876D02*
X742752Y325758D01*
X742870Y328140D02*
Y325876D01*
X642484Y246739D02*
X642305Y246559D01*
X638488Y251258D02*
Y247782D01*
X638499Y241769D02*
X638488Y241758D01*
X640457Y247782D02*
X640336Y247661D01*
X638499Y243741D02*
Y241769D01*
X640336Y247661D02*
Y245689D01*
X665732Y240774D02*
X661834D01*
X662988Y237258D02*
X661988Y236258D01*
X662988Y238220D02*
Y237258D01*
X665732Y238806D02*
X663574D01*
X662988Y238220D01*
X668567Y230104D02*
X668402Y229939D01*
Y229439D02*
X667721Y228758D01*
X668567Y234002D02*
Y230104D01*
X668402Y229939D02*
Y229439D01*
X661169Y246810D02*
X660488Y247491D01*
X664024Y244723D02*
X661937Y246810D01*
X661169D01*
X661248Y243345D02*
Y243328D01*
X661834Y242743D02*
X661248Y243328D01*
X665732Y242743D02*
X661834D01*
X665732Y244711D02*
X665721Y244723D01*
X664024D01*
X661988Y236258D02*
X660721D01*
X660488Y236026D01*
X661248Y240172D02*
X660567Y239491D01*
X661248Y240188D02*
Y240172D01*
X660567Y239491D02*
X660488D01*
X661834Y240774D02*
X661248Y240188D01*
X636640Y242981D02*
X636461Y242802D01*
X640336Y245689D02*
X637628Y242981D01*
X642305Y246559D02*
X641317D01*
X637628Y242981D02*
X636640D01*
X641317Y246559D02*
X638499Y243741D01*
X685488Y243258D02*
X684035Y244711D01*
X681244D01*
X252964Y351937D02*
G03*
X252964Y351978I-999J41D01*
G01*
X252964Y351937D02*
G03*
X252963Y351555I4048J-195D01*
G01*
X252964Y351510D02*
G03*
X252963Y351555I-1000J-4D01*
G01*
X252964Y351510D02*
X252964Y351505D01*
X252964Y351937D02*
X252964D01*
X252963Y351555D02*
X252963D01*
X298671Y237214D02*
X299143Y236742D01*
X299512D01*
X248394Y229360D02*
X248512Y229242D01*
X248275Y231742D02*
X248394Y231624D01*
Y229360D02*
Y231624D01*
X251165Y350022D02*
Y354589D01*
X252964Y351978D02*
Y354694D01*
Y349916D02*
Y351505D01*
X241996Y216226D02*
X244012Y218242D01*
X241996Y215187D02*
Y216226D01*
X294512Y237214D02*
X298671D01*
X233012Y229242D02*
X233130Y229360D01*
Y231624D02*
X233248Y231742D01*
X233130Y229360D02*
Y231624D01*
X333516Y310761D02*
X333695Y310941D01*
X337512Y306242D02*
Y309718D01*
X337501Y315731D02*
X337512Y315742D01*
X335543Y309718D02*
X335664Y309839D01*
X337501Y313759D02*
Y315731D01*
X335664Y309839D02*
Y311811D01*
X310268Y316726D02*
X314166D01*
X313012Y320242D02*
X314012Y321242D01*
X313012Y319280D02*
Y320242D01*
X310268Y318694D02*
X312426D01*
X313012Y319280D01*
X307433Y327396D02*
X307598Y327561D01*
Y328061D02*
X308279Y328742D01*
X307433Y323498D02*
Y327396D01*
X307598Y327561D02*
Y328061D01*
X314831Y310690D02*
X315512Y310009D01*
X311976Y312777D02*
X314063Y310690D01*
X314831D01*
X314752Y314155D02*
Y314172D01*
X314166Y314757D02*
X314752Y314172D01*
X310268Y314757D02*
X314166D01*
X310268Y312789D02*
X310279Y312777D01*
X311976D01*
X314012Y321242D02*
X315279D01*
X315512Y321474D01*
X314752Y317328D02*
X315433Y318009D01*
X314752Y317312D02*
Y317328D01*
X315433Y318009D02*
X315512D01*
X314166Y316726D02*
X314752Y317312D01*
X339360Y314519D02*
X339539Y314698D01*
X335664Y311811D02*
X338372Y314519D01*
X333695Y310941D02*
X334683D01*
X338372Y314519D02*
X339360D01*
X334683Y310941D02*
X337501Y313759D01*
X290512Y314242D02*
X291965Y312789D01*
X294756D01*
D11*
X706488Y319758D02*
D03*
X718488D02*
D03*
X562988Y252758D02*
D03*
X741488Y319758D02*
D03*
X716488Y237758D02*
D03*
X722488D02*
D03*
X747488Y319758D02*
D03*
X726988D02*
D03*
X695988Y296258D02*
D03*
X747488Y237758D02*
D03*
X762488D02*
D03*
X695988Y255758D02*
D03*
X710488Y237758D02*
D03*
X753488Y319758D02*
D03*
X712488D02*
D03*
X695988Y261758D02*
D03*
X269512Y237742D02*
D03*
X257512D02*
D03*
X413012Y304742D02*
D03*
X234512Y237742D02*
D03*
X259512Y319742D02*
D03*
X253512D02*
D03*
X228512Y237742D02*
D03*
X249012D02*
D03*
X280012Y261242D02*
D03*
X228512Y319742D02*
D03*
X213512D02*
D03*
X280012Y301742D02*
D03*
X265512Y319742D02*
D03*
X222512Y237742D02*
D03*
X263512D02*
D03*
X280012Y295742D02*
D03*
D12*
X713654Y328258D02*
D03*
X709323D02*
D03*
X570488Y242758D02*
D03*
X566158D02*
D03*
X508154Y316258D02*
D03*
X503823D02*
D03*
X508154Y326258D02*
D03*
X503823D02*
D03*
X262346Y229242D02*
D03*
X266677D02*
D03*
D13*
X762752Y324758D02*
D03*
X758224D02*
D03*
X614752Y352758D02*
D03*
X610224D02*
D03*
X621224D02*
D03*
X625752D02*
D03*
X665225Y324258D02*
D03*
X669752D02*
D03*
X727752Y330758D02*
D03*
X723224D02*
D03*
X732252Y325758D02*
D03*
X727725D02*
D03*
X738225D02*
D03*
X742752D02*
D03*
X660224Y315758D02*
D03*
X664752D02*
D03*
X603225Y321758D02*
D03*
X607752D02*
D03*
X213248Y232742D02*
D03*
X217776D02*
D03*
X361248Y204742D02*
D03*
X365775D02*
D03*
X354776D02*
D03*
X350248D02*
D03*
X310775Y233242D02*
D03*
X306248D02*
D03*
X248248Y226742D02*
D03*
X252776D02*
D03*
X243748Y231742D02*
D03*
X248275D02*
D03*
X237775D02*
D03*
X233248D02*
D03*
X315775Y241742D02*
D03*
X311248D02*
D03*
X372776Y235742D02*
D03*
X368248D02*
D03*
D14*
X655811Y217758D02*
D03*
X638488D02*
D03*
X320189Y339742D02*
D03*
X337512D02*
D03*
D15*
X664256Y228758D02*
D03*
X667721D02*
D03*
X636756Y254758D02*
D03*
X640221D02*
D03*
X665756Y328758D02*
D03*
X669221D02*
D03*
X463488Y313258D02*
D03*
X460024D02*
D03*
X676721Y315758D02*
D03*
X673256D02*
D03*
X768256Y319758D02*
D03*
X771721D02*
D03*
X768256Y324758D02*
D03*
X771721D02*
D03*
X762721Y319758D02*
D03*
X759256D02*
D03*
X311744Y328742D02*
D03*
X308279D02*
D03*
X339244Y302742D02*
D03*
X335779D02*
D03*
X310244Y228742D02*
D03*
X306779D02*
D03*
X512512Y244242D02*
D03*
X515976D02*
D03*
X299279Y241742D02*
D03*
X302744D02*
D03*
X207744Y237742D02*
D03*
X204279D02*
D03*
X207744Y232742D02*
D03*
X204279D02*
D03*
X213279Y237742D02*
D03*
X216744D02*
D03*
D16*
X640457Y247782D02*
D03*
X638488D02*
D03*
X636461Y246739D02*
D03*
Y244770D02*
D03*
Y242802D02*
D03*
X638488Y241758D02*
D03*
X640457D02*
D03*
X642484Y242802D02*
D03*
Y244770D02*
D03*
Y246739D02*
D03*
X335543Y309718D02*
D03*
X337512D02*
D03*
X339539Y310761D02*
D03*
Y312730D02*
D03*
Y314698D02*
D03*
X337512Y315742D02*
D03*
X335543D02*
D03*
X333516Y314698D02*
D03*
Y312730D02*
D03*
Y310761D02*
D03*
D17*
X655988Y244026D02*
D03*
Y247491D02*
D03*
X651488Y244026D02*
D03*
Y247491D02*
D03*
X646988Y244026D02*
D03*
Y247491D02*
D03*
X660488Y244026D02*
D03*
Y247491D02*
D03*
Y236026D02*
D03*
Y239491D02*
D03*
X686488Y234526D02*
D03*
Y237991D02*
D03*
X478488Y322991D02*
D03*
Y319526D02*
D03*
X717988Y332758D02*
D03*
Y336223D02*
D03*
X483988Y319526D02*
D03*
Y322991D02*
D03*
X472988Y319526D02*
D03*
Y322991D02*
D03*
X631488Y301991D02*
D03*
Y298526D02*
D03*
X594488Y242258D02*
D03*
Y238794D02*
D03*
X589689Y242244D02*
D03*
Y238780D02*
D03*
X584912Y242266D02*
D03*
Y238802D02*
D03*
X580135Y242244D02*
D03*
Y238780D02*
D03*
X575402Y242222D02*
D03*
Y238758D02*
D03*
X562488Y332991D02*
D03*
Y329526D02*
D03*
Y317026D02*
D03*
Y320491D02*
D03*
X574988Y320991D02*
D03*
Y317526D02*
D03*
X320012Y313474D02*
D03*
Y310009D02*
D03*
X324512Y313474D02*
D03*
Y310009D02*
D03*
X329012Y313474D02*
D03*
Y310009D02*
D03*
X315512Y313474D02*
D03*
Y310009D02*
D03*
Y321474D02*
D03*
Y318009D02*
D03*
X289512Y322974D02*
D03*
Y319509D02*
D03*
X497512Y234509D02*
D03*
Y237974D02*
D03*
X258012Y224742D02*
D03*
Y221277D02*
D03*
X492012Y237974D02*
D03*
Y234509D02*
D03*
X503012Y237974D02*
D03*
Y234509D02*
D03*
X344512Y255509D02*
D03*
Y258974D02*
D03*
X381512Y315242D02*
D03*
Y318706D02*
D03*
X386311Y315256D02*
D03*
Y318720D02*
D03*
X391088Y315234D02*
D03*
Y318698D02*
D03*
X395865Y315256D02*
D03*
Y318720D02*
D03*
X400598Y315278D02*
D03*
Y318742D02*
D03*
X413512Y224509D02*
D03*
Y227974D02*
D03*
Y240474D02*
D03*
Y237009D02*
D03*
X401012Y236509D02*
D03*
Y239974D02*
D03*
D18*
X678409Y249514D02*
D03*
X676441D02*
D03*
X674473D02*
D03*
X672504D02*
D03*
X670536D02*
D03*
X668567D02*
D03*
Y234002D02*
D03*
X670536D02*
D03*
X672504D02*
D03*
X674473D02*
D03*
X676441D02*
D03*
X678409D02*
D03*
X297590Y307986D02*
D03*
X299559D02*
D03*
X301528D02*
D03*
X303496D02*
D03*
X305465D02*
D03*
X307433D02*
D03*
Y323498D02*
D03*
X305465D02*
D03*
X303496D02*
D03*
X301528D02*
D03*
X299559D02*
D03*
X297590D02*
D03*
D19*
X665732Y246680D02*
D03*
Y244711D02*
D03*
Y242743D02*
D03*
Y240774D02*
D03*
Y238806D02*
D03*
Y236837D02*
D03*
X681244D02*
D03*
Y238806D02*
D03*
Y240774D02*
D03*
Y242743D02*
D03*
Y244711D02*
D03*
Y246680D02*
D03*
X310268Y310820D02*
D03*
Y312789D02*
D03*
Y314757D02*
D03*
Y316726D02*
D03*
Y318694D02*
D03*
Y320663D02*
D03*
D20*
X772697Y312223D02*
D03*
X767697D02*
D03*
X762697D02*
D03*
X757697D02*
D03*
X752697D02*
D03*
X747697D02*
D03*
X742697D02*
D03*
X737697D02*
D03*
X732697D02*
D03*
X727697D02*
D03*
X722697D02*
D03*
X717697D02*
D03*
X712697D02*
D03*
X707697D02*
D03*
Y245294D02*
D03*
X712697D02*
D03*
X717697D02*
D03*
X722697D02*
D03*
X727697D02*
D03*
X732697D02*
D03*
X737697D02*
D03*
X742697D02*
D03*
X747697D02*
D03*
X752697D02*
D03*
X757697D02*
D03*
X762697D02*
D03*
X767697D02*
D03*
X772697D02*
D03*
X203303Y245277D02*
D03*
X208303D02*
D03*
X213303D02*
D03*
X218303D02*
D03*
X223303D02*
D03*
X228303D02*
D03*
X233303D02*
D03*
X238303D02*
D03*
X243303D02*
D03*
X248303D02*
D03*
X253303D02*
D03*
X258303D02*
D03*
X263303D02*
D03*
X268303D02*
D03*
Y312206D02*
D03*
X263303D02*
D03*
X258303D02*
D03*
X253303D02*
D03*
X248303D02*
D03*
X243303D02*
D03*
X238303D02*
D03*
X233303D02*
D03*
X228303D02*
D03*
X223303D02*
D03*
X218303D02*
D03*
X213303D02*
D03*
X208303D02*
D03*
X203303D02*
D03*
D21*
X703760Y301258D02*
D03*
Y296258D02*
D03*
Y291258D02*
D03*
Y286258D02*
D03*
Y281258D02*
D03*
Y276258D02*
D03*
Y271258D02*
D03*
Y266258D02*
D03*
Y261258D02*
D03*
Y256258D02*
D03*
X272240Y256242D02*
D03*
Y261242D02*
D03*
Y266242D02*
D03*
Y271242D02*
D03*
Y276242D02*
D03*
Y281242D02*
D03*
Y286242D02*
D03*
Y291242D02*
D03*
Y296242D02*
D03*
Y301242D02*
D03*
D22*
X750394Y289920D02*
D03*
Y282695D02*
D03*
Y275471D02*
D03*
X743169Y289920D02*
D03*
Y282695D02*
D03*
Y275471D02*
D03*
X735945Y289920D02*
D03*
Y282695D02*
D03*
Y275471D02*
D03*
X225606Y267580D02*
D03*
Y274805D02*
D03*
Y282029D02*
D03*
X232831Y267580D02*
D03*
Y274805D02*
D03*
Y282029D02*
D03*
X240055Y267580D02*
D03*
Y274805D02*
D03*
Y282029D02*
D03*
D23*
X605488Y262239D02*
D03*
Y254758D02*
D03*
X617299D02*
D03*
Y262239D02*
D03*
X370512Y295261D02*
D03*
Y302742D02*
D03*
X358701D02*
D03*
Y295261D02*
D03*
D24*
X603520Y266766D02*
D03*
Y250231D02*
D03*
X619268D02*
D03*
Y266766D02*
D03*
X372480Y290734D02*
D03*
Y307269D02*
D03*
X356732D02*
D03*
Y290734D02*
D03*
D25*
X671488Y340022D02*
D03*
Y335495D02*
D03*
X723488Y336258D02*
D03*
Y340786D02*
D03*
X681488Y320286D02*
D03*
Y315758D02*
D03*
X562488Y305495D02*
D03*
Y310022D02*
D03*
X567488D02*
D03*
Y305495D02*
D03*
Y321022D02*
D03*
Y316495D02*
D03*
X762488Y232022D02*
D03*
Y227495D02*
D03*
X747488Y232022D02*
D03*
Y227495D02*
D03*
X304512Y217478D02*
D03*
Y222005D02*
D03*
X252512Y221242D02*
D03*
Y216714D02*
D03*
X294512Y237214D02*
D03*
Y241742D02*
D03*
X413512Y252005D02*
D03*
Y247478D02*
D03*
X408512D02*
D03*
Y252005D02*
D03*
Y236478D02*
D03*
Y241005D02*
D03*
X213512Y325478D02*
D03*
Y330005D02*
D03*
X228512Y325478D02*
D03*
Y330005D02*
D03*
D26*
X657248Y333699D02*
D03*
Y336258D02*
D03*
Y338817D02*
D03*
X664728D02*
D03*
Y336258D02*
D03*
Y333699D02*
D03*
X318752Y223801D02*
D03*
Y221242D02*
D03*
Y218683D02*
D03*
X311272D02*
D03*
Y221242D02*
D03*
Y223801D02*
D03*
D27*
X694473Y344203D02*
D03*
X692504D02*
D03*
X735972D02*
D03*
X734004D02*
D03*
X692504Y342314D02*
D03*
X694473D02*
D03*
X734004D02*
D03*
X735972D02*
D03*
X723004Y212813D02*
D03*
X724972D02*
D03*
Y214703D02*
D03*
X723004D02*
D03*
X281527Y213297D02*
D03*
X283496D02*
D03*
X240027D02*
D03*
X241996D02*
D03*
X283496Y215187D02*
D03*
X281527D02*
D03*
X241996D02*
D03*
X240027D02*
D03*
X252996Y344687D02*
D03*
X251027D02*
D03*
Y342797D02*
D03*
X252996D02*
D03*
D28*
X737703Y233242D02*
D03*
Y237573D02*
D03*
X737483Y330263D02*
D03*
Y334594D02*
D03*
X732488Y330258D02*
D03*
Y334589D02*
D03*
X732770Y237598D02*
D03*
Y233267D02*
D03*
X767500Y237760D02*
D03*
Y233430D02*
D03*
X727837Y237573D02*
D03*
Y233242D02*
D03*
X550488Y236258D02*
D03*
Y240589D02*
D03*
X556958Y236194D02*
D03*
Y240525D02*
D03*
X238297Y324258D02*
D03*
Y319927D02*
D03*
X238517Y227237D02*
D03*
Y222906D02*
D03*
X243512Y227242D02*
D03*
Y222911D02*
D03*
X243230Y319902D02*
D03*
Y324233D02*
D03*
X208500Y319740D02*
D03*
Y324070D02*
D03*
X248163Y319927D02*
D03*
Y324258D02*
D03*
X425512Y321242D02*
D03*
Y316911D02*
D03*
X419042Y321306D02*
D03*
Y316975D02*
D03*
D29*
X659969Y269247D02*
D03*
Y305270D02*
D03*
X678000D02*
D03*
Y287278D02*
D03*
Y278262D02*
D03*
Y269247D02*
D03*
X668984D02*
D03*
X316031Y288253D02*
D03*
Y252230D02*
D03*
X298000D02*
D03*
Y270222D02*
D03*
Y279238D02*
D03*
Y288253D02*
D03*
X307016D02*
D03*
D30*
X641976Y273774D02*
D03*
Y291766D02*
D03*
X334023Y283726D02*
D03*
Y265734D02*
D03*
D31*
X646465Y305270D02*
D03*
X329535Y252230D02*
D03*
D32*
X610331Y307778D02*
D03*
Y311518D02*
D03*
Y315258D02*
D03*
X600488D02*
D03*
Y311518D02*
D03*
Y307778D02*
D03*
X365669Y249722D02*
D03*
Y245982D02*
D03*
Y242242D02*
D03*
X375512D02*
D03*
Y245982D02*
D03*
Y249722D02*
D03*
D33*
X573154Y333258D02*
D03*
X568823D02*
D03*
X402846Y224242D02*
D03*
X407177D02*
D03*
D34*
X554992Y329758D02*
D03*
X421008Y227742D02*
D03*
D35*
X548988Y323951D02*
D03*
Y335565D02*
D03*
X427012Y233549D02*
D03*
Y221935D02*
D03*
D36*
X552988Y209758D02*
D03*
Y347758D02*
D03*
X762988D02*
D03*
X423012Y347742D02*
D03*
Y209742D02*
D03*
X213012D02*
D03*
D37*
X574988Y327833D02*
D03*
Y326258D02*
D03*
X573414Y327833D02*
D03*
Y326258D02*
D03*
X401012Y229667D02*
D03*
Y231242D02*
D03*
X402587Y229667D02*
D03*
Y231242D02*
D03*
D38*
X545665Y260057D02*
D03*
X549996D02*
D03*
X554327D02*
D03*
X558658D02*
D03*
X562988D02*
D03*
X567319D02*
D03*
X571650D02*
D03*
X575980D02*
D03*
X580311D02*
D03*
Y297459D02*
D03*
X575980D02*
D03*
X571650D02*
D03*
X567319D02*
D03*
X562988D02*
D03*
X558658D02*
D03*
X554327D02*
D03*
X549996D02*
D03*
X545665D02*
D03*
X430335Y297443D02*
D03*
X426004D02*
D03*
X421673D02*
D03*
X417342D02*
D03*
X413012D02*
D03*
X408681D02*
D03*
X404350D02*
D03*
X400020D02*
D03*
X395689D02*
D03*
Y260041D02*
D03*
X400020D02*
D03*
X404350D02*
D03*
X408681D02*
D03*
X413012D02*
D03*
X417342D02*
D03*
X421673D02*
D03*
X426004D02*
D03*
X430335D02*
D03*
D39*
X462457Y318247D02*
D03*
X460488D02*
D03*
X458520D02*
D03*
X457477Y320274D02*
D03*
Y322243D02*
D03*
X458520Y324270D02*
D03*
X460488D02*
D03*
X462457D02*
D03*
X463500Y322243D02*
D03*
Y320274D02*
D03*
X513543Y239253D02*
D03*
X515512D02*
D03*
X517480D02*
D03*
X518524Y237226D02*
D03*
Y235257D02*
D03*
X517480Y233230D02*
D03*
X515512D02*
D03*
X513543D02*
D03*
X512500Y235257D02*
D03*
Y237226D02*
D03*
D40*
X492488Y320290D02*
D03*
Y322258D02*
D03*
X490598D02*
D03*
Y320290D02*
D03*
X483512Y237210D02*
D03*
Y235242D02*
D03*
X485401D02*
D03*
Y237210D02*
D03*
D41*
X605488Y300853D02*
D03*
Y287664D02*
D03*
X370512Y256647D02*
D03*
Y269836D02*
D03*
D42*
X629988Y285408D02*
D03*
Y279109D02*
D03*
X346012Y272092D02*
D03*
Y278391D02*
D03*
D43*
X761252Y333758D02*
D03*
X771725D02*
D03*
X214748Y223742D02*
D03*
X204275D02*
D03*
D44*
X574988Y310314D02*
D03*
X574004Y308758D02*
D03*
Y307203D02*
D03*
X575973D02*
D03*
Y308758D02*
D03*
X401012Y247186D02*
D03*
X401996Y248742D02*
D03*
Y250297D02*
D03*
X400028D02*
D03*
Y248742D02*
D03*
D45*
X550488Y246404D02*
D03*
Y252113D02*
D03*
X556988Y246404D02*
D03*
Y252113D02*
D03*
X425512Y311096D02*
D03*
Y305387D02*
D03*
X419012Y311096D02*
D03*
Y305387D02*
D03*
D46*
X550488Y249258D02*
D03*
X556988D02*
D03*
X425512Y308242D02*
D03*
X419012D02*
D03*
D47*
X707910Y327180D02*
X703588Y322858D01*
Y309350D01*
X701488Y323758D02*
Y323326D01*
X702288Y322526D02*
X701488Y323326D01*
X702288Y322526D02*
Y308458D01*
X721488Y306958D02*
X705980D01*
X708245Y327180D02*
X707910D01*
X705980Y306958D02*
X703588Y309350D01*
X704988Y305758D02*
X702288Y308458D01*
X699488Y317758D02*
Y307258D01*
X722267Y311793D02*
Y307737D01*
X721488Y306958D01*
X722697Y312223D02*
X722267Y311793D01*
X709323Y328258D02*
X708245Y327180D01*
X724988Y305758D02*
X704988D01*
X726967Y307737D02*
X724988Y305758D01*
X726967Y311493D02*
Y307737D01*
X727697Y312223D02*
X726967Y311493D01*
X610331Y319180D02*
X608928Y320582D01*
X611752Y317758D02*
X610331Y319180D01*
X608928Y320877D02*
X608047Y321758D01*
X607752D01*
X608928Y320877D02*
Y320582D01*
X613988Y317758D02*
X611752D01*
X649406Y333699D02*
X648965Y333258D01*
X657248Y333699D02*
X649406D01*
X648965Y333258D02*
X648488D01*
X610331Y319180D02*
Y315258D01*
X699488Y307258D02*
X695988Y303758D01*
Y296258D01*
X742408Y319758D02*
X741488D01*
X743439Y320709D02*
X743359D01*
X746288Y336458D02*
Y323558D01*
X743359Y320709D02*
X742408Y319758D01*
X746288Y323558D02*
X743439Y320709D01*
X746069Y341258D02*
Y341177D01*
X747488Y339758D02*
Y319758D01*
Y339758D02*
X746069Y341177D01*
X746288Y336458D02*
X744488Y338258D01*
X712488Y323758D02*
Y319758D01*
X754988Y306258D02*
X753509Y307737D01*
Y311411D02*
Y307737D01*
Y311411D02*
X752697Y312223D01*
X695501Y261271D02*
X693501D01*
X695988Y261758D02*
X695501Y261271D01*
X693501D02*
X687988Y255758D01*
X688988Y250258D02*
X685488Y246758D01*
X747188Y251458D02*
X685688D01*
X746988Y250258D02*
X688988D01*
X685688Y251458D02*
X685488Y251258D01*
X747467Y249779D02*
X746988Y250258D01*
X695988Y255758D02*
X691988D01*
X696488Y256258D02*
X695988Y255758D01*
X749488Y253758D02*
X747188Y251458D01*
X759988Y253758D02*
X749488D01*
X762697Y251050D02*
X759988Y253758D01*
X762697Y251050D02*
Y245294D01*
X747467Y249779D02*
Y245523D01*
X747697Y245294D02*
X747467Y245523D01*
X703760Y256258D02*
X696488D01*
Y261258D02*
X695988Y261758D01*
X703760Y261258D02*
X696488D01*
X712697Y319550D02*
Y312223D01*
Y319550D02*
X712488Y319758D01*
X268090Y230320D02*
X272412Y234642D01*
Y248150D01*
X274512Y233742D02*
Y234174D01*
X273712Y234974D02*
X274512Y234174D01*
X273712Y234974D02*
Y249042D01*
X254512Y250542D02*
X270020D01*
X267755Y230320D02*
X268090D01*
X270020Y250542D02*
X272412Y248150D01*
X271012Y251742D02*
X273712Y249042D01*
X276512Y239742D02*
Y250242D01*
X253733Y245707D02*
Y249763D01*
X254512Y250542D01*
X253303Y245277D02*
X253733Y245707D01*
X266677Y229242D02*
X267755Y230320D01*
X251012Y251742D02*
X271012D01*
X249033Y249763D02*
X251012Y251742D01*
X249033Y246007D02*
Y249763D01*
X248303Y245277D02*
X249033Y246007D01*
X365669Y238320D02*
X367072Y236918D01*
X364248Y239742D02*
X365669Y238320D01*
X367072Y236623D02*
X367953Y235742D01*
X368248D01*
X367072Y236623D02*
Y236918D01*
X362012Y239742D02*
X364248D01*
X326594Y223801D02*
X327035Y224242D01*
X318752Y223801D02*
X326594D01*
X327035Y224242D02*
X327512D01*
X365669Y238320D02*
Y242242D01*
X276512Y250242D02*
X280012Y253742D01*
Y261242D01*
X233592Y237742D02*
X234512D01*
X232561Y236791D02*
X232641D01*
X229712Y221042D02*
Y233942D01*
X232641Y236791D02*
X233592Y237742D01*
X229712Y233942D02*
X232561Y236791D01*
X229931Y216242D02*
Y216323D01*
X228512Y217742D02*
Y237742D01*
Y217742D02*
X229931Y216323D01*
X229712Y221042D02*
X231512Y219242D01*
X263512Y233742D02*
Y237742D01*
X221012Y251242D02*
X222491Y249763D01*
Y246089D02*
Y249763D01*
Y246089D02*
X223303Y245277D01*
X280499Y296229D02*
X282499D01*
X280012Y295742D02*
X280499Y296229D01*
X282499D02*
X288012Y301742D01*
X287012Y307242D02*
X290512Y310742D01*
X228812Y306042D02*
X290312D01*
X229012Y307242D02*
X287012D01*
X290312Y306042D02*
X290512Y306242D01*
X228533Y307721D02*
X229012Y307242D01*
X280012Y301742D02*
X284012D01*
X279512Y301242D02*
X280012Y301742D01*
X226512Y303742D02*
X228812Y306042D01*
X216012Y303742D02*
X226512D01*
X213303Y306450D02*
X216012Y303742D01*
X213303Y306450D02*
Y312206D01*
X228533Y307721D02*
Y311977D01*
X228303Y312206D02*
X228533Y311977D01*
X272240Y301242D02*
X279512D01*
Y296242D02*
X280012Y295742D01*
X272240Y296242D02*
X279512D01*
X263303Y237950D02*
Y245277D01*
Y237950D02*
X263512Y237742D01*
D48*
X715991Y343261D02*
X713654Y340924D01*
Y328258D01*
X718488Y319758D02*
X717952Y319223D01*
Y317965D02*
X717643Y317655D01*
X717952Y319223D02*
Y317965D01*
X717643Y317655D02*
Y312277D01*
X718596Y322624D02*
Y319866D01*
X723488Y327516D02*
X718596Y322624D01*
X723488Y336258D02*
Y330758D01*
Y327516D01*
X708988Y323758D02*
Y323758D01*
X707024Y320294D02*
X706488Y319758D01*
X708988Y323758D02*
X707024Y321794D01*
Y320294D01*
X706488Y319758D02*
Y319001D01*
X657248Y336258D02*
X653303D01*
X652803Y336758D02*
X652488D01*
X653303Y336258D02*
X652803Y336758D01*
X756929Y325758D02*
X753988D01*
X759101Y324177D02*
X758520Y324758D01*
X759101Y324177D02*
Y324146D01*
X760076Y323171D02*
X759101Y324146D01*
X760869Y322377D02*
X760779D01*
X762140Y321107D02*
X760869Y322377D01*
X760779D02*
X760076Y323080D01*
X757929Y324758D02*
X756929Y325758D01*
X760076Y323171D02*
Y323080D01*
X758520Y324758D02*
X757929D01*
X757355Y320418D02*
X754396Y323377D01*
X750891D01*
X750772Y323258D01*
X758675Y320418D02*
X757355D01*
X759256Y319837D02*
X758675Y320418D01*
X759256Y319837D02*
Y319758D01*
X665225Y333414D02*
Y324258D01*
X643709Y244026D02*
X642732Y243050D01*
X732697Y330258D02*
Y312223D01*
X737697Y330263D02*
Y312223D01*
X562649Y305537D02*
X560210D01*
X669752Y335552D02*
Y324258D01*
X460024Y316743D02*
X458668Y318098D01*
X462605Y319228D02*
X461538Y320295D01*
X462605Y319228D02*
Y318098D01*
X664728Y333699D02*
X664443Y333985D01*
X662261D02*
X660988Y335258D01*
X664443Y333985D02*
X662261D01*
X660988Y340758D02*
Y335258D01*
X648988Y339758D02*
X643988D01*
X652988Y343758D02*
X648988Y339758D01*
X657988Y343758D02*
X652988D01*
X660988Y340758D02*
X657988Y343758D01*
X671431Y335552D02*
X669752D01*
X669046Y336258D01*
X664728D01*
X664939Y333699D02*
X664728D01*
X665225Y333414D02*
X664939Y333699D01*
X670204Y338817D02*
X664728D01*
X670533Y339146D02*
X670204Y338817D01*
X670907Y339146D02*
X670533D01*
X671488Y339727D02*
X670907Y339146D01*
X671488Y340022D02*
Y339727D01*
X657158Y338908D02*
X654339D01*
X652988Y340258D01*
X657248Y338817D02*
X657158Y338908D01*
X643988Y339758D02*
X620331D01*
X619831Y340258D01*
X629988Y352758D02*
X625752D01*
X621224D02*
X615047D01*
X615628Y353635D02*
Y353339D01*
X618016Y356022D02*
X615628Y353635D01*
X672724Y356022D02*
X618016D01*
X615047Y352758D02*
X614752D01*
X615628Y353339D02*
X615047Y352758D01*
X675488Y353258D02*
X672724Y356022D01*
X748488Y350258D02*
X745621D01*
X739566Y344203D01*
X749988Y351758D02*
X748488Y350258D01*
X609988Y352522D02*
Y340258D01*
X610224Y352758D02*
X609988Y352522D01*
X600224Y340337D02*
X600146Y340258D01*
X746988Y345758D02*
X743543Y342314D01*
X735972D01*
X610224Y340495D02*
X609988Y340258D01*
X625752Y352758D02*
Y346180D01*
X619831Y340258D01*
X717988Y332758D02*
Y328758D01*
X737703Y227973D02*
X734988Y225258D01*
X713488D02*
X709488Y221258D01*
X734988Y225258D02*
X713488D01*
X707488Y222258D02*
Y208532D01*
X715369Y230139D02*
X707488Y222258D01*
X724734Y230139D02*
X715369D01*
X709488Y221258D02*
Y213758D01*
X705988Y233258D02*
Y224258D01*
X710488Y237758D02*
X705988Y233258D01*
X718988Y205758D02*
X717715D01*
X716078Y207169D02*
X709488Y213758D01*
X717715Y205758D02*
X716304Y207169D01*
X716078D01*
X708988Y207032D02*
Y205758D01*
Y207032D02*
X707488Y208532D01*
X732770Y233267D02*
Y228839D01*
X752597Y251150D02*
Y245394D01*
X756525Y250407D02*
X755988Y250944D01*
X752697Y245294D02*
X752597Y245394D01*
Y251150D02*
X752488Y251258D01*
X755988D02*
Y250944D01*
X655988Y217581D02*
X655811Y217758D01*
X655988Y217581D02*
Y205758D01*
X726862Y232267D02*
X724734Y230139D01*
X727059Y232267D02*
X726862D01*
X727837Y233045D02*
X727059Y232267D01*
X707697Y245294D02*
X707490Y245087D01*
Y240260D02*
X702988Y235758D01*
Y212258D01*
X707490Y245087D02*
Y240260D01*
X722907Y342839D02*
X719988Y345758D01*
X723488Y340786D02*
X722907Y341367D01*
Y342839D02*
Y341367D01*
X723488Y336258D02*
X723453Y336223D01*
X717988D01*
X715988Y348258D02*
X708335Y355911D01*
X715991Y344255D02*
Y343261D01*
Y344255D02*
X715988Y344258D01*
Y348258D02*
Y344258D01*
X727620Y330627D02*
Y328390D01*
X727752Y330758D02*
X727620Y330627D01*
Y328390D02*
X727488Y328258D01*
X708335Y355911D02*
X697641D01*
X693488Y351758D01*
X556958Y221728D02*
X553488Y218258D01*
X556958Y236194D02*
Y221728D01*
X553488Y218258D02*
X546988D01*
X550488Y236258D02*
Y221258D01*
X722490Y215217D02*
X720649D01*
X720426Y215439D01*
X723004Y214703D02*
X722490Y215217D01*
X718988Y233258D02*
X716939Y235308D01*
Y237308D02*
X716488Y237758D01*
X716939Y237308D02*
Y235308D01*
X722488Y237758D02*
Y233258D01*
X762721Y319758D02*
X762140Y320339D01*
Y321107D02*
Y320339D01*
X727207Y214758D02*
X727152Y214703D01*
X724972D01*
X685488Y246758D02*
X681323D01*
X681244Y246680D01*
X756525Y250407D02*
Y246465D01*
X757697Y245294D02*
X756525Y246465D01*
X702988Y212258D02*
X701488Y210758D01*
X695988D01*
X692488Y207258D02*
Y203758D01*
X690336Y201606D02*
X650141D01*
X692488Y203758D02*
X690336Y201606D01*
X695988Y210758D02*
X692488Y207258D01*
X650141Y201606D02*
X645988Y205758D01*
X737703Y233242D02*
Y227973D01*
X733488Y210758D02*
X728988Y206258D01*
Y205758D01*
X767500Y215270D02*
X762988Y210758D01*
X733488D01*
X767500Y233430D02*
Y215270D01*
X727837Y233242D02*
Y233045D01*
X762488Y237758D02*
Y232022D01*
X721725Y201495D02*
X703252D01*
X726252D02*
X724835Y202911D01*
X744725Y201495D02*
X726252D01*
X723035Y202806D02*
X721725Y201495D01*
X703252D02*
X702901Y201846D01*
X698988Y205758D01*
X724835Y212677D02*
Y207478D01*
X724972Y212813D02*
X724835Y212677D01*
X723035Y212782D02*
Y207584D01*
X748988Y205758D02*
X744725Y201495D01*
X699488Y345758D02*
X696043Y342314D01*
X694473D01*
X705488Y345758D02*
X699488D01*
X699732Y349463D02*
X694473Y344203D01*
X703488Y351758D02*
X701193Y349463D01*
X699732D01*
X739566Y344203D02*
X735972D01*
X741324Y334594D02*
X737483D01*
X741488Y334758D02*
X741324Y334594D01*
X728658Y334589D02*
X728488Y334758D01*
X732488Y334589D02*
X728658D01*
X681488Y315758D02*
X676721D01*
X673256D02*
X664752D01*
X678000Y314400D02*
X676721Y315680D01*
Y315758D02*
Y315680D01*
X678000Y314400D02*
Y305270D01*
X640221Y254758D02*
Y254680D01*
X640869Y254031D02*
Y250272D01*
X636756Y254758D02*
X636175Y254177D01*
Y252312D01*
X640869Y254031D02*
X640221Y254680D01*
X634397Y244850D02*
X632488Y246758D01*
X636461Y244770D02*
X636381Y244850D01*
X634397D01*
X655988Y247491D02*
X651488D01*
X642543Y242802D02*
X642484D01*
X642732Y242991D02*
X642543Y242802D01*
X646988Y244026D02*
X643709D01*
X643295Y247491D02*
X642543Y246739D01*
X642484D01*
X651488Y247491D02*
X646988D01*
X643295D01*
X660488D02*
X655988D01*
Y244026D02*
X651488D01*
X661248Y243345D02*
X660567Y244026D01*
X660488D01*
X651488D02*
X646988D01*
X660488D02*
X655988D01*
X686488Y237991D02*
X686410D01*
X685595Y238806D01*
X642732Y243050D02*
Y242991D01*
X642543Y244770D02*
X642484D01*
X643709Y244026D02*
X643288D01*
X642543Y244770D01*
X636461Y249359D02*
X636107Y249713D01*
X640869Y250272D02*
X640457Y249859D01*
Y247782D01*
X636461Y249359D02*
Y246739D01*
X636175Y252312D02*
X636107Y252245D01*
Y249713D01*
X685595Y238806D02*
X681244D01*
X734004Y344203D02*
X727543D01*
X719988Y351758D01*
X686192Y350328D02*
X684762Y351758D01*
X686379Y350328D02*
X686192D01*
X692504Y344203D02*
X686379Y350328D01*
X684762Y351758D02*
X683488D01*
X550488Y246404D02*
Y240589D01*
X556988Y240555D02*
X556958Y240525D01*
X556988Y246404D02*
Y240555D01*
X559436Y259280D02*
Y256311D01*
Y259280D02*
X558658Y260057D01*
X562988Y252758D02*
X559436Y256311D01*
X550479Y252113D02*
X549996Y252595D01*
Y260057D02*
Y252595D01*
X550488Y252113D02*
X550479D01*
X556013Y253087D02*
X554327Y254774D01*
X556496Y252113D02*
X556013Y252595D01*
X556988Y252113D02*
X556496D01*
X554327Y260057D02*
Y254774D01*
X556013Y253087D02*
Y252595D01*
X463500Y320274D02*
X463480Y320295D01*
X463648Y320126D02*
X463500Y320274D01*
X461538Y320295D02*
X461366D01*
X463480D02*
X461538D01*
X459418Y322243D02*
X457477D01*
X459418D02*
X458599Y323061D01*
X461366Y320295D02*
X459418Y322243D01*
X458599Y324191D02*
Y323061D01*
Y324191D02*
X458520Y324270D01*
X472988Y322991D02*
X472909D01*
X472328Y323572D01*
Y323651D02*
Y323572D01*
Y323651D02*
X470721Y325258D01*
X462546Y324418D02*
X462457Y324329D01*
Y324270D01*
X462605Y324418D02*
X462546D01*
X463445Y325258D02*
X462605Y324418D01*
X470721Y325258D02*
X463445D01*
X460024Y317723D02*
Y316743D01*
X458609Y318098D02*
X458520Y318187D01*
X460024Y316743D02*
Y313258D01*
X458520Y318247D02*
Y318187D01*
X458668Y318098D02*
X458609D01*
X460488Y318187D02*
X460024Y317723D01*
X460488Y318247D02*
Y318187D01*
X472988Y319526D02*
X469756D01*
X463488Y317215D02*
Y313258D01*
Y317215D02*
X462605Y318098D01*
X464148Y313918D02*
X464069D01*
X469756Y319526D02*
X464148Y313918D01*
X478488Y322991D02*
X472988D01*
X483988D02*
X478488D01*
X489866D02*
X483988D01*
X490598Y322258D02*
X489866Y322991D01*
X478488Y319526D02*
X472988D01*
X483988D02*
X478488D01*
X489835D02*
X483988D01*
X490598Y320290D02*
X489835Y319526D01*
X460488Y328258D02*
Y324270D01*
X501356Y325626D02*
X498988Y323258D01*
X503823Y326258D02*
X503191Y325626D01*
X501356D01*
X463516Y322258D02*
X463500Y322243D01*
X467488Y322258D02*
X463516D01*
X503823Y316258D02*
X503045Y317036D01*
X501710D01*
X498988Y319758D01*
X516488Y336258D02*
X506488D01*
X492488Y322258D01*
X516488Y306258D02*
X506520D01*
X492488Y320290D01*
X516488Y326258D02*
X508154D01*
X516488Y316258D02*
X508154D01*
X558988Y311258D02*
Y306758D01*
X560210Y305537D02*
X558988Y306758D01*
X562988Y305197D02*
X562649Y305537D01*
X562488Y314758D02*
X558988Y311258D01*
X562488Y317026D02*
Y314758D01*
X562988Y305197D02*
Y297459D01*
X567488Y310022D02*
X562488D01*
X567488Y316495D02*
Y310022D01*
Y297628D02*
X567319Y297459D01*
X567488Y305495D02*
Y297628D01*
X712697Y245294D02*
Y239967D01*
X710488Y237758D01*
X716488Y238516D02*
Y237758D01*
X717697Y245294D02*
Y239725D01*
X716488Y238516D01*
X722697Y237967D02*
X722488Y237758D01*
X722697Y245294D02*
Y237967D01*
X727837Y237573D02*
X727697Y237713D01*
Y245294D02*
Y237713D01*
X732770Y237598D02*
X732697Y237671D01*
Y245294D02*
Y237671D01*
X737697Y245294D02*
Y237579D01*
X737703Y237573D02*
X737697Y237579D01*
X747488Y237758D02*
Y232022D01*
X747697Y237967D02*
X747488Y237758D01*
X747697Y245294D02*
Y237967D01*
X762697Y245294D02*
Y237967D01*
X762488Y237758D01*
X767697Y237957D02*
X767500Y237760D01*
X767697Y245294D02*
Y237957D01*
X703760Y296258D02*
X695988D01*
X707697Y317792D02*
X706488Y319001D01*
X707697Y317792D02*
Y312223D01*
X727697Y318292D02*
X726988Y319001D01*
X727697Y318292D02*
Y312223D01*
X726988Y319758D02*
Y319001D01*
X742697Y317792D02*
X741488Y319001D01*
X742697Y317792D02*
Y312223D01*
X741488Y319758D02*
Y319001D01*
X747697Y319550D02*
X747488Y319758D01*
X747697Y319550D02*
Y312223D01*
X753488Y319001D02*
X752697Y318209D01*
Y312223D01*
X753488Y319758D02*
Y319001D01*
X762721Y319758D02*
X762697Y319735D01*
Y312223D01*
X260009Y214239D02*
X262346Y216576D01*
Y229242D01*
X257512Y237742D02*
X258048Y238277D01*
Y239535D02*
X258357Y239845D01*
X258048Y238277D02*
Y239535D01*
X258357Y239845D02*
Y245223D01*
X257404Y234876D02*
Y237633D01*
X252512Y229984D02*
X257404Y234876D01*
X252512Y221242D02*
Y226742D01*
Y229984D01*
X267012Y233742D02*
Y233742D01*
X268976Y237206D02*
X269512Y237742D01*
X267012Y233742D02*
X268976Y235706D01*
Y237206D01*
X269512Y237742D02*
Y238499D01*
X318752Y221242D02*
X322697D01*
X323197Y220742D02*
X323512D01*
X322697Y221242D02*
X323197Y220742D01*
X219071Y231742D02*
X222012D01*
X216899Y233323D02*
X217480Y232742D01*
X216899Y233323D02*
Y233354D01*
X215924Y234329D02*
X216899Y233354D01*
X215131Y235123D02*
X215221D01*
X213861Y236393D02*
X215131Y235123D01*
X215221D02*
X215924Y234420D01*
X218071Y232742D02*
X219071Y231742D01*
X215924Y234329D02*
Y234420D01*
X217480Y232742D02*
X218071D01*
X218645Y237082D02*
X221604Y234123D01*
X225109D01*
X225228Y234242D01*
X217325Y237082D02*
X218645D01*
X216744Y237663D02*
X217325Y237082D01*
X216744Y237663D02*
Y237742D01*
X310775Y224086D02*
Y233242D01*
X332291Y313474D02*
X333268Y314450D01*
X243303Y227242D02*
Y245277D01*
X238303Y227237D02*
Y245277D01*
X413351Y251963D02*
X415790D01*
X306248Y221948D02*
Y233242D01*
X515976Y240757D02*
X517332Y239402D01*
X513395Y238272D02*
X514462Y237205D01*
X513395Y238272D02*
Y239402D01*
X311272Y223801D02*
X311557Y223515D01*
X313738D02*
X315012Y222242D01*
X311557Y223515D02*
X313738D01*
X315012Y216742D02*
Y222242D01*
X327012Y217742D02*
X332012D01*
X323012Y213742D02*
X327012Y217742D01*
X318012Y213742D02*
X323012D01*
X315012Y216742D02*
X318012Y213742D01*
X304569Y221948D02*
X306248D01*
X306954Y221242D01*
X311272D01*
X311061Y223801D02*
X311272D01*
X310775Y224086D02*
X311061Y223801D01*
X305796Y218683D02*
X311272D01*
X305467Y218354D02*
X305796Y218683D01*
X305093Y218354D02*
X305467D01*
X304512Y217773D02*
X305093Y218354D01*
X304512Y217478D02*
Y217773D01*
X318842Y218592D02*
X321661D01*
X323012Y217242D01*
X318752Y218683D02*
X318842Y218592D01*
X332012Y217742D02*
X355669D01*
X356169Y217242D01*
X346012Y204742D02*
X350248D01*
X354776D02*
X360953D01*
X360372Y203865D02*
Y204161D01*
X357984Y201478D02*
X360372Y203865D01*
X303275Y201478D02*
X357984D01*
X360953Y204742D02*
X361248D01*
X360372Y204161D02*
X360953Y204742D01*
X300512Y204242D02*
X303275Y201478D01*
X227512Y207242D02*
X230379D01*
X236434Y213297D01*
X226012Y205742D02*
X227512Y207242D01*
X366012Y204978D02*
Y217242D01*
X365775Y204742D02*
X366012Y204978D01*
X375776Y217163D02*
X375854Y217242D01*
X229012Y211742D02*
X232457Y215187D01*
X240027D01*
X365775Y217005D02*
X366012Y217242D01*
X350248Y204742D02*
Y211320D01*
X356169Y217242D01*
X258012Y224742D02*
Y228742D01*
X238297Y329527D02*
X241012Y332242D01*
X262512D02*
X266512Y336242D01*
X241012Y332242D02*
X262512D01*
X268512Y335242D02*
Y348968D01*
X260631Y327361D02*
X268512Y335242D01*
X251266Y327361D02*
X260631D01*
X266512Y336242D02*
Y343742D01*
X270012Y324242D02*
Y333242D01*
X265512Y319742D02*
X270012Y324242D01*
X257012Y351742D02*
X258285D01*
X259922Y350331D02*
X266512Y343742D01*
X258285Y351742D02*
X259696Y350331D01*
X259922D01*
X267012Y350468D02*
Y351742D01*
Y350468D02*
X268512Y348968D01*
X243230Y324233D02*
Y328661D01*
X223403Y306350D02*
Y312106D01*
X219475Y307093D02*
X220012Y306556D01*
X223303Y312206D02*
X223403Y312106D01*
Y306350D02*
X223512Y306242D01*
X220012D02*
Y306556D01*
X320012Y339919D02*
X320189Y339742D01*
X320012Y339919D02*
Y351742D01*
X249138Y325233D02*
X251266Y327361D01*
X248941Y325233D02*
X249138D01*
X248163Y324455D02*
X248941Y325233D01*
X268303Y312206D02*
X268510Y312414D01*
Y317240D02*
X273012Y321742D01*
Y345242D01*
X268510Y312414D02*
Y317240D01*
X253093Y214661D02*
X256012Y211742D01*
X252512Y216714D02*
X253093Y216133D01*
Y214661D02*
Y216133D01*
X252512Y221242D02*
X252547Y221277D01*
X258012D01*
X260012Y209242D02*
X267665Y201589D01*
X260009Y213245D02*
Y214239D01*
Y213245D02*
X260012Y213242D01*
Y209242D02*
Y213242D01*
X248380Y226873D02*
Y229110D01*
X248248Y226742D02*
X248380Y226873D01*
Y229110D02*
X248512Y229242D01*
X267665Y201589D02*
X278359D01*
X282512Y205742D01*
X419042Y335772D02*
X422512Y339242D01*
X419042Y321306D02*
Y335772D01*
X422512Y339242D02*
X429012D01*
X425512Y321242D02*
Y336242D01*
X253510Y342283D02*
X255351D01*
X255574Y342061D01*
X252996Y342797D02*
X253510Y342283D01*
X257012Y324242D02*
X259061Y322192D01*
Y320192D02*
X259512Y319742D01*
X259061Y320192D02*
Y322192D01*
X253512Y319742D02*
Y324242D01*
X213279Y237742D02*
X213861Y237161D01*
Y236393D02*
Y237161D01*
X248793Y342742D02*
X248848Y342797D01*
X251027D01*
X290512Y310742D02*
X294677D01*
X294756Y310820D01*
X219475Y307093D02*
Y311035D01*
X218303Y312206D02*
X219475Y311035D01*
X273012Y345242D02*
X274512Y346742D01*
X280012D01*
X283512Y350242D02*
Y353742D01*
X285665Y355894D02*
X325859D01*
X283512Y353742D02*
X285665Y355894D01*
X280012Y346742D02*
X283512Y350242D01*
X325859Y355894D02*
X330012Y351742D01*
X238297Y324258D02*
Y329527D01*
X242512Y346742D02*
X247012Y351242D01*
Y351742D01*
X208500Y342230D02*
X213012Y346742D01*
X242512D01*
X208500Y324070D02*
Y342230D01*
X248163Y324258D02*
Y324455D01*
X213512Y319742D02*
Y325478D01*
X254275Y356005D02*
X272748D01*
X249748D02*
X251165Y354589D01*
X231276Y356005D02*
X249748D01*
X252964Y354694D02*
X254275Y356005D01*
X272748D02*
X273099Y355654D01*
X277012Y351742D01*
X251165Y344824D02*
Y350022D01*
X251027Y344687D02*
X251165Y344824D01*
X252964Y344718D02*
Y349916D01*
X227012Y351742D02*
X231276Y356005D01*
X276512Y211742D02*
X279957Y215187D01*
X281527D01*
X270512Y211742D02*
X276512D01*
X276268Y208037D02*
X281527Y213297D01*
X272512Y205742D02*
X274807Y208037D01*
X276268D01*
X236434Y213297D02*
X240027D01*
X234676Y222906D02*
X238517D01*
X234512Y222742D02*
X234676Y222906D01*
X247342Y222911D02*
X247512Y222742D01*
X243512Y222911D02*
X247342D01*
X294512Y241742D02*
X299279D01*
X302744D02*
X311248D01*
X298000Y243100D02*
X299279Y241820D01*
Y241742D02*
Y241820D01*
X298000Y243100D02*
Y252230D01*
X335779Y302742D02*
Y302820D01*
X335131Y303469D02*
Y307228D01*
X339244Y302742D02*
X339825Y303323D01*
Y305188D01*
X335131Y303469D02*
X335779Y302820D01*
X341603Y312650D02*
X343512Y310742D01*
X339539Y312730D02*
X339619Y312650D01*
X341603D01*
X320012Y310009D02*
X324512D01*
X333457Y314698D02*
X333516D01*
X333268Y314509D02*
X333457Y314698D01*
X329012Y313474D02*
X332291D01*
X332705Y310009D02*
X333457Y310761D01*
X333516D01*
X324512Y310009D02*
X329012D01*
X332705D01*
X315512D02*
X320012D01*
Y313474D02*
X324512D01*
X314752Y314155D02*
X315433Y313474D01*
X315512D01*
X324512D02*
X329012D01*
X315512D02*
X320012D01*
X289512Y319509D02*
X289591D01*
X290405Y318694D01*
X333268Y314450D02*
Y314509D01*
X333457Y312730D02*
X333516D01*
X332291Y313474D02*
X332713D01*
X333457Y312730D01*
X339539Y308141D02*
X339893Y307787D01*
X335131Y307228D02*
X335543Y307641D01*
Y309718D01*
X339539Y308141D02*
Y310761D01*
X339825Y305188D02*
X339893Y305255D01*
Y307787D01*
X290405Y318694D02*
X294756D01*
X241996Y213297D02*
X248457D01*
X256012Y205742D01*
X289808Y207172D02*
X291238Y205742D01*
X289621Y207172D02*
X289808D01*
X283496Y213297D02*
X289621Y207172D01*
X291238Y205742D02*
X292512D01*
X425512Y311096D02*
Y316911D01*
X419012Y316945D02*
X419042Y316975D01*
X419012Y311096D02*
Y316945D01*
X416565Y298220D02*
Y301189D01*
Y298220D02*
X417342Y297443D01*
X413012Y304742D02*
X416565Y301189D01*
X425521Y305387D02*
X426004Y304905D01*
Y297443D02*
Y304905D01*
X425512Y305387D02*
X425521D01*
X419986Y304413D02*
X421673Y302726D01*
X419504Y305387D02*
X419986Y304905D01*
X419012Y305387D02*
X419504D01*
X421673Y297443D02*
Y302726D01*
X419986Y304413D02*
Y304905D01*
X512500Y237226D02*
X512520Y237205D01*
X512352Y237374D02*
X512500Y237226D01*
X514462Y237205D02*
X514634D01*
X512520D02*
X514462D01*
X516582Y235257D02*
X518524D01*
X516582D02*
X517401Y234439D01*
X514634Y237205D02*
X516582Y235257D01*
X517401Y233309D02*
Y234439D01*
Y233309D02*
X517480Y233230D01*
X503012Y234509D02*
X503090D01*
X503672Y233928D01*
Y233850D02*
Y233928D01*
Y233850D02*
X505279Y232242D01*
X513454Y233082D02*
X513543Y233171D01*
Y233230D01*
X513395Y233082D02*
X513454D01*
X512555Y232242D02*
X513395Y233082D01*
X505279Y232242D02*
X512555D01*
X515976Y239777D02*
Y240757D01*
X517391Y239402D02*
X517480Y239313D01*
X515976Y240757D02*
Y244242D01*
X517480Y239253D02*
Y239313D01*
X517332Y239402D02*
X517391D01*
X515512Y239313D02*
X515976Y239777D01*
X515512Y239253D02*
Y239313D01*
X503012Y237974D02*
X506244D01*
X512512Y240285D02*
Y244242D01*
Y240285D02*
X513395Y239402D01*
X511852Y243582D02*
X511931D01*
X506244Y237974D02*
X511852Y243582D01*
X497512Y234509D02*
X503012D01*
X492012D02*
X497512D01*
X486134D02*
X492012D01*
X485401Y235242D02*
X486134Y234509D01*
X497512Y237974D02*
X503012D01*
X492012D02*
X497512D01*
X486165D02*
X492012D01*
X485401Y237210D02*
X486165Y237974D01*
X515512Y229242D02*
Y233230D01*
X474644Y231873D02*
X477012Y234242D01*
X472177Y231242D02*
X472809Y231873D01*
X474644D01*
X512484Y235242D02*
X512500Y235257D01*
X508512Y235242D02*
X512484D01*
X472177Y241242D02*
X472955Y240464D01*
X474290D01*
X477012Y237742D01*
X459512Y221242D02*
X469512D01*
X483512Y235242D01*
X459512Y251242D02*
X469480D01*
X483512Y237210D01*
X459512Y231242D02*
X467846D01*
X459512Y241242D02*
X467846D01*
X417012Y246242D02*
Y250742D01*
X415790Y251963D02*
X417012Y250742D01*
X413012Y252303D02*
X413351Y251963D01*
X413512Y242742D02*
X417012Y246242D01*
X413512Y240474D02*
Y242742D01*
X413012Y252303D02*
Y260041D01*
X408512Y247478D02*
X413512D01*
X408512Y241005D02*
Y247478D01*
Y259872D02*
X408681Y260041D01*
X408512Y252005D02*
Y259872D01*
X263303Y312206D02*
Y317533D01*
X265512Y319742D01*
X259512Y318984D02*
Y319742D01*
X258303Y312206D02*
Y317775D01*
X259512Y318984D01*
X253303Y319533D02*
X253512Y319742D01*
X253303Y312206D02*
Y319533D01*
X248163Y319927D02*
X248303Y319787D01*
Y312206D02*
Y319787D01*
X243230Y319902D02*
X243303Y319829D01*
Y312206D02*
Y319829D01*
X238303Y312206D02*
Y319921D01*
X238297Y319927D02*
X238303Y319921D01*
X228512Y319742D02*
Y325478D01*
X228303Y319533D02*
X228512Y319742D01*
X228303Y312206D02*
Y319533D01*
X213303Y312206D02*
Y319533D01*
X213512Y319742D01*
X208303Y319543D02*
X208500Y319740D01*
X208303Y312206D02*
Y319543D01*
X272240Y261242D02*
X280012D01*
X268303Y239708D02*
X269512Y238499D01*
X268303Y239708D02*
Y245277D01*
X248303Y239208D02*
X249012Y238499D01*
X248303Y239208D02*
Y245277D01*
X249012Y237742D02*
Y238499D01*
X233303Y239708D02*
X234512Y238499D01*
X233303Y239708D02*
Y245277D01*
X234512Y237742D02*
Y238499D01*
X228303Y237950D02*
X228512Y237742D01*
X228303Y237950D02*
Y245277D01*
X222512Y238499D02*
X223303Y239291D01*
Y245277D01*
X222512Y237742D02*
Y238499D01*
X213279Y237742D02*
X213303Y237765D01*
Y245277D01*
D49*
X571238Y326258D02*
X570238Y325258D01*
X569988D01*
X573414Y326258D02*
X571238D01*
X573414Y329258D02*
Y327833D01*
X574988Y326258D02*
Y324758D01*
X564520Y317026D02*
X562488D01*
X564988Y317495D02*
X564520Y317026D01*
X564988Y325758D02*
Y317495D01*
X566988Y327758D02*
X564988Y325758D01*
X578488Y327758D02*
X578413Y327833D01*
X574988D01*
X588188Y209006D02*
X587270D01*
X587729D01*
Y206251D01*
X588188Y206710D01*
Y211477D02*
Y214232D01*
X586811D01*
X586352Y213773D01*
Y213314D01*
X586811Y212855D01*
X588188D01*
X586811D01*
X586352Y212396D01*
Y211936D01*
X586811Y211477D01*
X588188D01*
X583597D02*
X585433D01*
Y214232D01*
X583597D01*
X585433Y212855D02*
X584515D01*
X582678Y214232D02*
Y212396D01*
X581760Y211477D01*
X580842Y212396D01*
Y214232D01*
Y212855D01*
X582678D01*
X579923Y214232D02*
Y211477D01*
X578546D01*
X578087Y211936D01*
Y212855D01*
X578546Y213314D01*
X579923D01*
X579005D02*
X578087Y214232D01*
X575791D02*
Y211477D01*
X577168Y212855D01*
X575331D01*
X569822Y214232D02*
X571658D01*
X569822Y212396D01*
Y211936D01*
X570281Y211477D01*
X571199D01*
X571658Y211936D01*
X568903D02*
X568444Y211477D01*
X567526D01*
X567066Y211936D01*
Y213773D01*
X567526Y214232D01*
X568444D01*
X568903Y213773D01*
Y211936D01*
X564311Y214232D02*
X566148D01*
X564311Y212396D01*
Y211936D01*
X564771Y211477D01*
X565689D01*
X566148Y211936D01*
X561556Y214232D02*
X563393D01*
X561556Y212396D01*
Y211936D01*
X562016Y211477D01*
X562934D01*
X563393Y211936D01*
X587270Y219458D02*
X588188Y218540D01*
Y217622D01*
X587270Y216703D01*
X584056Y217162D02*
X584515Y216703D01*
X585433D01*
X585892Y217162D01*
Y218999D01*
X585433Y219458D01*
X584515D01*
X584056Y218999D01*
X583137Y219458D02*
X582219Y218540D01*
Y217622D01*
X583137Y216703D01*
X578087Y218999D02*
X577627Y219458D01*
X576709D01*
X576250Y218999D01*
Y217162D01*
X576709Y216703D01*
X577627D01*
X578087Y217162D01*
Y217622D01*
X577627Y218081D01*
X576250D01*
X575331Y216703D02*
Y218540D01*
X574413Y219458D01*
X573495Y218540D01*
Y216703D01*
X572577Y219458D02*
X571658D01*
X572117D01*
Y216703D01*
X572577Y217162D01*
X570281Y216703D02*
Y219458D01*
X568444D01*
X567526Y216703D02*
Y219458D01*
X566607Y218540D01*
X565689Y219458D01*
Y216703D01*
X404762Y231242D02*
X405762Y232242D01*
X406012D01*
X402587Y231242D02*
X404762D01*
X402587Y228242D02*
Y229667D01*
X401012Y231242D02*
Y232742D01*
X411480Y240474D02*
X413512D01*
X411012Y240005D02*
X411480Y240474D01*
X411012Y231742D02*
Y240005D01*
X409012Y229742D02*
X411012Y231742D01*
X397512Y229742D02*
X397586Y229667D01*
X401012D01*
X387812Y348494D02*
X388730D01*
X388271D01*
Y351249D01*
X387812Y350790D01*
Y346023D02*
Y343268D01*
X389189D01*
X389648Y343727D01*
Y344186D01*
X389189Y344645D01*
X387812D01*
X389189D01*
X389648Y345104D01*
Y345564D01*
X389189Y346023D01*
X387812D01*
X392403D02*
X390567D01*
Y343268D01*
X392403D01*
X390567Y344645D02*
X391485D01*
X393322Y343268D02*
Y345104D01*
X394240Y346023D01*
X395158Y345104D01*
Y343268D01*
Y344645D01*
X393322D01*
X396077Y343268D02*
Y346023D01*
X397454D01*
X397914Y345564D01*
Y344645D01*
X397454Y344186D01*
X396077D01*
X396995D02*
X397914Y343268D01*
X400209D02*
Y346023D01*
X398832Y344645D01*
X400668D01*
X406179Y343268D02*
X404342D01*
X406179Y345104D01*
Y345564D01*
X405719Y346023D01*
X404801D01*
X404342Y345564D01*
X407097D02*
X407556Y346023D01*
X408474D01*
X408934Y345564D01*
Y343727D01*
X408474Y343268D01*
X407556D01*
X407097Y343727D01*
Y345564D01*
X411689Y343268D02*
X409852D01*
X411689Y345104D01*
Y345564D01*
X411229Y346023D01*
X410311D01*
X409852Y345564D01*
X414444Y343268D02*
X412607D01*
X414444Y345104D01*
Y345564D01*
X413984Y346023D01*
X413066D01*
X412607Y345564D01*
X388730Y338042D02*
X387812Y338960D01*
Y339878D01*
X388730Y340797D01*
X391944Y340337D02*
X391485Y340797D01*
X390567D01*
X390108Y340337D01*
Y338501D01*
X390567Y338042D01*
X391485D01*
X391944Y338501D01*
X392863Y338042D02*
X393781Y338960D01*
Y339878D01*
X392863Y340797D01*
X397914Y338501D02*
X398373Y338042D01*
X399291D01*
X399750Y338501D01*
Y340337D01*
X399291Y340797D01*
X398373D01*
X397914Y340337D01*
Y339878D01*
X398373Y339419D01*
X399750D01*
X400668Y340797D02*
Y338960D01*
X401587Y338042D01*
X402505Y338960D01*
Y340797D01*
X403424Y338042D02*
X404342D01*
X403883D01*
Y340797D01*
X403424Y340337D01*
X405719Y340797D02*
Y338042D01*
X407556D01*
X408474Y340797D02*
Y338042D01*
X409393Y338960D01*
X410311Y338042D01*
Y340797D01*
D50*
X567520Y320991D02*
X567488Y321022D01*
X574988Y320991D02*
X567520D01*
X555225Y329526D02*
X554992Y329758D01*
X562488Y329526D02*
X555225D01*
X562756Y333258D02*
X562488Y332991D01*
X568823Y333258D02*
X562756D01*
X573414Y332998D02*
Y329258D01*
Y332998D02*
X573154Y333258D01*
X574988Y324758D02*
Y320991D01*
Y317526D02*
Y310314D01*
X575988Y307124D02*
Y306258D01*
Y307124D02*
X575973Y307140D01*
X575988Y306258D02*
X575980Y306251D01*
Y297459D01*
X408480Y236509D02*
X408512Y236478D01*
X401012Y236509D02*
X408480D01*
X420776Y227974D02*
X421008Y227742D01*
X413512Y227974D02*
X420776D01*
X413244Y224242D02*
X413512Y224509D01*
X407177Y224242D02*
X413244D01*
X402587Y224501D02*
Y228242D01*
Y224501D02*
X402846Y224242D01*
X401012Y232742D02*
Y236509D01*
Y239974D02*
Y247186D01*
X400012Y250376D02*
Y251242D01*
Y250376D02*
X400028Y250360D01*
X400012Y251242D02*
X400020Y251250D01*
Y260041D01*
D51*
X405512Y314742D02*
D03*
X409842D02*
D03*
X467846Y241242D02*
D03*
X472177D02*
D03*
X467846Y231242D02*
D03*
X472177D02*
D03*
D52*
X294756Y320663D02*
D03*
Y318694D02*
D03*
Y316726D02*
D03*
Y314757D02*
D03*
Y312789D02*
D03*
Y310820D02*
D03*
D53*
X619831Y340258D02*
D03*
X600146D02*
D03*
X609988D02*
D03*
X356169Y217242D02*
D03*
X375854D02*
D03*
X366012D02*
D03*
D54*
X698988Y205758D02*
D03*
X708988D02*
D03*
X718988D02*
D03*
X728988D02*
D03*
X738988D02*
D03*
X635988D02*
D03*
X645988D02*
D03*
X655988D02*
D03*
X665988D02*
D03*
X675988D02*
D03*
X739988Y351758D02*
D03*
X729988D02*
D03*
X719988D02*
D03*
X683488D02*
D03*
X693488D02*
D03*
X516488Y306258D02*
D03*
Y316258D02*
D03*
Y326258D02*
D03*
X583988Y351758D02*
D03*
X277012Y351742D02*
D03*
X267012D02*
D03*
X257012D02*
D03*
X247012D02*
D03*
X237012D02*
D03*
X340012D02*
D03*
X330012D02*
D03*
X320012D02*
D03*
X310012D02*
D03*
X300012D02*
D03*
X236012Y205742D02*
D03*
X246012D02*
D03*
X256012D02*
D03*
X292512D02*
D03*
X282512D02*
D03*
X459512Y251242D02*
D03*
Y241242D02*
D03*
Y231242D02*
D03*
X392012Y205742D02*
D03*
D55*
X748988Y205758D02*
D03*
X685988D02*
D03*
X749988Y351758D02*
D03*
X703488D02*
D03*
X227012Y351742D02*
D03*
X290012D02*
D03*
X226012Y205742D02*
D03*
X272512D02*
D03*
D56*
X750394Y286308D02*
D03*
Y279083D02*
D03*
X746782Y289920D02*
D03*
Y282695D02*
D03*
Y275471D02*
D03*
X743169Y286308D02*
D03*
Y279083D02*
D03*
X739557Y289920D02*
D03*
Y282695D02*
D03*
Y275471D02*
D03*
X735945Y286308D02*
D03*
Y279083D02*
D03*
X699488Y317758D02*
D03*
X701488Y323758D02*
D03*
X708488Y333258D02*
D03*
X708988Y323758D02*
D03*
X652488Y336758D02*
D03*
X635488Y320258D02*
D03*
X753988Y325758D02*
D03*
X750772Y323258D02*
D03*
X636488Y262258D02*
D03*
Y259258D02*
D03*
X598988Y246758D02*
D03*
Y242258D02*
D03*
X561988Y247258D02*
D03*
Y232258D02*
D03*
X566988Y234758D02*
D03*
Y229758D02*
D03*
Y224758D02*
D03*
X561988Y222258D02*
D03*
Y227258D02*
D03*
X576988Y224758D02*
D03*
X571988Y222258D02*
D03*
Y227258D02*
D03*
X581988D02*
D03*
Y222258D02*
D03*
X586988Y224758D02*
D03*
X596988D02*
D03*
Y219758D02*
D03*
Y214758D02*
D03*
X591988Y227258D02*
D03*
Y222258D02*
D03*
Y217258D02*
D03*
Y212258D02*
D03*
Y207258D02*
D03*
X596988Y209758D02*
D03*
X601988Y207258D02*
D03*
X606988Y209758D02*
D03*
X611988Y207258D02*
D03*
X616988Y209758D02*
D03*
X621988Y207258D02*
D03*
X561988Y237258D02*
D03*
Y242258D02*
D03*
X553488Y230758D02*
D03*
Y225258D02*
D03*
X542988Y221758D02*
D03*
X545988Y225758D02*
D03*
X542988Y229258D02*
D03*
X545988Y232758D02*
D03*
X542988Y236258D02*
D03*
X545988Y239758D02*
D03*
X542988Y242758D02*
D03*
X545988Y245758D02*
D03*
X542988Y248758D02*
D03*
X545988Y251758D02*
D03*
X624988Y256258D02*
D03*
Y253258D02*
D03*
X628488Y249758D02*
D03*
Y245758D02*
D03*
Y241758D02*
D03*
X632488D02*
D03*
X611988Y224758D02*
D03*
X614988Y227758D02*
D03*
X617988Y224758D02*
D03*
X626488Y228258D02*
D03*
X629988Y225758D02*
D03*
X633488Y228258D02*
D03*
X636988Y225758D02*
D03*
X640488Y228258D02*
D03*
X643988Y225758D02*
D03*
X647488Y228258D02*
D03*
X650988Y225758D02*
D03*
X640488Y208258D02*
D03*
X650988D02*
D03*
X660988D02*
D03*
X665488Y222258D02*
D03*
X662988Y218758D02*
D03*
X667988D02*
D03*
X673488Y222258D02*
D03*
X685988Y228258D02*
D03*
Y224258D02*
D03*
X681988Y228258D02*
D03*
X677988Y224258D02*
D03*
Y228258D02*
D03*
X681988Y224258D02*
D03*
X685988Y220258D02*
D03*
X545988Y273758D02*
D03*
Y282758D02*
D03*
Y291758D02*
D03*
X580488Y282758D02*
D03*
Y291758D02*
D03*
X576988Y269258D02*
D03*
Y278258D02*
D03*
Y287258D02*
D03*
X572488Y291758D02*
D03*
Y282758D02*
D03*
Y273758D02*
D03*
X567988Y287258D02*
D03*
Y278258D02*
D03*
X562988Y291758D02*
D03*
X563488Y282758D02*
D03*
Y273758D02*
D03*
X554488Y291758D02*
D03*
X558988Y287258D02*
D03*
Y278258D02*
D03*
X554488Y282758D02*
D03*
Y273758D02*
D03*
X555488Y309258D02*
D03*
Y303758D02*
D03*
X545488Y306758D02*
D03*
X547988Y310758D02*
D03*
X578988Y319758D02*
D03*
X545488Y315258D02*
D03*
X548488Y329758D02*
D03*
X558488Y319258D02*
D03*
X555988Y322258D02*
D03*
X558488Y325258D02*
D03*
X562488D02*
D03*
X556488Y337258D02*
D03*
X559488Y340758D02*
D03*
X562988Y337258D02*
D03*
X569988D02*
D03*
X566488Y340758D02*
D03*
X562988Y344258D02*
D03*
X566488Y354258D02*
D03*
X573488D02*
D03*
X576488Y351258D02*
D03*
Y344258D02*
D03*
X573488Y347758D02*
D03*
X569988Y351258D02*
D03*
X562988D02*
D03*
X566488Y347758D02*
D03*
X569988Y344258D02*
D03*
X573488Y340758D02*
D03*
X576488Y337258D02*
D03*
X579488Y333758D02*
D03*
X581988Y330258D02*
D03*
X584488Y326758D02*
D03*
X581988Y323258D02*
D03*
X584488Y319758D02*
D03*
X595488Y354758D02*
D03*
X665488Y344258D02*
D03*
X654988Y352758D02*
D03*
X658488Y349758D02*
D03*
X661988Y346758D02*
D03*
Y352758D02*
D03*
X665488Y349758D02*
D03*
X668988Y346758D02*
D03*
Y352758D02*
D03*
X672488Y349758D02*
D03*
X675488Y346758D02*
D03*
X640988Y320258D02*
D03*
X649988D02*
D03*
X661988D02*
D03*
X668488D02*
D03*
X679988Y330758D02*
D03*
X678488Y343758D02*
D03*
X683488Y337758D02*
D03*
X680988Y340758D02*
D03*
X685988D02*
D03*
X688488Y353258D02*
D03*
X710488Y337258D02*
D03*
X749988Y260758D02*
D03*
Y265258D02*
D03*
X710988Y253758D02*
D03*
Y257758D02*
D03*
Y261758D02*
D03*
Y295258D02*
D03*
Y291258D02*
D03*
X698988Y246758D02*
D03*
Y242258D02*
D03*
X668988Y286758D02*
D03*
X659988Y278258D02*
D03*
X668988D02*
D03*
X664488Y282258D02*
D03*
Y274758D02*
D03*
Y266758D02*
D03*
Y260258D02*
D03*
X673488D02*
D03*
Y266758D02*
D03*
Y282258D02*
D03*
Y274758D02*
D03*
X681988Y260258D02*
D03*
X685488Y263758D02*
D03*
X681988Y266758D02*
D03*
X685488Y270758D02*
D03*
X681988Y274758D02*
D03*
X685488Y278758D02*
D03*
X681988Y282758D02*
D03*
X685488Y286758D02*
D03*
X691988Y266758D02*
D03*
Y270758D02*
D03*
Y274758D02*
D03*
Y278758D02*
D03*
Y282758D02*
D03*
Y286758D02*
D03*
Y290758D02*
D03*
X695988Y266758D02*
D03*
Y270758D02*
D03*
Y274758D02*
D03*
Y278758D02*
D03*
Y282758D02*
D03*
Y286758D02*
D03*
Y290758D02*
D03*
X749988Y269758D02*
D03*
X732488Y304258D02*
D03*
Y298258D02*
D03*
X749988Y302758D02*
D03*
X746488Y298258D02*
D03*
X739488D02*
D03*
X735988Y294758D02*
D03*
X742988D02*
D03*
X749988D02*
D03*
X700488Y237758D02*
D03*
Y233258D02*
D03*
Y228758D02*
D03*
X713988Y232758D02*
D03*
X771988Y256758D02*
D03*
X771488Y223758D02*
D03*
Y219758D02*
D03*
X756488Y256258D02*
D03*
X755988Y205258D02*
D03*
X758988Y207758D02*
D03*
X771988Y297258D02*
D03*
Y301258D02*
D03*
Y305258D02*
D03*
X771488Y342258D02*
D03*
X614988Y244258D02*
D03*
X611988Y241258D02*
D03*
X613988Y317758D02*
D03*
X612988Y327258D02*
D03*
X648488Y333258D02*
D03*
X635988Y278758D02*
D03*
Y274758D02*
D03*
X629988Y271258D02*
D03*
X633988D02*
D03*
X635988Y267758D02*
D03*
X631988D02*
D03*
X627988D02*
D03*
X585488Y260758D02*
D03*
Y256758D02*
D03*
X587988Y258758D02*
D03*
X590988Y260758D02*
D03*
Y256758D02*
D03*
X593988Y259258D02*
D03*
Y263258D02*
D03*
Y267258D02*
D03*
Y270758D02*
D03*
X597988D02*
D03*
X595988Y273758D02*
D03*
X611488Y277258D02*
D03*
Y280258D02*
D03*
Y274258D02*
D03*
X634488Y294258D02*
D03*
Y290758D02*
D03*
X630988D02*
D03*
Y294258D02*
D03*
X627488D02*
D03*
Y290758D02*
D03*
X611988Y244258D02*
D03*
X614988Y241258D02*
D03*
X628488Y253258D02*
D03*
X631988D02*
D03*
X628488Y256258D02*
D03*
X631988D02*
D03*
X628488Y259258D02*
D03*
X631988D02*
D03*
X628488Y262258D02*
D03*
X631988D02*
D03*
X676488Y320758D02*
D03*
X691488Y332758D02*
D03*
X694988D02*
D03*
X691488Y338758D02*
D03*
X694988Y335758D02*
D03*
X691488D02*
D03*
X698488Y332758D02*
D03*
X652988Y340258D02*
D03*
X643988Y339758D02*
D03*
X635488Y352258D02*
D03*
X629988Y352758D02*
D03*
X744488Y353758D02*
D03*
X675488Y353258D02*
D03*
X746069Y341258D02*
D03*
X746988Y345758D02*
D03*
X744488Y338258D02*
D03*
X750988Y332258D02*
D03*
X717988Y328758D02*
D03*
X712488Y323758D02*
D03*
X720488Y227758D02*
D03*
X712988Y220077D02*
D03*
Y215758D02*
D03*
X718488Y222258D02*
D03*
Y218758D02*
D03*
X700488Y215439D02*
D03*
X705988Y224258D02*
D03*
X700488Y219758D02*
D03*
X679988Y219258D02*
D03*
X695488Y224258D02*
D03*
X732770Y228839D02*
D03*
X742988Y226839D02*
D03*
X754988Y306258D02*
D03*
X755988Y251258D02*
D03*
X752488D02*
D03*
X679988Y215758D02*
D03*
X742988Y229758D02*
D03*
X701988Y338758D02*
D03*
X687988Y298258D02*
D03*
Y255758D02*
D03*
X685488Y251258D02*
D03*
X691988Y255758D02*
D03*
X735988Y216758D02*
D03*
X569988Y325258D02*
D03*
X578488Y250258D02*
D03*
X582988D02*
D03*
X587488D02*
D03*
X591988D02*
D03*
X575988Y246758D02*
D03*
X580488D02*
D03*
X584988D02*
D03*
X589488D02*
D03*
X593988D02*
D03*
X671488Y226258D02*
D03*
Y229258D02*
D03*
X648488Y257258D02*
D03*
X652488D02*
D03*
X646488Y253758D02*
D03*
X650488D02*
D03*
X654488D02*
D03*
X585988Y303758D02*
D03*
X589488D02*
D03*
X585988Y306758D02*
D03*
X589488D02*
D03*
X585988Y309758D02*
D03*
X589488D02*
D03*
X585988Y312758D02*
D03*
X589488D02*
D03*
X738488Y253758D02*
D03*
X741988D02*
D03*
X745488D02*
D03*
X719988Y345758D02*
D03*
X727488Y328258D02*
D03*
X546988Y218258D02*
D03*
X550488Y221258D02*
D03*
X718988Y233258D02*
D03*
X722488D02*
D03*
X727207Y214758D02*
D03*
X742988Y238758D02*
D03*
X685488Y243258D02*
D03*
Y246758D02*
D03*
X700488Y224258D02*
D03*
X742988Y232758D02*
D03*
Y235758D02*
D03*
X735988Y219758D02*
D03*
X712488Y345758D02*
D03*
X708988D02*
D03*
X705488D02*
D03*
X750488D02*
D03*
X753988D02*
D03*
X737988Y339258D02*
D03*
X734988D02*
D03*
X731988D02*
D03*
X741488Y334758D02*
D03*
X728488D02*
D03*
X701988Y335758D02*
D03*
X698488Y338758D02*
D03*
Y335758D02*
D03*
X694988Y338758D02*
D03*
X701988Y332758D02*
D03*
X742988Y328258D02*
D03*
X754488Y332258D02*
D03*
X750988Y335258D02*
D03*
X754488D02*
D03*
X750988Y338258D02*
D03*
X754488D02*
D03*
X750988Y341258D02*
D03*
X754488D02*
D03*
X632488Y246758D02*
D03*
X638488Y251258D02*
D03*
X460488Y328258D02*
D03*
X498988Y323258D02*
D03*
X467488Y322258D02*
D03*
X498988Y319758D02*
D03*
X566988Y327758D02*
D03*
X578488D02*
D03*
X225606Y271193D02*
D03*
Y278417D02*
D03*
X229218Y267580D02*
D03*
Y274805D02*
D03*
Y282029D02*
D03*
X232831Y271193D02*
D03*
Y278417D02*
D03*
X236443Y267580D02*
D03*
Y274805D02*
D03*
Y282029D02*
D03*
X240055Y271193D02*
D03*
Y278417D02*
D03*
X276512Y239742D02*
D03*
X274512Y233742D02*
D03*
X267512Y224242D02*
D03*
X267012Y233742D02*
D03*
X323512Y220742D02*
D03*
X340512Y237242D02*
D03*
X222012Y231742D02*
D03*
X225228Y234242D02*
D03*
X339512Y295242D02*
D03*
Y298242D02*
D03*
X377012Y310742D02*
D03*
Y315242D02*
D03*
X414012Y310242D02*
D03*
Y325242D02*
D03*
X409012Y322742D02*
D03*
Y327742D02*
D03*
Y332742D02*
D03*
X414012Y335242D02*
D03*
Y330242D02*
D03*
X399012Y332742D02*
D03*
X404012Y335242D02*
D03*
Y330242D02*
D03*
X394012D02*
D03*
Y335242D02*
D03*
X389012Y332742D02*
D03*
X379012D02*
D03*
Y337742D02*
D03*
Y342742D02*
D03*
X384012Y330242D02*
D03*
Y335242D02*
D03*
Y340242D02*
D03*
Y345242D02*
D03*
Y350242D02*
D03*
X379012Y347742D02*
D03*
X374012Y350242D02*
D03*
X369012Y347742D02*
D03*
X364012Y350242D02*
D03*
X359012Y347742D02*
D03*
X354012Y350242D02*
D03*
X414012Y320242D02*
D03*
Y315242D02*
D03*
X422512Y326742D02*
D03*
Y332242D02*
D03*
X433012Y335742D02*
D03*
X430012Y331742D02*
D03*
X433012Y328242D02*
D03*
X430012Y324742D02*
D03*
X433012Y321242D02*
D03*
X430012Y317742D02*
D03*
X433012Y314742D02*
D03*
X430012Y311742D02*
D03*
X433012Y308742D02*
D03*
X430012Y305742D02*
D03*
X351012Y301242D02*
D03*
Y304242D02*
D03*
X347512Y307742D02*
D03*
Y311742D02*
D03*
Y315742D02*
D03*
X343512D02*
D03*
X364012Y332742D02*
D03*
X361012Y329742D02*
D03*
X358012Y332742D02*
D03*
X349512Y329242D02*
D03*
X346012Y331742D02*
D03*
X342512Y329242D02*
D03*
X339012Y331742D02*
D03*
X335512Y329242D02*
D03*
X332012Y331742D02*
D03*
X328512Y329242D02*
D03*
X325012Y331742D02*
D03*
X335512Y349242D02*
D03*
X325012D02*
D03*
X315012D02*
D03*
X310512Y335242D02*
D03*
X313012Y338742D02*
D03*
X308012D02*
D03*
X302512Y335242D02*
D03*
X290012Y329242D02*
D03*
Y333242D02*
D03*
X294012Y329242D02*
D03*
X298012Y333242D02*
D03*
Y329242D02*
D03*
X294012Y333242D02*
D03*
X290012Y337242D02*
D03*
X430012Y283742D02*
D03*
Y274742D02*
D03*
Y265742D02*
D03*
X395512Y274742D02*
D03*
Y265742D02*
D03*
X399012Y288242D02*
D03*
Y279242D02*
D03*
Y270242D02*
D03*
X403512Y265742D02*
D03*
Y274742D02*
D03*
Y283742D02*
D03*
X408012Y270242D02*
D03*
Y279242D02*
D03*
X413012Y265742D02*
D03*
X412512Y274742D02*
D03*
Y283742D02*
D03*
X421512Y265742D02*
D03*
X417012Y270242D02*
D03*
Y279242D02*
D03*
X421512Y274742D02*
D03*
Y283742D02*
D03*
X420512Y248242D02*
D03*
Y253742D02*
D03*
X430512Y250742D02*
D03*
X428012Y246742D02*
D03*
X397012Y237742D02*
D03*
X430512Y242242D02*
D03*
X427512Y227742D02*
D03*
X417512Y238242D02*
D03*
X420012Y235242D02*
D03*
X417512Y232242D02*
D03*
X413512D02*
D03*
X419512Y220242D02*
D03*
X416512Y216742D02*
D03*
X413012Y220242D02*
D03*
X406012D02*
D03*
X409512Y216742D02*
D03*
X413012Y213242D02*
D03*
X409512Y203242D02*
D03*
X402512D02*
D03*
X399512Y206242D02*
D03*
Y213242D02*
D03*
X402512Y209742D02*
D03*
X406012Y206242D02*
D03*
X413012D02*
D03*
X409512Y209742D02*
D03*
X406012Y213242D02*
D03*
X402512Y216742D02*
D03*
X399512Y220242D02*
D03*
X396512Y223742D02*
D03*
X394012Y227242D02*
D03*
X391512Y230742D02*
D03*
X394012Y234242D02*
D03*
X391512Y237742D02*
D03*
X380512Y202742D02*
D03*
X310512Y213242D02*
D03*
X321012Y204742D02*
D03*
X317512Y207742D02*
D03*
X314012Y210742D02*
D03*
Y204742D02*
D03*
X310512Y207742D02*
D03*
X307012Y210742D02*
D03*
Y204742D02*
D03*
X303512Y207742D02*
D03*
X300512Y210742D02*
D03*
X335012Y237242D02*
D03*
X326012D02*
D03*
X314012D02*
D03*
X307512D02*
D03*
X296012Y226742D02*
D03*
X297512Y213742D02*
D03*
X292512Y219742D02*
D03*
X295012Y216742D02*
D03*
X290012D02*
D03*
X287512Y204242D02*
D03*
X265512Y220242D02*
D03*
X226012Y296742D02*
D03*
Y292242D02*
D03*
X265012Y303742D02*
D03*
Y299742D02*
D03*
Y295742D02*
D03*
Y262242D02*
D03*
Y266242D02*
D03*
X277012Y310742D02*
D03*
Y315242D02*
D03*
X307012Y270742D02*
D03*
X316012Y279242D02*
D03*
X307012D02*
D03*
X311512Y275242D02*
D03*
Y282742D02*
D03*
Y290742D02*
D03*
Y297242D02*
D03*
X302512D02*
D03*
Y290742D02*
D03*
Y275242D02*
D03*
Y282742D02*
D03*
X294012Y297242D02*
D03*
X290512Y293742D02*
D03*
X294012Y290742D02*
D03*
X290512Y286742D02*
D03*
X294012Y282742D02*
D03*
X290512Y278742D02*
D03*
X294012Y274742D02*
D03*
X290512Y270742D02*
D03*
X284012Y290742D02*
D03*
Y286742D02*
D03*
Y282742D02*
D03*
Y278742D02*
D03*
Y274742D02*
D03*
Y270742D02*
D03*
Y266742D02*
D03*
X280012Y290742D02*
D03*
Y286742D02*
D03*
Y282742D02*
D03*
Y278742D02*
D03*
Y274742D02*
D03*
Y270742D02*
D03*
Y266742D02*
D03*
X226012Y287742D02*
D03*
X243512Y253242D02*
D03*
Y259242D02*
D03*
X226012Y254742D02*
D03*
X229512Y259242D02*
D03*
X236512D02*
D03*
X240012Y262742D02*
D03*
X233012D02*
D03*
X226012D02*
D03*
X275512Y319742D02*
D03*
Y324242D02*
D03*
Y328742D02*
D03*
X262012Y324742D02*
D03*
X204012Y300742D02*
D03*
X204512Y333742D02*
D03*
Y337742D02*
D03*
X219512Y301242D02*
D03*
X220012Y352242D02*
D03*
X217012Y349742D02*
D03*
X204012Y260242D02*
D03*
Y256242D02*
D03*
Y252242D02*
D03*
X204512Y215242D02*
D03*
X361012Y313242D02*
D03*
X364012Y316242D02*
D03*
X362012Y239742D02*
D03*
X363012Y230242D02*
D03*
X327512Y224242D02*
D03*
X340012Y278742D02*
D03*
Y282742D02*
D03*
X346012Y286242D02*
D03*
X342012D02*
D03*
X340012Y289742D02*
D03*
X344012D02*
D03*
X348012D02*
D03*
X390512Y296742D02*
D03*
Y300742D02*
D03*
X388012Y298742D02*
D03*
X385012Y296742D02*
D03*
Y300742D02*
D03*
X382012Y298242D02*
D03*
Y294242D02*
D03*
Y290242D02*
D03*
Y286742D02*
D03*
X378012D02*
D03*
X380012Y283742D02*
D03*
X364512Y280242D02*
D03*
Y277242D02*
D03*
Y283242D02*
D03*
X341512Y263242D02*
D03*
Y266742D02*
D03*
X345012D02*
D03*
Y263242D02*
D03*
X348512D02*
D03*
Y266742D02*
D03*
X364012Y313242D02*
D03*
X361012Y316242D02*
D03*
X347512Y304242D02*
D03*
X344012D02*
D03*
X347512Y301242D02*
D03*
X344012D02*
D03*
X347512Y298242D02*
D03*
X344012D02*
D03*
X347512Y295242D02*
D03*
X344012D02*
D03*
X299512Y236742D02*
D03*
X284512Y224742D02*
D03*
X281012D02*
D03*
X284512Y218742D02*
D03*
X281012Y221742D02*
D03*
X284512D02*
D03*
X277512Y224742D02*
D03*
X323012Y217242D02*
D03*
X332012Y217742D02*
D03*
X340512Y205242D02*
D03*
X346012Y204742D02*
D03*
X231512Y203742D02*
D03*
X300512Y204242D02*
D03*
X229931Y216242D02*
D03*
X229012Y211742D02*
D03*
X231512Y219242D02*
D03*
X225012Y225242D02*
D03*
X258012Y228742D02*
D03*
X263512Y233742D02*
D03*
X255512Y329742D02*
D03*
X263012Y337423D02*
D03*
Y341742D02*
D03*
X257512Y335242D02*
D03*
Y338742D02*
D03*
X275512Y342061D02*
D03*
X270012Y333242D02*
D03*
X275512Y337742D02*
D03*
X296012Y338242D02*
D03*
X280512Y333242D02*
D03*
X243230Y328661D02*
D03*
X233012Y330661D02*
D03*
X221012Y251242D02*
D03*
X220012Y306242D02*
D03*
X223512D02*
D03*
X296012Y341742D02*
D03*
X233012Y327742D02*
D03*
X274012Y218742D02*
D03*
X288012Y259242D02*
D03*
Y301742D02*
D03*
X290512Y306242D02*
D03*
X284012Y301742D02*
D03*
X240012Y340742D02*
D03*
X406012Y232242D02*
D03*
X397512Y307242D02*
D03*
X393012D02*
D03*
X388512D02*
D03*
X384012D02*
D03*
X400012Y310742D02*
D03*
X395512D02*
D03*
X391012D02*
D03*
X386512D02*
D03*
X382012D02*
D03*
X304512Y331242D02*
D03*
Y328242D02*
D03*
X327512Y300242D02*
D03*
X323512D02*
D03*
X329512Y303742D02*
D03*
X325512D02*
D03*
X321512D02*
D03*
X390012Y253742D02*
D03*
X386512D02*
D03*
X390012Y250742D02*
D03*
X386512D02*
D03*
X390012Y247742D02*
D03*
X386512D02*
D03*
X390012Y244742D02*
D03*
X386512D02*
D03*
X237512Y303742D02*
D03*
X234012D02*
D03*
X230512D02*
D03*
X256012Y211742D02*
D03*
X248512Y229242D02*
D03*
X429012Y339242D02*
D03*
X425512Y336242D02*
D03*
X257012Y324242D02*
D03*
X253512D02*
D03*
X248793Y342742D02*
D03*
X233012Y318742D02*
D03*
X290512Y314242D02*
D03*
Y310742D02*
D03*
X275512Y333242D02*
D03*
X233012Y324742D02*
D03*
Y321742D02*
D03*
X240012Y337742D02*
D03*
X263512Y211742D02*
D03*
X267012D02*
D03*
X270512D02*
D03*
X225512D02*
D03*
X222012D02*
D03*
X238012Y218242D02*
D03*
X241012D02*
D03*
X244012D02*
D03*
X234512Y222742D02*
D03*
X247512D02*
D03*
X274012Y221742D02*
D03*
X277512Y218742D02*
D03*
Y221742D02*
D03*
X281012Y218742D02*
D03*
X274012Y224742D02*
D03*
X233012Y229242D02*
D03*
X221512Y225242D02*
D03*
X225012Y222242D02*
D03*
X221512D02*
D03*
X225012Y219242D02*
D03*
X221512D02*
D03*
X225012Y216242D02*
D03*
X221512D02*
D03*
X343512Y310742D02*
D03*
X337512Y306242D02*
D03*
X515512Y229242D02*
D03*
X477012Y234242D02*
D03*
X508512Y235242D02*
D03*
X477012Y237742D02*
D03*
X409012Y229742D02*
D03*
X397512D02*
D03*
D57*
X516488Y336258D02*
D03*
X583988Y341758D02*
D03*
X459512Y221242D02*
D03*
X392012Y215742D02*
D03*
M02*
