G04*
G04 #@! TF.GenerationSoftware,Altium Limited,Altium Designer,22.3.1 (43)*
G04*
G04 Layer_Color=128*
%FSLAX25Y25*%
%MOIN*%
G70*
G04*
G04 #@! TF.SameCoordinates,9666C8D3-C488-416E-8FBA-698088E7738B*
G04*
G04*
G04 #@! TF.FilePolarity,Positive*
G04*
G01*
G75*
%ADD12R,0.03150X0.02756*%
%ADD13R,0.02953X0.02362*%
%ADD15R,0.02362X0.02520*%
%ADD17R,0.02520X0.02362*%
%ADD25R,0.02362X0.02953*%
%ADD29R,0.03976X0.03976*%
%ADD30R,0.06969X0.16024*%
%ADD31R,0.16024X0.06969*%
%ADD42R,0.05512X0.05118*%
%ADD43R,0.04961X0.10709*%
%ADD45R,0.03150X0.02165*%
%ADD46R,0.04724X0.01181*%
%ADD51R,0.03150X0.02756*%
G04:AMPARAMS|DCode=58|XSize=23.62mil|YSize=29.53mil|CornerRadius=0mil|HoleSize=0mil|Usage=FLASHONLY|Rotation=135.000|XOffset=0mil|YOffset=0mil|HoleType=Round|Shape=Rectangle|*
%AMROTATEDRECTD58*
4,1,4,0.01879,0.00209,-0.00209,-0.01879,-0.01879,-0.00209,0.00209,0.01879,0.01879,0.00209,0.0*
%
%ADD58ROTATEDRECTD58*%

%ADD59R,0.07087X0.31496*%
%ADD60R,0.07087X0.25984*%
%ADD61R,0.07402X0.09724*%
%ADD62R,0.09724X0.07402*%
%ADD64R,0.03937X0.04134*%
%ADD65R,0.04134X0.08661*%
%ADD66R,0.04902X0.02402*%
%ADD67R,0.07087X0.04095*%
%ADD68R,0.02165X0.03150*%
%ADD69R,0.01181X0.04724*%
%ADD70R,0.04134X0.02362*%
%ADD71R,0.03937X0.06693*%
%ADD72R,0.02756X0.01181*%
%ADD73R,0.05512X0.05118*%
%ADD137R,0.29456X0.22621*%
D12*
X722323Y220258D02*
D03*
X726654D02*
D03*
X625654D02*
D03*
X621323D02*
D03*
X667819Y227758D02*
D03*
X663488D02*
D03*
X704823Y220258D02*
D03*
X709154D02*
D03*
X695654D02*
D03*
X691323D02*
D03*
X674654Y339258D02*
D03*
X670323D02*
D03*
X674654Y325258D02*
D03*
X670323D02*
D03*
X674654Y332258D02*
D03*
X670323D02*
D03*
X253677Y337242D02*
D03*
X249346D02*
D03*
X271177D02*
D03*
X266846D02*
D03*
D13*
X644752Y324258D02*
D03*
X640225D02*
D03*
X612752Y331758D02*
D03*
X608224D02*
D03*
X641724Y352258D02*
D03*
X646252D02*
D03*
X604752Y352758D02*
D03*
X600224D02*
D03*
X621224D02*
D03*
X625752D02*
D03*
X629961Y347258D02*
D03*
X634488D02*
D03*
X563225Y315758D02*
D03*
X567752D02*
D03*
X546725Y320758D02*
D03*
X551252D02*
D03*
X690752Y345258D02*
D03*
X686225D02*
D03*
X331248Y233242D02*
D03*
X335775D02*
D03*
X363248Y225742D02*
D03*
X367776D02*
D03*
X334276Y205242D02*
D03*
X329748D02*
D03*
X371248Y204742D02*
D03*
X375776D02*
D03*
X354776D02*
D03*
X350248D02*
D03*
X346039Y210242D02*
D03*
X341512D02*
D03*
X412776Y241742D02*
D03*
X408248D02*
D03*
X429276Y236742D02*
D03*
X424748D02*
D03*
X285248Y212242D02*
D03*
X289775D02*
D03*
D15*
X631256Y324258D02*
D03*
X634721D02*
D03*
X752256Y242258D02*
D03*
X755721D02*
D03*
X752306Y227304D02*
D03*
X755771D02*
D03*
X752306Y232304D02*
D03*
X755771D02*
D03*
X752256Y237258D02*
D03*
X755721D02*
D03*
X554721Y315758D02*
D03*
X551256D02*
D03*
X645721Y347258D02*
D03*
X642256D02*
D03*
X344744Y233242D02*
D03*
X341279D02*
D03*
X223744Y315242D02*
D03*
X220279D02*
D03*
X223694Y330196D02*
D03*
X220229D02*
D03*
X223694Y325196D02*
D03*
X220229D02*
D03*
X223744Y320242D02*
D03*
X220279D02*
D03*
X421279Y241742D02*
D03*
X424744D02*
D03*
X330279Y210242D02*
D03*
X333744D02*
D03*
D17*
X596488Y298526D02*
D03*
Y301991D02*
D03*
X634988Y335991D02*
D03*
Y332526D02*
D03*
X652988Y343794D02*
D03*
Y347258D02*
D03*
X379512Y258974D02*
D03*
Y255509D02*
D03*
X341012Y221509D02*
D03*
Y224974D02*
D03*
X323012Y213706D02*
D03*
Y210242D02*
D03*
D25*
X607988Y321995D02*
D03*
Y326522D02*
D03*
X629988Y341522D02*
D03*
Y336995D02*
D03*
X368012Y235505D02*
D03*
Y230978D02*
D03*
X346012Y215978D02*
D03*
Y220505D02*
D03*
D29*
X558980Y269239D02*
D03*
X549965D02*
D03*
Y278254D02*
D03*
Y287270D02*
D03*
Y305262D02*
D03*
X567996D02*
D03*
Y269239D02*
D03*
X417020Y288261D02*
D03*
X426035D02*
D03*
Y279246D02*
D03*
Y270230D02*
D03*
Y252238D02*
D03*
X408004D02*
D03*
Y288261D02*
D03*
D30*
X585988Y291758D02*
D03*
Y273766D02*
D03*
X390012Y265742D02*
D03*
Y283734D02*
D03*
D31*
X581500Y305262D02*
D03*
X394500Y252238D02*
D03*
D42*
X597988Y279609D02*
D03*
Y285908D02*
D03*
D43*
X750645Y218748D02*
D03*
X761118D02*
D03*
X743724Y218758D02*
D03*
X733252D02*
D03*
X225355Y338752D02*
D03*
X214882D02*
D03*
X232276Y338742D02*
D03*
X242748D02*
D03*
D45*
X621488Y227904D02*
D03*
Y233613D02*
D03*
X656488Y227904D02*
D03*
Y233613D02*
D03*
X726488Y227904D02*
D03*
Y233613D02*
D03*
X708988Y227904D02*
D03*
Y233613D02*
D03*
X691488Y227904D02*
D03*
Y233613D02*
D03*
X354512Y329596D02*
D03*
Y323887D02*
D03*
X319512Y329596D02*
D03*
Y323887D02*
D03*
X249512Y329596D02*
D03*
Y323887D02*
D03*
X267012Y329596D02*
D03*
Y323887D02*
D03*
X284512Y329596D02*
D03*
Y323887D02*
D03*
D46*
X621488Y230758D02*
D03*
X656488D02*
D03*
X726488D02*
D03*
X708988D02*
D03*
X691488D02*
D03*
X354512Y326742D02*
D03*
X319512D02*
D03*
X249512D02*
D03*
X267012D02*
D03*
X284512D02*
D03*
D51*
X350346Y337242D02*
D03*
X354677D02*
D03*
X308181Y329742D02*
D03*
X312512D02*
D03*
X280346Y337242D02*
D03*
X284677D02*
D03*
X301346Y218242D02*
D03*
X305677D02*
D03*
X301346Y232242D02*
D03*
X305677D02*
D03*
X301346Y225242D02*
D03*
X305677D02*
D03*
D58*
X652589Y332859D02*
D03*
X649388Y329658D02*
D03*
X323411Y224641D02*
D03*
X326612Y227842D02*
D03*
D59*
X606567Y300412D02*
D03*
X369433Y257088D02*
D03*
D60*
X606567Y254349D02*
D03*
X369433Y303151D02*
D03*
D61*
X621429Y313502D02*
D03*
X638949D02*
D03*
X656469D02*
D03*
X673988D02*
D03*
X691508D02*
D03*
X709028D02*
D03*
X726547D02*
D03*
Y244014D02*
D03*
X709028D02*
D03*
X691508D02*
D03*
X673988D02*
D03*
X656469D02*
D03*
X638949D02*
D03*
X621429D02*
D03*
X354571Y243998D02*
D03*
X337051D02*
D03*
X319531D02*
D03*
X302012D02*
D03*
X284492D02*
D03*
X266972D02*
D03*
X249453D02*
D03*
Y313486D02*
D03*
X266972D02*
D03*
X284492D02*
D03*
X302012D02*
D03*
X319531D02*
D03*
X337051D02*
D03*
X354571D02*
D03*
D62*
X741409Y305924D02*
D03*
Y287813D02*
D03*
Y269703D02*
D03*
Y251593D02*
D03*
X234591Y251576D02*
D03*
Y269687D02*
D03*
Y287797D02*
D03*
Y305907D02*
D03*
D64*
X764488Y277258D02*
D03*
X211512Y280242D02*
D03*
D65*
X758681Y271254D02*
D03*
X770295D02*
D03*
X217319Y286246D02*
D03*
X205705D02*
D03*
D66*
X760835Y290156D02*
D03*
X768138D02*
D03*
X760835Y310258D02*
D03*
X768138D02*
D03*
X215165Y267344D02*
D03*
X207862D02*
D03*
X215165Y247242D02*
D03*
X207862D02*
D03*
D67*
X764488Y283758D02*
D03*
Y296554D02*
D03*
Y303861D02*
D03*
Y316656D02*
D03*
X211512Y273742D02*
D03*
Y260946D02*
D03*
Y253639D02*
D03*
Y240844D02*
D03*
D68*
X662343Y339258D02*
D03*
X656634D02*
D03*
X662343Y325258D02*
D03*
X656634D02*
D03*
X662343Y332258D02*
D03*
X656634D02*
D03*
X313657Y218242D02*
D03*
X319366D02*
D03*
X313657Y232242D02*
D03*
X319366D02*
D03*
X313657Y225242D02*
D03*
X319366D02*
D03*
D69*
X659488Y339258D02*
D03*
Y325258D02*
D03*
Y332258D02*
D03*
X316512Y218242D02*
D03*
Y232242D02*
D03*
Y225242D02*
D03*
D70*
X593158Y324258D02*
D03*
X601819Y320518D02*
D03*
Y327998D02*
D03*
X382842Y233242D02*
D03*
X374181Y236982D02*
D03*
Y229502D02*
D03*
D71*
X643988Y339758D02*
D03*
X332012Y217742D02*
D03*
D72*
X648122Y336806D02*
D03*
Y338774D02*
D03*
Y340743D02*
D03*
Y342711D02*
D03*
X639854D02*
D03*
Y340743D02*
D03*
Y338774D02*
D03*
Y336806D02*
D03*
X327878Y220694D02*
D03*
Y218726D02*
D03*
Y216757D02*
D03*
Y214789D02*
D03*
X336146D02*
D03*
Y216757D02*
D03*
Y218726D02*
D03*
Y220694D02*
D03*
D73*
X378012Y277891D02*
D03*
Y271592D02*
D03*
D137*
X716528Y276305D02*
D03*
X259472Y281195D02*
D03*
M02*
