G04*
G04 #@! TF.GenerationSoftware,Altium Limited,Altium Designer,22.3.1 (43)*
G04*
G04 Layer_Physical_Order=2*
G04 Layer_Color=36540*
%FSLAX25Y25*%
%MOIN*%
G70*
G04*
G04 #@! TF.SameCoordinates,9666C8D3-C488-416E-8FBA-698088E7738B*
G04*
G04*
G04 #@! TF.FilePolarity,Positive*
G04*
G01*
G75*
%ADD10C,0.01000*%
%ADD47C,0.00600*%
%ADD48C,0.01200*%
%ADD49C,0.00800*%
%ADD53O,0.06890X0.09843*%
%ADD54C,0.05906*%
%ADD55R,0.05906X0.05906*%
%ADD56C,0.02362*%
%ADD57R,0.05906X0.05906*%
G36*
X755988Y354758D02*
Y344330D01*
X755526Y344139D01*
X755447Y344218D01*
X754988Y344408D01*
X742712D01*
Y348985D01*
X742633Y349379D01*
X742831Y349577D01*
X743299Y350387D01*
X743541Y351291D01*
Y351773D01*
X743957Y352051D01*
X744134Y351977D01*
X744843D01*
X745497Y352248D01*
X745935Y352687D01*
X746231Y352634D01*
X746435Y352533D01*
Y348206D01*
X753541D01*
Y355311D01*
X746435D01*
Y354983D01*
X746231Y354882D01*
X745935Y354830D01*
X745497Y355268D01*
X744843Y355539D01*
X744577D01*
X744407Y355758D01*
X744651Y356258D01*
X754488D01*
X755988Y354758D01*
D02*
G37*
G36*
X414450Y353804D02*
X414258Y353342D01*
X386412D01*
Y336642D01*
X416112D01*
Y342488D01*
X416574Y342680D01*
X418512Y340742D01*
X427340D01*
X427531Y340280D01*
X427502Y340251D01*
X427231Y339596D01*
Y338887D01*
X427502Y338233D01*
X428003Y337732D01*
X428657Y337461D01*
X429366D01*
X430021Y337732D01*
X430522Y338233D01*
X430793Y338887D01*
Y339596D01*
X430603Y340055D01*
X430836Y340527D01*
X430888Y340573D01*
X431146Y340608D01*
X433512Y338242D01*
Y220242D01*
X431012Y217742D01*
X418512D01*
X415012Y214242D01*
Y203742D01*
X412512Y201242D01*
X299895D01*
X299704Y201704D01*
X300461Y202461D01*
X300866D01*
X301521Y202732D01*
X302022Y203233D01*
X302293Y203887D01*
Y204596D01*
X302022Y205251D01*
X301521Y205752D01*
X300866Y206023D01*
X300157D01*
X299503Y205752D01*
X299002Y205251D01*
X298731Y204596D01*
Y204191D01*
X297241Y202701D01*
X295203D01*
X294996Y203201D01*
X295355Y203560D01*
X295822Y204370D01*
X296064Y205274D01*
Y206209D01*
X295822Y207113D01*
X295355Y207923D01*
X294693Y208585D01*
X293883Y209052D01*
X292980Y209294D01*
X292044D01*
X291140Y209052D01*
X290330Y208585D01*
X289669Y207923D01*
X289201Y207113D01*
X288959Y206209D01*
Y205274D01*
X289201Y204370D01*
X289669Y203560D01*
X290028Y203201D01*
X289821Y202701D01*
X285203D01*
X284996Y203201D01*
X285355Y203560D01*
X285822Y204370D01*
X286065Y205274D01*
Y206209D01*
X285822Y207113D01*
X285355Y207923D01*
X284693Y208585D01*
X283883Y209052D01*
X282979Y209294D01*
X282044D01*
X281140Y209052D01*
X280330Y208585D01*
X279669Y207923D01*
X279201Y207113D01*
X278959Y206209D01*
Y205274D01*
X279201Y204370D01*
X279669Y203560D01*
X280028Y203201D01*
X279820Y202701D01*
X276064D01*
Y209294D01*
X268959D01*
Y202701D01*
X258703D01*
X258496Y203201D01*
X258855Y203560D01*
X259322Y204370D01*
X259564Y205274D01*
Y206209D01*
X259322Y207113D01*
X258855Y207923D01*
X258193Y208585D01*
X257383Y209052D01*
X256480Y209294D01*
X255544D01*
X254640Y209052D01*
X253830Y208585D01*
X253169Y207923D01*
X252701Y207113D01*
X252459Y206209D01*
Y205274D01*
X252701Y204370D01*
X253169Y203560D01*
X253528Y203201D01*
X253321Y202701D01*
X248703D01*
X248496Y203201D01*
X248855Y203560D01*
X249322Y204370D01*
X249565Y205274D01*
Y206209D01*
X249322Y207113D01*
X248855Y207923D01*
X248657Y208121D01*
X248735Y208515D01*
Y213092D01*
X283012D01*
X283471Y213282D01*
X293971Y223782D01*
X294161Y224242D01*
Y231742D01*
X293971Y232201D01*
X290471Y235701D01*
X290012Y235891D01*
X276253D01*
X276162Y235854D01*
X276064Y235863D01*
X275941Y235762D01*
X275794Y235701D01*
X275772Y235648D01*
X275739Y235596D01*
X275680Y235548D01*
X275528Y235264D01*
X275521Y235252D01*
X274866Y235523D01*
X274158D01*
X273503Y235252D01*
X273495Y235264D01*
X273343Y235548D01*
X273285Y235596D01*
X273252Y235648D01*
X273230Y235701D01*
X273082Y235762D01*
X272959Y235863D01*
X272861Y235854D01*
X272771Y235891D01*
X268753D01*
X268662Y235854D01*
X268564Y235863D01*
X268441Y235762D01*
X268294Y235701D01*
X268272Y235648D01*
X268239Y235596D01*
X268180Y235548D01*
X268028Y235264D01*
X268021Y235252D01*
X267366Y235523D01*
X266657D01*
X266003Y235252D01*
X265545Y234794D01*
X265262Y234770D01*
X264979Y234794D01*
X264521Y235252D01*
X263866Y235523D01*
X263158D01*
X262503Y235252D01*
X262429Y235178D01*
X261929Y235385D01*
Y237742D01*
X261859Y238093D01*
X261661Y238390D01*
X260161Y239891D01*
X259863Y240089D01*
X259512Y240159D01*
X240892D01*
X237661Y243390D01*
X237363Y243589D01*
X237012Y243659D01*
X227392D01*
X225429Y245622D01*
Y252742D01*
X225360Y253093D01*
X225161Y253391D01*
X224429Y254122D01*
Y268869D01*
X224845Y269147D01*
X225172Y269011D01*
X226040D01*
X226842Y269343D01*
X226936Y269438D01*
X225394Y270980D01*
X225606Y271193D01*
X225394Y271405D01*
X226936Y272947D01*
X226842Y273042D01*
X226040Y273374D01*
X225172D01*
X224845Y273238D01*
X224429Y273516D01*
Y276094D01*
X224845Y276371D01*
X225172Y276236D01*
X226040D01*
X226842Y276568D01*
X226936Y276662D01*
X225394Y278205D01*
X225606Y278417D01*
X225394Y278629D01*
X226936Y280171D01*
X226842Y280266D01*
X226040Y280598D01*
X225172D01*
X224845Y280462D01*
X224429Y280740D01*
Y297664D01*
X225400Y298636D01*
X225883Y298411D01*
X225912Y298343D01*
Y298214D01*
X226003Y298123D01*
X226052Y298003D01*
X226172Y297954D01*
X226263Y297862D01*
X226653Y297701D01*
X226971Y297383D01*
X227143Y296967D01*
Y296517D01*
X226971Y296101D01*
X226653Y295782D01*
X226263Y295621D01*
X226172Y295530D01*
X226052Y295480D01*
X226003Y295361D01*
X225912Y295269D01*
Y295140D01*
X225862Y295021D01*
Y293962D01*
X225912Y293843D01*
Y293714D01*
X226003Y293622D01*
X226052Y293503D01*
X226172Y293454D01*
X226263Y293362D01*
X226653Y293201D01*
X226971Y292883D01*
X227143Y292467D01*
Y292017D01*
X226971Y291601D01*
X226812Y291441D01*
X226622Y290982D01*
X226812Y290523D01*
X230052Y287282D01*
X230512Y287092D01*
X243243D01*
X245862Y284473D01*
Y246242D01*
X246053Y245782D01*
X250553Y241282D01*
X251012Y241092D01*
X274690D01*
X274936Y240592D01*
X274731Y240096D01*
Y239387D01*
X275002Y238733D01*
X275503Y238232D01*
X276157Y237961D01*
X276866D01*
X277521Y238232D01*
X278022Y238733D01*
X278060Y238824D01*
X357632D01*
X362094Y234362D01*
Y231789D01*
X362003Y231752D01*
X361502Y231251D01*
X361231Y230596D01*
Y229887D01*
X361502Y229233D01*
X362003Y228732D01*
X362657Y228461D01*
X363366D01*
X364021Y228732D01*
X364334Y228361D01*
X361132Y225159D01*
X329060D01*
X329022Y225251D01*
X328521Y225752D01*
X327866Y226023D01*
X327157D01*
X326503Y225752D01*
X326002Y225251D01*
X325731Y224596D01*
Y223887D01*
X326002Y223233D01*
X326503Y222732D01*
X327157Y222461D01*
X327866D01*
X328521Y222732D01*
X329022Y223233D01*
X329060Y223324D01*
X361512D01*
X361863Y223394D01*
X362161Y223593D01*
X366161Y227593D01*
X366359Y227890D01*
X366429Y228242D01*
Y236242D01*
X366359Y236593D01*
X366161Y236891D01*
X363755Y239296D01*
X363793Y239387D01*
Y240096D01*
X363587Y240592D01*
X363833Y241092D01*
X383012D01*
X391012Y241092D01*
X391471Y241282D01*
X393471Y243282D01*
X393661Y243742D01*
Y254242D01*
X393471Y254701D01*
X390971Y257201D01*
X390512Y257391D01*
X289387D01*
X289180Y257891D01*
X289522Y258233D01*
X289793Y258887D01*
Y259596D01*
X289522Y260251D01*
X289021Y260752D01*
X288929Y260789D01*
Y300194D01*
X289021Y300232D01*
X289522Y300733D01*
X289793Y301387D01*
Y302096D01*
X289522Y302751D01*
X289021Y303252D01*
X288366Y303523D01*
X287657D01*
X287003Y303252D01*
X286502Y302751D01*
X286262Y302171D01*
X286157Y302154D01*
X285867D01*
X285762Y302171D01*
X285522Y302751D01*
X285021Y303252D01*
X284366Y303523D01*
X283658D01*
X283566Y303485D01*
X281429Y305622D01*
Y331694D01*
X281521Y331732D01*
X282022Y332233D01*
X282293Y332887D01*
Y333596D01*
X282022Y334251D01*
X281521Y334752D01*
X280866Y335023D01*
X280157D01*
X279503Y334752D01*
X279002Y334251D01*
X278731Y333596D01*
Y332887D01*
X279002Y332233D01*
X279503Y331732D01*
X279594Y331694D01*
Y305242D01*
X279664Y304890D01*
X279863Y304593D01*
X282268Y302187D01*
X282231Y302096D01*
Y301387D01*
X282502Y300733D01*
X283003Y300232D01*
X283658Y299961D01*
X284366D01*
X285021Y300232D01*
X285522Y300733D01*
X285762Y301312D01*
X285867Y301329D01*
X286157D01*
X286262Y301312D01*
X286502Y300733D01*
X287003Y300232D01*
X287094Y300194D01*
Y260789D01*
X287003Y260752D01*
X286502Y260251D01*
X286231Y259596D01*
Y258887D01*
X286502Y258233D01*
X286843Y257891D01*
X286636Y257391D01*
X268281D01*
X265161Y260511D01*
Y260521D01*
X265112Y260640D01*
Y260770D01*
X265020Y260861D01*
X264971Y260980D01*
X264852Y261030D01*
X264760Y261121D01*
X264371Y261282D01*
X264052Y261601D01*
X263880Y262017D01*
Y262467D01*
X264052Y262883D01*
X264371Y263201D01*
X264760Y263362D01*
X264852Y263454D01*
X264971Y263503D01*
X265020Y263622D01*
X265112Y263714D01*
Y263843D01*
X265161Y263962D01*
Y264521D01*
X265112Y264640D01*
Y264770D01*
X265020Y264861D01*
X264971Y264980D01*
X264852Y265030D01*
X264760Y265121D01*
X264371Y265282D01*
X264052Y265601D01*
X263880Y266017D01*
Y266467D01*
X264052Y266883D01*
X264371Y267201D01*
X264760Y267362D01*
X264852Y267454D01*
X264971Y267503D01*
X265020Y267622D01*
X265112Y267714D01*
Y267843D01*
X265161Y267962D01*
Y294021D01*
X265112Y294140D01*
Y294269D01*
X265020Y294361D01*
X264971Y294480D01*
X264852Y294530D01*
X264760Y294621D01*
X264371Y294782D01*
X264052Y295101D01*
X263880Y295517D01*
Y295967D01*
X264052Y296383D01*
X264371Y296701D01*
X264760Y296862D01*
X264852Y296954D01*
X264971Y297003D01*
X265020Y297123D01*
X265112Y297214D01*
Y297343D01*
X265161Y297462D01*
Y298021D01*
X265112Y298140D01*
Y298270D01*
X265020Y298361D01*
X264971Y298480D01*
X264852Y298530D01*
X264760Y298621D01*
X264371Y298782D01*
X264052Y299101D01*
X263880Y299517D01*
Y299967D01*
X264052Y300383D01*
X264371Y300701D01*
X264760Y300862D01*
X264852Y300954D01*
X264971Y301003D01*
X265020Y301122D01*
X265112Y301214D01*
Y301343D01*
X265161Y301462D01*
Y302021D01*
X265112Y302140D01*
Y302270D01*
X265020Y302361D01*
X264971Y302480D01*
X264852Y302530D01*
X264760Y302621D01*
X264371Y302782D01*
X264052Y303101D01*
X263880Y303517D01*
Y303967D01*
X264052Y304383D01*
X264212Y304542D01*
X264402Y305001D01*
X264212Y305460D01*
X243292Y326379D01*
X243499Y326880D01*
X243584D01*
X244239Y327151D01*
X244740Y327652D01*
X245011Y328306D01*
Y329015D01*
X244883Y329324D01*
X245217Y329824D01*
X250632D01*
X253863Y326593D01*
X253839Y326051D01*
X253816Y326023D01*
X253157D01*
X252503Y325752D01*
X252002Y325251D01*
X251731Y324596D01*
Y323887D01*
X252002Y323233D01*
X252503Y322732D01*
X253157Y322461D01*
X253866D01*
X254521Y322732D01*
X254978Y323190D01*
X255262Y323213D01*
X255545Y323190D01*
X256003Y322732D01*
X256658Y322461D01*
X257366D01*
X258021Y322732D01*
X258522Y323233D01*
X258793Y323887D01*
Y324596D01*
X258522Y325251D01*
X258021Y325752D01*
X257366Y326023D01*
X257207D01*
X257056Y326523D01*
X257161Y326593D01*
X258661Y328093D01*
X258859Y328391D01*
X258929Y328742D01*
Y330362D01*
X261579Y333012D01*
X261778Y333309D01*
X261848Y333661D01*
Y342224D01*
X262849Y343224D01*
X275994D01*
X279325Y339893D01*
X279623Y339694D01*
X279974Y339624D01*
X293332D01*
X294268Y338687D01*
X294231Y338596D01*
Y337887D01*
X294502Y337233D01*
X295003Y336732D01*
X295657Y336461D01*
X296366D01*
X297021Y336732D01*
X297522Y337233D01*
X297793Y337887D01*
Y338596D01*
X297522Y339251D01*
X297064Y339708D01*
X297041Y339992D01*
X297064Y340275D01*
X297522Y340733D01*
X297793Y341387D01*
Y342096D01*
X297522Y342751D01*
X297021Y343252D01*
X296366Y343523D01*
X295657D01*
X295003Y343252D01*
X294502Y342751D01*
X294464Y342659D01*
X280851D01*
X277420Y346091D01*
X277122Y346289D01*
X276771Y346359D01*
X262015D01*
X261664Y346289D01*
X261366Y346091D01*
X260724Y345448D01*
X260224Y345448D01*
X259971Y345701D01*
X259512Y345891D01*
X259512Y345891D01*
X259512Y345891D01*
X208815Y345891D01*
X208623Y346353D01*
X218512Y356242D01*
X412012D01*
X414450Y353804D01*
D02*
G37*
G36*
X758488Y340258D02*
X763488D01*
X769488Y334258D01*
Y294258D01*
X774488Y289258D01*
Y218258D01*
X768488Y212258D01*
X716488Y212258D01*
X715986Y212761D01*
X716918Y213693D01*
X717117Y213991D01*
X717187Y214342D01*
Y222843D01*
X717785Y223441D01*
X738311D01*
X740042Y221709D01*
X740340Y221511D01*
X740691Y221441D01*
X745088D01*
X745439Y221511D01*
X745737Y221709D01*
X748786Y224758D01*
X755488D01*
X757488Y226758D01*
Y250297D01*
X757666Y250563D01*
X757804Y251258D01*
X757666Y251953D01*
X757488Y252219D01*
Y254784D01*
X757772Y254974D01*
X758166Y255563D01*
X758304Y256258D01*
X758166Y256953D01*
X757772Y257542D01*
X757488Y257732D01*
Y314758D01*
X751174Y321073D01*
X751319Y321551D01*
X751467Y321581D01*
X752056Y321974D01*
X752450Y322563D01*
X752588Y323258D01*
X752450Y323953D01*
X752056Y324542D01*
X751467Y324936D01*
X750772Y325074D01*
X750077Y324936D01*
X749488Y324542D01*
X749095Y323953D01*
X748956Y323258D01*
X749056Y322758D01*
X748743Y322258D01*
X717939D01*
X717748Y322720D01*
X721137Y326110D01*
X721336Y326407D01*
X721406Y326758D01*
Y329202D01*
X721336Y329553D01*
X721137Y329850D01*
X719499Y331488D01*
X719201Y331687D01*
X718850Y331757D01*
X716069D01*
X715718Y331687D01*
X715420Y331488D01*
X709421Y325488D01*
X708988Y325574D01*
X708293Y325436D01*
X707704Y325042D01*
X707310Y324453D01*
X707172Y323758D01*
X707310Y323063D01*
X707514Y322758D01*
X707247Y322258D01*
X703230D01*
X702962Y322758D01*
X703166Y323063D01*
X703304Y323758D01*
X703166Y324453D01*
X702772Y325042D01*
X702183Y325436D01*
X701488Y325574D01*
X700793Y325436D01*
X700204Y325042D01*
X699811Y324453D01*
X699672Y323758D01*
X699811Y323063D01*
X700014Y322758D01*
X699747Y322258D01*
X685988D01*
X682488Y325758D01*
Y333258D01*
X692988Y343758D01*
X727265D01*
Y336083D01*
X727204Y336042D01*
X726811Y335453D01*
X726672Y334758D01*
X726811Y334063D01*
X727204Y333474D01*
X727793Y333081D01*
X728488Y332942D01*
X729183Y333081D01*
X729772Y333474D01*
X730166Y334063D01*
X730304Y334758D01*
X730166Y335453D01*
X729772Y336042D01*
X729712Y336083D01*
Y343758D01*
X740265D01*
Y336083D01*
X740204Y336042D01*
X739811Y335453D01*
X739672Y334758D01*
X739811Y334063D01*
X740204Y333474D01*
X740793Y333081D01*
X741488Y332942D01*
X742183Y333081D01*
X742772Y333474D01*
X743166Y334063D01*
X743304Y334758D01*
X743166Y335453D01*
X742772Y336042D01*
X742712Y336083D01*
Y336811D01*
X743204Y336974D01*
X743793Y336581D01*
X744488Y336442D01*
X745183Y336581D01*
X745772Y336974D01*
X746166Y337563D01*
X746304Y338258D01*
X746166Y338953D01*
X746397Y339508D01*
X746764Y339581D01*
X747354Y339974D01*
X747747Y340563D01*
X747885Y341258D01*
X747747Y341953D01*
X747354Y342542D01*
X746764Y342936D01*
X746069Y343074D01*
X745374Y342936D01*
X744785Y342542D01*
X744392Y341953D01*
X744253Y341258D01*
X744392Y340563D01*
X744161Y340009D01*
X743793Y339936D01*
X743204Y339542D01*
X742712Y339705D01*
Y343758D01*
X754988D01*
X758488Y340258D01*
D02*
G37*
G36*
X259512Y345242D02*
X260014Y344739D01*
X259082Y343807D01*
X258883Y343509D01*
X258813Y343158D01*
Y334657D01*
X258215Y334059D01*
X237689D01*
X235958Y335790D01*
X235660Y335989D01*
X235309Y336059D01*
X230912D01*
X230561Y335989D01*
X230263Y335790D01*
X227214Y332742D01*
X220512D01*
X218512Y330742D01*
Y307203D01*
X218334Y306937D01*
X218196Y306242D01*
X218334Y305547D01*
X218512Y305281D01*
Y302716D01*
X218228Y302526D01*
X217834Y301937D01*
X217696Y301242D01*
X217834Y300547D01*
X218228Y299958D01*
X218512Y299768D01*
Y242742D01*
X224826Y236427D01*
X224681Y235949D01*
X224533Y235919D01*
X223944Y235526D01*
X223550Y234937D01*
X223412Y234242D01*
X223550Y233547D01*
X223944Y232958D01*
X224533Y232564D01*
X225228Y232426D01*
X225923Y232564D01*
X226512Y232958D01*
X226905Y233547D01*
X227044Y234242D01*
X226944Y234742D01*
X227257Y235242D01*
X258061D01*
X258252Y234780D01*
X254863Y231391D01*
X254664Y231093D01*
X254594Y230742D01*
Y228298D01*
X254664Y227947D01*
X254863Y227650D01*
X256501Y226012D01*
X256799Y225813D01*
X257150Y225743D01*
X259931D01*
X260282Y225813D01*
X260579Y226012D01*
X266579Y232012D01*
X267012Y231926D01*
X267707Y232064D01*
X268296Y232458D01*
X268689Y233047D01*
X268828Y233742D01*
X268689Y234437D01*
X268486Y234742D01*
X268753Y235242D01*
X272771D01*
X273038Y234742D01*
X272834Y234437D01*
X272696Y233742D01*
X272834Y233047D01*
X273228Y232458D01*
X273817Y232064D01*
X274512Y231926D01*
X275207Y232064D01*
X275796Y232458D01*
X276189Y233047D01*
X276328Y233742D01*
X276189Y234437D01*
X275986Y234742D01*
X276253Y235242D01*
X290012D01*
X293512Y231742D01*
Y224242D01*
X283012Y213742D01*
X248735D01*
Y221417D01*
X248796Y221458D01*
X249189Y222047D01*
X249328Y222742D01*
X249189Y223437D01*
X248796Y224026D01*
X248207Y224419D01*
X247512Y224558D01*
X246817Y224419D01*
X246228Y224026D01*
X245834Y223437D01*
X245696Y222742D01*
X245834Y222047D01*
X246228Y221458D01*
X246288Y221417D01*
Y213742D01*
X235735D01*
Y221417D01*
X235796Y221458D01*
X236190Y222047D01*
X236328Y222742D01*
X236190Y223437D01*
X235796Y224026D01*
X235207Y224419D01*
X234512Y224558D01*
X233817Y224419D01*
X233228Y224026D01*
X232834Y223437D01*
X232696Y222742D01*
X232834Y222047D01*
X233228Y221458D01*
X233288Y221417D01*
Y220689D01*
X232796Y220526D01*
X232207Y220919D01*
X231512Y221058D01*
X230817Y220919D01*
X230228Y220526D01*
X229834Y219937D01*
X229696Y219242D01*
X229834Y218547D01*
X229603Y217992D01*
X229236Y217919D01*
X228646Y217526D01*
X228253Y216937D01*
X228115Y216242D01*
X228253Y215547D01*
X228646Y214958D01*
X229236Y214564D01*
X229931Y214426D01*
X230626Y214564D01*
X231215Y214958D01*
X231608Y215547D01*
X231747Y216242D01*
X231608Y216937D01*
X231839Y217491D01*
X232207Y217564D01*
X232796Y217958D01*
X233288Y217794D01*
Y213742D01*
X221012D01*
X217512Y217242D01*
X212512D01*
X206512Y223242D01*
Y263242D01*
X201512Y268242D01*
Y339242D01*
X207512Y345242D01*
X259512Y345242D01*
D02*
G37*
G36*
X676296Y355796D02*
X675539Y355039D01*
X675134D01*
X674479Y354768D01*
X673978Y354267D01*
X673707Y353613D01*
Y352904D01*
X673978Y352249D01*
X674479Y351748D01*
X675134Y351477D01*
X675843D01*
X676497Y351748D01*
X676998Y352249D01*
X677269Y352904D01*
Y353309D01*
X678759Y354799D01*
X680797D01*
X681004Y354299D01*
X680645Y353940D01*
X680178Y353130D01*
X679936Y352226D01*
Y351291D01*
X680178Y350387D01*
X680645Y349577D01*
X681307Y348915D01*
X682117Y348448D01*
X683020Y348206D01*
X683956D01*
X684860Y348448D01*
X685670Y348915D01*
X686331Y349577D01*
X686799Y350387D01*
X687041Y351291D01*
Y352226D01*
X686799Y353130D01*
X686331Y353940D01*
X685972Y354299D01*
X686179Y354799D01*
X690797D01*
X691004Y354299D01*
X690645Y353940D01*
X690178Y353130D01*
X689935Y352226D01*
Y351291D01*
X690178Y350387D01*
X690645Y349577D01*
X691307Y348915D01*
X692117Y348448D01*
X693020Y348206D01*
X693956D01*
X694860Y348448D01*
X695670Y348915D01*
X696331Y349577D01*
X696799Y350387D01*
X697041Y351291D01*
Y352226D01*
X696799Y353130D01*
X696331Y353940D01*
X695972Y354299D01*
X696179Y354799D01*
X699935D01*
Y348206D01*
X707041D01*
Y354799D01*
X717297D01*
X717504Y354299D01*
X717145Y353940D01*
X716678Y353130D01*
X716435Y352226D01*
Y351291D01*
X716678Y350387D01*
X717145Y349577D01*
X717807Y348915D01*
X718617Y348448D01*
X719521Y348206D01*
X720456D01*
X721360Y348448D01*
X722170Y348915D01*
X722831Y349577D01*
X723299Y350387D01*
X723541Y351291D01*
Y352226D01*
X723299Y353130D01*
X722831Y353940D01*
X722472Y354299D01*
X722680Y354799D01*
X727297D01*
X727504Y354299D01*
X727145Y353940D01*
X726678Y353130D01*
X726436Y352226D01*
Y351291D01*
X726678Y350387D01*
X727145Y349577D01*
X727343Y349379D01*
X727265Y348985D01*
Y344408D01*
X692988D01*
X692529Y344218D01*
X682029Y333718D01*
X681839Y333258D01*
Y325758D01*
X682029Y325299D01*
X685529Y321799D01*
X685988Y321609D01*
X699747D01*
X699838Y321646D01*
X699936Y321637D01*
X700059Y321738D01*
X700206Y321799D01*
X700228Y321852D01*
X700261Y321904D01*
X700320Y321952D01*
X700472Y322236D01*
X700479Y322248D01*
X701134Y321977D01*
X701843D01*
X702497Y322248D01*
X702505Y322236D01*
X702657Y321952D01*
X702715Y321904D01*
X702748Y321852D01*
X702770Y321799D01*
X702918Y321738D01*
X703041Y321637D01*
X703139Y321646D01*
X703230Y321609D01*
X707247D01*
X707338Y321646D01*
X707436Y321637D01*
X707559Y321738D01*
X707706Y321799D01*
X707728Y321852D01*
X707761Y321904D01*
X707820Y321952D01*
X707972Y322236D01*
X707979Y322248D01*
X708634Y321977D01*
X709343D01*
X709997Y322248D01*
X710455Y322706D01*
X710738Y322730D01*
X711022Y322706D01*
X711479Y322248D01*
X712134Y321977D01*
X712843D01*
X713497Y322248D01*
X713571Y322322D01*
X714071Y322115D01*
Y319758D01*
X714141Y319407D01*
X714339Y319110D01*
X715839Y317610D01*
X716137Y317411D01*
X716488Y317341D01*
X735108D01*
X738339Y314109D01*
X738637Y313911D01*
X738988Y313841D01*
X748608D01*
X750571Y311878D01*
Y304758D01*
X750640Y304407D01*
X750839Y304110D01*
X751571Y303378D01*
Y288631D01*
X751155Y288353D01*
X750828Y288489D01*
X749960D01*
X749158Y288157D01*
X749064Y288062D01*
X750606Y286520D01*
X750394Y286308D01*
X750606Y286095D01*
X749064Y284553D01*
X749158Y284458D01*
X749960Y284126D01*
X750828D01*
X751155Y284262D01*
X751571Y283984D01*
Y281406D01*
X751155Y281129D01*
X750828Y281264D01*
X749960D01*
X749158Y280932D01*
X749064Y280837D01*
X750606Y279295D01*
X750394Y279083D01*
X750606Y278871D01*
X749064Y277329D01*
X749158Y277234D01*
X749960Y276902D01*
X750828D01*
X751155Y277038D01*
X751571Y276760D01*
Y259836D01*
X750600Y258864D01*
X750117Y259089D01*
X750088Y259157D01*
Y259286D01*
X749997Y259378D01*
X749948Y259497D01*
X749828Y259546D01*
X749737Y259638D01*
X749347Y259799D01*
X749029Y260117D01*
X748857Y260533D01*
Y260983D01*
X749029Y261399D01*
X749347Y261718D01*
X749737Y261879D01*
X749828Y261970D01*
X749948Y262020D01*
X749997Y262139D01*
X750088Y262230D01*
Y262360D01*
X750138Y262479D01*
Y263538D01*
X750088Y263657D01*
Y263786D01*
X749997Y263878D01*
X749948Y263997D01*
X749828Y264046D01*
X749737Y264138D01*
X749347Y264299D01*
X749029Y264617D01*
X748857Y265033D01*
Y265483D01*
X749029Y265899D01*
X749188Y266058D01*
X749378Y266518D01*
X749188Y266977D01*
X745948Y270218D01*
X745488Y270408D01*
X732757D01*
X730138Y273027D01*
Y311258D01*
X729948Y311718D01*
X725448Y316218D01*
X724988Y316408D01*
X701310D01*
X701064Y316908D01*
X701269Y317404D01*
Y318113D01*
X700998Y318767D01*
X700497Y319268D01*
X699843Y319539D01*
X699134D01*
X698479Y319268D01*
X697978Y318767D01*
X697940Y318676D01*
X618368D01*
X613906Y323138D01*
Y325711D01*
X613997Y325748D01*
X614498Y326249D01*
X614769Y326904D01*
Y327613D01*
X614498Y328267D01*
X613997Y328768D01*
X613343Y329039D01*
X612634D01*
X611979Y328768D01*
X611666Y329139D01*
X614868Y332341D01*
X646941D01*
X646978Y332249D01*
X647479Y331748D01*
X648134Y331477D01*
X648843D01*
X649497Y331748D01*
X649998Y332249D01*
X650269Y332904D01*
Y333613D01*
X649998Y334267D01*
X649497Y334768D01*
X648843Y335039D01*
X648134D01*
X647479Y334768D01*
X646978Y334267D01*
X646941Y334176D01*
X614488D01*
X614137Y334106D01*
X613839Y333907D01*
X609839Y329907D01*
X609641Y329609D01*
X609571Y329258D01*
Y321258D01*
X609641Y320907D01*
X609839Y320609D01*
X612245Y318204D01*
X612207Y318113D01*
Y317404D01*
X612413Y316908D01*
X612167Y316408D01*
X592988D01*
X584988Y316408D01*
X584529Y316218D01*
X582529Y314218D01*
X582339Y313758D01*
Y303258D01*
X582529Y302799D01*
X585029Y300299D01*
X585488Y300109D01*
X686613D01*
X686820Y299609D01*
X686478Y299267D01*
X686207Y298613D01*
Y297904D01*
X686478Y297249D01*
X686979Y296748D01*
X687071Y296711D01*
Y257306D01*
X686979Y257268D01*
X686478Y256767D01*
X686207Y256113D01*
Y255404D01*
X686478Y254749D01*
X686979Y254248D01*
X687634Y253977D01*
X688343D01*
X688997Y254248D01*
X689498Y254749D01*
X689738Y255329D01*
X689843Y255346D01*
X690133D01*
X690238Y255329D01*
X690478Y254749D01*
X690979Y254248D01*
X691634Y253977D01*
X692343D01*
X692434Y254015D01*
X694571Y251878D01*
Y225806D01*
X694479Y225768D01*
X693978Y225267D01*
X693707Y224613D01*
Y223904D01*
X693978Y223249D01*
X694479Y222748D01*
X695134Y222477D01*
X695843D01*
X696497Y222748D01*
X696998Y223249D01*
X697269Y223904D01*
Y224613D01*
X696998Y225267D01*
X696497Y225768D01*
X696406Y225806D01*
Y252258D01*
X696336Y252609D01*
X696137Y252907D01*
X693732Y255313D01*
X693769Y255404D01*
Y256113D01*
X693498Y256767D01*
X692997Y257268D01*
X692343Y257539D01*
X691634D01*
X690979Y257268D01*
X690478Y256767D01*
X690238Y256188D01*
X690133Y256171D01*
X689843D01*
X689738Y256188D01*
X689498Y256767D01*
X688997Y257268D01*
X688906Y257306D01*
Y296711D01*
X688997Y296748D01*
X689498Y297249D01*
X689769Y297904D01*
Y298613D01*
X689498Y299267D01*
X689157Y299609D01*
X689364Y300109D01*
X707719D01*
X710839Y296989D01*
Y296979D01*
X710888Y296860D01*
Y296730D01*
X710980Y296639D01*
X711029Y296520D01*
X711148Y296470D01*
X711240Y296379D01*
X711629Y296218D01*
X711948Y295899D01*
X712120Y295483D01*
Y295033D01*
X711948Y294617D01*
X711629Y294299D01*
X711240Y294138D01*
X711148Y294046D01*
X711029Y293997D01*
X710980Y293878D01*
X710888Y293786D01*
Y293657D01*
X710839Y293538D01*
Y292979D01*
X710888Y292860D01*
Y292730D01*
X710980Y292639D01*
X711029Y292520D01*
X711148Y292470D01*
X711240Y292379D01*
X711629Y292218D01*
X711948Y291899D01*
X712120Y291483D01*
Y291033D01*
X711948Y290617D01*
X711629Y290299D01*
X711240Y290138D01*
X711148Y290046D01*
X711029Y289997D01*
X710980Y289878D01*
X710888Y289786D01*
Y289657D01*
X710839Y289538D01*
Y263479D01*
X710888Y263360D01*
Y263230D01*
X710980Y263139D01*
X711029Y263020D01*
X711148Y262970D01*
X711240Y262879D01*
X711629Y262718D01*
X711948Y262399D01*
X712120Y261983D01*
Y261533D01*
X711948Y261117D01*
X711629Y260799D01*
X711240Y260638D01*
X711148Y260546D01*
X711029Y260497D01*
X710980Y260378D01*
X710888Y260286D01*
Y260157D01*
X710839Y260038D01*
Y259479D01*
X710888Y259360D01*
Y259230D01*
X710980Y259139D01*
X711029Y259020D01*
X711148Y258970D01*
X711240Y258879D01*
X711629Y258718D01*
X711948Y258399D01*
X712120Y257983D01*
Y257533D01*
X711948Y257117D01*
X711629Y256799D01*
X711240Y256638D01*
X711148Y256546D01*
X711029Y256497D01*
X710980Y256378D01*
X710888Y256286D01*
Y256157D01*
X710839Y256038D01*
Y255479D01*
X710888Y255360D01*
Y255230D01*
X710980Y255139D01*
X711029Y255020D01*
X711148Y254970D01*
X711240Y254879D01*
X711629Y254718D01*
X711948Y254399D01*
X712120Y253983D01*
Y253533D01*
X711948Y253117D01*
X711789Y252958D01*
X711598Y252499D01*
X711789Y252040D01*
X732708Y231120D01*
X732501Y230621D01*
X732416D01*
X731761Y230349D01*
X731260Y229848D01*
X730989Y229194D01*
Y228485D01*
X731117Y228176D01*
X730783Y227676D01*
X725368D01*
X722137Y230907D01*
X722161Y231449D01*
X722184Y231477D01*
X722843D01*
X723497Y231748D01*
X723998Y232249D01*
X724269Y232904D01*
Y233613D01*
X723998Y234267D01*
X723497Y234768D01*
X722843Y235039D01*
X722134D01*
X721479Y234768D01*
X721022Y234310D01*
X720738Y234287D01*
X720455Y234310D01*
X719997Y234768D01*
X719343Y235039D01*
X718634D01*
X717979Y234768D01*
X717478Y234267D01*
X717207Y233613D01*
Y232904D01*
X717478Y232249D01*
X717979Y231748D01*
X718634Y231477D01*
X718793D01*
X718944Y230977D01*
X718839Y230907D01*
X717339Y229407D01*
X717140Y229110D01*
X717071Y228758D01*
Y227138D01*
X714421Y224488D01*
X714222Y224191D01*
X714152Y223839D01*
Y215276D01*
X713151Y214276D01*
X700006D01*
X696675Y217607D01*
X696377Y217806D01*
X696026Y217876D01*
X682668D01*
X681732Y218813D01*
X681769Y218904D01*
Y219613D01*
X681498Y220267D01*
X680997Y220768D01*
X680343Y221039D01*
X679634D01*
X678979Y220768D01*
X678478Y220267D01*
X678207Y219613D01*
Y218904D01*
X678478Y218249D01*
X678936Y217792D01*
X678960Y217508D01*
X678936Y217225D01*
X678478Y216767D01*
X678207Y216113D01*
Y215404D01*
X678478Y214749D01*
X678979Y214248D01*
X679634Y213977D01*
X680343D01*
X680997Y214248D01*
X681498Y214749D01*
X681536Y214841D01*
X695149D01*
X698580Y211409D01*
X698878Y211211D01*
X699229Y211141D01*
X713985D01*
X714336Y211211D01*
X714634Y211409D01*
X715276Y212052D01*
X715776Y212052D01*
X716029Y211799D01*
X716488Y211609D01*
X716488Y211609D01*
X716488Y211609D01*
X767185Y211609D01*
X767377Y211147D01*
X757488Y201258D01*
X563988D01*
X561550Y203696D01*
X561742Y204158D01*
X589588D01*
Y220858D01*
X559888D01*
Y215012D01*
X559426Y214820D01*
X557488Y216758D01*
X548660D01*
X548469Y217220D01*
X548498Y217249D01*
X548769Y217904D01*
Y218613D01*
X548498Y219267D01*
X547997Y219768D01*
X547343Y220039D01*
X546634D01*
X545979Y219768D01*
X545478Y219267D01*
X545207Y218613D01*
Y217904D01*
X545397Y217445D01*
X545164Y216973D01*
X545112Y216927D01*
X544854Y216892D01*
X542488Y219258D01*
Y337258D01*
X544988Y339758D01*
X557488D01*
X560988Y343258D01*
Y353758D01*
X563488Y356258D01*
X676105D01*
X676296Y355796D01*
D02*
G37*
G36*
X751214Y324324D02*
X751588Y324074D01*
X751838Y323700D01*
X751926Y323258D01*
X751838Y322817D01*
X751588Y322443D01*
X751214Y322192D01*
X751192Y322188D01*
X751111Y322133D01*
X751013Y322124D01*
X750912Y322001D01*
X750779Y321912D01*
X750760Y321816D01*
X750698Y321740D01*
X750553Y321261D01*
X750562Y321163D01*
X750525Y321073D01*
X750586Y320925D01*
X750601Y320766D01*
X750677Y320704D01*
X750715Y320613D01*
X756839Y314489D01*
Y307634D01*
X756339Y307427D01*
X755997Y307768D01*
X755343Y308039D01*
X754634D01*
X754325Y307911D01*
X753825Y308245D01*
Y313839D01*
X753755Y314191D01*
X753556Y314488D01*
X750637Y317407D01*
X750339Y317606D01*
X749988Y317676D01*
X740368D01*
X737637Y320407D01*
X737339Y320606D01*
X736988Y320676D01*
X717497D01*
X717115Y321058D01*
X717160Y321545D01*
X717585Y321743D01*
X717606Y321743D01*
X717691Y321658D01*
X717820D01*
X717939Y321609D01*
X748743D01*
X748813Y321638D01*
X748888Y321625D01*
X749035Y321730D01*
X749202Y321799D01*
X749231Y321869D01*
X749293Y321914D01*
X749606Y322414D01*
X749646Y322650D01*
X749693Y322885D01*
X749618Y323258D01*
X749706Y323700D01*
X749956Y324074D01*
X750331Y324324D01*
X750772Y324412D01*
X751214Y324324D01*
D02*
G37*
G36*
X222045Y305190D02*
X222503Y304732D01*
X223158Y304461D01*
X223866D01*
X223955Y304497D01*
X224541Y304199D01*
X224567Y304094D01*
X220363Y299890D01*
X220164Y299593D01*
X220094Y299242D01*
Y252789D01*
X220003Y252752D01*
X219661Y252410D01*
X219161Y252617D01*
Y299768D01*
X219136Y299829D01*
X219149Y299894D01*
X219043Y300052D01*
X218971Y300227D01*
X218910Y300252D01*
X218872Y300308D01*
X218696Y300426D01*
X218446Y300800D01*
X218358Y301242D01*
X218446Y301683D01*
X218696Y302058D01*
X218872Y302176D01*
X218910Y302231D01*
X218971Y302256D01*
X219043Y302431D01*
X219149Y302589D01*
X219136Y302654D01*
X219161Y302716D01*
Y304216D01*
X219577Y304494D01*
X219657Y304461D01*
X220366D01*
X221021Y304732D01*
X221479Y305190D01*
X221762Y305213D01*
X222045Y305190D01*
D02*
G37*
G36*
X774488Y342258D02*
Y290830D01*
X774026Y290639D01*
X770138Y294527D01*
Y334258D01*
X769947Y334718D01*
X764869Y339796D01*
X765060Y340258D01*
X766488D01*
X770488Y344258D01*
X772488D01*
X774488Y342258D01*
D02*
G37*
G36*
X756839Y304883D02*
Y257732D01*
X756864Y257671D01*
X756851Y257606D01*
X756956Y257448D01*
X757029Y257273D01*
X757091Y257248D01*
X757128Y257192D01*
X757304Y257074D01*
X757554Y256700D01*
X757642Y256258D01*
X757554Y255817D01*
X757304Y255443D01*
X757128Y255324D01*
X757091Y255269D01*
X757029Y255244D01*
X756957Y255069D01*
X756851Y254911D01*
X756864Y254846D01*
X756839Y254784D01*
Y253284D01*
X756423Y253006D01*
X756343Y253039D01*
X755634D01*
X754979Y252768D01*
X754522Y252310D01*
X754238Y252287D01*
X753955Y252310D01*
X753497Y252768D01*
X752843Y253039D01*
X752134D01*
X752045Y253003D01*
X751459Y253301D01*
X751433Y253406D01*
X755637Y257610D01*
X755836Y257907D01*
X755906Y258258D01*
Y304711D01*
X755997Y304748D01*
X756339Y305090D01*
X756839Y304883D01*
D02*
G37*
G36*
X232812Y331742D02*
X234017Y331742D01*
X235666Y330093D01*
X235964Y329894D01*
X236315Y329824D01*
X238929D01*
X263752Y305001D01*
X263502Y304751D01*
X263231Y304096D01*
Y303387D01*
X263502Y302733D01*
X264003Y302232D01*
X264512Y302021D01*
Y301462D01*
X264003Y301252D01*
X263502Y300751D01*
X263231Y300096D01*
Y299387D01*
X263502Y298733D01*
X264003Y298232D01*
X264512Y298021D01*
Y297462D01*
X264003Y297252D01*
X263502Y296751D01*
X263231Y296096D01*
Y295387D01*
X263502Y294733D01*
X264003Y294232D01*
X264512Y294021D01*
Y267962D01*
X264003Y267752D01*
X263502Y267251D01*
X263231Y266596D01*
Y265887D01*
X263502Y265233D01*
X264003Y264732D01*
X264512Y264521D01*
Y263962D01*
X264003Y263752D01*
X263502Y263251D01*
X263231Y262596D01*
Y261887D01*
X263502Y261233D01*
X264003Y260732D01*
X264512Y260521D01*
Y260242D01*
X268012Y256742D01*
X390512D01*
X393012Y254242D01*
Y243742D01*
X391012Y241742D01*
X383012Y241742D01*
X251012D01*
X246512Y246242D01*
Y284742D01*
X243512Y287742D01*
X230512D01*
X227271Y290982D01*
X227522Y291233D01*
X227793Y291887D01*
Y292596D01*
X227522Y293251D01*
X227021Y293752D01*
X226512Y293962D01*
Y295021D01*
X227021Y295232D01*
X227522Y295733D01*
X227793Y296387D01*
Y297096D01*
X227522Y297751D01*
X227021Y298252D01*
X226512Y298462D01*
Y299747D01*
X228861Y302096D01*
X229060Y302393D01*
X229071Y302452D01*
X229129Y302745D01*
Y328562D01*
X232310Y331742D01*
X232812D01*
D02*
G37*
G36*
X220003Y249732D02*
X220657Y249461D01*
X221366D01*
X221675Y249589D01*
X222175Y249254D01*
Y243661D01*
X222245Y243309D01*
X222444Y243012D01*
X225363Y240093D01*
X225661Y239894D01*
X226012Y239824D01*
X235632D01*
X238363Y237093D01*
X238661Y236894D01*
X239012Y236824D01*
X258503D01*
X258885Y236442D01*
X258840Y235955D01*
X258415Y235757D01*
X258394Y235757D01*
X258309Y235842D01*
X258180D01*
X258061Y235891D01*
X227257D01*
X227187Y235862D01*
X227112Y235875D01*
X226965Y235770D01*
X226798Y235701D01*
X226769Y235630D01*
X226707Y235586D01*
X226394Y235086D01*
X226354Y234850D01*
X226307Y234615D01*
X226381Y234242D01*
X226294Y233800D01*
X226044Y233426D01*
X225669Y233176D01*
X225228Y233088D01*
X224786Y233176D01*
X224412Y233426D01*
X224162Y233800D01*
X224074Y234242D01*
X224162Y234683D01*
X224412Y235057D01*
X224786Y235308D01*
X224808Y235312D01*
X224889Y235367D01*
X224987Y235376D01*
X225088Y235499D01*
X225221Y235588D01*
X225240Y235684D01*
X225302Y235760D01*
X225448Y236239D01*
X225438Y236337D01*
X225476Y236427D01*
X225414Y236575D01*
X225399Y236734D01*
X225323Y236796D01*
X225285Y236887D01*
X219161Y243011D01*
Y249866D01*
X219661Y250073D01*
X220003Y249732D01*
D02*
G37*
G36*
X592988Y315758D02*
X724988D01*
X729488Y311258D01*
Y272758D01*
X732488Y269758D01*
X745488D01*
X748729Y266518D01*
X748478Y266267D01*
X748207Y265613D01*
Y264904D01*
X748478Y264249D01*
X748979Y263748D01*
X749488Y263538D01*
Y262479D01*
X748979Y262268D01*
X748478Y261767D01*
X748207Y261113D01*
Y260404D01*
X748478Y259749D01*
X748979Y259248D01*
X749488Y259038D01*
Y257753D01*
X747139Y255404D01*
X746941Y255107D01*
X746929Y255048D01*
X746871Y254755D01*
Y228938D01*
X743690Y225758D01*
X743188D01*
X741983Y225758D01*
X740334Y227407D01*
X740036Y227606D01*
X739685Y227676D01*
X737071D01*
X712248Y252499D01*
X712498Y252749D01*
X712769Y253404D01*
Y254113D01*
X712498Y254767D01*
X711997Y255268D01*
X711488Y255479D01*
Y256038D01*
X711997Y256248D01*
X712498Y256749D01*
X712769Y257404D01*
Y258113D01*
X712498Y258767D01*
X711997Y259268D01*
X711488Y259479D01*
Y260038D01*
X711997Y260248D01*
X712498Y260749D01*
X712769Y261404D01*
Y262113D01*
X712498Y262767D01*
X711997Y263268D01*
X711488Y263479D01*
Y289538D01*
X711997Y289748D01*
X712498Y290249D01*
X712769Y290904D01*
Y291613D01*
X712498Y292267D01*
X711997Y292768D01*
X711488Y292979D01*
Y293538D01*
X711997Y293748D01*
X712498Y294249D01*
X712769Y294904D01*
Y295613D01*
X712498Y296267D01*
X711997Y296768D01*
X711488Y296979D01*
Y297258D01*
X707988Y300758D01*
X585488D01*
X582988Y303258D01*
Y313758D01*
X584988Y315758D01*
X592988Y315758D01*
D02*
G37*
G36*
X205862Y262973D02*
Y223242D01*
X206052Y222782D01*
X211131Y217704D01*
X210940Y217242D01*
X209512D01*
X205512Y213242D01*
X203512D01*
X201512Y215242D01*
Y266670D01*
X201974Y266861D01*
X205862Y262973D01*
D02*
G37*
G36*
X220552Y213282D02*
X221012Y213092D01*
X233288D01*
Y208515D01*
X233367Y208121D01*
X233169Y207923D01*
X232701Y207113D01*
X232459Y206209D01*
Y205727D01*
X232043Y205449D01*
X231866Y205523D01*
X231157D01*
X230503Y205252D01*
X230065Y204813D01*
X229769Y204866D01*
X229564Y204967D01*
Y209294D01*
X222459D01*
Y202189D01*
X229564D01*
Y202517D01*
X229769Y202618D01*
X230065Y202670D01*
X230503Y202232D01*
X231157Y201961D01*
X231423D01*
X231593Y201742D01*
X231349Y201242D01*
X221512D01*
X220012Y202742D01*
Y213170D01*
X220474Y213361D01*
X220552Y213282D01*
D02*
G37*
%LPC*%
G36*
X340532Y355694D02*
X339491D01*
X338486Y355425D01*
X337585Y354905D01*
X337429Y354749D01*
X340012Y352166D01*
X342595Y354749D01*
X342439Y354905D01*
X341537Y355425D01*
X340532Y355694D01*
D02*
G37*
G36*
X343019Y354325D02*
X340436Y351742D01*
X343019Y349159D01*
X343175Y349315D01*
X343695Y350216D01*
X343965Y351221D01*
Y352262D01*
X343695Y353267D01*
X343175Y354169D01*
X343019Y354325D01*
D02*
G37*
G36*
X337005D02*
X336849Y354169D01*
X336328Y353267D01*
X336059Y352262D01*
Y351221D01*
X336328Y350216D01*
X336849Y349315D01*
X337005Y349159D01*
X339587Y351742D01*
X337005Y354325D01*
D02*
G37*
G36*
X330480Y355294D02*
X329544D01*
X328640Y355052D01*
X327830Y354585D01*
X327169Y353923D01*
X326701Y353113D01*
X326459Y352209D01*
Y351274D01*
X326701Y350370D01*
X327169Y349560D01*
X327830Y348899D01*
X328640Y348431D01*
X329544Y348189D01*
X330480D01*
X331383Y348431D01*
X332193Y348899D01*
X332855Y349560D01*
X333322Y350370D01*
X333564Y351274D01*
Y352209D01*
X333322Y353113D01*
X332855Y353923D01*
X332193Y354585D01*
X331383Y355052D01*
X330480Y355294D01*
D02*
G37*
G36*
X320479D02*
X319544D01*
X318640Y355052D01*
X317830Y354585D01*
X317169Y353923D01*
X316701Y353113D01*
X316459Y352209D01*
Y351274D01*
X316701Y350370D01*
X317169Y349560D01*
X317830Y348899D01*
X318640Y348431D01*
X319544Y348189D01*
X320479D01*
X321383Y348431D01*
X322193Y348899D01*
X322855Y349560D01*
X323322Y350370D01*
X323565Y351274D01*
Y352209D01*
X323322Y353113D01*
X322855Y353923D01*
X322193Y354585D01*
X321383Y355052D01*
X320479Y355294D01*
D02*
G37*
G36*
X310479D02*
X309544D01*
X308640Y355052D01*
X307830Y354585D01*
X307169Y353923D01*
X306701Y353113D01*
X306459Y352209D01*
Y351274D01*
X306701Y350370D01*
X307169Y349560D01*
X307830Y348899D01*
X308640Y348431D01*
X309544Y348189D01*
X310479D01*
X311383Y348431D01*
X312193Y348899D01*
X312855Y349560D01*
X313322Y350370D01*
X313564Y351274D01*
Y352209D01*
X313322Y353113D01*
X312855Y353923D01*
X312193Y354585D01*
X311383Y355052D01*
X310479Y355294D01*
D02*
G37*
G36*
X300480D02*
X299544D01*
X298640Y355052D01*
X297830Y354585D01*
X297169Y353923D01*
X296701Y353113D01*
X296459Y352209D01*
Y351274D01*
X296701Y350370D01*
X297169Y349560D01*
X297830Y348899D01*
X298640Y348431D01*
X299544Y348189D01*
X300480D01*
X301383Y348431D01*
X302193Y348899D01*
X302855Y349560D01*
X303322Y350370D01*
X303565Y351274D01*
Y352209D01*
X303322Y353113D01*
X302855Y353923D01*
X302193Y354585D01*
X301383Y355052D01*
X300480Y355294D01*
D02*
G37*
G36*
X293565D02*
X286459D01*
Y348189D01*
X293565D01*
Y355294D01*
D02*
G37*
G36*
X277480D02*
X276544D01*
X275640Y355052D01*
X274830Y354585D01*
X274169Y353923D01*
X273701Y353113D01*
X273459Y352209D01*
Y351274D01*
X273701Y350370D01*
X274169Y349560D01*
X274830Y348899D01*
X275640Y348431D01*
X276544Y348189D01*
X277480D01*
X278383Y348431D01*
X279193Y348899D01*
X279855Y349560D01*
X280322Y350370D01*
X280564Y351274D01*
Y352209D01*
X280322Y353113D01*
X279855Y353923D01*
X279193Y354585D01*
X278383Y355052D01*
X277480Y355294D01*
D02*
G37*
G36*
X267479D02*
X266544D01*
X265640Y355052D01*
X264830Y354585D01*
X264169Y353923D01*
X263701Y353113D01*
X263459Y352209D01*
Y351274D01*
X263701Y350370D01*
X264169Y349560D01*
X264830Y348899D01*
X265640Y348431D01*
X266544Y348189D01*
X267479D01*
X268383Y348431D01*
X269193Y348899D01*
X269855Y349560D01*
X270322Y350370D01*
X270565Y351274D01*
Y352209D01*
X270322Y353113D01*
X269855Y353923D01*
X269193Y354585D01*
X268383Y355052D01*
X267479Y355294D01*
D02*
G37*
G36*
X257480D02*
X256544D01*
X255640Y355052D01*
X254830Y354585D01*
X254169Y353923D01*
X253701Y353113D01*
X253459Y352209D01*
Y351274D01*
X253701Y350370D01*
X254169Y349560D01*
X254830Y348899D01*
X255640Y348431D01*
X256544Y348189D01*
X257480D01*
X258383Y348431D01*
X259193Y348899D01*
X259855Y349560D01*
X260322Y350370D01*
X260564Y351274D01*
Y352209D01*
X260322Y353113D01*
X259855Y353923D01*
X259193Y354585D01*
X258383Y355052D01*
X257480Y355294D01*
D02*
G37*
G36*
X247480D02*
X246544D01*
X245640Y355052D01*
X244830Y354585D01*
X244169Y353923D01*
X243701Y353113D01*
X243459Y352209D01*
Y351274D01*
X243701Y350370D01*
X244169Y349560D01*
X244830Y348899D01*
X245640Y348431D01*
X246544Y348189D01*
X247480D01*
X248383Y348431D01*
X249193Y348899D01*
X249855Y349560D01*
X250322Y350370D01*
X250565Y351274D01*
Y352209D01*
X250322Y353113D01*
X249855Y353923D01*
X249193Y354585D01*
X248383Y355052D01*
X247480Y355294D01*
D02*
G37*
G36*
X237479D02*
X236544D01*
X235640Y355052D01*
X234830Y354585D01*
X234169Y353923D01*
X233701Y353113D01*
X233459Y352209D01*
Y351274D01*
X233701Y350370D01*
X234169Y349560D01*
X234830Y348899D01*
X235640Y348431D01*
X236544Y348189D01*
X237479D01*
X238383Y348431D01*
X239193Y348899D01*
X239855Y349560D01*
X240322Y350370D01*
X240564Y351274D01*
Y352209D01*
X240322Y353113D01*
X239855Y353923D01*
X239193Y354585D01*
X238383Y355052D01*
X237479Y355294D01*
D02*
G37*
G36*
X230564D02*
X223459D01*
Y348189D01*
X230564D01*
Y355294D01*
D02*
G37*
G36*
X340012Y351317D02*
X337429Y348734D01*
X337585Y348579D01*
X338486Y348058D01*
X339491Y347789D01*
X340532D01*
X341537Y348058D01*
X342439Y348579D01*
X342595Y348734D01*
X340012Y351317D01*
D02*
G37*
G36*
X425866Y338023D02*
X425157D01*
X424503Y337752D01*
X424002Y337251D01*
X423731Y336596D01*
Y335887D01*
X424002Y335233D01*
X424503Y334732D01*
X425157Y334461D01*
X425866D01*
X426521Y334732D01*
X427022Y335233D01*
X427293Y335887D01*
Y336596D01*
X427022Y337251D01*
X426521Y337752D01*
X425866Y338023D01*
D02*
G37*
G36*
X270366Y335023D02*
X269657D01*
X269003Y334752D01*
X268502Y334251D01*
X268231Y333596D01*
Y332887D01*
X268502Y332233D01*
X269003Y331732D01*
X269657Y331461D01*
X270366D01*
X271021Y331732D01*
X271522Y332233D01*
X271793Y332887D01*
Y333596D01*
X271522Y334251D01*
X271021Y334752D01*
X270366Y335023D01*
D02*
G37*
G36*
X290866Y316023D02*
X290158D01*
X289503Y315752D01*
X289114Y315363D01*
X287512D01*
X287512Y315363D01*
X287083Y315278D01*
X286719Y315035D01*
X286719Y315035D01*
X284719Y313035D01*
X284476Y312671D01*
X284390Y312242D01*
X284390Y312242D01*
Y308242D01*
X284390Y308242D01*
X284476Y307812D01*
X284719Y307449D01*
X286719Y305449D01*
X286719Y305449D01*
X287083Y305205D01*
X287512Y305120D01*
X287512Y305120D01*
X289114D01*
X289503Y304732D01*
X290158Y304461D01*
X290866D01*
X291521Y304732D01*
X292022Y305233D01*
X292293Y305887D01*
Y306596D01*
X292022Y307251D01*
X291521Y307752D01*
X290866Y308023D01*
X290158D01*
X289503Y307752D01*
X289114Y307363D01*
X287976D01*
X286633Y308706D01*
Y311777D01*
X287976Y313120D01*
X289114D01*
X289460Y312775D01*
X289483Y312492D01*
X289460Y312208D01*
X289002Y311751D01*
X288731Y311096D01*
Y310387D01*
X289002Y309733D01*
X289503Y309232D01*
X290158Y308961D01*
X290866D01*
X291521Y309232D01*
X292022Y309733D01*
X292293Y310387D01*
Y311096D01*
X292022Y311751D01*
X291564Y312208D01*
X291541Y312492D01*
X291564Y312775D01*
X292022Y313233D01*
X292293Y313887D01*
Y314596D01*
X292022Y315251D01*
X291521Y315752D01*
X290866Y316023D01*
D02*
G37*
G36*
X343866Y312523D02*
X343158D01*
X342503Y312252D01*
X342002Y311751D01*
X341731Y311096D01*
Y310387D01*
X342002Y309733D01*
X342503Y309232D01*
X343158Y308961D01*
X343866D01*
X344521Y309232D01*
X345022Y309733D01*
X345293Y310387D01*
Y311096D01*
X345022Y311751D01*
X344521Y312252D01*
X343866Y312523D01*
D02*
G37*
G36*
X337866Y308023D02*
X337158D01*
X336503Y307752D01*
X336002Y307251D01*
X335731Y306596D01*
Y305887D01*
X336002Y305233D01*
X336503Y304732D01*
X337158Y304461D01*
X337866D01*
X338521Y304732D01*
X339022Y305233D01*
X339293Y305887D01*
Y306596D01*
X339022Y307251D01*
X338521Y307752D01*
X337866Y308023D01*
D02*
G37*
G36*
X319512Y333391D02*
X304012D01*
X303553Y333201D01*
X302052Y331701D01*
X301862Y331242D01*
Y328242D01*
X302052Y327782D01*
X304052Y325782D01*
X304512Y325592D01*
X316243D01*
X318862Y322973D01*
Y298242D01*
X319053Y297782D01*
X320053Y296782D01*
X320512Y296592D01*
X328012D01*
X328471Y296782D01*
X332471Y300782D01*
X332661Y301242D01*
Y314973D01*
X335781Y318092D01*
X377743D01*
X379362Y316473D01*
Y306242D01*
X379553Y305782D01*
X381553Y303782D01*
X382012Y303592D01*
X382790D01*
X382944Y303092D01*
X379553Y299701D01*
X379362Y299242D01*
Y290511D01*
X377174Y288323D01*
X377003Y288252D01*
X376502Y287751D01*
X376431Y287579D01*
X374743Y285891D01*
X356281D01*
X349971Y292201D01*
X349512Y292391D01*
X340012D01*
X339552Y292201D01*
X337052Y289701D01*
X336862Y289242D01*
Y278242D01*
X337052Y277782D01*
X339552Y275282D01*
X340012Y275092D01*
X393012D01*
X393471Y275282D01*
X395971Y277782D01*
X396161Y278242D01*
Y300242D01*
X395971Y300701D01*
X393580Y303092D01*
X393733Y303592D01*
X400512D01*
X400971Y303782D01*
X402971Y305782D01*
X403161Y306242D01*
Y323742D01*
X402971Y324201D01*
X399971Y327201D01*
X399512Y327391D01*
X325781D01*
X319971Y333201D01*
X319512Y333391D01*
D02*
G37*
G36*
X236877Y284210D02*
X236009D01*
X235207Y283878D01*
X235113Y283784D01*
X236443Y282453D01*
X237773Y283784D01*
X237678Y283878D01*
X236877Y284210D01*
D02*
G37*
G36*
X229652D02*
X228785D01*
X227983Y283878D01*
X227888Y283784D01*
X229218Y282453D01*
X230549Y283784D01*
X230454Y283878D01*
X229652Y284210D01*
D02*
G37*
G36*
X234688Y283359D02*
X234594Y283265D01*
X234262Y282463D01*
Y281595D01*
X234594Y280794D01*
X234688Y280699D01*
X236019Y282029D01*
X234688Y283359D01*
D02*
G37*
G36*
X227464D02*
X227369Y283265D01*
X227037Y282463D01*
Y281595D01*
X227369Y280794D01*
X227464Y280699D01*
X228794Y282029D01*
X227464Y283359D01*
D02*
G37*
G36*
X238197D02*
X236867Y282029D01*
X238197Y280699D01*
X238292Y280794D01*
X238624Y281595D01*
Y282463D01*
X238292Y283265D01*
X238197Y283359D01*
D02*
G37*
G36*
X230973D02*
X229643Y282029D01*
X230973Y280699D01*
X231067Y280794D01*
X231399Y281595D01*
Y282463D01*
X231067Y283265D01*
X230973Y283359D01*
D02*
G37*
G36*
X236443Y281605D02*
X235113Y280275D01*
X235207Y280180D01*
X236009Y279848D01*
X236877D01*
X237678Y280180D01*
X237773Y280275D01*
X236443Y281605D01*
D02*
G37*
G36*
X229218D02*
X227888Y280275D01*
X227983Y280180D01*
X228785Y279848D01*
X229652D01*
X230454Y280180D01*
X230549Y280275D01*
X229218Y281605D01*
D02*
G37*
G36*
X240489Y280598D02*
X239621D01*
X238820Y280266D01*
X238725Y280171D01*
X240055Y278841D01*
X241385Y280171D01*
X241290Y280266D01*
X240489Y280598D01*
D02*
G37*
G36*
X233264D02*
X232397D01*
X231595Y280266D01*
X231501Y280171D01*
X232831Y278841D01*
X234161Y280171D01*
X234066Y280266D01*
X233264Y280598D01*
D02*
G37*
G36*
X238301Y279747D02*
X238206Y279652D01*
X237874Y278851D01*
Y277983D01*
X238206Y277181D01*
X238301Y277087D01*
X239631Y278417D01*
X238301Y279747D01*
D02*
G37*
G36*
X231076D02*
X230982Y279652D01*
X230649Y278851D01*
Y277983D01*
X230982Y277181D01*
X231076Y277087D01*
X232406Y278417D01*
X231076Y279747D01*
D02*
G37*
G36*
X241809D02*
X240479Y278417D01*
X241809Y277087D01*
X241904Y277181D01*
X242236Y277983D01*
Y278851D01*
X241904Y279652D01*
X241809Y279747D01*
D02*
G37*
G36*
X234585D02*
X233255Y278417D01*
X234585Y277087D01*
X234680Y277181D01*
X235012Y277983D01*
Y278851D01*
X234680Y279652D01*
X234585Y279747D01*
D02*
G37*
G36*
X227361D02*
X226030Y278417D01*
X227361Y277087D01*
X227455Y277181D01*
X227787Y277983D01*
Y278851D01*
X227455Y279652D01*
X227361Y279747D01*
D02*
G37*
G36*
X240055Y277993D02*
X238725Y276662D01*
X238820Y276568D01*
X239621Y276236D01*
X240489D01*
X241290Y276568D01*
X241385Y276662D01*
X240055Y277993D01*
D02*
G37*
G36*
X232831D02*
X231501Y276662D01*
X231595Y276568D01*
X232397Y276236D01*
X233264D01*
X234066Y276568D01*
X234161Y276662D01*
X232831Y277993D01*
D02*
G37*
G36*
X236877Y276986D02*
X236009D01*
X235207Y276654D01*
X235113Y276559D01*
X236443Y275229D01*
X237773Y276559D01*
X237678Y276654D01*
X236877Y276986D01*
D02*
G37*
G36*
X229652D02*
X228785D01*
X227983Y276654D01*
X227888Y276559D01*
X229218Y275229D01*
X230549Y276559D01*
X230454Y276654D01*
X229652Y276986D01*
D02*
G37*
G36*
X238197Y276135D02*
X236867Y274805D01*
X238197Y273475D01*
X238292Y273569D01*
X238624Y274371D01*
Y275238D01*
X238292Y276040D01*
X238197Y276135D01*
D02*
G37*
G36*
X230973D02*
X229643Y274805D01*
X230973Y273475D01*
X231067Y273569D01*
X231399Y274371D01*
Y275238D01*
X231067Y276040D01*
X230973Y276135D01*
D02*
G37*
G36*
X234688Y276135D02*
X234594Y276040D01*
X234262Y275238D01*
Y274371D01*
X234594Y273569D01*
X234688Y273475D01*
X236019Y274805D01*
X234688Y276135D01*
D02*
G37*
G36*
X227464D02*
X227369Y276040D01*
X227037Y275238D01*
Y274371D01*
X227369Y273569D01*
X227464Y273475D01*
X228794Y274805D01*
X227464Y276135D01*
D02*
G37*
G36*
X236443Y274380D02*
X235113Y273050D01*
X235207Y272956D01*
X236009Y272623D01*
X236877D01*
X237678Y272956D01*
X237773Y273050D01*
X236443Y274380D01*
D02*
G37*
G36*
X229218D02*
X227888Y273050D01*
X227983Y272956D01*
X228785Y272623D01*
X229652D01*
X230454Y272956D01*
X230549Y273050D01*
X229218Y274380D01*
D02*
G37*
G36*
X240489Y273374D02*
X239621D01*
X238820Y273042D01*
X238725Y272947D01*
X240055Y271617D01*
X241385Y272947D01*
X241290Y273042D01*
X240489Y273374D01*
D02*
G37*
G36*
X233264D02*
X232397D01*
X231595Y273042D01*
X231501Y272947D01*
X232831Y271617D01*
X234161Y272947D01*
X234066Y273042D01*
X233264Y273374D01*
D02*
G37*
G36*
X241809Y272523D02*
X240479Y271193D01*
X241810Y269862D01*
X241904Y269957D01*
X242236Y270759D01*
Y271626D01*
X241904Y272428D01*
X241809Y272523D01*
D02*
G37*
G36*
X234585D02*
X233255Y271193D01*
X234585Y269862D01*
X234680Y269957D01*
X235012Y270759D01*
Y271626D01*
X234680Y272428D01*
X234585Y272523D01*
D02*
G37*
G36*
X227361D02*
X226030Y271193D01*
X227361Y269862D01*
X227455Y269957D01*
X227787Y270759D01*
Y271626D01*
X227455Y272428D01*
X227361Y272523D01*
D02*
G37*
G36*
X238301Y272523D02*
X238206Y272428D01*
X237874Y271626D01*
Y270759D01*
X238206Y269957D01*
X238301Y269862D01*
X239631Y271193D01*
X238301Y272523D01*
D02*
G37*
G36*
X231076D02*
X230982Y272428D01*
X230649Y271626D01*
Y270759D01*
X230982Y269957D01*
X231076Y269862D01*
X232406Y271193D01*
X231076Y272523D01*
D02*
G37*
G36*
X240055Y270768D02*
X238725Y269438D01*
X238820Y269343D01*
X239621Y269011D01*
X240489D01*
X241290Y269343D01*
X241385Y269438D01*
X240055Y270768D01*
D02*
G37*
G36*
X232831D02*
X231501Y269438D01*
X231595Y269343D01*
X232397Y269011D01*
X233264D01*
X234066Y269343D01*
X234161Y269438D01*
X232831Y270768D01*
D02*
G37*
G36*
X236877Y269761D02*
X236009D01*
X235207Y269429D01*
X235113Y269335D01*
X236443Y268004D01*
X237773Y269335D01*
X237678Y269429D01*
X236877Y269761D01*
D02*
G37*
G36*
X229652D02*
X228785D01*
X227983Y269429D01*
X227888Y269335D01*
X229218Y268004D01*
X230549Y269335D01*
X230454Y269429D01*
X229652Y269761D01*
D02*
G37*
G36*
X234688Y268910D02*
X234594Y268816D01*
X234262Y268014D01*
Y267146D01*
X234594Y266345D01*
X234688Y266250D01*
X236019Y267580D01*
X234688Y268910D01*
D02*
G37*
G36*
X227464D02*
X227369Y268816D01*
X227037Y268014D01*
Y267146D01*
X227369Y266345D01*
X227464Y266250D01*
X228794Y267580D01*
X227464Y268910D01*
D02*
G37*
G36*
X238197D02*
X236867Y267580D01*
X238197Y266250D01*
X238292Y266345D01*
X238624Y267146D01*
Y268014D01*
X238292Y268816D01*
X238197Y268910D01*
D02*
G37*
G36*
X230973D02*
X229643Y267580D01*
X230973Y266250D01*
X231067Y266345D01*
X231399Y267146D01*
Y268014D01*
X231067Y268816D01*
X230973Y268910D01*
D02*
G37*
G36*
X236443Y267156D02*
X235113Y265826D01*
X235207Y265731D01*
X236009Y265399D01*
X236877D01*
X237678Y265731D01*
X237773Y265826D01*
X236443Y267156D01*
D02*
G37*
G36*
X229218D02*
X227888Y265826D01*
X227983Y265731D01*
X228785Y265399D01*
X229652D01*
X230454Y265731D01*
X230549Y265826D01*
X229218Y267156D01*
D02*
G37*
G36*
X409366Y231523D02*
X408658D01*
X408003Y231252D01*
X407513Y230761D01*
X399011D01*
X398521Y231252D01*
X397866Y231523D01*
X397158D01*
X396503Y231252D01*
X396002Y230751D01*
X395731Y230096D01*
Y229387D01*
X396002Y228733D01*
X396503Y228232D01*
X397158Y227961D01*
X397866D01*
X398521Y228232D01*
X399011Y228722D01*
X407513D01*
X408003Y228232D01*
X408658Y227961D01*
X409366D01*
X410021Y228232D01*
X410522Y228733D01*
X410793Y229387D01*
Y230096D01*
X410522Y230751D01*
X410021Y231252D01*
X409366Y231523D01*
D02*
G37*
G36*
X332366Y219523D02*
X331658D01*
X331003Y219252D01*
X330502Y218751D01*
X330231Y218096D01*
Y217387D01*
X330502Y216733D01*
X331003Y216232D01*
X331658Y215961D01*
X332366D01*
X333021Y216232D01*
X333522Y216733D01*
X333793Y217387D01*
Y218096D01*
X333522Y218751D01*
X333021Y219252D01*
X332366Y219523D01*
D02*
G37*
G36*
X323866Y222523D02*
X323158D01*
X322503Y222252D01*
X322002Y221751D01*
X321731Y221096D01*
Y220387D01*
X322002Y219733D01*
X322313Y219421D01*
X322229Y218845D01*
X322003Y218752D01*
X321502Y218251D01*
X321231Y217596D01*
Y216887D01*
X321502Y216233D01*
X322003Y215732D01*
X322657Y215461D01*
X323366D01*
X324021Y215732D01*
X324522Y216233D01*
X324793Y216887D01*
Y217596D01*
X324522Y218251D01*
X324210Y218562D01*
X324295Y219138D01*
X324521Y219232D01*
X325022Y219733D01*
X325293Y220387D01*
Y221096D01*
X325022Y221751D01*
X324521Y222252D01*
X323866Y222523D01*
D02*
G37*
G36*
X395565Y219294D02*
X388459D01*
Y212189D01*
X395565D01*
Y219294D01*
D02*
G37*
G36*
X375854Y222798D02*
X374798Y222659D01*
X373814Y222251D01*
X372969Y221603D01*
X372321Y220758D01*
X371914Y219774D01*
X371775Y218718D01*
Y215765D01*
X371914Y214709D01*
X372321Y213725D01*
X372969Y212880D01*
X373814Y212232D01*
X374798Y211824D01*
X375854Y211685D01*
X376910Y211824D01*
X377894Y212232D01*
X378739Y212880D01*
X379387Y213725D01*
X379795Y214709D01*
X379934Y215765D01*
Y218718D01*
X379795Y219774D01*
X379387Y220758D01*
X378739Y221603D01*
X377894Y222251D01*
X376910Y222659D01*
X375854Y222798D01*
D02*
G37*
G36*
X366012D02*
X364956Y222659D01*
X363972Y222251D01*
X363127Y221603D01*
X362478Y220758D01*
X362071Y219774D01*
X361932Y218718D01*
Y215765D01*
X362034Y214994D01*
X358505Y211465D01*
X357664D01*
X357565Y211965D01*
X358209Y212232D01*
X359054Y212880D01*
X359702Y213725D01*
X360110Y214709D01*
X360249Y215765D01*
Y218718D01*
X360110Y219774D01*
X359702Y220758D01*
X359054Y221603D01*
X358209Y222251D01*
X357225Y222659D01*
X356169Y222798D01*
X355113Y222659D01*
X354129Y222251D01*
X353284Y221603D01*
X352636Y220758D01*
X352228Y219774D01*
X352089Y218718D01*
Y215765D01*
X352228Y214709D01*
X352636Y213725D01*
X353284Y212880D01*
X354129Y212232D01*
X354774Y211965D01*
X354674Y211465D01*
X345512D01*
X345043Y211372D01*
X344647Y211107D01*
X340563Y207023D01*
X340158D01*
X339503Y206752D01*
X339002Y206251D01*
X338731Y205596D01*
Y204887D01*
X339002Y204233D01*
X339503Y203732D01*
X340158Y203461D01*
X340866D01*
X341521Y203732D01*
X342022Y204233D01*
X342293Y204887D01*
Y205293D01*
X346019Y209018D01*
X359012D01*
X359480Y209111D01*
X359877Y209377D01*
X363271Y212770D01*
X363972Y212232D01*
X364956Y211824D01*
X366012Y211685D01*
X367068Y211824D01*
X368052Y212232D01*
X368897Y212880D01*
X369545Y213725D01*
X369953Y214709D01*
X370092Y215765D01*
Y218718D01*
X369953Y219774D01*
X369545Y220758D01*
X368897Y221603D01*
X368052Y222251D01*
X367068Y222659D01*
X366012Y222798D01*
D02*
G37*
G36*
X346366Y206523D02*
X345657D01*
X345003Y206252D01*
X344502Y205751D01*
X344231Y205096D01*
Y204387D01*
X344502Y203733D01*
X345003Y203232D01*
X345657Y202961D01*
X346366D01*
X347021Y203232D01*
X347522Y203733D01*
X347793Y204387D01*
Y205096D01*
X347522Y205751D01*
X347021Y206252D01*
X346366Y206523D01*
D02*
G37*
G36*
X392479Y209294D02*
X391544D01*
X390640Y209052D01*
X389830Y208585D01*
X389169Y207923D01*
X388701Y207113D01*
X388459Y206209D01*
Y205274D01*
X388701Y204370D01*
X389169Y203560D01*
X389830Y202899D01*
X390640Y202431D01*
X391544Y202189D01*
X392479D01*
X393383Y202431D01*
X394193Y202899D01*
X394855Y203560D01*
X395322Y204370D01*
X395565Y205274D01*
Y206209D01*
X395322Y207113D01*
X394855Y207923D01*
X394193Y208585D01*
X393383Y209052D01*
X392479Y209294D01*
D02*
G37*
%LPD*%
G36*
X325512Y326742D02*
X399512D01*
X402512Y323742D01*
Y306242D01*
X400512Y304242D01*
X382012D01*
X380012Y306242D01*
Y316742D01*
X378012Y318742D01*
X335512D01*
X332012Y315242D01*
Y301242D01*
X328012Y297242D01*
X320512D01*
X319512Y298242D01*
Y323242D01*
X316512Y326242D01*
X304512D01*
X302512Y328242D01*
Y331242D01*
X304012Y332742D01*
X319512D01*
X325512Y326742D01*
D02*
G37*
G36*
X395512Y300242D02*
Y278242D01*
X393012Y275742D01*
X340012D01*
X337512Y278242D01*
Y289242D01*
X340012Y291742D01*
X349512D01*
X356012Y285242D01*
X375012D01*
X380012Y290242D01*
Y299242D01*
X383512Y302742D01*
X393012D01*
X395512Y300242D01*
D02*
G37*
%LPC*%
G36*
X710488Y339074D02*
X709793Y338936D01*
X709204Y338542D01*
X708811Y337953D01*
X708672Y337258D01*
X708811Y336563D01*
X709204Y335974D01*
X709793Y335581D01*
X710488Y335442D01*
X711183Y335581D01*
X711772Y335974D01*
X712166Y336563D01*
X712304Y337258D01*
X712166Y337953D01*
X711772Y338542D01*
X711183Y338936D01*
X710488Y339074D01*
D02*
G37*
G36*
X708488Y335074D02*
X707793Y334936D01*
X707204Y334542D01*
X706811Y333953D01*
X706672Y333258D01*
X706811Y332563D01*
X707204Y331974D01*
X707793Y331581D01*
X708488Y331442D01*
X709183Y331581D01*
X709772Y331974D01*
X710166Y332563D01*
X710304Y333258D01*
X710166Y333953D01*
X709772Y334542D01*
X709183Y334936D01*
X708488Y335074D01*
D02*
G37*
G36*
X753988Y327574D02*
X753293Y327436D01*
X752704Y327042D01*
X752311Y326453D01*
X752172Y325758D01*
X752311Y325063D01*
X752704Y324474D01*
X753293Y324081D01*
X753988Y323942D01*
X754683Y324081D01*
X755272Y324474D01*
X755666Y325063D01*
X755804Y325758D01*
X755666Y326453D01*
X755272Y327042D01*
X754683Y327436D01*
X753988Y327574D01*
D02*
G37*
G36*
X771988Y258574D02*
X771293Y258436D01*
X770704Y258042D01*
X770310Y257453D01*
X770172Y256758D01*
X770310Y256063D01*
X770704Y255474D01*
X771293Y255081D01*
X771988Y254942D01*
X772683Y255081D01*
X773272Y255474D01*
X773666Y256063D01*
X773804Y256758D01*
X773666Y257453D01*
X773272Y258042D01*
X772683Y258436D01*
X771988Y258574D01*
D02*
G37*
G36*
X771488Y225574D02*
X770793Y225436D01*
X770204Y225042D01*
X769810Y224453D01*
X769672Y223758D01*
X769810Y223063D01*
X770204Y222474D01*
X770793Y222081D01*
X771132Y222013D01*
Y221503D01*
X770793Y221436D01*
X770204Y221042D01*
X769810Y220453D01*
X769672Y219758D01*
X769810Y219063D01*
X770204Y218474D01*
X770793Y218081D01*
X771488Y217942D01*
X772183Y218081D01*
X772772Y218474D01*
X773166Y219063D01*
X773304Y219758D01*
X773166Y220453D01*
X772772Y221042D01*
X772183Y221436D01*
X771845Y221503D01*
Y222013D01*
X772183Y222081D01*
X772772Y222474D01*
X773166Y223063D01*
X773304Y223758D01*
X773166Y224453D01*
X772772Y225042D01*
X772183Y225436D01*
X771488Y225574D01*
D02*
G37*
G36*
X735988Y221574D02*
X735293Y221436D01*
X734704Y221042D01*
X734310Y220453D01*
X734172Y219758D01*
X734310Y219063D01*
X734626Y218591D01*
X734673Y218258D01*
X734626Y217925D01*
X734310Y217453D01*
X734172Y216758D01*
X734310Y216063D01*
X734704Y215474D01*
X735293Y215081D01*
X735988Y214942D01*
X736683Y215081D01*
X737272Y215474D01*
X737666Y216063D01*
X737804Y216758D01*
X737666Y217453D01*
X737351Y217925D01*
X737303Y218258D01*
X737351Y218591D01*
X737666Y219063D01*
X737804Y219758D01*
X737666Y220453D01*
X737272Y221042D01*
X736683Y221436D01*
X735988Y221574D01*
D02*
G37*
G36*
X727207Y216574D02*
X726512Y216436D01*
X725923Y216042D01*
X725529Y215453D01*
X725391Y214758D01*
X725529Y214063D01*
X725923Y213474D01*
X726512Y213081D01*
X727207Y212942D01*
X727902Y213081D01*
X728491Y213474D01*
X728885Y214063D01*
X729023Y214758D01*
X728885Y215453D01*
X728491Y216042D01*
X727902Y216436D01*
X727207Y216574D01*
D02*
G37*
G36*
X248793Y344558D02*
X248098Y344419D01*
X247509Y344026D01*
X247115Y343437D01*
X246977Y342742D01*
X247115Y342047D01*
X247509Y341458D01*
X248098Y341064D01*
X248793Y340926D01*
X249488Y341064D01*
X250077Y341458D01*
X250471Y342047D01*
X250609Y342742D01*
X250471Y343437D01*
X250077Y344026D01*
X249488Y344419D01*
X248793Y344558D01*
D02*
G37*
G36*
X240012Y342558D02*
X239317Y342419D01*
X238728Y342026D01*
X238334Y341437D01*
X238196Y340742D01*
X238334Y340047D01*
X238649Y339575D01*
X238697Y339242D01*
X238649Y338909D01*
X238334Y338437D01*
X238196Y337742D01*
X238334Y337047D01*
X238728Y336458D01*
X239317Y336064D01*
X240012Y335926D01*
X240707Y336064D01*
X241296Y336458D01*
X241689Y337047D01*
X241828Y337742D01*
X241689Y338437D01*
X241374Y338909D01*
X241327Y339242D01*
X241374Y339575D01*
X241689Y340047D01*
X241828Y340742D01*
X241689Y341437D01*
X241296Y342026D01*
X240707Y342419D01*
X240012Y342558D01*
D02*
G37*
G36*
X204512Y339558D02*
X203817Y339419D01*
X203228Y339026D01*
X202834Y338437D01*
X202696Y337742D01*
X202834Y337047D01*
X203228Y336458D01*
X203817Y336064D01*
X204155Y335997D01*
Y335487D01*
X203817Y335419D01*
X203228Y335026D01*
X202834Y334437D01*
X202696Y333742D01*
X202834Y333047D01*
X203228Y332458D01*
X203817Y332064D01*
X204512Y331926D01*
X205207Y332064D01*
X205796Y332458D01*
X206189Y333047D01*
X206328Y333742D01*
X206189Y334437D01*
X205796Y335026D01*
X205207Y335419D01*
X204868Y335487D01*
Y335997D01*
X205207Y336064D01*
X205796Y336458D01*
X206189Y337047D01*
X206328Y337742D01*
X206189Y338437D01*
X205796Y339026D01*
X205207Y339419D01*
X204512Y339558D01*
D02*
G37*
G36*
X204012Y302558D02*
X203317Y302419D01*
X202728Y302026D01*
X202334Y301437D01*
X202196Y300742D01*
X202334Y300047D01*
X202728Y299458D01*
X203317Y299064D01*
X204012Y298926D01*
X204707Y299064D01*
X205296Y299458D01*
X205690Y300047D01*
X205828Y300742D01*
X205690Y301437D01*
X205296Y302026D01*
X204707Y302419D01*
X204012Y302558D01*
D02*
G37*
G36*
X222012Y233558D02*
X221317Y233419D01*
X220728Y233026D01*
X220334Y232437D01*
X220196Y231742D01*
X220334Y231047D01*
X220728Y230458D01*
X221317Y230064D01*
X222012Y229926D01*
X222707Y230064D01*
X223296Y230458D01*
X223690Y231047D01*
X223828Y231742D01*
X223690Y232437D01*
X223296Y233026D01*
X222707Y233419D01*
X222012Y233558D01*
D02*
G37*
G36*
X267512Y226058D02*
X266817Y225919D01*
X266228Y225526D01*
X265834Y224937D01*
X265696Y224242D01*
X265834Y223547D01*
X266228Y222958D01*
X266817Y222564D01*
X267512Y222426D01*
X268207Y222564D01*
X268796Y222958D01*
X269190Y223547D01*
X269328Y224242D01*
X269190Y224937D01*
X268796Y225526D01*
X268207Y225919D01*
X267512Y226058D01*
D02*
G37*
G36*
X265512Y222058D02*
X264817Y221919D01*
X264228Y221526D01*
X263834Y220937D01*
X263696Y220242D01*
X263834Y219547D01*
X264228Y218958D01*
X264817Y218564D01*
X265512Y218426D01*
X266207Y218564D01*
X266796Y218958D01*
X267190Y219547D01*
X267328Y220242D01*
X267190Y220937D01*
X266796Y221526D01*
X266207Y221919D01*
X265512Y222058D01*
D02*
G37*
G36*
X630343Y354539D02*
X629634D01*
X628979Y354268D01*
X628478Y353767D01*
X628207Y353113D01*
Y352404D01*
X628478Y351749D01*
X628979Y351248D01*
X629634Y350977D01*
X630343D01*
X630997Y351248D01*
X631498Y351749D01*
X631769Y352404D01*
Y353113D01*
X631498Y353767D01*
X630997Y354268D01*
X630343Y354539D01*
D02*
G37*
G36*
X584456Y355311D02*
X583521D01*
X582617Y355069D01*
X581807Y354601D01*
X581145Y353940D01*
X580678Y353130D01*
X580436Y352226D01*
Y351291D01*
X580678Y350387D01*
X581145Y349577D01*
X581807Y348915D01*
X582617Y348448D01*
X583521Y348206D01*
X584456D01*
X585360Y348448D01*
X586170Y348915D01*
X586831Y349577D01*
X587299Y350387D01*
X587541Y351291D01*
Y352226D01*
X587299Y353130D01*
X586831Y353940D01*
X586170Y354601D01*
X585360Y355069D01*
X584456Y355311D01*
D02*
G37*
G36*
X587541Y345311D02*
X580436D01*
Y338206D01*
X587541D01*
Y345311D01*
D02*
G37*
G36*
X644343Y341539D02*
X643634D01*
X642979Y341268D01*
X642478Y340767D01*
X642207Y340113D01*
Y339404D01*
X642478Y338749D01*
X642979Y338248D01*
X643634Y337977D01*
X644343D01*
X644997Y338248D01*
X645498Y338749D01*
X645769Y339404D01*
Y340113D01*
X645498Y340767D01*
X644997Y341268D01*
X644343Y341539D01*
D02*
G37*
G36*
X653343Y342039D02*
X652634D01*
X651979Y341768D01*
X651478Y341267D01*
X651207Y340613D01*
Y339904D01*
X651478Y339249D01*
X651790Y338938D01*
X651705Y338362D01*
X651479Y338268D01*
X650978Y337767D01*
X650707Y337113D01*
Y336404D01*
X650978Y335749D01*
X651479Y335248D01*
X652134Y334977D01*
X652843D01*
X653497Y335248D01*
X653998Y335749D01*
X654269Y336404D01*
Y337113D01*
X653998Y337767D01*
X653687Y338079D01*
X653771Y338655D01*
X653997Y338748D01*
X654498Y339249D01*
X654769Y339904D01*
Y340613D01*
X654498Y341267D01*
X653997Y341768D01*
X653343Y342039D01*
D02*
G37*
G36*
X635843Y354039D02*
X635134D01*
X634479Y353768D01*
X633978Y353267D01*
X633707Y352613D01*
Y352207D01*
X629982Y348482D01*
X616988D01*
X616520Y348389D01*
X616123Y348124D01*
X612729Y344730D01*
X612028Y345268D01*
X611044Y345675D01*
X609988Y345814D01*
X608932Y345675D01*
X607948Y345268D01*
X607103Y344620D01*
X606455Y343775D01*
X606047Y342791D01*
X605908Y341735D01*
Y338782D01*
X606047Y337726D01*
X606455Y336742D01*
X607103Y335897D01*
X607948Y335249D01*
X608932Y334841D01*
X609988Y334702D01*
X611044Y334841D01*
X612028Y335249D01*
X612873Y335897D01*
X613521Y336742D01*
X613929Y337726D01*
X614068Y338782D01*
Y341735D01*
X613967Y342506D01*
X617495Y346035D01*
X618336D01*
X618435Y345535D01*
X617791Y345268D01*
X616946Y344620D01*
X616298Y343775D01*
X615890Y342791D01*
X615751Y341735D01*
Y338782D01*
X615890Y337726D01*
X616298Y336742D01*
X616946Y335897D01*
X617791Y335249D01*
X618775Y334841D01*
X619831Y334702D01*
X620887Y334841D01*
X621871Y335249D01*
X622716Y335897D01*
X623364Y336742D01*
X623772Y337726D01*
X623911Y338782D01*
Y341735D01*
X623772Y342791D01*
X623364Y343775D01*
X622716Y344620D01*
X621871Y345268D01*
X621226Y345535D01*
X621326Y346035D01*
X630488D01*
X630957Y346128D01*
X631353Y346393D01*
X635437Y350477D01*
X635843D01*
X636497Y350748D01*
X636998Y351249D01*
X637269Y351904D01*
Y352613D01*
X636998Y353267D01*
X636497Y353768D01*
X635843Y354039D01*
D02*
G37*
G36*
X600146Y345814D02*
X599090Y345675D01*
X598106Y345268D01*
X597261Y344620D01*
X596613Y343775D01*
X596205Y342791D01*
X596066Y341735D01*
Y338782D01*
X596205Y337726D01*
X596613Y336742D01*
X597261Y335897D01*
X598106Y335249D01*
X599090Y334841D01*
X600146Y334702D01*
X601202Y334841D01*
X602186Y335249D01*
X603031Y335897D01*
X603679Y336742D01*
X604086Y337726D01*
X604225Y338782D01*
Y341735D01*
X604086Y342791D01*
X603679Y343775D01*
X603031Y344620D01*
X602186Y345268D01*
X601202Y345675D01*
X600146Y345814D01*
D02*
G37*
G36*
X578843Y329539D02*
X578134D01*
X577479Y329268D01*
X576989Y328778D01*
X568488D01*
X567997Y329268D01*
X567343Y329539D01*
X566634D01*
X565979Y329268D01*
X565478Y328767D01*
X565207Y328113D01*
Y327404D01*
X565478Y326749D01*
X565979Y326248D01*
X566634Y325977D01*
X567343D01*
X567997Y326248D01*
X568488Y326739D01*
X576989D01*
X577479Y326248D01*
X578134Y325977D01*
X578843D01*
X579497Y326248D01*
X579998Y326749D01*
X580269Y327404D01*
Y328113D01*
X579998Y328767D01*
X579497Y329268D01*
X578843Y329539D01*
D02*
G37*
G36*
X747215Y292101D02*
X746348D01*
X745546Y291769D01*
X745451Y291674D01*
X746782Y290344D01*
X748112Y291674D01*
X748017Y291769D01*
X747215Y292101D01*
D02*
G37*
G36*
X739991D02*
X739123D01*
X738322Y291769D01*
X738227Y291674D01*
X739557Y290344D01*
X740887Y291674D01*
X740793Y291769D01*
X739991Y292101D01*
D02*
G37*
G36*
X748536Y291250D02*
X747206Y289920D01*
X748536Y288590D01*
X748631Y288684D01*
X748963Y289486D01*
Y290354D01*
X748631Y291155D01*
X748536Y291250D01*
D02*
G37*
G36*
X745027D02*
X744933Y291155D01*
X744600Y290354D01*
Y289486D01*
X744933Y288684D01*
X745027Y288590D01*
X746357Y289920D01*
X745027Y291250D01*
D02*
G37*
G36*
X741312D02*
X739981Y289920D01*
X741312Y288590D01*
X741406Y288684D01*
X741738Y289486D01*
Y290354D01*
X741406Y291155D01*
X741312Y291250D01*
D02*
G37*
G36*
X737803D02*
X737708Y291155D01*
X737376Y290354D01*
Y289486D01*
X737708Y288684D01*
X737803Y288590D01*
X739133Y289920D01*
X737803Y291250D01*
D02*
G37*
G36*
X746782Y289495D02*
X745451Y288165D01*
X745546Y288071D01*
X746348Y287739D01*
X747215D01*
X748017Y288071D01*
X748112Y288165D01*
X746782Y289495D01*
D02*
G37*
G36*
X739557D02*
X738227Y288165D01*
X738322Y288071D01*
X739123Y287739D01*
X739991D01*
X740793Y288071D01*
X740887Y288165D01*
X739557Y289495D01*
D02*
G37*
G36*
X743603Y288489D02*
X742735D01*
X741934Y288157D01*
X741839Y288062D01*
X743169Y286732D01*
X744499Y288062D01*
X744405Y288157D01*
X743603Y288489D01*
D02*
G37*
G36*
X736379D02*
X735511D01*
X734710Y288157D01*
X734615Y288062D01*
X735945Y286732D01*
X737275Y288062D01*
X737181Y288157D01*
X736379Y288489D01*
D02*
G37*
G36*
X748639Y287638D02*
X748545Y287543D01*
X748213Y286741D01*
Y285874D01*
X748545Y285072D01*
X748639Y284977D01*
X749969Y286308D01*
X748639Y287638D01*
D02*
G37*
G36*
X741415D02*
X741320Y287543D01*
X740988Y286741D01*
Y285874D01*
X741320Y285072D01*
X741415Y284977D01*
X742745Y286308D01*
X741415Y287638D01*
D02*
G37*
G36*
X734191D02*
X734096Y287543D01*
X733764Y286741D01*
Y285874D01*
X734096Y285072D01*
X734191Y284977D01*
X735521Y286308D01*
X734191Y287638D01*
D02*
G37*
G36*
X744924Y287638D02*
X743594Y286308D01*
X744924Y284977D01*
X745018Y285072D01*
X745351Y285874D01*
Y286741D01*
X745018Y287543D01*
X744924Y287638D01*
D02*
G37*
G36*
X737699D02*
X736369Y286308D01*
X737699Y284977D01*
X737794Y285072D01*
X738126Y285874D01*
Y286741D01*
X737794Y287543D01*
X737699Y287638D01*
D02*
G37*
G36*
X743169Y285883D02*
X741839Y284553D01*
X741934Y284458D01*
X742735Y284126D01*
X743603D01*
X744405Y284458D01*
X744499Y284553D01*
X743169Y285883D01*
D02*
G37*
G36*
X735945D02*
X734615Y284553D01*
X734710Y284458D01*
X735511Y284126D01*
X736379D01*
X737181Y284458D01*
X737275Y284553D01*
X735945Y285883D01*
D02*
G37*
G36*
X747215Y284876D02*
X746348D01*
X745546Y284544D01*
X745451Y284450D01*
X746782Y283120D01*
X748112Y284450D01*
X748017Y284544D01*
X747215Y284876D01*
D02*
G37*
G36*
X739991D02*
X739123D01*
X738322Y284544D01*
X738227Y284450D01*
X739557Y283120D01*
X740887Y284450D01*
X740793Y284544D01*
X739991Y284876D01*
D02*
G37*
G36*
X745027Y284026D02*
X744933Y283931D01*
X744600Y283129D01*
Y282261D01*
X744933Y281460D01*
X745027Y281365D01*
X746357Y282695D01*
X745027Y284026D01*
D02*
G37*
G36*
X737803D02*
X737708Y283931D01*
X737376Y283129D01*
Y282261D01*
X737708Y281460D01*
X737803Y281365D01*
X739133Y282695D01*
X737803Y284026D01*
D02*
G37*
G36*
X748536Y284026D02*
X747206Y282695D01*
X748536Y281365D01*
X748631Y281460D01*
X748963Y282261D01*
Y283129D01*
X748631Y283931D01*
X748536Y284026D01*
D02*
G37*
G36*
X741312D02*
X739981Y282695D01*
X741312Y281365D01*
X741406Y281460D01*
X741738Y282261D01*
Y283129D01*
X741406Y283931D01*
X741312Y284026D01*
D02*
G37*
G36*
X746782Y282271D02*
X745451Y280941D01*
X745546Y280846D01*
X746348Y280514D01*
X747215D01*
X748017Y280846D01*
X748112Y280941D01*
X746782Y282271D01*
D02*
G37*
G36*
X739557D02*
X738227Y280941D01*
X738322Y280846D01*
X739123Y280514D01*
X739991D01*
X740793Y280846D01*
X740887Y280941D01*
X739557Y282271D01*
D02*
G37*
G36*
X743603Y281264D02*
X742735D01*
X741934Y280932D01*
X741839Y280837D01*
X743169Y279507D01*
X744499Y280837D01*
X744405Y280932D01*
X743603Y281264D01*
D02*
G37*
G36*
X736379D02*
X735511D01*
X734710Y280932D01*
X734615Y280837D01*
X735945Y279507D01*
X737275Y280837D01*
X737181Y280932D01*
X736379Y281264D01*
D02*
G37*
G36*
X748639Y280413D02*
X748545Y280319D01*
X748213Y279517D01*
Y278649D01*
X748545Y277848D01*
X748639Y277753D01*
X749969Y279083D01*
X748639Y280413D01*
D02*
G37*
G36*
X744924D02*
X743594Y279083D01*
X744924Y277753D01*
X745018Y277848D01*
X745351Y278649D01*
Y279517D01*
X745018Y280319D01*
X744924Y280413D01*
D02*
G37*
G36*
X741415D02*
X741320Y280319D01*
X740988Y279517D01*
Y278649D01*
X741320Y277848D01*
X741415Y277753D01*
X742745Y279083D01*
X741415Y280413D01*
D02*
G37*
G36*
X737699D02*
X736369Y279083D01*
X737699Y277753D01*
X737794Y277848D01*
X738126Y278649D01*
Y279517D01*
X737794Y280319D01*
X737699Y280413D01*
D02*
G37*
G36*
X734191D02*
X734096Y280319D01*
X733764Y279517D01*
Y278649D01*
X734096Y277848D01*
X734191Y277753D01*
X735521Y279083D01*
X734191Y280413D01*
D02*
G37*
G36*
X743169Y278659D02*
X741839Y277329D01*
X741934Y277234D01*
X742735Y276902D01*
X743603D01*
X744405Y277234D01*
X744499Y277329D01*
X743169Y278659D01*
D02*
G37*
G36*
X735945D02*
X734615Y277329D01*
X734710Y277234D01*
X735511Y276902D01*
X736379D01*
X737181Y277234D01*
X737275Y277329D01*
X735945Y278659D01*
D02*
G37*
G36*
X747215Y277652D02*
X746348D01*
X745546Y277320D01*
X745451Y277225D01*
X746782Y275895D01*
X748112Y277225D01*
X748017Y277320D01*
X747215Y277652D01*
D02*
G37*
G36*
X739991D02*
X739123D01*
X738322Y277320D01*
X738227Y277225D01*
X739557Y275895D01*
X740887Y277225D01*
X740793Y277320D01*
X739991Y277652D01*
D02*
G37*
G36*
X748536Y276801D02*
X747206Y275471D01*
X748536Y274141D01*
X748631Y274235D01*
X748963Y275037D01*
Y275905D01*
X748631Y276706D01*
X748536Y276801D01*
D02*
G37*
G36*
X745027D02*
X744933Y276706D01*
X744600Y275905D01*
Y275037D01*
X744933Y274235D01*
X745027Y274141D01*
X746357Y275471D01*
X745027Y276801D01*
D02*
G37*
G36*
X741312D02*
X739981Y275471D01*
X741312Y274141D01*
X741406Y274235D01*
X741738Y275037D01*
Y275905D01*
X741406Y276706D01*
X741312Y276801D01*
D02*
G37*
G36*
X737803D02*
X737708Y276706D01*
X737376Y275905D01*
Y275037D01*
X737708Y274235D01*
X737803Y274141D01*
X739133Y275471D01*
X737803Y276801D01*
D02*
G37*
G36*
X746782Y275047D02*
X745451Y273716D01*
X745546Y273622D01*
X746348Y273290D01*
X747215D01*
X748017Y273622D01*
X748112Y273716D01*
X746782Y275047D01*
D02*
G37*
G36*
X739557D02*
X738227Y273716D01*
X738322Y273622D01*
X739123Y273290D01*
X739991D01*
X740793Y273622D01*
X740887Y273716D01*
X739557Y275047D01*
D02*
G37*
G36*
X635988Y282408D02*
X582988D01*
X582529Y282218D01*
X580029Y279718D01*
X579839Y279258D01*
Y257258D01*
X580029Y256799D01*
X582420Y254408D01*
X582267Y253908D01*
X575488D01*
X575029Y253718D01*
X573029Y251718D01*
X572839Y251258D01*
Y233758D01*
X573029Y233299D01*
X576029Y230299D01*
X576488Y230109D01*
X650219D01*
X656029Y224299D01*
X656488Y224109D01*
X671988D01*
X672447Y224299D01*
X673947Y225799D01*
X674138Y226258D01*
Y229258D01*
X673947Y229718D01*
X671947Y231718D01*
X671488Y231908D01*
X659757D01*
X657138Y234527D01*
Y259258D01*
X656948Y259718D01*
X655947Y260718D01*
X655488Y260908D01*
X647988D01*
X647529Y260718D01*
X643529Y256718D01*
X643339Y256258D01*
Y242527D01*
X640219Y239408D01*
X598257D01*
X596638Y241027D01*
Y251258D01*
X596448Y251718D01*
X594448Y253718D01*
X593988Y253908D01*
X593210D01*
X593056Y254408D01*
X596448Y257799D01*
X596638Y258258D01*
Y266989D01*
X598826Y269177D01*
X598997Y269248D01*
X599498Y269749D01*
X599569Y269921D01*
X601257Y271609D01*
X619719D01*
X626029Y265299D01*
X626488Y265109D01*
X635988D01*
X636447Y265299D01*
X638947Y267799D01*
X639138Y268258D01*
Y279258D01*
X638947Y279718D01*
X636447Y282218D01*
X635988Y282408D01*
D02*
G37*
G36*
X638843Y253039D02*
X638134D01*
X637479Y252768D01*
X636978Y252267D01*
X636707Y251613D01*
Y250904D01*
X636978Y250249D01*
X637479Y249748D01*
X638134Y249477D01*
X638843D01*
X639497Y249748D01*
X639998Y250249D01*
X640269Y250904D01*
Y251613D01*
X639998Y252267D01*
X639497Y252768D01*
X638843Y253039D01*
D02*
G37*
G36*
X632843Y248539D02*
X632134D01*
X631479Y248268D01*
X630978Y247767D01*
X630707Y247113D01*
Y246404D01*
X630978Y245749D01*
X631479Y245248D01*
X632134Y244977D01*
X632843D01*
X633497Y245248D01*
X633998Y245749D01*
X634269Y246404D01*
Y247113D01*
X633998Y247767D01*
X633497Y248268D01*
X632843Y248539D01*
D02*
G37*
G36*
X685843Y253039D02*
X685134D01*
X684479Y252768D01*
X683978Y252267D01*
X683707Y251613D01*
Y250904D01*
X683978Y250249D01*
X684479Y249748D01*
X685134Y249477D01*
X685843D01*
X686497Y249748D01*
X686886Y250137D01*
X688024D01*
X689367Y248794D01*
Y245723D01*
X688024Y244380D01*
X686886D01*
X686540Y244725D01*
X686517Y245008D01*
X686540Y245292D01*
X686998Y245749D01*
X687269Y246404D01*
Y247113D01*
X686998Y247767D01*
X686497Y248268D01*
X685843Y248539D01*
X685134D01*
X684479Y248268D01*
X683978Y247767D01*
X683707Y247113D01*
Y246404D01*
X683978Y245749D01*
X684436Y245292D01*
X684459Y245008D01*
X684436Y244725D01*
X683978Y244267D01*
X683707Y243613D01*
Y242904D01*
X683978Y242249D01*
X684479Y241748D01*
X685134Y241477D01*
X685843D01*
X686497Y241748D01*
X686886Y242137D01*
X688488D01*
X688488Y242137D01*
X688917Y242222D01*
X689281Y242465D01*
X689281Y242465D01*
X691281Y244465D01*
X691524Y244829D01*
X691610Y245258D01*
X691610Y245258D01*
Y249258D01*
X691610Y249258D01*
X691524Y249688D01*
X691281Y250051D01*
X689281Y252051D01*
X689281Y252051D01*
X688917Y252294D01*
X688488Y252380D01*
X688488Y252380D01*
X686886D01*
X686497Y252768D01*
X685843Y253039D01*
D02*
G37*
G36*
X706343Y226039D02*
X705634D01*
X704979Y225768D01*
X704478Y225267D01*
X704207Y224613D01*
Y223904D01*
X704478Y223249D01*
X704979Y222748D01*
X705634Y222477D01*
X706343D01*
X706997Y222748D01*
X707498Y223249D01*
X707769Y223904D01*
Y224613D01*
X707498Y225267D01*
X706997Y225768D01*
X706343Y226039D01*
D02*
G37*
G36*
X550843Y223039D02*
X550134D01*
X549479Y222768D01*
X548978Y222267D01*
X548707Y221613D01*
Y220904D01*
X548978Y220249D01*
X549479Y219748D01*
X550134Y219477D01*
X550843D01*
X551497Y219748D01*
X551998Y220249D01*
X552269Y220904D01*
Y221613D01*
X551998Y222267D01*
X551497Y222768D01*
X550843Y223039D01*
D02*
G37*
G36*
X636509Y209711D02*
X635468D01*
X634463Y209442D01*
X633561Y208921D01*
X633405Y208766D01*
X635988Y206183D01*
X638571Y208766D01*
X638415Y208921D01*
X637514Y209442D01*
X636509Y209711D01*
D02*
G37*
G36*
X638995Y208341D02*
X636412Y205758D01*
X638995Y203175D01*
X639151Y203331D01*
X639672Y204233D01*
X639941Y205238D01*
Y206279D01*
X639672Y207284D01*
X639151Y208185D01*
X638995Y208341D01*
D02*
G37*
G36*
X632981D02*
X632825Y208185D01*
X632305Y207284D01*
X632035Y206279D01*
Y205238D01*
X632305Y204233D01*
X632825Y203331D01*
X632981Y203175D01*
X635564Y205758D01*
X632981Y208341D01*
D02*
G37*
G36*
X752541Y209311D02*
X745435D01*
Y202206D01*
X752541D01*
Y209311D01*
D02*
G37*
G36*
X739456D02*
X738520D01*
X737617Y209069D01*
X736807Y208601D01*
X736145Y207940D01*
X735678Y207130D01*
X735435Y206226D01*
Y205291D01*
X735678Y204387D01*
X736145Y203577D01*
X736807Y202915D01*
X737617Y202448D01*
X738520Y202206D01*
X739456D01*
X740360Y202448D01*
X741170Y202915D01*
X741831Y203577D01*
X742299Y204387D01*
X742541Y205291D01*
Y206226D01*
X742299Y207130D01*
X741831Y207940D01*
X741170Y208601D01*
X740360Y209069D01*
X739456Y209311D01*
D02*
G37*
G36*
X729456D02*
X728520D01*
X727617Y209069D01*
X726807Y208601D01*
X726145Y207940D01*
X725678Y207130D01*
X725435Y206226D01*
Y205291D01*
X725678Y204387D01*
X726145Y203577D01*
X726807Y202915D01*
X727617Y202448D01*
X728520Y202206D01*
X729456D01*
X730360Y202448D01*
X731170Y202915D01*
X731831Y203577D01*
X732299Y204387D01*
X732541Y205291D01*
Y206226D01*
X732299Y207130D01*
X731831Y207940D01*
X731170Y208601D01*
X730360Y209069D01*
X729456Y209311D01*
D02*
G37*
G36*
X719456D02*
X718520D01*
X717617Y209069D01*
X716807Y208601D01*
X716145Y207940D01*
X715678Y207130D01*
X715436Y206226D01*
Y205291D01*
X715678Y204387D01*
X716145Y203577D01*
X716807Y202915D01*
X717617Y202448D01*
X718520Y202206D01*
X719456D01*
X720360Y202448D01*
X721170Y202915D01*
X721831Y203577D01*
X722299Y204387D01*
X722541Y205291D01*
Y206226D01*
X722299Y207130D01*
X721831Y207940D01*
X721170Y208601D01*
X720360Y209069D01*
X719456Y209311D01*
D02*
G37*
G36*
X709456D02*
X708521D01*
X707617Y209069D01*
X706807Y208601D01*
X706145Y207940D01*
X705678Y207130D01*
X705436Y206226D01*
Y205291D01*
X705678Y204387D01*
X706145Y203577D01*
X706807Y202915D01*
X707617Y202448D01*
X708521Y202206D01*
X709456D01*
X710360Y202448D01*
X711170Y202915D01*
X711831Y203577D01*
X712299Y204387D01*
X712541Y205291D01*
Y206226D01*
X712299Y207130D01*
X711831Y207940D01*
X711170Y208601D01*
X710360Y209069D01*
X709456Y209311D01*
D02*
G37*
G36*
X699456D02*
X698521D01*
X697617Y209069D01*
X696807Y208601D01*
X696145Y207940D01*
X695678Y207130D01*
X695435Y206226D01*
Y205291D01*
X695678Y204387D01*
X696145Y203577D01*
X696807Y202915D01*
X697617Y202448D01*
X698521Y202206D01*
X699456D01*
X700360Y202448D01*
X701170Y202915D01*
X701831Y203577D01*
X702299Y204387D01*
X702541Y205291D01*
Y206226D01*
X702299Y207130D01*
X701831Y207940D01*
X701170Y208601D01*
X700360Y209069D01*
X699456Y209311D01*
D02*
G37*
G36*
X689541D02*
X682436D01*
Y202206D01*
X689541D01*
Y209311D01*
D02*
G37*
G36*
X676456D02*
X675521D01*
X674617Y209069D01*
X673807Y208601D01*
X673145Y207940D01*
X672678Y207130D01*
X672436Y206226D01*
Y205291D01*
X672678Y204387D01*
X673145Y203577D01*
X673807Y202915D01*
X674617Y202448D01*
X675521Y202206D01*
X676456D01*
X677360Y202448D01*
X678170Y202915D01*
X678831Y203577D01*
X679299Y204387D01*
X679541Y205291D01*
Y206226D01*
X679299Y207130D01*
X678831Y207940D01*
X678170Y208601D01*
X677360Y209069D01*
X676456Y209311D01*
D02*
G37*
G36*
X666456D02*
X665520D01*
X664617Y209069D01*
X663807Y208601D01*
X663145Y207940D01*
X662678Y207130D01*
X662435Y206226D01*
Y205291D01*
X662678Y204387D01*
X663145Y203577D01*
X663807Y202915D01*
X664617Y202448D01*
X665520Y202206D01*
X666456D01*
X667360Y202448D01*
X668170Y202915D01*
X668831Y203577D01*
X669299Y204387D01*
X669541Y205291D01*
Y206226D01*
X669299Y207130D01*
X668831Y207940D01*
X668170Y208601D01*
X667360Y209069D01*
X666456Y209311D01*
D02*
G37*
G36*
X656456D02*
X655520D01*
X654617Y209069D01*
X653807Y208601D01*
X653145Y207940D01*
X652678Y207130D01*
X652435Y206226D01*
Y205291D01*
X652678Y204387D01*
X653145Y203577D01*
X653807Y202915D01*
X654617Y202448D01*
X655520Y202206D01*
X656456D01*
X657360Y202448D01*
X658170Y202915D01*
X658831Y203577D01*
X659299Y204387D01*
X659541Y205291D01*
Y206226D01*
X659299Y207130D01*
X658831Y207940D01*
X658170Y208601D01*
X657360Y209069D01*
X656456Y209311D01*
D02*
G37*
G36*
X646456D02*
X645520D01*
X644617Y209069D01*
X643807Y208601D01*
X643145Y207940D01*
X642678Y207130D01*
X642436Y206226D01*
Y205291D01*
X642678Y204387D01*
X643145Y203577D01*
X643807Y202915D01*
X644617Y202448D01*
X645520Y202206D01*
X646456D01*
X647360Y202448D01*
X648170Y202915D01*
X648831Y203577D01*
X649299Y204387D01*
X649541Y205291D01*
Y206226D01*
X649299Y207130D01*
X648831Y207940D01*
X648170Y208601D01*
X647360Y209069D01*
X646456Y209311D01*
D02*
G37*
G36*
X635988Y205334D02*
X633405Y202751D01*
X633561Y202595D01*
X634463Y202075D01*
X635468Y201806D01*
X636509D01*
X637514Y202075D01*
X638415Y202595D01*
X638571Y202751D01*
X635988Y205334D01*
D02*
G37*
%LPD*%
G36*
X638488Y279258D02*
Y268258D01*
X635988Y265758D01*
X626488D01*
X619988Y272258D01*
X600988D01*
X595988Y267258D01*
Y258258D01*
X592488Y254758D01*
X582988D01*
X580488Y257258D01*
Y279258D01*
X582988Y281758D01*
X635988D01*
X638488Y279258D01*
D02*
G37*
G36*
X656488Y259258D02*
Y234258D01*
X659488Y231258D01*
X671488D01*
X673488Y229258D01*
Y226258D01*
X671988Y224758D01*
X656488D01*
X650488Y230758D01*
X576488D01*
X573488Y233758D01*
Y251258D01*
X575488Y253258D01*
X593988D01*
X595988Y251258D01*
Y240758D01*
X597988Y238758D01*
X640488D01*
X643988Y242258D01*
Y256258D01*
X647988Y260258D01*
X655488D01*
X656488Y259258D01*
D02*
G37*
D10*
X690488Y249258D02*
X688488Y251258D01*
X685488D01*
X690488Y249258D02*
Y245258D01*
X688488Y243258D01*
X685488D01*
X285512Y308242D02*
X287512Y306242D01*
X290512D01*
X285512Y308242D02*
Y312242D01*
X287512Y314242D01*
X290512D01*
D47*
X699488Y317758D02*
X617988D01*
X716069Y330839D02*
X708988Y323758D01*
X613988Y317758D02*
X610488Y321258D01*
X617988Y317758D02*
X612988Y322758D01*
Y327258D02*
Y322758D01*
X610488Y329258D02*
Y321258D01*
X614488Y333258D02*
X610488Y329258D01*
X648488Y333258D02*
X614488D01*
X718850Y330839D02*
X716069D01*
X717651Y327549D02*
X714988Y324886D01*
X717988Y328758D02*
X717651Y328421D01*
Y327549D01*
X716488Y318258D02*
X714988Y319758D01*
Y324886D02*
Y319758D01*
X720488Y329202D02*
Y326758D01*
X716188Y322458D02*
Y320558D01*
X720488Y326758D02*
X716188Y322458D01*
X715069Y214896D02*
X713531Y213358D01*
X699626D01*
X739685Y226758D02*
X724988D01*
X721488Y230258D02*
X719488D01*
X724988Y226758D02*
X721488Y230258D01*
X722688Y225558D02*
X720488Y227758D01*
X719488Y230258D02*
X717988Y228758D01*
X716269Y214342D02*
X713985Y212058D01*
X715069Y223839D02*
Y214896D01*
X717988Y226758D02*
X715069Y223839D01*
X716269Y223223D02*
Y214342D01*
X717405Y224358D02*
X716269Y223223D01*
X717988Y228758D02*
Y226758D01*
X713985Y212058D02*
X699229D01*
X738691Y224358D02*
X717405D01*
X699626Y213358D02*
X696026Y216958D01*
X699229Y212058D02*
X695529Y215758D01*
X679988D01*
X682288Y216958D02*
X679988Y219258D01*
X696026Y216958D02*
X682288D01*
X695488Y252258D02*
Y224258D01*
X740691Y222358D02*
X738691Y224358D01*
X739188Y225558D02*
X722688D01*
X741188Y223558D02*
X739188Y225558D01*
X744485Y223558D02*
X741188D01*
X745088Y222358D02*
X740691D01*
X741685Y224758D02*
X739685Y226758D01*
X743988Y224758D02*
X741685D01*
X747788Y254755D02*
Y228558D01*
X743988Y224758D01*
X750188Y227458D02*
X745088Y222358D01*
X748988Y254258D02*
Y228061D01*
X744485Y223558D01*
X750188Y253458D02*
Y227458D01*
X752488Y259455D02*
X747788Y254755D01*
X751488Y312258D02*
Y304758D01*
X752488Y303758D02*
X751488Y304758D01*
X752488Y303758D02*
Y259455D01*
X752907Y313839D02*
Y305339D01*
X753688Y304558D02*
Y258958D01*
Y304558D02*
X752907Y305339D01*
X751488Y312258D02*
X748988Y314758D01*
X754988Y258258D02*
X750188Y253458D01*
X752907Y313839D02*
X749988Y316758D01*
X754988Y306258D02*
Y258258D01*
X753688Y258958D02*
X748988Y254258D01*
X738988Y314758D02*
X735488Y318258D01*
X748988Y314758D02*
X738988D01*
X739988Y316758D02*
X736988Y319758D01*
X749988Y316758D02*
X739988D01*
X736988Y319758D02*
X716988D01*
X735488Y318258D02*
X716488D01*
X716988Y319758D02*
X716188Y320558D01*
X720488Y329202D02*
X718850Y330839D01*
X687988Y298258D02*
Y255758D01*
X695488Y252258D02*
X691988Y255758D01*
X276512Y239742D02*
X358012D01*
X259931Y226661D02*
X267012Y233742D01*
X362012Y239742D02*
X365512Y236242D01*
X358012Y239742D02*
X363012Y234742D01*
Y230242D02*
Y234742D01*
X365512Y228242D02*
Y236242D01*
X361512Y224242D02*
X365512Y228242D01*
X327512Y224242D02*
X361512D01*
X257150Y226661D02*
X259931D01*
X258349Y229952D02*
X261012Y232614D01*
X258012Y228742D02*
X258349Y229079D01*
Y229952D01*
X259512Y239242D02*
X261012Y237742D01*
Y232614D02*
Y237742D01*
X255512Y228298D02*
Y230742D01*
X259812Y235042D02*
Y236942D01*
X255512Y230742D02*
X259812Y235042D01*
X260931Y342604D02*
X262469Y344142D01*
X276374D01*
X236315Y330742D02*
X251012D01*
X254512Y327242D02*
X256512D01*
X251012Y330742D02*
X254512Y327242D01*
X253312Y331942D02*
X255512Y329742D01*
X256512Y327242D02*
X258012Y328742D01*
X259731Y343158D02*
X262015Y345442D01*
X260931Y333661D02*
Y342604D01*
X258012Y330742D02*
X260931Y333661D01*
X259731Y334277D02*
Y343158D01*
X258595Y333142D02*
X259731Y334277D01*
X258012Y328742D02*
Y330742D01*
X262015Y345442D02*
X276771D01*
X237309Y333142D02*
X258595D01*
X276374Y344142D02*
X279974Y340542D01*
X276771Y345442D02*
X280471Y341742D01*
X296012D01*
X293712Y340542D02*
X296012Y338242D01*
X279974Y340542D02*
X293712D01*
X280512Y305242D02*
Y333242D01*
X235309Y335142D02*
X237309Y333142D01*
X236812Y331942D02*
X253312D01*
X234812Y333942D02*
X236812Y331942D01*
X231515Y333942D02*
X234812D01*
X230912Y335142D02*
X235309D01*
X234315Y332742D02*
X236315Y330742D01*
X232012Y332742D02*
X234315D01*
X228212Y302745D02*
Y328942D01*
X232012Y332742D01*
X225812Y330042D02*
X230912Y335142D01*
X227012Y303242D02*
Y329439D01*
X231515Y333942D01*
X225812Y304042D02*
Y330042D01*
X223512Y298045D02*
X228212Y302745D01*
X224512Y245242D02*
Y252742D01*
X223512Y253742D02*
X224512Y252742D01*
X223512Y253742D02*
Y298045D01*
X223093Y243661D02*
Y252161D01*
X222312Y252942D02*
Y298542D01*
Y252942D02*
X223093Y252161D01*
X224512Y245242D02*
X227012Y242742D01*
X221012Y299242D02*
X225812Y304042D01*
X223093Y243661D02*
X226012Y240742D01*
X221012Y251242D02*
Y299242D01*
X222312Y298542D02*
X227012Y303242D01*
X237012Y242742D02*
X240512Y239242D01*
X227012Y242742D02*
X237012D01*
X236012Y240742D02*
X239012Y237742D01*
X226012Y240742D02*
X236012D01*
X239012Y237742D02*
X259012D01*
X240512Y239242D02*
X259512D01*
X259012Y237742D02*
X259812Y236942D01*
X255512Y228298D02*
X257150Y226661D01*
X288012Y259242D02*
Y301742D01*
X280512Y305242D02*
X284012Y301742D01*
D48*
X630488Y347258D02*
X616988D01*
X609988Y340258D01*
X635488Y352258D02*
X630488Y347258D01*
X744488Y353758D02*
X742225Y356022D01*
X678252D02*
X675488Y353258D01*
X742225Y356022D02*
X678252D01*
X741488Y348985D02*
X739988Y350485D01*
X741488Y348985D02*
Y334758D01*
X739988Y351758D02*
Y350485D01*
X728488Y348985D02*
Y334758D01*
X729988Y350485D02*
X728488Y348985D01*
X729988Y351758D02*
Y350485D01*
X345512Y210242D02*
X359012D01*
X366012Y217242D01*
X340512Y205242D02*
X345512Y210242D01*
X231512Y203742D02*
X233775Y201478D01*
X297748D02*
X300512Y204242D01*
X233775Y201478D02*
X297748D01*
X234512Y208515D02*
X236012Y207015D01*
X234512Y208515D02*
Y222742D01*
X236012Y205742D02*
Y207015D01*
X247512Y208515D02*
Y222742D01*
X246012Y207015D02*
X247512Y208515D01*
X246012Y205742D02*
Y207015D01*
D49*
X578488Y327758D02*
X566988D01*
X580842Y209006D02*
X582678D01*
X580842Y207170D01*
Y206710D01*
X581301Y206251D01*
X582219D01*
X582678Y206710D01*
X588188Y211477D02*
Y214232D01*
X586811D01*
X586352Y213773D01*
Y213314D01*
X586811Y212855D01*
X588188D01*
X586811D01*
X586352Y212396D01*
Y211936D01*
X586811Y211477D01*
X588188D01*
X583597D02*
X585433D01*
Y214232D01*
X583597D01*
X585433Y212855D02*
X584515D01*
X582678Y214232D02*
Y212396D01*
X581760Y211477D01*
X580842Y212396D01*
Y214232D01*
Y212855D01*
X582678D01*
X579923Y214232D02*
Y211477D01*
X578546D01*
X578087Y211936D01*
Y212855D01*
X578546Y213314D01*
X579923D01*
X579005D02*
X578087Y214232D01*
X575791D02*
Y211477D01*
X577168Y212855D01*
X575331D01*
X569822Y214232D02*
X571658D01*
X569822Y212396D01*
Y211936D01*
X570281Y211477D01*
X571199D01*
X571658Y211936D01*
X568903D02*
X568444Y211477D01*
X567526D01*
X567066Y211936D01*
Y213773D01*
X567526Y214232D01*
X568444D01*
X568903Y213773D01*
Y211936D01*
X564311Y214232D02*
X566148D01*
X564311Y212396D01*
Y211936D01*
X564771Y211477D01*
X565689D01*
X566148Y211936D01*
X561556Y214232D02*
X563393D01*
X561556Y212396D01*
Y211936D01*
X562016Y211477D01*
X562934D01*
X563393Y211936D01*
X587270Y219458D02*
X588188Y218540D01*
Y217622D01*
X587270Y216703D01*
X584056Y217162D02*
X584515Y216703D01*
X585433D01*
X585892Y217162D01*
Y218999D01*
X585433Y219458D01*
X584515D01*
X584056Y218999D01*
X583137Y219458D02*
X582219Y218540D01*
Y217622D01*
X583137Y216703D01*
X578087Y218999D02*
X577627Y219458D01*
X576709D01*
X576250Y218999D01*
Y217162D01*
X576709Y216703D01*
X577627D01*
X578087Y217162D01*
Y217622D01*
X577627Y218081D01*
X576250D01*
X575331Y216703D02*
Y218540D01*
X574413Y219458D01*
X573495Y218540D01*
Y216703D01*
X572577Y219458D02*
X571658D01*
X572117D01*
Y216703D01*
X572577Y217162D01*
X570281Y216703D02*
Y219458D01*
X568444D01*
X567526Y216703D02*
Y219458D01*
X566607Y218540D01*
X565689Y219458D01*
Y216703D01*
X397512Y229742D02*
X409012D01*
X395158Y348494D02*
X393322D01*
X395158Y350330D01*
Y350790D01*
X394699Y351249D01*
X393781D01*
X393322Y350790D01*
X387812Y346023D02*
Y343268D01*
X389189D01*
X389648Y343727D01*
Y344186D01*
X389189Y344645D01*
X387812D01*
X389189D01*
X389648Y345104D01*
Y345564D01*
X389189Y346023D01*
X387812D01*
X392403D02*
X390567D01*
Y343268D01*
X392403D01*
X390567Y344645D02*
X391485D01*
X393322Y343268D02*
Y345104D01*
X394240Y346023D01*
X395158Y345104D01*
Y343268D01*
Y344645D01*
X393322D01*
X396077Y343268D02*
Y346023D01*
X397454D01*
X397914Y345564D01*
Y344645D01*
X397454Y344186D01*
X396077D01*
X396995D02*
X397914Y343268D01*
X400209D02*
Y346023D01*
X398832Y344645D01*
X400668D01*
X406179Y343268D02*
X404342D01*
X406179Y345104D01*
Y345564D01*
X405719Y346023D01*
X404801D01*
X404342Y345564D01*
X407097D02*
X407556Y346023D01*
X408474D01*
X408934Y345564D01*
Y343727D01*
X408474Y343268D01*
X407556D01*
X407097Y343727D01*
Y345564D01*
X411689Y343268D02*
X409852D01*
X411689Y345104D01*
Y345564D01*
X411229Y346023D01*
X410311D01*
X409852Y345564D01*
X414444Y343268D02*
X412607D01*
X414444Y345104D01*
Y345564D01*
X413984Y346023D01*
X413066D01*
X412607Y345564D01*
X388730Y338042D02*
X387812Y338960D01*
Y339878D01*
X388730Y340797D01*
X391944Y340337D02*
X391485Y340797D01*
X390567D01*
X390108Y340337D01*
Y338501D01*
X390567Y338042D01*
X391485D01*
X391944Y338501D01*
X392863Y338042D02*
X393781Y338960D01*
Y339878D01*
X392863Y340797D01*
X397914Y338501D02*
X398373Y338042D01*
X399291D01*
X399750Y338501D01*
Y340337D01*
X399291Y340797D01*
X398373D01*
X397914Y340337D01*
Y339878D01*
X398373Y339419D01*
X399750D01*
X400668Y340797D02*
Y338960D01*
X401587Y338042D01*
X402505Y338960D01*
Y340797D01*
X403424Y338042D02*
X404342D01*
X403883D01*
Y340797D01*
X403424Y340337D01*
X405719Y340797D02*
Y338042D01*
X407556D01*
X408474Y340797D02*
Y338042D01*
X409393Y338960D01*
X410311Y338042D01*
Y340797D01*
D53*
X619831Y340258D02*
D03*
X600146D02*
D03*
X609988D02*
D03*
X356169Y217242D02*
D03*
X375854D02*
D03*
X366012D02*
D03*
D54*
X698988Y205758D02*
D03*
X708988D02*
D03*
X718988D02*
D03*
X728988D02*
D03*
X738988D02*
D03*
X635988D02*
D03*
X645988D02*
D03*
X655988D02*
D03*
X665988D02*
D03*
X675988D02*
D03*
X739988Y351758D02*
D03*
X729988D02*
D03*
X719988D02*
D03*
X683488D02*
D03*
X693488D02*
D03*
X516488Y306258D02*
D03*
Y316258D02*
D03*
Y326258D02*
D03*
X583988Y351758D02*
D03*
X277012Y351742D02*
D03*
X267012D02*
D03*
X257012D02*
D03*
X247012D02*
D03*
X237012D02*
D03*
X340012D02*
D03*
X330012D02*
D03*
X320012D02*
D03*
X310012D02*
D03*
X300012D02*
D03*
X236012Y205742D02*
D03*
X246012D02*
D03*
X256012D02*
D03*
X292512D02*
D03*
X282512D02*
D03*
X459512Y251242D02*
D03*
Y241242D02*
D03*
Y231242D02*
D03*
X392012Y205742D02*
D03*
D55*
X748988Y205758D02*
D03*
X685988D02*
D03*
X749988Y351758D02*
D03*
X703488D02*
D03*
X227012Y351742D02*
D03*
X290012D02*
D03*
X226012Y205742D02*
D03*
X272512D02*
D03*
D56*
X750394Y286308D02*
D03*
Y279083D02*
D03*
X746782Y289920D02*
D03*
Y282695D02*
D03*
Y275471D02*
D03*
X743169Y286308D02*
D03*
Y279083D02*
D03*
X739557Y289920D02*
D03*
Y282695D02*
D03*
Y275471D02*
D03*
X735945Y286308D02*
D03*
Y279083D02*
D03*
X699488Y317758D02*
D03*
X701488Y323758D02*
D03*
X708488Y333258D02*
D03*
X708988Y323758D02*
D03*
X652488Y336758D02*
D03*
X635488Y320258D02*
D03*
X753988Y325758D02*
D03*
X750772Y323258D02*
D03*
X636488Y262258D02*
D03*
Y259258D02*
D03*
X598988Y246758D02*
D03*
Y242258D02*
D03*
X561988Y247258D02*
D03*
Y232258D02*
D03*
X566988Y234758D02*
D03*
Y229758D02*
D03*
Y224758D02*
D03*
X561988Y222258D02*
D03*
Y227258D02*
D03*
X576988Y224758D02*
D03*
X571988Y222258D02*
D03*
Y227258D02*
D03*
X581988D02*
D03*
Y222258D02*
D03*
X586988Y224758D02*
D03*
X596988D02*
D03*
Y219758D02*
D03*
Y214758D02*
D03*
X591988Y227258D02*
D03*
Y222258D02*
D03*
Y217258D02*
D03*
Y212258D02*
D03*
Y207258D02*
D03*
X596988Y209758D02*
D03*
X601988Y207258D02*
D03*
X606988Y209758D02*
D03*
X611988Y207258D02*
D03*
X616988Y209758D02*
D03*
X621988Y207258D02*
D03*
X561988Y237258D02*
D03*
Y242258D02*
D03*
X553488Y230758D02*
D03*
Y225258D02*
D03*
X542988Y221758D02*
D03*
X545988Y225758D02*
D03*
X542988Y229258D02*
D03*
X545988Y232758D02*
D03*
X542988Y236258D02*
D03*
X545988Y239758D02*
D03*
X542988Y242758D02*
D03*
X545988Y245758D02*
D03*
X542988Y248758D02*
D03*
X545988Y251758D02*
D03*
X624988Y256258D02*
D03*
Y253258D02*
D03*
X628488Y249758D02*
D03*
Y245758D02*
D03*
Y241758D02*
D03*
X632488D02*
D03*
X611988Y224758D02*
D03*
X614988Y227758D02*
D03*
X617988Y224758D02*
D03*
X626488Y228258D02*
D03*
X629988Y225758D02*
D03*
X633488Y228258D02*
D03*
X636988Y225758D02*
D03*
X640488Y228258D02*
D03*
X643988Y225758D02*
D03*
X647488Y228258D02*
D03*
X650988Y225758D02*
D03*
X640488Y208258D02*
D03*
X650988D02*
D03*
X660988D02*
D03*
X665488Y222258D02*
D03*
X662988Y218758D02*
D03*
X667988D02*
D03*
X673488Y222258D02*
D03*
X685988Y228258D02*
D03*
Y224258D02*
D03*
X681988Y228258D02*
D03*
X677988Y224258D02*
D03*
Y228258D02*
D03*
X681988Y224258D02*
D03*
X685988Y220258D02*
D03*
X545988Y273758D02*
D03*
Y282758D02*
D03*
Y291758D02*
D03*
X580488Y282758D02*
D03*
Y291758D02*
D03*
X576988Y269258D02*
D03*
Y278258D02*
D03*
Y287258D02*
D03*
X572488Y291758D02*
D03*
Y282758D02*
D03*
Y273758D02*
D03*
X567988Y287258D02*
D03*
Y278258D02*
D03*
X562988Y291758D02*
D03*
X563488Y282758D02*
D03*
Y273758D02*
D03*
X554488Y291758D02*
D03*
X558988Y287258D02*
D03*
Y278258D02*
D03*
X554488Y282758D02*
D03*
Y273758D02*
D03*
X555488Y309258D02*
D03*
Y303758D02*
D03*
X545488Y306758D02*
D03*
X547988Y310758D02*
D03*
X578988Y319758D02*
D03*
X545488Y315258D02*
D03*
X548488Y329758D02*
D03*
X558488Y319258D02*
D03*
X555988Y322258D02*
D03*
X558488Y325258D02*
D03*
X562488D02*
D03*
X556488Y337258D02*
D03*
X559488Y340758D02*
D03*
X562988Y337258D02*
D03*
X569988D02*
D03*
X566488Y340758D02*
D03*
X562988Y344258D02*
D03*
X566488Y354258D02*
D03*
X573488D02*
D03*
X576488Y351258D02*
D03*
Y344258D02*
D03*
X573488Y347758D02*
D03*
X569988Y351258D02*
D03*
X562988D02*
D03*
X566488Y347758D02*
D03*
X569988Y344258D02*
D03*
X573488Y340758D02*
D03*
X576488Y337258D02*
D03*
X579488Y333758D02*
D03*
X581988Y330258D02*
D03*
X584488Y326758D02*
D03*
X581988Y323258D02*
D03*
X584488Y319758D02*
D03*
X595488Y354758D02*
D03*
X665488Y344258D02*
D03*
X654988Y352758D02*
D03*
X658488Y349758D02*
D03*
X661988Y346758D02*
D03*
Y352758D02*
D03*
X665488Y349758D02*
D03*
X668988Y346758D02*
D03*
Y352758D02*
D03*
X672488Y349758D02*
D03*
X675488Y346758D02*
D03*
X640988Y320258D02*
D03*
X649988D02*
D03*
X661988D02*
D03*
X668488D02*
D03*
X679988Y330758D02*
D03*
X678488Y343758D02*
D03*
X683488Y337758D02*
D03*
X680988Y340758D02*
D03*
X685988D02*
D03*
X688488Y353258D02*
D03*
X710488Y337258D02*
D03*
X749988Y260758D02*
D03*
Y265258D02*
D03*
X710988Y253758D02*
D03*
Y257758D02*
D03*
Y261758D02*
D03*
Y295258D02*
D03*
Y291258D02*
D03*
X698988Y246758D02*
D03*
Y242258D02*
D03*
X668988Y286758D02*
D03*
X659988Y278258D02*
D03*
X668988D02*
D03*
X664488Y282258D02*
D03*
Y274758D02*
D03*
Y266758D02*
D03*
Y260258D02*
D03*
X673488D02*
D03*
Y266758D02*
D03*
Y282258D02*
D03*
Y274758D02*
D03*
X681988Y260258D02*
D03*
X685488Y263758D02*
D03*
X681988Y266758D02*
D03*
X685488Y270758D02*
D03*
X681988Y274758D02*
D03*
X685488Y278758D02*
D03*
X681988Y282758D02*
D03*
X685488Y286758D02*
D03*
X691988Y266758D02*
D03*
Y270758D02*
D03*
Y274758D02*
D03*
Y278758D02*
D03*
Y282758D02*
D03*
Y286758D02*
D03*
Y290758D02*
D03*
X695988Y266758D02*
D03*
Y270758D02*
D03*
Y274758D02*
D03*
Y278758D02*
D03*
Y282758D02*
D03*
Y286758D02*
D03*
Y290758D02*
D03*
X749988Y269758D02*
D03*
X732488Y304258D02*
D03*
Y298258D02*
D03*
X749988Y302758D02*
D03*
X746488Y298258D02*
D03*
X739488D02*
D03*
X735988Y294758D02*
D03*
X742988D02*
D03*
X749988D02*
D03*
X700488Y237758D02*
D03*
Y233258D02*
D03*
Y228758D02*
D03*
X713988Y232758D02*
D03*
X771988Y256758D02*
D03*
X771488Y223758D02*
D03*
Y219758D02*
D03*
X756488Y256258D02*
D03*
X755988Y205258D02*
D03*
X758988Y207758D02*
D03*
X771988Y297258D02*
D03*
Y301258D02*
D03*
Y305258D02*
D03*
X771488Y342258D02*
D03*
X614988Y244258D02*
D03*
X611988Y241258D02*
D03*
X613988Y317758D02*
D03*
X612988Y327258D02*
D03*
X648488Y333258D02*
D03*
X635988Y278758D02*
D03*
Y274758D02*
D03*
X629988Y271258D02*
D03*
X633988D02*
D03*
X635988Y267758D02*
D03*
X631988D02*
D03*
X627988D02*
D03*
X585488Y260758D02*
D03*
Y256758D02*
D03*
X587988Y258758D02*
D03*
X590988Y260758D02*
D03*
Y256758D02*
D03*
X593988Y259258D02*
D03*
Y263258D02*
D03*
Y267258D02*
D03*
Y270758D02*
D03*
X597988D02*
D03*
X595988Y273758D02*
D03*
X611488Y277258D02*
D03*
Y280258D02*
D03*
Y274258D02*
D03*
X634488Y294258D02*
D03*
Y290758D02*
D03*
X630988D02*
D03*
Y294258D02*
D03*
X627488D02*
D03*
Y290758D02*
D03*
X611988Y244258D02*
D03*
X614988Y241258D02*
D03*
X628488Y253258D02*
D03*
X631988D02*
D03*
X628488Y256258D02*
D03*
X631988D02*
D03*
X628488Y259258D02*
D03*
X631988D02*
D03*
X628488Y262258D02*
D03*
X631988D02*
D03*
X676488Y320758D02*
D03*
X691488Y332758D02*
D03*
X694988D02*
D03*
X691488Y338758D02*
D03*
X694988Y335758D02*
D03*
X691488D02*
D03*
X698488Y332758D02*
D03*
X652988Y340258D02*
D03*
X643988Y339758D02*
D03*
X635488Y352258D02*
D03*
X629988Y352758D02*
D03*
X744488Y353758D02*
D03*
X675488Y353258D02*
D03*
X746069Y341258D02*
D03*
X746988Y345758D02*
D03*
X744488Y338258D02*
D03*
X750988Y332258D02*
D03*
X717988Y328758D02*
D03*
X712488Y323758D02*
D03*
X720488Y227758D02*
D03*
X712988Y220077D02*
D03*
Y215758D02*
D03*
X718488Y222258D02*
D03*
Y218758D02*
D03*
X700488Y215439D02*
D03*
X705988Y224258D02*
D03*
X700488Y219758D02*
D03*
X679988Y219258D02*
D03*
X695488Y224258D02*
D03*
X732770Y228839D02*
D03*
X742988Y226839D02*
D03*
X754988Y306258D02*
D03*
X755988Y251258D02*
D03*
X752488D02*
D03*
X679988Y215758D02*
D03*
X742988Y229758D02*
D03*
X701988Y338758D02*
D03*
X687988Y298258D02*
D03*
Y255758D02*
D03*
X685488Y251258D02*
D03*
X691988Y255758D02*
D03*
X735988Y216758D02*
D03*
X569988Y325258D02*
D03*
X578488Y250258D02*
D03*
X582988D02*
D03*
X587488D02*
D03*
X591988D02*
D03*
X575988Y246758D02*
D03*
X580488D02*
D03*
X584988D02*
D03*
X589488D02*
D03*
X593988D02*
D03*
X671488Y226258D02*
D03*
Y229258D02*
D03*
X648488Y257258D02*
D03*
X652488D02*
D03*
X646488Y253758D02*
D03*
X650488D02*
D03*
X654488D02*
D03*
X585988Y303758D02*
D03*
X589488D02*
D03*
X585988Y306758D02*
D03*
X589488D02*
D03*
X585988Y309758D02*
D03*
X589488D02*
D03*
X585988Y312758D02*
D03*
X589488D02*
D03*
X738488Y253758D02*
D03*
X741988D02*
D03*
X745488D02*
D03*
X719988Y345758D02*
D03*
X727488Y328258D02*
D03*
X546988Y218258D02*
D03*
X550488Y221258D02*
D03*
X718988Y233258D02*
D03*
X722488D02*
D03*
X727207Y214758D02*
D03*
X742988Y238758D02*
D03*
X685488Y243258D02*
D03*
Y246758D02*
D03*
X700488Y224258D02*
D03*
X742988Y232758D02*
D03*
Y235758D02*
D03*
X735988Y219758D02*
D03*
X712488Y345758D02*
D03*
X708988D02*
D03*
X705488D02*
D03*
X750488D02*
D03*
X753988D02*
D03*
X737988Y339258D02*
D03*
X734988D02*
D03*
X731988D02*
D03*
X741488Y334758D02*
D03*
X728488D02*
D03*
X701988Y335758D02*
D03*
X698488Y338758D02*
D03*
Y335758D02*
D03*
X694988Y338758D02*
D03*
X701988Y332758D02*
D03*
X742988Y328258D02*
D03*
X754488Y332258D02*
D03*
X750988Y335258D02*
D03*
X754488D02*
D03*
X750988Y338258D02*
D03*
X754488D02*
D03*
X750988Y341258D02*
D03*
X754488D02*
D03*
X632488Y246758D02*
D03*
X638488Y251258D02*
D03*
X460488Y328258D02*
D03*
X498988Y323258D02*
D03*
X467488Y322258D02*
D03*
X498988Y319758D02*
D03*
X566988Y327758D02*
D03*
X578488D02*
D03*
X225606Y271193D02*
D03*
Y278417D02*
D03*
X229218Y267580D02*
D03*
Y274805D02*
D03*
Y282029D02*
D03*
X232831Y271193D02*
D03*
Y278417D02*
D03*
X236443Y267580D02*
D03*
Y274805D02*
D03*
Y282029D02*
D03*
X240055Y271193D02*
D03*
Y278417D02*
D03*
X276512Y239742D02*
D03*
X274512Y233742D02*
D03*
X267512Y224242D02*
D03*
X267012Y233742D02*
D03*
X323512Y220742D02*
D03*
X340512Y237242D02*
D03*
X222012Y231742D02*
D03*
X225228Y234242D02*
D03*
X339512Y295242D02*
D03*
Y298242D02*
D03*
X377012Y310742D02*
D03*
Y315242D02*
D03*
X414012Y310242D02*
D03*
Y325242D02*
D03*
X409012Y322742D02*
D03*
Y327742D02*
D03*
Y332742D02*
D03*
X414012Y335242D02*
D03*
Y330242D02*
D03*
X399012Y332742D02*
D03*
X404012Y335242D02*
D03*
Y330242D02*
D03*
X394012D02*
D03*
Y335242D02*
D03*
X389012Y332742D02*
D03*
X379012D02*
D03*
Y337742D02*
D03*
Y342742D02*
D03*
X384012Y330242D02*
D03*
Y335242D02*
D03*
Y340242D02*
D03*
Y345242D02*
D03*
Y350242D02*
D03*
X379012Y347742D02*
D03*
X374012Y350242D02*
D03*
X369012Y347742D02*
D03*
X364012Y350242D02*
D03*
X359012Y347742D02*
D03*
X354012Y350242D02*
D03*
X414012Y320242D02*
D03*
Y315242D02*
D03*
X422512Y326742D02*
D03*
Y332242D02*
D03*
X433012Y335742D02*
D03*
X430012Y331742D02*
D03*
X433012Y328242D02*
D03*
X430012Y324742D02*
D03*
X433012Y321242D02*
D03*
X430012Y317742D02*
D03*
X433012Y314742D02*
D03*
X430012Y311742D02*
D03*
X433012Y308742D02*
D03*
X430012Y305742D02*
D03*
X351012Y301242D02*
D03*
Y304242D02*
D03*
X347512Y307742D02*
D03*
Y311742D02*
D03*
Y315742D02*
D03*
X343512D02*
D03*
X364012Y332742D02*
D03*
X361012Y329742D02*
D03*
X358012Y332742D02*
D03*
X349512Y329242D02*
D03*
X346012Y331742D02*
D03*
X342512Y329242D02*
D03*
X339012Y331742D02*
D03*
X335512Y329242D02*
D03*
X332012Y331742D02*
D03*
X328512Y329242D02*
D03*
X325012Y331742D02*
D03*
X335512Y349242D02*
D03*
X325012D02*
D03*
X315012D02*
D03*
X310512Y335242D02*
D03*
X313012Y338742D02*
D03*
X308012D02*
D03*
X302512Y335242D02*
D03*
X290012Y329242D02*
D03*
Y333242D02*
D03*
X294012Y329242D02*
D03*
X298012Y333242D02*
D03*
Y329242D02*
D03*
X294012Y333242D02*
D03*
X290012Y337242D02*
D03*
X430012Y283742D02*
D03*
Y274742D02*
D03*
Y265742D02*
D03*
X395512Y274742D02*
D03*
Y265742D02*
D03*
X399012Y288242D02*
D03*
Y279242D02*
D03*
Y270242D02*
D03*
X403512Y265742D02*
D03*
Y274742D02*
D03*
Y283742D02*
D03*
X408012Y270242D02*
D03*
Y279242D02*
D03*
X413012Y265742D02*
D03*
X412512Y274742D02*
D03*
Y283742D02*
D03*
X421512Y265742D02*
D03*
X417012Y270242D02*
D03*
Y279242D02*
D03*
X421512Y274742D02*
D03*
Y283742D02*
D03*
X420512Y248242D02*
D03*
Y253742D02*
D03*
X430512Y250742D02*
D03*
X428012Y246742D02*
D03*
X397012Y237742D02*
D03*
X430512Y242242D02*
D03*
X427512Y227742D02*
D03*
X417512Y238242D02*
D03*
X420012Y235242D02*
D03*
X417512Y232242D02*
D03*
X413512D02*
D03*
X419512Y220242D02*
D03*
X416512Y216742D02*
D03*
X413012Y220242D02*
D03*
X406012D02*
D03*
X409512Y216742D02*
D03*
X413012Y213242D02*
D03*
X409512Y203242D02*
D03*
X402512D02*
D03*
X399512Y206242D02*
D03*
Y213242D02*
D03*
X402512Y209742D02*
D03*
X406012Y206242D02*
D03*
X413012D02*
D03*
X409512Y209742D02*
D03*
X406012Y213242D02*
D03*
X402512Y216742D02*
D03*
X399512Y220242D02*
D03*
X396512Y223742D02*
D03*
X394012Y227242D02*
D03*
X391512Y230742D02*
D03*
X394012Y234242D02*
D03*
X391512Y237742D02*
D03*
X380512Y202742D02*
D03*
X310512Y213242D02*
D03*
X321012Y204742D02*
D03*
X317512Y207742D02*
D03*
X314012Y210742D02*
D03*
Y204742D02*
D03*
X310512Y207742D02*
D03*
X307012Y210742D02*
D03*
Y204742D02*
D03*
X303512Y207742D02*
D03*
X300512Y210742D02*
D03*
X335012Y237242D02*
D03*
X326012D02*
D03*
X314012D02*
D03*
X307512D02*
D03*
X296012Y226742D02*
D03*
X297512Y213742D02*
D03*
X292512Y219742D02*
D03*
X295012Y216742D02*
D03*
X290012D02*
D03*
X287512Y204242D02*
D03*
X265512Y220242D02*
D03*
X226012Y296742D02*
D03*
Y292242D02*
D03*
X265012Y303742D02*
D03*
Y299742D02*
D03*
Y295742D02*
D03*
Y262242D02*
D03*
Y266242D02*
D03*
X277012Y310742D02*
D03*
Y315242D02*
D03*
X307012Y270742D02*
D03*
X316012Y279242D02*
D03*
X307012D02*
D03*
X311512Y275242D02*
D03*
Y282742D02*
D03*
Y290742D02*
D03*
Y297242D02*
D03*
X302512D02*
D03*
Y290742D02*
D03*
Y275242D02*
D03*
Y282742D02*
D03*
X294012Y297242D02*
D03*
X290512Y293742D02*
D03*
X294012Y290742D02*
D03*
X290512Y286742D02*
D03*
X294012Y282742D02*
D03*
X290512Y278742D02*
D03*
X294012Y274742D02*
D03*
X290512Y270742D02*
D03*
X284012Y290742D02*
D03*
Y286742D02*
D03*
Y282742D02*
D03*
Y278742D02*
D03*
Y274742D02*
D03*
Y270742D02*
D03*
Y266742D02*
D03*
X280012Y290742D02*
D03*
Y286742D02*
D03*
Y282742D02*
D03*
Y278742D02*
D03*
Y274742D02*
D03*
Y270742D02*
D03*
Y266742D02*
D03*
X226012Y287742D02*
D03*
X243512Y253242D02*
D03*
Y259242D02*
D03*
X226012Y254742D02*
D03*
X229512Y259242D02*
D03*
X236512D02*
D03*
X240012Y262742D02*
D03*
X233012D02*
D03*
X226012D02*
D03*
X275512Y319742D02*
D03*
Y324242D02*
D03*
Y328742D02*
D03*
X262012Y324742D02*
D03*
X204012Y300742D02*
D03*
X204512Y333742D02*
D03*
Y337742D02*
D03*
X219512Y301242D02*
D03*
X220012Y352242D02*
D03*
X217012Y349742D02*
D03*
X204012Y260242D02*
D03*
Y256242D02*
D03*
Y252242D02*
D03*
X204512Y215242D02*
D03*
X361012Y313242D02*
D03*
X364012Y316242D02*
D03*
X362012Y239742D02*
D03*
X363012Y230242D02*
D03*
X327512Y224242D02*
D03*
X340012Y278742D02*
D03*
Y282742D02*
D03*
X346012Y286242D02*
D03*
X342012D02*
D03*
X340012Y289742D02*
D03*
X344012D02*
D03*
X348012D02*
D03*
X390512Y296742D02*
D03*
Y300742D02*
D03*
X388012Y298742D02*
D03*
X385012Y296742D02*
D03*
Y300742D02*
D03*
X382012Y298242D02*
D03*
Y294242D02*
D03*
Y290242D02*
D03*
Y286742D02*
D03*
X378012D02*
D03*
X380012Y283742D02*
D03*
X364512Y280242D02*
D03*
Y277242D02*
D03*
Y283242D02*
D03*
X341512Y263242D02*
D03*
Y266742D02*
D03*
X345012D02*
D03*
Y263242D02*
D03*
X348512D02*
D03*
Y266742D02*
D03*
X364012Y313242D02*
D03*
X361012Y316242D02*
D03*
X347512Y304242D02*
D03*
X344012D02*
D03*
X347512Y301242D02*
D03*
X344012D02*
D03*
X347512Y298242D02*
D03*
X344012D02*
D03*
X347512Y295242D02*
D03*
X344012D02*
D03*
X299512Y236742D02*
D03*
X284512Y224742D02*
D03*
X281012D02*
D03*
X284512Y218742D02*
D03*
X281012Y221742D02*
D03*
X284512D02*
D03*
X277512Y224742D02*
D03*
X323012Y217242D02*
D03*
X332012Y217742D02*
D03*
X340512Y205242D02*
D03*
X346012Y204742D02*
D03*
X231512Y203742D02*
D03*
X300512Y204242D02*
D03*
X229931Y216242D02*
D03*
X229012Y211742D02*
D03*
X231512Y219242D02*
D03*
X225012Y225242D02*
D03*
X258012Y228742D02*
D03*
X263512Y233742D02*
D03*
X255512Y329742D02*
D03*
X263012Y337423D02*
D03*
Y341742D02*
D03*
X257512Y335242D02*
D03*
Y338742D02*
D03*
X275512Y342061D02*
D03*
X270012Y333242D02*
D03*
X275512Y337742D02*
D03*
X296012Y338242D02*
D03*
X280512Y333242D02*
D03*
X243230Y328661D02*
D03*
X233012Y330661D02*
D03*
X221012Y251242D02*
D03*
X220012Y306242D02*
D03*
X223512D02*
D03*
X296012Y341742D02*
D03*
X233012Y327742D02*
D03*
X274012Y218742D02*
D03*
X288012Y259242D02*
D03*
Y301742D02*
D03*
X290512Y306242D02*
D03*
X284012Y301742D02*
D03*
X240012Y340742D02*
D03*
X406012Y232242D02*
D03*
X397512Y307242D02*
D03*
X393012D02*
D03*
X388512D02*
D03*
X384012D02*
D03*
X400012Y310742D02*
D03*
X395512D02*
D03*
X391012D02*
D03*
X386512D02*
D03*
X382012D02*
D03*
X304512Y331242D02*
D03*
Y328242D02*
D03*
X327512Y300242D02*
D03*
X323512D02*
D03*
X329512Y303742D02*
D03*
X325512D02*
D03*
X321512D02*
D03*
X390012Y253742D02*
D03*
X386512D02*
D03*
X390012Y250742D02*
D03*
X386512D02*
D03*
X390012Y247742D02*
D03*
X386512D02*
D03*
X390012Y244742D02*
D03*
X386512D02*
D03*
X237512Y303742D02*
D03*
X234012D02*
D03*
X230512D02*
D03*
X256012Y211742D02*
D03*
X248512Y229242D02*
D03*
X429012Y339242D02*
D03*
X425512Y336242D02*
D03*
X257012Y324242D02*
D03*
X253512D02*
D03*
X248793Y342742D02*
D03*
X233012Y318742D02*
D03*
X290512Y314242D02*
D03*
Y310742D02*
D03*
X275512Y333242D02*
D03*
X233012Y324742D02*
D03*
Y321742D02*
D03*
X240012Y337742D02*
D03*
X263512Y211742D02*
D03*
X267012D02*
D03*
X270512D02*
D03*
X225512D02*
D03*
X222012D02*
D03*
X238012Y218242D02*
D03*
X241012D02*
D03*
X244012D02*
D03*
X234512Y222742D02*
D03*
X247512D02*
D03*
X274012Y221742D02*
D03*
X277512Y218742D02*
D03*
Y221742D02*
D03*
X281012Y218742D02*
D03*
X274012Y224742D02*
D03*
X233012Y229242D02*
D03*
X221512Y225242D02*
D03*
X225012Y222242D02*
D03*
X221512D02*
D03*
X225012Y219242D02*
D03*
X221512D02*
D03*
X225012Y216242D02*
D03*
X221512D02*
D03*
X343512Y310742D02*
D03*
X337512Y306242D02*
D03*
X515512Y229242D02*
D03*
X477012Y234242D02*
D03*
X508512Y235242D02*
D03*
X477012Y237742D02*
D03*
X409012Y229742D02*
D03*
X397512D02*
D03*
D57*
X516488Y336258D02*
D03*
X583988Y341758D02*
D03*
X459512Y221242D02*
D03*
X392012Y215742D02*
D03*
M02*
